%TF.GenerationSoftware,KiCad,Pcbnew,(5.1.10)-1*%
%TF.CreationDate,2022-02-13T15:16:36-05:00*%
%TF.ProjectId,wristband,77726973-7462-4616-9e64-2e6b69636164,rev?*%
%TF.SameCoordinates,Original*%
%TF.FileFunction,Legend,Top*%
%TF.FilePolarity,Positive*%
%FSLAX46Y46*%
G04 Gerber Fmt 4.6, Leading zero omitted, Abs format (unit mm)*
G04 Created by KiCad (PCBNEW (5.1.10)-1) date 2022-02-13 15:16:36*
%MOMM*%
%LPD*%
G01*
G04 APERTURE LIST*
%ADD10C,0.150000*%
%ADD11C,0.120000*%
%ADD12C,0.127000*%
G04 APERTURE END LIST*
D10*
X93942857Y-103828571D02*
X94085714Y-103876190D01*
X94133333Y-103923809D01*
X94180952Y-104019047D01*
X94180952Y-104161904D01*
X94133333Y-104257142D01*
X94085714Y-104304761D01*
X93990476Y-104352380D01*
X93609523Y-104352380D01*
X93609523Y-103352380D01*
X93942857Y-103352380D01*
X94038095Y-103400000D01*
X94085714Y-103447619D01*
X94133333Y-103542857D01*
X94133333Y-103638095D01*
X94085714Y-103733333D01*
X94038095Y-103780952D01*
X93942857Y-103828571D01*
X93609523Y-103828571D01*
X94800000Y-103352380D02*
X94990476Y-103352380D01*
X95085714Y-103400000D01*
X95180952Y-103495238D01*
X95228571Y-103685714D01*
X95228571Y-104019047D01*
X95180952Y-104209523D01*
X95085714Y-104304761D01*
X94990476Y-104352380D01*
X94800000Y-104352380D01*
X94704761Y-104304761D01*
X94609523Y-104209523D01*
X94561904Y-104019047D01*
X94561904Y-103685714D01*
X94609523Y-103495238D01*
X94704761Y-103400000D01*
X94800000Y-103352380D01*
X95847619Y-103352380D02*
X96038095Y-103352380D01*
X96133333Y-103400000D01*
X96228571Y-103495238D01*
X96276190Y-103685714D01*
X96276190Y-104019047D01*
X96228571Y-104209523D01*
X96133333Y-104304761D01*
X96038095Y-104352380D01*
X95847619Y-104352380D01*
X95752380Y-104304761D01*
X95657142Y-104209523D01*
X95609523Y-104019047D01*
X95609523Y-103685714D01*
X95657142Y-103495238D01*
X95752380Y-103400000D01*
X95847619Y-103352380D01*
X96561904Y-103352380D02*
X97133333Y-103352380D01*
X96847619Y-104352380D02*
X96847619Y-103352380D01*
X131219047Y-80771428D02*
X131980952Y-80771428D01*
X131600000Y-81152380D02*
X131600000Y-80390476D01*
D11*
%TO.C,TP6*%
X136700000Y-75000000D02*
G75*
G03*
X136700000Y-75000000I-1700000J0D01*
G01*
%TO.C,TP5*%
X128500000Y-112800000D02*
G75*
G03*
X128500000Y-112800000I-1700000J0D01*
G01*
%TO.C,TP4*%
X134100000Y-107200000D02*
G75*
G03*
X134100000Y-107200000I-1700000J0D01*
G01*
%TO.C,TP3*%
X133900000Y-112800000D02*
G75*
G03*
X133900000Y-112800000I-1700000J0D01*
G01*
%TO.C,TP2*%
X129700000Y-107200000D02*
G75*
G03*
X129700000Y-107200000I-1700000J0D01*
G01*
%TO.C,TP1*%
X136100000Y-81000000D02*
G75*
G03*
X136100000Y-81000000I-1700000J0D01*
G01*
D12*
%TO.C,P1*%
X105100000Y-98500000D02*
X102850000Y-98500000D01*
X102850000Y-98500000D02*
X102850000Y-101400000D01*
X108600000Y-98500000D02*
X110850000Y-98500000D01*
X110850000Y-98500000D02*
X110850000Y-101400000D01*
X105050000Y-102250000D02*
G75*
G03*
X105050000Y-102250000I-50000J0D01*
G01*
D11*
%TO.C,F1*%
X132110000Y-88971267D02*
X132110000Y-88628733D01*
X131090000Y-88971267D02*
X131090000Y-88628733D01*
%TO.C,J3*%
X128270000Y-67670000D02*
X129600000Y-67670000D01*
X128270000Y-69000000D02*
X128270000Y-67670000D01*
X128270000Y-70270000D02*
X130930000Y-70270000D01*
X130930000Y-70270000D02*
X130930000Y-77950000D01*
X128270000Y-70270000D02*
X128270000Y-77950000D01*
X128270000Y-77950000D02*
X130930000Y-77950000D01*
%TO.C,J2*%
X88070000Y-66530000D02*
X89400000Y-66530000D01*
X88070000Y-67860000D02*
X88070000Y-66530000D01*
X88070000Y-69130000D02*
X90730000Y-69130000D01*
X90730000Y-69130000D02*
X90730000Y-76810000D01*
X88070000Y-69130000D02*
X88070000Y-76810000D01*
X88070000Y-76810000D02*
X90730000Y-76810000D01*
%TO.C,C1*%
X136910000Y-93146267D02*
X136910000Y-92853733D01*
X135890000Y-93146267D02*
X135890000Y-92853733D01*
%TO.C,C2*%
X98910000Y-79991233D02*
X98910000Y-80283767D01*
X97890000Y-79991233D02*
X97890000Y-80283767D01*
%TO.C,C3*%
X97890000Y-75591233D02*
X97890000Y-75883767D01*
X98910000Y-75591233D02*
X98910000Y-75883767D01*
%TO.C,C4*%
X107510000Y-96083767D02*
X107510000Y-95791233D01*
X106490000Y-96083767D02*
X106490000Y-95791233D01*
%TO.C,C5*%
X133510000Y-69791233D02*
X133510000Y-70083767D01*
X132490000Y-69791233D02*
X132490000Y-70083767D01*
%TO.C,C6*%
X117791233Y-103490000D02*
X118083767Y-103490000D01*
X117791233Y-104510000D02*
X118083767Y-104510000D01*
%TO.C,C7*%
X116283767Y-99090000D02*
X115991233Y-99090000D01*
X116283767Y-100110000D02*
X115991233Y-100110000D01*
%TO.C,C8*%
X125883767Y-92690000D02*
X125591233Y-92690000D01*
X125883767Y-93710000D02*
X125591233Y-93710000D01*
%TO.C,C9*%
X130283767Y-91490000D02*
X129991233Y-91490000D01*
X130283767Y-92510000D02*
X129991233Y-92510000D01*
%TO.C,C10*%
X134690000Y-89008767D02*
X134690000Y-88716233D01*
X135710000Y-89008767D02*
X135710000Y-88716233D01*
%TO.C,C11*%
X127510000Y-102591233D02*
X127510000Y-102883767D01*
X126490000Y-102591233D02*
X126490000Y-102883767D01*
%TO.C,C12*%
X135110000Y-102791233D02*
X135110000Y-103083767D01*
X134090000Y-102791233D02*
X134090000Y-103083767D01*
%TO.C,C13*%
X110290000Y-95683767D02*
X110290000Y-95391233D01*
X111310000Y-95683767D02*
X111310000Y-95391233D01*
%TO.C,C14*%
X96683767Y-109290000D02*
X96391233Y-109290000D01*
X96683767Y-110310000D02*
X96391233Y-110310000D01*
%TO.C,D1*%
X99329600Y-112158240D02*
X99329600Y-112524000D01*
X104866800Y-109841760D02*
X104866800Y-109476000D01*
X104866800Y-112524000D02*
X104866800Y-112158240D01*
X99329600Y-112524000D02*
X104866800Y-112524000D01*
X99329600Y-109476000D02*
X99329600Y-109841760D01*
X104866800Y-109476000D02*
X99329600Y-109476000D01*
X105501800Y-111635000D02*
X105501800Y-110365000D01*
X106263800Y-111000000D02*
X105501800Y-110873000D01*
X106263800Y-111000000D02*
X105501800Y-110746000D01*
X106263800Y-111000000D02*
X105501800Y-110619000D01*
X106263800Y-111000000D02*
X105501800Y-110492000D01*
X106263800Y-111000000D02*
X105501800Y-110365000D01*
X106263800Y-111000000D02*
X105501800Y-111127000D01*
X106263800Y-111000000D02*
X105501800Y-111254000D01*
X106263800Y-111000000D02*
X105501800Y-111381000D01*
X106263800Y-111000000D02*
X105501800Y-111508000D01*
X106263800Y-111000000D02*
X105501800Y-111635000D01*
X106263800Y-111635000D02*
X106263800Y-110365000D01*
X105247800Y-111000000D02*
X106517800Y-111000000D01*
%TO.C,D2*%
X111865000Y-110135000D02*
X114325000Y-110135000D01*
X111865000Y-108665000D02*
X111865000Y-110135000D01*
X114325000Y-108665000D02*
X111865000Y-108665000D01*
%TO.C,D3*%
X110735000Y-110525000D02*
X110735000Y-108065000D01*
X110735000Y-108065000D02*
X109265000Y-108065000D01*
X109265000Y-108065000D02*
X109265000Y-110525000D01*
%TO.C,Q1*%
X121020000Y-102760000D02*
X121950000Y-102760000D01*
X124180000Y-102760000D02*
X123250000Y-102760000D01*
X124180000Y-102760000D02*
X124180000Y-100600000D01*
X121020000Y-102760000D02*
X121020000Y-101300000D01*
%TO.C,Q2*%
X127160000Y-98780000D02*
X125700000Y-98780000D01*
X127160000Y-95620000D02*
X125000000Y-95620000D01*
X127160000Y-95620000D02*
X127160000Y-96550000D01*
X127160000Y-98780000D02*
X127160000Y-97850000D01*
%TO.C,Q3*%
X89440000Y-110670000D02*
X90900000Y-110670000D01*
X89440000Y-113830000D02*
X91600000Y-113830000D01*
X89440000Y-113830000D02*
X89440000Y-112900000D01*
X89440000Y-110670000D02*
X89440000Y-111600000D01*
%TO.C,Q4*%
X99360000Y-107780000D02*
X99360000Y-106850000D01*
X99360000Y-104620000D02*
X99360000Y-105550000D01*
X99360000Y-104620000D02*
X97200000Y-104620000D01*
X99360000Y-107780000D02*
X97900000Y-107780000D01*
%TO.C,R1*%
X122877500Y-85632776D02*
X122877500Y-86142224D01*
X123922500Y-85632776D02*
X123922500Y-86142224D01*
%TO.C,R2*%
X95942224Y-92677500D02*
X95432776Y-92677500D01*
X95942224Y-93722500D02*
X95432776Y-93722500D01*
%TO.C,R3*%
X99942224Y-93722500D02*
X99432776Y-93722500D01*
X99942224Y-92677500D02*
X99432776Y-92677500D01*
%TO.C,R4*%
X104322500Y-95432776D02*
X104322500Y-95942224D01*
X103277500Y-95432776D02*
X103277500Y-95942224D01*
%TO.C,R5*%
X122122500Y-94942224D02*
X122122500Y-94432776D01*
X121077500Y-94942224D02*
X121077500Y-94432776D01*
%TO.C,R6*%
X121745276Y-98077500D02*
X122254724Y-98077500D01*
X121745276Y-99122500D02*
X122254724Y-99122500D01*
%TO.C,R7*%
X102322500Y-105742224D02*
X102322500Y-105232776D01*
X101277500Y-105742224D02*
X101277500Y-105232776D01*
%TO.C,R8*%
X104922500Y-105767224D02*
X104922500Y-105257776D01*
X103877500Y-105767224D02*
X103877500Y-105257776D01*
%TO.C,R9*%
X113232776Y-106922500D02*
X113742224Y-106922500D01*
X113232776Y-105877500D02*
X113742224Y-105877500D01*
%TO.C,R10*%
X108122500Y-109432776D02*
X108122500Y-109942224D01*
X107077500Y-109432776D02*
X107077500Y-109942224D01*
%TO.C,R11*%
X95922500Y-84432776D02*
X95922500Y-84942224D01*
X94877500Y-84432776D02*
X94877500Y-84942224D01*
%TO.C,R12*%
X97877500Y-88742224D02*
X97877500Y-88232776D01*
X98922500Y-88742224D02*
X98922500Y-88232776D01*
%TO.C,R13*%
X95522500Y-80442224D02*
X95522500Y-79932776D01*
X94477500Y-80442224D02*
X94477500Y-79932776D01*
%TO.C,R14*%
X94122500Y-112342224D02*
X94122500Y-111832776D01*
X93077500Y-112342224D02*
X93077500Y-111832776D01*
%TO.C,R15*%
X95122500Y-106145276D02*
X95122500Y-106654724D01*
X94077500Y-106145276D02*
X94077500Y-106654724D01*
%TO.C,R16*%
X86677500Y-111857776D02*
X86677500Y-112367224D01*
X87722500Y-111857776D02*
X87722500Y-112367224D01*
%TO.C,R17*%
X127277500Y-85942224D02*
X127277500Y-85432776D01*
X128322500Y-85942224D02*
X128322500Y-85432776D01*
%TO.C,R18*%
X124477500Y-108542224D02*
X124477500Y-108032776D01*
X125522500Y-108542224D02*
X125522500Y-108032776D01*
%TO.C,R19*%
X113232776Y-104522500D02*
X113742224Y-104522500D01*
X113232776Y-103477500D02*
X113742224Y-103477500D01*
%TO.C,SW1*%
X86300000Y-85900000D02*
X93300000Y-85900000D01*
X93300000Y-85900000D02*
X93300000Y-92900000D01*
X93300000Y-92900000D02*
X86300000Y-92900000D01*
X86300000Y-92900000D02*
X86300000Y-85900000D01*
%TO.C,SW2*%
X86300000Y-101100000D02*
X86300000Y-94100000D01*
X93300000Y-101100000D02*
X86300000Y-101100000D01*
X93300000Y-94100000D02*
X93300000Y-101100000D01*
X86300000Y-94100000D02*
X93300000Y-94100000D01*
%TO.C,SW3*%
X86300000Y-77800000D02*
X93300000Y-77800000D01*
X93300000Y-77800000D02*
X93300000Y-84800000D01*
X93300000Y-84800000D02*
X86300000Y-84800000D01*
X86300000Y-84800000D02*
X86300000Y-77800000D01*
%TO.C,SW4*%
X86300000Y-109300000D02*
X86300000Y-102300000D01*
X93300000Y-109300000D02*
X86300000Y-109300000D01*
X93300000Y-102300000D02*
X93300000Y-109300000D01*
X86300000Y-102300000D02*
X93300000Y-102300000D01*
%TO.C,U1*%
X102680000Y-72355000D02*
X102300000Y-72355000D01*
X102680000Y-65935000D02*
X102680000Y-72355000D01*
X120920000Y-65935000D02*
X120920000Y-72355000D01*
X102680000Y-65935000D02*
X120920000Y-65935000D01*
X120920000Y-91680000D02*
X119920000Y-91680000D01*
X120920000Y-90900000D02*
X120920000Y-91680000D01*
X102680000Y-91680000D02*
X103680000Y-91680000D01*
X102680000Y-90900000D02*
X102680000Y-91680000D01*
%TO.C,U2*%
X100485000Y-100410000D02*
X101210000Y-100410000D01*
X95990000Y-95190000D02*
X95990000Y-95915000D01*
X96715000Y-95190000D02*
X95990000Y-95190000D01*
X101210000Y-95190000D02*
X101210000Y-95915000D01*
X100485000Y-95190000D02*
X101210000Y-95190000D01*
X95990000Y-100410000D02*
X95990000Y-99685000D01*
X96715000Y-100410000D02*
X95990000Y-100410000D01*
%TO.C,U3*%
X119200000Y-115360000D02*
X122650000Y-115360000D01*
X119200000Y-115360000D02*
X117250000Y-115360000D01*
X119200000Y-110240000D02*
X121150000Y-110240000D01*
X119200000Y-110240000D02*
X117250000Y-110240000D01*
%TO.C,U4*%
X119100000Y-109010000D02*
X122050000Y-109010000D01*
X120900000Y-105790000D02*
X119100000Y-105790000D01*
%TO.C,U5*%
X117100000Y-93390000D02*
X115300000Y-93390000D01*
X115300000Y-96610000D02*
X117750000Y-96610000D01*
%TO.C,U6*%
X107500000Y-107210000D02*
X109950000Y-107210000D01*
X109300000Y-103990000D02*
X107500000Y-103990000D01*
%TO.C,U7*%
X132500000Y-94390000D02*
X130050000Y-94390000D01*
X130700000Y-97610000D02*
X132500000Y-97610000D01*
%TO.C,U8*%
X130272900Y-104574800D02*
X132127100Y-104574800D01*
X132127100Y-103403860D02*
X132127100Y-102596140D01*
X132127100Y-101425200D02*
X130272900Y-101425200D01*
%TO.C,TP6*%
D10*
X133738095Y-71954380D02*
X134309523Y-71954380D01*
X134023809Y-72954380D02*
X134023809Y-71954380D01*
X134642857Y-72954380D02*
X134642857Y-71954380D01*
X135023809Y-71954380D01*
X135119047Y-72002000D01*
X135166666Y-72049619D01*
X135214285Y-72144857D01*
X135214285Y-72287714D01*
X135166666Y-72382952D01*
X135119047Y-72430571D01*
X135023809Y-72478190D01*
X134642857Y-72478190D01*
X136071428Y-71954380D02*
X135880952Y-71954380D01*
X135785714Y-72002000D01*
X135738095Y-72049619D01*
X135642857Y-72192476D01*
X135595238Y-72382952D01*
X135595238Y-72763904D01*
X135642857Y-72859142D01*
X135690476Y-72906761D01*
X135785714Y-72954380D01*
X135976190Y-72954380D01*
X136071428Y-72906761D01*
X136119047Y-72859142D01*
X136166666Y-72763904D01*
X136166666Y-72525809D01*
X136119047Y-72430571D01*
X136071428Y-72382952D01*
X135976190Y-72335333D01*
X135785714Y-72335333D01*
X135690476Y-72382952D01*
X135642857Y-72430571D01*
X135595238Y-72525809D01*
%TO.C,TP5*%
X125538095Y-109754380D02*
X126109523Y-109754380D01*
X125823809Y-110754380D02*
X125823809Y-109754380D01*
X126442857Y-110754380D02*
X126442857Y-109754380D01*
X126823809Y-109754380D01*
X126919047Y-109802000D01*
X126966666Y-109849619D01*
X127014285Y-109944857D01*
X127014285Y-110087714D01*
X126966666Y-110182952D01*
X126919047Y-110230571D01*
X126823809Y-110278190D01*
X126442857Y-110278190D01*
X127919047Y-109754380D02*
X127442857Y-109754380D01*
X127395238Y-110230571D01*
X127442857Y-110182952D01*
X127538095Y-110135333D01*
X127776190Y-110135333D01*
X127871428Y-110182952D01*
X127919047Y-110230571D01*
X127966666Y-110325809D01*
X127966666Y-110563904D01*
X127919047Y-110659142D01*
X127871428Y-110706761D01*
X127776190Y-110754380D01*
X127538095Y-110754380D01*
X127442857Y-110706761D01*
X127395238Y-110659142D01*
%TO.C,TP4*%
X131138095Y-104154380D02*
X131709523Y-104154380D01*
X131423809Y-105154380D02*
X131423809Y-104154380D01*
X132042857Y-105154380D02*
X132042857Y-104154380D01*
X132423809Y-104154380D01*
X132519047Y-104202000D01*
X132566666Y-104249619D01*
X132614285Y-104344857D01*
X132614285Y-104487714D01*
X132566666Y-104582952D01*
X132519047Y-104630571D01*
X132423809Y-104678190D01*
X132042857Y-104678190D01*
X133471428Y-104487714D02*
X133471428Y-105154380D01*
X133233333Y-104106761D02*
X132995238Y-104821047D01*
X133614285Y-104821047D01*
%TO.C,TP3*%
X130938095Y-109754380D02*
X131509523Y-109754380D01*
X131223809Y-110754380D02*
X131223809Y-109754380D01*
X131842857Y-110754380D02*
X131842857Y-109754380D01*
X132223809Y-109754380D01*
X132319047Y-109802000D01*
X132366666Y-109849619D01*
X132414285Y-109944857D01*
X132414285Y-110087714D01*
X132366666Y-110182952D01*
X132319047Y-110230571D01*
X132223809Y-110278190D01*
X131842857Y-110278190D01*
X132747619Y-109754380D02*
X133366666Y-109754380D01*
X133033333Y-110135333D01*
X133176190Y-110135333D01*
X133271428Y-110182952D01*
X133319047Y-110230571D01*
X133366666Y-110325809D01*
X133366666Y-110563904D01*
X133319047Y-110659142D01*
X133271428Y-110706761D01*
X133176190Y-110754380D01*
X132890476Y-110754380D01*
X132795238Y-110706761D01*
X132747619Y-110659142D01*
%TO.C,TP2*%
X126738095Y-104154380D02*
X127309523Y-104154380D01*
X127023809Y-105154380D02*
X127023809Y-104154380D01*
X127642857Y-105154380D02*
X127642857Y-104154380D01*
X128023809Y-104154380D01*
X128119047Y-104202000D01*
X128166666Y-104249619D01*
X128214285Y-104344857D01*
X128214285Y-104487714D01*
X128166666Y-104582952D01*
X128119047Y-104630571D01*
X128023809Y-104678190D01*
X127642857Y-104678190D01*
X128595238Y-104249619D02*
X128642857Y-104202000D01*
X128738095Y-104154380D01*
X128976190Y-104154380D01*
X129071428Y-104202000D01*
X129119047Y-104249619D01*
X129166666Y-104344857D01*
X129166666Y-104440095D01*
X129119047Y-104582952D01*
X128547619Y-105154380D01*
X129166666Y-105154380D01*
%TO.C,TP1*%
X133138095Y-77954380D02*
X133709523Y-77954380D01*
X133423809Y-78954380D02*
X133423809Y-77954380D01*
X134042857Y-78954380D02*
X134042857Y-77954380D01*
X134423809Y-77954380D01*
X134519047Y-78002000D01*
X134566666Y-78049619D01*
X134614285Y-78144857D01*
X134614285Y-78287714D01*
X134566666Y-78382952D01*
X134519047Y-78430571D01*
X134423809Y-78478190D01*
X134042857Y-78478190D01*
X135566666Y-78954380D02*
X134995238Y-78954380D01*
X135280952Y-78954380D02*
X135280952Y-77954380D01*
X135185714Y-78097238D01*
X135090476Y-78192476D01*
X134995238Y-78240095D01*
%TO.C,P1*%
X101492464Y-100272447D02*
X101492464Y-99471093D01*
X101797742Y-99471093D01*
X101874061Y-99509253D01*
X101912221Y-99547412D01*
X101950381Y-99623732D01*
X101950381Y-99738211D01*
X101912221Y-99814530D01*
X101874061Y-99852690D01*
X101797742Y-99890850D01*
X101492464Y-99890850D01*
X102713575Y-100272447D02*
X102255658Y-100272447D01*
X102484617Y-100272447D02*
X102484617Y-99471093D01*
X102408297Y-99585572D01*
X102331978Y-99661891D01*
X102255658Y-99700051D01*
%TO.C,F1*%
X130098571Y-89133333D02*
X130098571Y-89466666D01*
X130622380Y-89466666D02*
X129622380Y-89466666D01*
X129622380Y-88990476D01*
X130622380Y-88085714D02*
X130622380Y-88657142D01*
X130622380Y-88371428D02*
X129622380Y-88371428D01*
X129765238Y-88466666D01*
X129860476Y-88561904D01*
X129908095Y-88657142D01*
%TO.C,J3*%
X129266666Y-66122380D02*
X129266666Y-66836666D01*
X129219047Y-66979523D01*
X129123809Y-67074761D01*
X128980952Y-67122380D01*
X128885714Y-67122380D01*
X129647619Y-66122380D02*
X130266666Y-66122380D01*
X129933333Y-66503333D01*
X130076190Y-66503333D01*
X130171428Y-66550952D01*
X130219047Y-66598571D01*
X130266666Y-66693809D01*
X130266666Y-66931904D01*
X130219047Y-67027142D01*
X130171428Y-67074761D01*
X130076190Y-67122380D01*
X129790476Y-67122380D01*
X129695238Y-67074761D01*
X129647619Y-67027142D01*
%TO.C,J2*%
X92466666Y-69912380D02*
X92466666Y-70626666D01*
X92419047Y-70769523D01*
X92323809Y-70864761D01*
X92180952Y-70912380D01*
X92085714Y-70912380D01*
X92895238Y-70007619D02*
X92942857Y-69960000D01*
X93038095Y-69912380D01*
X93276190Y-69912380D01*
X93371428Y-69960000D01*
X93419047Y-70007619D01*
X93466666Y-70102857D01*
X93466666Y-70198095D01*
X93419047Y-70340952D01*
X92847619Y-70912380D01*
X93466666Y-70912380D01*
%TO.C,C1*%
X135327142Y-93166666D02*
X135374761Y-93214285D01*
X135422380Y-93357142D01*
X135422380Y-93452380D01*
X135374761Y-93595238D01*
X135279523Y-93690476D01*
X135184285Y-93738095D01*
X134993809Y-93785714D01*
X134850952Y-93785714D01*
X134660476Y-93738095D01*
X134565238Y-93690476D01*
X134470000Y-93595238D01*
X134422380Y-93452380D01*
X134422380Y-93357142D01*
X134470000Y-93214285D01*
X134517619Y-93166666D01*
X135422380Y-92214285D02*
X135422380Y-92785714D01*
X135422380Y-92500000D02*
X134422380Y-92500000D01*
X134565238Y-92595238D01*
X134660476Y-92690476D01*
X134708095Y-92785714D01*
%TO.C,C2*%
X100187142Y-80304166D02*
X100234761Y-80351785D01*
X100282380Y-80494642D01*
X100282380Y-80589880D01*
X100234761Y-80732738D01*
X100139523Y-80827976D01*
X100044285Y-80875595D01*
X99853809Y-80923214D01*
X99710952Y-80923214D01*
X99520476Y-80875595D01*
X99425238Y-80827976D01*
X99330000Y-80732738D01*
X99282380Y-80589880D01*
X99282380Y-80494642D01*
X99330000Y-80351785D01*
X99377619Y-80304166D01*
X99377619Y-79923214D02*
X99330000Y-79875595D01*
X99282380Y-79780357D01*
X99282380Y-79542261D01*
X99330000Y-79447023D01*
X99377619Y-79399404D01*
X99472857Y-79351785D01*
X99568095Y-79351785D01*
X99710952Y-79399404D01*
X100282380Y-79970833D01*
X100282380Y-79351785D01*
%TO.C,C3*%
X100187142Y-75904166D02*
X100234761Y-75951785D01*
X100282380Y-76094642D01*
X100282380Y-76189880D01*
X100234761Y-76332738D01*
X100139523Y-76427976D01*
X100044285Y-76475595D01*
X99853809Y-76523214D01*
X99710952Y-76523214D01*
X99520476Y-76475595D01*
X99425238Y-76427976D01*
X99330000Y-76332738D01*
X99282380Y-76189880D01*
X99282380Y-76094642D01*
X99330000Y-75951785D01*
X99377619Y-75904166D01*
X99282380Y-75570833D02*
X99282380Y-74951785D01*
X99663333Y-75285119D01*
X99663333Y-75142261D01*
X99710952Y-75047023D01*
X99758571Y-74999404D01*
X99853809Y-74951785D01*
X100091904Y-74951785D01*
X100187142Y-74999404D01*
X100234761Y-75047023D01*
X100282380Y-75142261D01*
X100282380Y-75427976D01*
X100234761Y-75523214D01*
X100187142Y-75570833D01*
%TO.C,C4*%
X106833333Y-93632142D02*
X106785714Y-93679761D01*
X106642857Y-93727380D01*
X106547619Y-93727380D01*
X106404761Y-93679761D01*
X106309523Y-93584523D01*
X106261904Y-93489285D01*
X106214285Y-93298809D01*
X106214285Y-93155952D01*
X106261904Y-92965476D01*
X106309523Y-92870238D01*
X106404761Y-92775000D01*
X106547619Y-92727380D01*
X106642857Y-92727380D01*
X106785714Y-92775000D01*
X106833333Y-92822619D01*
X107690476Y-93060714D02*
X107690476Y-93727380D01*
X107452380Y-92679761D02*
X107214285Y-93394047D01*
X107833333Y-93394047D01*
%TO.C,C5*%
X134957142Y-70104166D02*
X135004761Y-70151785D01*
X135052380Y-70294642D01*
X135052380Y-70389880D01*
X135004761Y-70532738D01*
X134909523Y-70627976D01*
X134814285Y-70675595D01*
X134623809Y-70723214D01*
X134480952Y-70723214D01*
X134290476Y-70675595D01*
X134195238Y-70627976D01*
X134100000Y-70532738D01*
X134052380Y-70389880D01*
X134052380Y-70294642D01*
X134100000Y-70151785D01*
X134147619Y-70104166D01*
X134052380Y-69199404D02*
X134052380Y-69675595D01*
X134528571Y-69723214D01*
X134480952Y-69675595D01*
X134433333Y-69580357D01*
X134433333Y-69342261D01*
X134480952Y-69247023D01*
X134528571Y-69199404D01*
X134623809Y-69151785D01*
X134861904Y-69151785D01*
X134957142Y-69199404D01*
X135004761Y-69247023D01*
X135052380Y-69342261D01*
X135052380Y-69580357D01*
X135004761Y-69675595D01*
X134957142Y-69723214D01*
%TO.C,C6*%
X117770833Y-102927142D02*
X117723214Y-102974761D01*
X117580357Y-103022380D01*
X117485119Y-103022380D01*
X117342261Y-102974761D01*
X117247023Y-102879523D01*
X117199404Y-102784285D01*
X117151785Y-102593809D01*
X117151785Y-102450952D01*
X117199404Y-102260476D01*
X117247023Y-102165238D01*
X117342261Y-102070000D01*
X117485119Y-102022380D01*
X117580357Y-102022380D01*
X117723214Y-102070000D01*
X117770833Y-102117619D01*
X118627976Y-102022380D02*
X118437500Y-102022380D01*
X118342261Y-102070000D01*
X118294642Y-102117619D01*
X118199404Y-102260476D01*
X118151785Y-102450952D01*
X118151785Y-102831904D01*
X118199404Y-102927142D01*
X118247023Y-102974761D01*
X118342261Y-103022380D01*
X118532738Y-103022380D01*
X118627976Y-102974761D01*
X118675595Y-102927142D01*
X118723214Y-102831904D01*
X118723214Y-102593809D01*
X118675595Y-102498571D01*
X118627976Y-102450952D01*
X118532738Y-102403333D01*
X118342261Y-102403333D01*
X118247023Y-102450952D01*
X118199404Y-102498571D01*
X118151785Y-102593809D01*
%TO.C,C7*%
X115970833Y-101387142D02*
X115923214Y-101434761D01*
X115780357Y-101482380D01*
X115685119Y-101482380D01*
X115542261Y-101434761D01*
X115447023Y-101339523D01*
X115399404Y-101244285D01*
X115351785Y-101053809D01*
X115351785Y-100910952D01*
X115399404Y-100720476D01*
X115447023Y-100625238D01*
X115542261Y-100530000D01*
X115685119Y-100482380D01*
X115780357Y-100482380D01*
X115923214Y-100530000D01*
X115970833Y-100577619D01*
X116304166Y-100482380D02*
X116970833Y-100482380D01*
X116542261Y-101482380D01*
%TO.C,C8*%
X125570833Y-94987142D02*
X125523214Y-95034761D01*
X125380357Y-95082380D01*
X125285119Y-95082380D01*
X125142261Y-95034761D01*
X125047023Y-94939523D01*
X124999404Y-94844285D01*
X124951785Y-94653809D01*
X124951785Y-94510952D01*
X124999404Y-94320476D01*
X125047023Y-94225238D01*
X125142261Y-94130000D01*
X125285119Y-94082380D01*
X125380357Y-94082380D01*
X125523214Y-94130000D01*
X125570833Y-94177619D01*
X126142261Y-94510952D02*
X126047023Y-94463333D01*
X125999404Y-94415714D01*
X125951785Y-94320476D01*
X125951785Y-94272857D01*
X125999404Y-94177619D01*
X126047023Y-94130000D01*
X126142261Y-94082380D01*
X126332738Y-94082380D01*
X126427976Y-94130000D01*
X126475595Y-94177619D01*
X126523214Y-94272857D01*
X126523214Y-94320476D01*
X126475595Y-94415714D01*
X126427976Y-94463333D01*
X126332738Y-94510952D01*
X126142261Y-94510952D01*
X126047023Y-94558571D01*
X125999404Y-94606190D01*
X125951785Y-94701428D01*
X125951785Y-94891904D01*
X125999404Y-94987142D01*
X126047023Y-95034761D01*
X126142261Y-95082380D01*
X126332738Y-95082380D01*
X126427976Y-95034761D01*
X126475595Y-94987142D01*
X126523214Y-94891904D01*
X126523214Y-94701428D01*
X126475595Y-94606190D01*
X126427976Y-94558571D01*
X126332738Y-94510952D01*
%TO.C,C9*%
X129970833Y-93787142D02*
X129923214Y-93834761D01*
X129780357Y-93882380D01*
X129685119Y-93882380D01*
X129542261Y-93834761D01*
X129447023Y-93739523D01*
X129399404Y-93644285D01*
X129351785Y-93453809D01*
X129351785Y-93310952D01*
X129399404Y-93120476D01*
X129447023Y-93025238D01*
X129542261Y-92930000D01*
X129685119Y-92882380D01*
X129780357Y-92882380D01*
X129923214Y-92930000D01*
X129970833Y-92977619D01*
X130447023Y-93882380D02*
X130637500Y-93882380D01*
X130732738Y-93834761D01*
X130780357Y-93787142D01*
X130875595Y-93644285D01*
X130923214Y-93453809D01*
X130923214Y-93072857D01*
X130875595Y-92977619D01*
X130827976Y-92930000D01*
X130732738Y-92882380D01*
X130542261Y-92882380D01*
X130447023Y-92930000D01*
X130399404Y-92977619D01*
X130351785Y-93072857D01*
X130351785Y-93310952D01*
X130399404Y-93406190D01*
X130447023Y-93453809D01*
X130542261Y-93501428D01*
X130732738Y-93501428D01*
X130827976Y-93453809D01*
X130875595Y-93406190D01*
X130923214Y-93310952D01*
%TO.C,C10*%
X134127142Y-89505357D02*
X134174761Y-89552976D01*
X134222380Y-89695833D01*
X134222380Y-89791071D01*
X134174761Y-89933928D01*
X134079523Y-90029166D01*
X133984285Y-90076785D01*
X133793809Y-90124404D01*
X133650952Y-90124404D01*
X133460476Y-90076785D01*
X133365238Y-90029166D01*
X133270000Y-89933928D01*
X133222380Y-89791071D01*
X133222380Y-89695833D01*
X133270000Y-89552976D01*
X133317619Y-89505357D01*
X134222380Y-88552976D02*
X134222380Y-89124404D01*
X134222380Y-88838690D02*
X133222380Y-88838690D01*
X133365238Y-88933928D01*
X133460476Y-89029166D01*
X133508095Y-89124404D01*
X133222380Y-87933928D02*
X133222380Y-87838690D01*
X133270000Y-87743452D01*
X133317619Y-87695833D01*
X133412857Y-87648214D01*
X133603333Y-87600595D01*
X133841428Y-87600595D01*
X134031904Y-87648214D01*
X134127142Y-87695833D01*
X134174761Y-87743452D01*
X134222380Y-87838690D01*
X134222380Y-87933928D01*
X134174761Y-88029166D01*
X134127142Y-88076785D01*
X134031904Y-88124404D01*
X133841428Y-88172023D01*
X133603333Y-88172023D01*
X133412857Y-88124404D01*
X133317619Y-88076785D01*
X133270000Y-88029166D01*
X133222380Y-87933928D01*
%TO.C,C11*%
X128787142Y-103380357D02*
X128834761Y-103427976D01*
X128882380Y-103570833D01*
X128882380Y-103666071D01*
X128834761Y-103808928D01*
X128739523Y-103904166D01*
X128644285Y-103951785D01*
X128453809Y-103999404D01*
X128310952Y-103999404D01*
X128120476Y-103951785D01*
X128025238Y-103904166D01*
X127930000Y-103808928D01*
X127882380Y-103666071D01*
X127882380Y-103570833D01*
X127930000Y-103427976D01*
X127977619Y-103380357D01*
X128882380Y-102427976D02*
X128882380Y-102999404D01*
X128882380Y-102713690D02*
X127882380Y-102713690D01*
X128025238Y-102808928D01*
X128120476Y-102904166D01*
X128168095Y-102999404D01*
X128882380Y-101475595D02*
X128882380Y-102047023D01*
X128882380Y-101761309D02*
X127882380Y-101761309D01*
X128025238Y-101856547D01*
X128120476Y-101951785D01*
X128168095Y-102047023D01*
%TO.C,C12*%
X134857142Y-100242857D02*
X134904761Y-100290476D01*
X134952380Y-100433333D01*
X134952380Y-100528571D01*
X134904761Y-100671428D01*
X134809523Y-100766666D01*
X134714285Y-100814285D01*
X134523809Y-100861904D01*
X134380952Y-100861904D01*
X134190476Y-100814285D01*
X134095238Y-100766666D01*
X134000000Y-100671428D01*
X133952380Y-100528571D01*
X133952380Y-100433333D01*
X134000000Y-100290476D01*
X134047619Y-100242857D01*
X134952380Y-99290476D02*
X134952380Y-99861904D01*
X134952380Y-99576190D02*
X133952380Y-99576190D01*
X134095238Y-99671428D01*
X134190476Y-99766666D01*
X134238095Y-99861904D01*
X134047619Y-98909523D02*
X134000000Y-98861904D01*
X133952380Y-98766666D01*
X133952380Y-98528571D01*
X134000000Y-98433333D01*
X134047619Y-98385714D01*
X134142857Y-98338095D01*
X134238095Y-98338095D01*
X134380952Y-98385714D01*
X134952380Y-98957142D01*
X134952380Y-98338095D01*
%TO.C,C13*%
X109727142Y-96180357D02*
X109774761Y-96227976D01*
X109822380Y-96370833D01*
X109822380Y-96466071D01*
X109774761Y-96608928D01*
X109679523Y-96704166D01*
X109584285Y-96751785D01*
X109393809Y-96799404D01*
X109250952Y-96799404D01*
X109060476Y-96751785D01*
X108965238Y-96704166D01*
X108870000Y-96608928D01*
X108822380Y-96466071D01*
X108822380Y-96370833D01*
X108870000Y-96227976D01*
X108917619Y-96180357D01*
X109822380Y-95227976D02*
X109822380Y-95799404D01*
X109822380Y-95513690D02*
X108822380Y-95513690D01*
X108965238Y-95608928D01*
X109060476Y-95704166D01*
X109108095Y-95799404D01*
X108822380Y-94894642D02*
X108822380Y-94275595D01*
X109203333Y-94608928D01*
X109203333Y-94466071D01*
X109250952Y-94370833D01*
X109298571Y-94323214D01*
X109393809Y-94275595D01*
X109631904Y-94275595D01*
X109727142Y-94323214D01*
X109774761Y-94370833D01*
X109822380Y-94466071D01*
X109822380Y-94751785D01*
X109774761Y-94847023D01*
X109727142Y-94894642D01*
%TO.C,C14*%
X95894642Y-111587142D02*
X95847023Y-111634761D01*
X95704166Y-111682380D01*
X95608928Y-111682380D01*
X95466071Y-111634761D01*
X95370833Y-111539523D01*
X95323214Y-111444285D01*
X95275595Y-111253809D01*
X95275595Y-111110952D01*
X95323214Y-110920476D01*
X95370833Y-110825238D01*
X95466071Y-110730000D01*
X95608928Y-110682380D01*
X95704166Y-110682380D01*
X95847023Y-110730000D01*
X95894642Y-110777619D01*
X96847023Y-111682380D02*
X96275595Y-111682380D01*
X96561309Y-111682380D02*
X96561309Y-110682380D01*
X96466071Y-110825238D01*
X96370833Y-110920476D01*
X96275595Y-110968095D01*
X97704166Y-111015714D02*
X97704166Y-111682380D01*
X97466071Y-110634761D02*
X97227976Y-111349047D01*
X97847023Y-111349047D01*
%TO.C,D1*%
X101261904Y-115852380D02*
X101261904Y-114852380D01*
X101500000Y-114852380D01*
X101642857Y-114900000D01*
X101738095Y-114995238D01*
X101785714Y-115090476D01*
X101833333Y-115280952D01*
X101833333Y-115423809D01*
X101785714Y-115614285D01*
X101738095Y-115709523D01*
X101642857Y-115804761D01*
X101500000Y-115852380D01*
X101261904Y-115852380D01*
X102785714Y-115852380D02*
X102214285Y-115852380D01*
X102500000Y-115852380D02*
X102500000Y-114852380D01*
X102404761Y-114995238D01*
X102309523Y-115090476D01*
X102214285Y-115138095D01*
X98812485Y-114204761D02*
X98955342Y-114252380D01*
X99193438Y-114252380D01*
X99288676Y-114204761D01*
X99336295Y-114157142D01*
X99383914Y-114061904D01*
X99383914Y-113966666D01*
X99336295Y-113871428D01*
X99288676Y-113823809D01*
X99193438Y-113776190D01*
X99002961Y-113728571D01*
X98907723Y-113680952D01*
X98860104Y-113633333D01*
X98812485Y-113538095D01*
X98812485Y-113442857D01*
X98860104Y-113347619D01*
X98907723Y-113300000D01*
X99002961Y-113252380D01*
X99241057Y-113252380D01*
X99383914Y-113300000D01*
X99812485Y-114252380D02*
X99812485Y-113252380D01*
X100145819Y-113966666D01*
X100479152Y-113252380D01*
X100479152Y-114252380D01*
X100907723Y-113966666D02*
X101383914Y-113966666D01*
X100812485Y-114252380D02*
X101145819Y-113252380D01*
X101479152Y-114252380D01*
X102098200Y-113252380D02*
X102098200Y-113966666D01*
X102050580Y-114109523D01*
X101955342Y-114204761D01*
X101812485Y-114252380D01*
X101717247Y-114252380D01*
X103050580Y-113252380D02*
X102574390Y-113252380D01*
X102526771Y-113728571D01*
X102574390Y-113680952D01*
X102669628Y-113633333D01*
X102907723Y-113633333D01*
X103002961Y-113680952D01*
X103050580Y-113728571D01*
X103098200Y-113823809D01*
X103098200Y-114061904D01*
X103050580Y-114157142D01*
X103002961Y-114204761D01*
X102907723Y-114252380D01*
X102669628Y-114252380D01*
X102574390Y-114204761D01*
X102526771Y-114157142D01*
X103526771Y-114157142D02*
X103574390Y-114204761D01*
X103526771Y-114252380D01*
X103479152Y-114204761D01*
X103526771Y-114157142D01*
X103526771Y-114252380D01*
X104193438Y-113252380D02*
X104288676Y-113252380D01*
X104383914Y-113300000D01*
X104431533Y-113347619D01*
X104479152Y-113442857D01*
X104526771Y-113633333D01*
X104526771Y-113871428D01*
X104479152Y-114061904D01*
X104431533Y-114157142D01*
X104383914Y-114204761D01*
X104288676Y-114252380D01*
X104193438Y-114252380D01*
X104098200Y-114204761D01*
X104050580Y-114157142D01*
X104002961Y-114061904D01*
X103955342Y-113871428D01*
X103955342Y-113633333D01*
X104002961Y-113442857D01*
X104050580Y-113347619D01*
X104098200Y-113300000D01*
X104193438Y-113252380D01*
X104907723Y-113966666D02*
X105383914Y-113966666D01*
X104812485Y-114252380D02*
X105145819Y-113252380D01*
X105479152Y-114252380D01*
X105600000Y-109252380D02*
X105600000Y-109490476D01*
X105361904Y-109395238D02*
X105600000Y-109490476D01*
X105838095Y-109395238D01*
X105457142Y-109680952D02*
X105600000Y-109490476D01*
X105742857Y-109680952D01*
%TO.C,D2*%
X112786904Y-108422380D02*
X112786904Y-107422380D01*
X113025000Y-107422380D01*
X113167857Y-107470000D01*
X113263095Y-107565238D01*
X113310714Y-107660476D01*
X113358333Y-107850952D01*
X113358333Y-107993809D01*
X113310714Y-108184285D01*
X113263095Y-108279523D01*
X113167857Y-108374761D01*
X113025000Y-108422380D01*
X112786904Y-108422380D01*
X113739285Y-107517619D02*
X113786904Y-107470000D01*
X113882142Y-107422380D01*
X114120238Y-107422380D01*
X114215476Y-107470000D01*
X114263095Y-107517619D01*
X114310714Y-107612857D01*
X114310714Y-107708095D01*
X114263095Y-107850952D01*
X113691666Y-108422380D01*
X114310714Y-108422380D01*
%TO.C,D3*%
X110652380Y-113938095D02*
X109652380Y-113938095D01*
X109652380Y-113700000D01*
X109700000Y-113557142D01*
X109795238Y-113461904D01*
X109890476Y-113414285D01*
X110080952Y-113366666D01*
X110223809Y-113366666D01*
X110414285Y-113414285D01*
X110509523Y-113461904D01*
X110604761Y-113557142D01*
X110652380Y-113700000D01*
X110652380Y-113938095D01*
X109652380Y-113033333D02*
X109652380Y-112414285D01*
X110033333Y-112747619D01*
X110033333Y-112604761D01*
X110080952Y-112509523D01*
X110128571Y-112461904D01*
X110223809Y-112414285D01*
X110461904Y-112414285D01*
X110557142Y-112461904D01*
X110604761Y-112509523D01*
X110652380Y-112604761D01*
X110652380Y-112890476D01*
X110604761Y-112985714D01*
X110557142Y-113033333D01*
%TO.C,Q1*%
X120347619Y-102095238D02*
X120300000Y-102190476D01*
X120204761Y-102285714D01*
X120061904Y-102428571D01*
X120014285Y-102523809D01*
X120014285Y-102619047D01*
X120252380Y-102571428D02*
X120204761Y-102666666D01*
X120109523Y-102761904D01*
X119919047Y-102809523D01*
X119585714Y-102809523D01*
X119395238Y-102761904D01*
X119300000Y-102666666D01*
X119252380Y-102571428D01*
X119252380Y-102380952D01*
X119300000Y-102285714D01*
X119395238Y-102190476D01*
X119585714Y-102142857D01*
X119919047Y-102142857D01*
X120109523Y-102190476D01*
X120204761Y-102285714D01*
X120252380Y-102380952D01*
X120252380Y-102571428D01*
X120252380Y-101190476D02*
X120252380Y-101761904D01*
X120252380Y-101476190D02*
X119252380Y-101476190D01*
X119395238Y-101571428D01*
X119490476Y-101666666D01*
X119538095Y-101761904D01*
%TO.C,Q2*%
X126104761Y-100547619D02*
X126009523Y-100500000D01*
X125914285Y-100404761D01*
X125771428Y-100261904D01*
X125676190Y-100214285D01*
X125580952Y-100214285D01*
X125628571Y-100452380D02*
X125533333Y-100404761D01*
X125438095Y-100309523D01*
X125390476Y-100119047D01*
X125390476Y-99785714D01*
X125438095Y-99595238D01*
X125533333Y-99500000D01*
X125628571Y-99452380D01*
X125819047Y-99452380D01*
X125914285Y-99500000D01*
X126009523Y-99595238D01*
X126057142Y-99785714D01*
X126057142Y-100119047D01*
X126009523Y-100309523D01*
X125914285Y-100404761D01*
X125819047Y-100452380D01*
X125628571Y-100452380D01*
X126438095Y-99547619D02*
X126485714Y-99500000D01*
X126580952Y-99452380D01*
X126819047Y-99452380D01*
X126914285Y-99500000D01*
X126961904Y-99547619D01*
X127009523Y-99642857D01*
X127009523Y-99738095D01*
X126961904Y-99880952D01*
X126390476Y-100452380D01*
X127009523Y-100452380D01*
%TO.C,Q3*%
X90704761Y-115347619D02*
X90609523Y-115300000D01*
X90514285Y-115204761D01*
X90371428Y-115061904D01*
X90276190Y-115014285D01*
X90180952Y-115014285D01*
X90228571Y-115252380D02*
X90133333Y-115204761D01*
X90038095Y-115109523D01*
X89990476Y-114919047D01*
X89990476Y-114585714D01*
X90038095Y-114395238D01*
X90133333Y-114300000D01*
X90228571Y-114252380D01*
X90419047Y-114252380D01*
X90514285Y-114300000D01*
X90609523Y-114395238D01*
X90657142Y-114585714D01*
X90657142Y-114919047D01*
X90609523Y-115109523D01*
X90514285Y-115204761D01*
X90419047Y-115252380D01*
X90228571Y-115252380D01*
X90990476Y-114252380D02*
X91609523Y-114252380D01*
X91276190Y-114633333D01*
X91419047Y-114633333D01*
X91514285Y-114680952D01*
X91561904Y-114728571D01*
X91609523Y-114823809D01*
X91609523Y-115061904D01*
X91561904Y-115157142D01*
X91514285Y-115204761D01*
X91419047Y-115252380D01*
X91133333Y-115252380D01*
X91038095Y-115204761D01*
X90990476Y-115157142D01*
%TO.C,Q4*%
X98104761Y-104147619D02*
X98009523Y-104100000D01*
X97914285Y-104004761D01*
X97771428Y-103861904D01*
X97676190Y-103814285D01*
X97580952Y-103814285D01*
X97628571Y-104052380D02*
X97533333Y-104004761D01*
X97438095Y-103909523D01*
X97390476Y-103719047D01*
X97390476Y-103385714D01*
X97438095Y-103195238D01*
X97533333Y-103100000D01*
X97628571Y-103052380D01*
X97819047Y-103052380D01*
X97914285Y-103100000D01*
X98009523Y-103195238D01*
X98057142Y-103385714D01*
X98057142Y-103719047D01*
X98009523Y-103909523D01*
X97914285Y-104004761D01*
X97819047Y-104052380D01*
X97628571Y-104052380D01*
X98914285Y-103385714D02*
X98914285Y-104052380D01*
X98676190Y-103004761D02*
X98438095Y-103719047D01*
X99057142Y-103719047D01*
%TO.C,R1*%
X125282380Y-86054166D02*
X124806190Y-86387500D01*
X125282380Y-86625595D02*
X124282380Y-86625595D01*
X124282380Y-86244642D01*
X124330000Y-86149404D01*
X124377619Y-86101785D01*
X124472857Y-86054166D01*
X124615714Y-86054166D01*
X124710952Y-86101785D01*
X124758571Y-86149404D01*
X124806190Y-86244642D01*
X124806190Y-86625595D01*
X125282380Y-85101785D02*
X125282380Y-85673214D01*
X125282380Y-85387500D02*
X124282380Y-85387500D01*
X124425238Y-85482738D01*
X124520476Y-85577976D01*
X124568095Y-85673214D01*
%TO.C,R2*%
X95633333Y-92052380D02*
X95300000Y-91576190D01*
X95061904Y-92052380D02*
X95061904Y-91052380D01*
X95442857Y-91052380D01*
X95538095Y-91100000D01*
X95585714Y-91147619D01*
X95633333Y-91242857D01*
X95633333Y-91385714D01*
X95585714Y-91480952D01*
X95538095Y-91528571D01*
X95442857Y-91576190D01*
X95061904Y-91576190D01*
X96014285Y-91147619D02*
X96061904Y-91100000D01*
X96157142Y-91052380D01*
X96395238Y-91052380D01*
X96490476Y-91100000D01*
X96538095Y-91147619D01*
X96585714Y-91242857D01*
X96585714Y-91338095D01*
X96538095Y-91480952D01*
X95966666Y-92052380D01*
X96585714Y-92052380D01*
%TO.C,R3*%
X99033333Y-92052380D02*
X98700000Y-91576190D01*
X98461904Y-92052380D02*
X98461904Y-91052380D01*
X98842857Y-91052380D01*
X98938095Y-91100000D01*
X98985714Y-91147619D01*
X99033333Y-91242857D01*
X99033333Y-91385714D01*
X98985714Y-91480952D01*
X98938095Y-91528571D01*
X98842857Y-91576190D01*
X98461904Y-91576190D01*
X99366666Y-91052380D02*
X99985714Y-91052380D01*
X99652380Y-91433333D01*
X99795238Y-91433333D01*
X99890476Y-91480952D01*
X99938095Y-91528571D01*
X99985714Y-91623809D01*
X99985714Y-91861904D01*
X99938095Y-91957142D01*
X99890476Y-92004761D01*
X99795238Y-92052380D01*
X99509523Y-92052380D01*
X99414285Y-92004761D01*
X99366666Y-91957142D01*
%TO.C,R4*%
X105682380Y-95854166D02*
X105206190Y-96187500D01*
X105682380Y-96425595D02*
X104682380Y-96425595D01*
X104682380Y-96044642D01*
X104730000Y-95949404D01*
X104777619Y-95901785D01*
X104872857Y-95854166D01*
X105015714Y-95854166D01*
X105110952Y-95901785D01*
X105158571Y-95949404D01*
X105206190Y-96044642D01*
X105206190Y-96425595D01*
X105015714Y-94997023D02*
X105682380Y-94997023D01*
X104634761Y-95235119D02*
X105349047Y-95473214D01*
X105349047Y-94854166D01*
%TO.C,R5*%
X120622380Y-94854166D02*
X120146190Y-95187500D01*
X120622380Y-95425595D02*
X119622380Y-95425595D01*
X119622380Y-95044642D01*
X119670000Y-94949404D01*
X119717619Y-94901785D01*
X119812857Y-94854166D01*
X119955714Y-94854166D01*
X120050952Y-94901785D01*
X120098571Y-94949404D01*
X120146190Y-95044642D01*
X120146190Y-95425595D01*
X119622380Y-93949404D02*
X119622380Y-94425595D01*
X120098571Y-94473214D01*
X120050952Y-94425595D01*
X120003333Y-94330357D01*
X120003333Y-94092261D01*
X120050952Y-93997023D01*
X120098571Y-93949404D01*
X120193809Y-93901785D01*
X120431904Y-93901785D01*
X120527142Y-93949404D01*
X120574761Y-93997023D01*
X120622380Y-94092261D01*
X120622380Y-94330357D01*
X120574761Y-94425595D01*
X120527142Y-94473214D01*
%TO.C,R6*%
X121833333Y-97622380D02*
X121500000Y-97146190D01*
X121261904Y-97622380D02*
X121261904Y-96622380D01*
X121642857Y-96622380D01*
X121738095Y-96670000D01*
X121785714Y-96717619D01*
X121833333Y-96812857D01*
X121833333Y-96955714D01*
X121785714Y-97050952D01*
X121738095Y-97098571D01*
X121642857Y-97146190D01*
X121261904Y-97146190D01*
X122690476Y-96622380D02*
X122500000Y-96622380D01*
X122404761Y-96670000D01*
X122357142Y-96717619D01*
X122261904Y-96860476D01*
X122214285Y-97050952D01*
X122214285Y-97431904D01*
X122261904Y-97527142D01*
X122309523Y-97574761D01*
X122404761Y-97622380D01*
X122595238Y-97622380D01*
X122690476Y-97574761D01*
X122738095Y-97527142D01*
X122785714Y-97431904D01*
X122785714Y-97193809D01*
X122738095Y-97098571D01*
X122690476Y-97050952D01*
X122595238Y-97003333D01*
X122404761Y-97003333D01*
X122309523Y-97050952D01*
X122261904Y-97098571D01*
X122214285Y-97193809D01*
%TO.C,R7*%
X101633333Y-108452380D02*
X101300000Y-107976190D01*
X101061904Y-108452380D02*
X101061904Y-107452380D01*
X101442857Y-107452380D01*
X101538095Y-107500000D01*
X101585714Y-107547619D01*
X101633333Y-107642857D01*
X101633333Y-107785714D01*
X101585714Y-107880952D01*
X101538095Y-107928571D01*
X101442857Y-107976190D01*
X101061904Y-107976190D01*
X101966666Y-107452380D02*
X102633333Y-107452380D01*
X102204761Y-108452380D01*
%TO.C,R8*%
X104233333Y-108452380D02*
X103900000Y-107976190D01*
X103661904Y-108452380D02*
X103661904Y-107452380D01*
X104042857Y-107452380D01*
X104138095Y-107500000D01*
X104185714Y-107547619D01*
X104233333Y-107642857D01*
X104233333Y-107785714D01*
X104185714Y-107880952D01*
X104138095Y-107928571D01*
X104042857Y-107976190D01*
X103661904Y-107976190D01*
X104804761Y-107880952D02*
X104709523Y-107833333D01*
X104661904Y-107785714D01*
X104614285Y-107690476D01*
X104614285Y-107642857D01*
X104661904Y-107547619D01*
X104709523Y-107500000D01*
X104804761Y-107452380D01*
X104995238Y-107452380D01*
X105090476Y-107500000D01*
X105138095Y-107547619D01*
X105185714Y-107642857D01*
X105185714Y-107690476D01*
X105138095Y-107785714D01*
X105090476Y-107833333D01*
X104995238Y-107880952D01*
X104804761Y-107880952D01*
X104709523Y-107928571D01*
X104661904Y-107976190D01*
X104614285Y-108071428D01*
X104614285Y-108261904D01*
X104661904Y-108357142D01*
X104709523Y-108404761D01*
X104804761Y-108452380D01*
X104995238Y-108452380D01*
X105090476Y-108404761D01*
X105138095Y-108357142D01*
X105185714Y-108261904D01*
X105185714Y-108071428D01*
X105138095Y-107976190D01*
X105090476Y-107928571D01*
X104995238Y-107880952D01*
%TO.C,R9*%
X116652380Y-106566666D02*
X116176190Y-106900000D01*
X116652380Y-107138095D02*
X115652380Y-107138095D01*
X115652380Y-106757142D01*
X115700000Y-106661904D01*
X115747619Y-106614285D01*
X115842857Y-106566666D01*
X115985714Y-106566666D01*
X116080952Y-106614285D01*
X116128571Y-106661904D01*
X116176190Y-106757142D01*
X116176190Y-107138095D01*
X116652380Y-106090476D02*
X116652380Y-105900000D01*
X116604761Y-105804761D01*
X116557142Y-105757142D01*
X116414285Y-105661904D01*
X116223809Y-105614285D01*
X115842857Y-105614285D01*
X115747619Y-105661904D01*
X115700000Y-105709523D01*
X115652380Y-105804761D01*
X115652380Y-105995238D01*
X115700000Y-106090476D01*
X115747619Y-106138095D01*
X115842857Y-106185714D01*
X116080952Y-106185714D01*
X116176190Y-106138095D01*
X116223809Y-106090476D01*
X116271428Y-105995238D01*
X116271428Y-105804761D01*
X116223809Y-105709523D01*
X116176190Y-105661904D01*
X116080952Y-105614285D01*
%TO.C,R10*%
X108052380Y-113842857D02*
X107576190Y-114176190D01*
X108052380Y-114414285D02*
X107052380Y-114414285D01*
X107052380Y-114033333D01*
X107100000Y-113938095D01*
X107147619Y-113890476D01*
X107242857Y-113842857D01*
X107385714Y-113842857D01*
X107480952Y-113890476D01*
X107528571Y-113938095D01*
X107576190Y-114033333D01*
X107576190Y-114414285D01*
X108052380Y-112890476D02*
X108052380Y-113461904D01*
X108052380Y-113176190D02*
X107052380Y-113176190D01*
X107195238Y-113271428D01*
X107290476Y-113366666D01*
X107338095Y-113461904D01*
X107052380Y-112271428D02*
X107052380Y-112176190D01*
X107100000Y-112080952D01*
X107147619Y-112033333D01*
X107242857Y-111985714D01*
X107433333Y-111938095D01*
X107671428Y-111938095D01*
X107861904Y-111985714D01*
X107957142Y-112033333D01*
X108004761Y-112080952D01*
X108052380Y-112176190D01*
X108052380Y-112271428D01*
X108004761Y-112366666D01*
X107957142Y-112414285D01*
X107861904Y-112461904D01*
X107671428Y-112509523D01*
X107433333Y-112509523D01*
X107242857Y-112461904D01*
X107147619Y-112414285D01*
X107100000Y-112366666D01*
X107052380Y-112271428D01*
%TO.C,R11*%
X97282380Y-85330357D02*
X96806190Y-85663690D01*
X97282380Y-85901785D02*
X96282380Y-85901785D01*
X96282380Y-85520833D01*
X96330000Y-85425595D01*
X96377619Y-85377976D01*
X96472857Y-85330357D01*
X96615714Y-85330357D01*
X96710952Y-85377976D01*
X96758571Y-85425595D01*
X96806190Y-85520833D01*
X96806190Y-85901785D01*
X97282380Y-84377976D02*
X97282380Y-84949404D01*
X97282380Y-84663690D02*
X96282380Y-84663690D01*
X96425238Y-84758928D01*
X96520476Y-84854166D01*
X96568095Y-84949404D01*
X97282380Y-83425595D02*
X97282380Y-83997023D01*
X97282380Y-83711309D02*
X96282380Y-83711309D01*
X96425238Y-83806547D01*
X96520476Y-83901785D01*
X96568095Y-83997023D01*
%TO.C,R12*%
X97422380Y-89130357D02*
X96946190Y-89463690D01*
X97422380Y-89701785D02*
X96422380Y-89701785D01*
X96422380Y-89320833D01*
X96470000Y-89225595D01*
X96517619Y-89177976D01*
X96612857Y-89130357D01*
X96755714Y-89130357D01*
X96850952Y-89177976D01*
X96898571Y-89225595D01*
X96946190Y-89320833D01*
X96946190Y-89701785D01*
X97422380Y-88177976D02*
X97422380Y-88749404D01*
X97422380Y-88463690D02*
X96422380Y-88463690D01*
X96565238Y-88558928D01*
X96660476Y-88654166D01*
X96708095Y-88749404D01*
X96517619Y-87797023D02*
X96470000Y-87749404D01*
X96422380Y-87654166D01*
X96422380Y-87416071D01*
X96470000Y-87320833D01*
X96517619Y-87273214D01*
X96612857Y-87225595D01*
X96708095Y-87225595D01*
X96850952Y-87273214D01*
X97422380Y-87844642D01*
X97422380Y-87225595D01*
%TO.C,R13*%
X95252380Y-77317857D02*
X94776190Y-77651190D01*
X95252380Y-77889285D02*
X94252380Y-77889285D01*
X94252380Y-77508333D01*
X94300000Y-77413095D01*
X94347619Y-77365476D01*
X94442857Y-77317857D01*
X94585714Y-77317857D01*
X94680952Y-77365476D01*
X94728571Y-77413095D01*
X94776190Y-77508333D01*
X94776190Y-77889285D01*
X95252380Y-76365476D02*
X95252380Y-76936904D01*
X95252380Y-76651190D02*
X94252380Y-76651190D01*
X94395238Y-76746428D01*
X94490476Y-76841666D01*
X94538095Y-76936904D01*
X94252380Y-76032142D02*
X94252380Y-75413095D01*
X94633333Y-75746428D01*
X94633333Y-75603571D01*
X94680952Y-75508333D01*
X94728571Y-75460714D01*
X94823809Y-75413095D01*
X95061904Y-75413095D01*
X95157142Y-75460714D01*
X95204761Y-75508333D01*
X95252380Y-75603571D01*
X95252380Y-75889285D01*
X95204761Y-75984523D01*
X95157142Y-76032142D01*
%TO.C,R14*%
X93069642Y-115339880D02*
X92736309Y-114863690D01*
X92498214Y-115339880D02*
X92498214Y-114339880D01*
X92879166Y-114339880D01*
X92974404Y-114387500D01*
X93022023Y-114435119D01*
X93069642Y-114530357D01*
X93069642Y-114673214D01*
X93022023Y-114768452D01*
X92974404Y-114816071D01*
X92879166Y-114863690D01*
X92498214Y-114863690D01*
X94022023Y-115339880D02*
X93450595Y-115339880D01*
X93736309Y-115339880D02*
X93736309Y-114339880D01*
X93641071Y-114482738D01*
X93545833Y-114577976D01*
X93450595Y-114625595D01*
X94879166Y-114673214D02*
X94879166Y-115339880D01*
X94641071Y-114292261D02*
X94402976Y-115006547D01*
X95022023Y-115006547D01*
%TO.C,R15*%
X96482380Y-107042857D02*
X96006190Y-107376190D01*
X96482380Y-107614285D02*
X95482380Y-107614285D01*
X95482380Y-107233333D01*
X95530000Y-107138095D01*
X95577619Y-107090476D01*
X95672857Y-107042857D01*
X95815714Y-107042857D01*
X95910952Y-107090476D01*
X95958571Y-107138095D01*
X96006190Y-107233333D01*
X96006190Y-107614285D01*
X96482380Y-106090476D02*
X96482380Y-106661904D01*
X96482380Y-106376190D02*
X95482380Y-106376190D01*
X95625238Y-106471428D01*
X95720476Y-106566666D01*
X95768095Y-106661904D01*
X95482380Y-105185714D02*
X95482380Y-105661904D01*
X95958571Y-105709523D01*
X95910952Y-105661904D01*
X95863333Y-105566666D01*
X95863333Y-105328571D01*
X95910952Y-105233333D01*
X95958571Y-105185714D01*
X96053809Y-105138095D01*
X96291904Y-105138095D01*
X96387142Y-105185714D01*
X96434761Y-105233333D01*
X96482380Y-105328571D01*
X96482380Y-105566666D01*
X96434761Y-105661904D01*
X96387142Y-105709523D01*
%TO.C,R16*%
X86957142Y-115252380D02*
X86623809Y-114776190D01*
X86385714Y-115252380D02*
X86385714Y-114252380D01*
X86766666Y-114252380D01*
X86861904Y-114300000D01*
X86909523Y-114347619D01*
X86957142Y-114442857D01*
X86957142Y-114585714D01*
X86909523Y-114680952D01*
X86861904Y-114728571D01*
X86766666Y-114776190D01*
X86385714Y-114776190D01*
X87909523Y-115252380D02*
X87338095Y-115252380D01*
X87623809Y-115252380D02*
X87623809Y-114252380D01*
X87528571Y-114395238D01*
X87433333Y-114490476D01*
X87338095Y-114538095D01*
X88766666Y-114252380D02*
X88576190Y-114252380D01*
X88480952Y-114300000D01*
X88433333Y-114347619D01*
X88338095Y-114490476D01*
X88290476Y-114680952D01*
X88290476Y-115061904D01*
X88338095Y-115157142D01*
X88385714Y-115204761D01*
X88480952Y-115252380D01*
X88671428Y-115252380D01*
X88766666Y-115204761D01*
X88814285Y-115157142D01*
X88861904Y-115061904D01*
X88861904Y-114823809D01*
X88814285Y-114728571D01*
X88766666Y-114680952D01*
X88671428Y-114633333D01*
X88480952Y-114633333D01*
X88385714Y-114680952D01*
X88338095Y-114728571D01*
X88290476Y-114823809D01*
%TO.C,R17*%
X126822380Y-86330357D02*
X126346190Y-86663690D01*
X126822380Y-86901785D02*
X125822380Y-86901785D01*
X125822380Y-86520833D01*
X125870000Y-86425595D01*
X125917619Y-86377976D01*
X126012857Y-86330357D01*
X126155714Y-86330357D01*
X126250952Y-86377976D01*
X126298571Y-86425595D01*
X126346190Y-86520833D01*
X126346190Y-86901785D01*
X126822380Y-85377976D02*
X126822380Y-85949404D01*
X126822380Y-85663690D02*
X125822380Y-85663690D01*
X125965238Y-85758928D01*
X126060476Y-85854166D01*
X126108095Y-85949404D01*
X125822380Y-85044642D02*
X125822380Y-84377976D01*
X126822380Y-84806547D01*
%TO.C,R18*%
X124022380Y-108930357D02*
X123546190Y-109263690D01*
X124022380Y-109501785D02*
X123022380Y-109501785D01*
X123022380Y-109120833D01*
X123070000Y-109025595D01*
X123117619Y-108977976D01*
X123212857Y-108930357D01*
X123355714Y-108930357D01*
X123450952Y-108977976D01*
X123498571Y-109025595D01*
X123546190Y-109120833D01*
X123546190Y-109501785D01*
X124022380Y-107977976D02*
X124022380Y-108549404D01*
X124022380Y-108263690D02*
X123022380Y-108263690D01*
X123165238Y-108358928D01*
X123260476Y-108454166D01*
X123308095Y-108549404D01*
X123450952Y-107406547D02*
X123403333Y-107501785D01*
X123355714Y-107549404D01*
X123260476Y-107597023D01*
X123212857Y-107597023D01*
X123117619Y-107549404D01*
X123070000Y-107501785D01*
X123022380Y-107406547D01*
X123022380Y-107216071D01*
X123070000Y-107120833D01*
X123117619Y-107073214D01*
X123212857Y-107025595D01*
X123260476Y-107025595D01*
X123355714Y-107073214D01*
X123403333Y-107120833D01*
X123450952Y-107216071D01*
X123450952Y-107406547D01*
X123498571Y-107501785D01*
X123546190Y-107549404D01*
X123641428Y-107597023D01*
X123831904Y-107597023D01*
X123927142Y-107549404D01*
X123974761Y-107501785D01*
X124022380Y-107406547D01*
X124022380Y-107216071D01*
X123974761Y-107120833D01*
X123927142Y-107073214D01*
X123831904Y-107025595D01*
X123641428Y-107025595D01*
X123546190Y-107073214D01*
X123498571Y-107120833D01*
X123450952Y-107216071D01*
%TO.C,R19*%
X112844642Y-103022380D02*
X112511309Y-102546190D01*
X112273214Y-103022380D02*
X112273214Y-102022380D01*
X112654166Y-102022380D01*
X112749404Y-102070000D01*
X112797023Y-102117619D01*
X112844642Y-102212857D01*
X112844642Y-102355714D01*
X112797023Y-102450952D01*
X112749404Y-102498571D01*
X112654166Y-102546190D01*
X112273214Y-102546190D01*
X113797023Y-103022380D02*
X113225595Y-103022380D01*
X113511309Y-103022380D02*
X113511309Y-102022380D01*
X113416071Y-102165238D01*
X113320833Y-102260476D01*
X113225595Y-102308095D01*
X114273214Y-103022380D02*
X114463690Y-103022380D01*
X114558928Y-102974761D01*
X114606547Y-102927142D01*
X114701785Y-102784285D01*
X114749404Y-102593809D01*
X114749404Y-102212857D01*
X114701785Y-102117619D01*
X114654166Y-102070000D01*
X114558928Y-102022380D01*
X114368452Y-102022380D01*
X114273214Y-102070000D01*
X114225595Y-102117619D01*
X114177976Y-102212857D01*
X114177976Y-102450952D01*
X114225595Y-102546190D01*
X114273214Y-102593809D01*
X114368452Y-102641428D01*
X114558928Y-102641428D01*
X114654166Y-102593809D01*
X114701785Y-102546190D01*
X114749404Y-102450952D01*
%TO.C,SW1*%
X94804761Y-90733333D02*
X94852380Y-90590476D01*
X94852380Y-90352380D01*
X94804761Y-90257142D01*
X94757142Y-90209523D01*
X94661904Y-90161904D01*
X94566666Y-90161904D01*
X94471428Y-90209523D01*
X94423809Y-90257142D01*
X94376190Y-90352380D01*
X94328571Y-90542857D01*
X94280952Y-90638095D01*
X94233333Y-90685714D01*
X94138095Y-90733333D01*
X94042857Y-90733333D01*
X93947619Y-90685714D01*
X93900000Y-90638095D01*
X93852380Y-90542857D01*
X93852380Y-90304761D01*
X93900000Y-90161904D01*
X93852380Y-89828571D02*
X94852380Y-89590476D01*
X94138095Y-89400000D01*
X94852380Y-89209523D01*
X93852380Y-88971428D01*
X94852380Y-88066666D02*
X94852380Y-88638095D01*
X94852380Y-88352380D02*
X93852380Y-88352380D01*
X93995238Y-88447619D01*
X94090476Y-88542857D01*
X94138095Y-88638095D01*
%TO.C,SW2*%
X94804761Y-99933333D02*
X94852380Y-99790476D01*
X94852380Y-99552380D01*
X94804761Y-99457142D01*
X94757142Y-99409523D01*
X94661904Y-99361904D01*
X94566666Y-99361904D01*
X94471428Y-99409523D01*
X94423809Y-99457142D01*
X94376190Y-99552380D01*
X94328571Y-99742857D01*
X94280952Y-99838095D01*
X94233333Y-99885714D01*
X94138095Y-99933333D01*
X94042857Y-99933333D01*
X93947619Y-99885714D01*
X93900000Y-99838095D01*
X93852380Y-99742857D01*
X93852380Y-99504761D01*
X93900000Y-99361904D01*
X93852380Y-99028571D02*
X94852380Y-98790476D01*
X94138095Y-98600000D01*
X94852380Y-98409523D01*
X93852380Y-98171428D01*
X93947619Y-97838095D02*
X93900000Y-97790476D01*
X93852380Y-97695238D01*
X93852380Y-97457142D01*
X93900000Y-97361904D01*
X93947619Y-97314285D01*
X94042857Y-97266666D01*
X94138095Y-97266666D01*
X94280952Y-97314285D01*
X94852380Y-97885714D01*
X94852380Y-97266666D01*
%TO.C,SW3*%
X93104761Y-77333333D02*
X93152380Y-77190476D01*
X93152380Y-76952380D01*
X93104761Y-76857142D01*
X93057142Y-76809523D01*
X92961904Y-76761904D01*
X92866666Y-76761904D01*
X92771428Y-76809523D01*
X92723809Y-76857142D01*
X92676190Y-76952380D01*
X92628571Y-77142857D01*
X92580952Y-77238095D01*
X92533333Y-77285714D01*
X92438095Y-77333333D01*
X92342857Y-77333333D01*
X92247619Y-77285714D01*
X92200000Y-77238095D01*
X92152380Y-77142857D01*
X92152380Y-76904761D01*
X92200000Y-76761904D01*
X92152380Y-76428571D02*
X93152380Y-76190476D01*
X92438095Y-76000000D01*
X93152380Y-75809523D01*
X92152380Y-75571428D01*
X92152380Y-75285714D02*
X92152380Y-74666666D01*
X92533333Y-75000000D01*
X92533333Y-74857142D01*
X92580952Y-74761904D01*
X92628571Y-74714285D01*
X92723809Y-74666666D01*
X92961904Y-74666666D01*
X93057142Y-74714285D01*
X93104761Y-74761904D01*
X93152380Y-74857142D01*
X93152380Y-75142857D01*
X93104761Y-75238095D01*
X93057142Y-75285714D01*
%TO.C,SW4*%
X93766666Y-102804761D02*
X93909523Y-102852380D01*
X94147619Y-102852380D01*
X94242857Y-102804761D01*
X94290476Y-102757142D01*
X94338095Y-102661904D01*
X94338095Y-102566666D01*
X94290476Y-102471428D01*
X94242857Y-102423809D01*
X94147619Y-102376190D01*
X93957142Y-102328571D01*
X93861904Y-102280952D01*
X93814285Y-102233333D01*
X93766666Y-102138095D01*
X93766666Y-102042857D01*
X93814285Y-101947619D01*
X93861904Y-101900000D01*
X93957142Y-101852380D01*
X94195238Y-101852380D01*
X94338095Y-101900000D01*
X94671428Y-101852380D02*
X94909523Y-102852380D01*
X95100000Y-102138095D01*
X95290476Y-102852380D01*
X95528571Y-101852380D01*
X96338095Y-102185714D02*
X96338095Y-102852380D01*
X96100000Y-101804761D02*
X95861904Y-102519047D01*
X96480952Y-102519047D01*
%TO.C,U1*%
X100642380Y-90991904D02*
X101451904Y-90991904D01*
X101547142Y-90944285D01*
X101594761Y-90896666D01*
X101642380Y-90801428D01*
X101642380Y-90610952D01*
X101594761Y-90515714D01*
X101547142Y-90468095D01*
X101451904Y-90420476D01*
X100642380Y-90420476D01*
X101642380Y-89420476D02*
X101642380Y-89991904D01*
X101642380Y-89706190D02*
X100642380Y-89706190D01*
X100785238Y-89801428D01*
X100880476Y-89896666D01*
X100928095Y-89991904D01*
%TO.C,U2*%
X97838095Y-101052380D02*
X97838095Y-101861904D01*
X97885714Y-101957142D01*
X97933333Y-102004761D01*
X98028571Y-102052380D01*
X98219047Y-102052380D01*
X98314285Y-102004761D01*
X98361904Y-101957142D01*
X98409523Y-101861904D01*
X98409523Y-101052380D01*
X98838095Y-101147619D02*
X98885714Y-101100000D01*
X98980952Y-101052380D01*
X99219047Y-101052380D01*
X99314285Y-101100000D01*
X99361904Y-101147619D01*
X99409523Y-101242857D01*
X99409523Y-101338095D01*
X99361904Y-101480952D01*
X98790476Y-102052380D01*
X99409523Y-102052380D01*
%TO.C,U3*%
X112838095Y-112652380D02*
X112838095Y-113461904D01*
X112885714Y-113557142D01*
X112933333Y-113604761D01*
X113028571Y-113652380D01*
X113219047Y-113652380D01*
X113314285Y-113604761D01*
X113361904Y-113557142D01*
X113409523Y-113461904D01*
X113409523Y-112652380D01*
X113790476Y-112652380D02*
X114409523Y-112652380D01*
X114076190Y-113033333D01*
X114219047Y-113033333D01*
X114314285Y-113080952D01*
X114361904Y-113128571D01*
X114409523Y-113223809D01*
X114409523Y-113461904D01*
X114361904Y-113557142D01*
X114314285Y-113604761D01*
X114219047Y-113652380D01*
X113933333Y-113652380D01*
X113838095Y-113604761D01*
X113790476Y-113557142D01*
%TO.C,U4*%
X120438095Y-104252380D02*
X120438095Y-105061904D01*
X120485714Y-105157142D01*
X120533333Y-105204761D01*
X120628571Y-105252380D01*
X120819047Y-105252380D01*
X120914285Y-105204761D01*
X120961904Y-105157142D01*
X121009523Y-105061904D01*
X121009523Y-104252380D01*
X121914285Y-104585714D02*
X121914285Y-105252380D01*
X121676190Y-104204761D02*
X121438095Y-104919047D01*
X122057142Y-104919047D01*
%TO.C,U5*%
X115438095Y-97352380D02*
X115438095Y-98161904D01*
X115485714Y-98257142D01*
X115533333Y-98304761D01*
X115628571Y-98352380D01*
X115819047Y-98352380D01*
X115914285Y-98304761D01*
X115961904Y-98257142D01*
X116009523Y-98161904D01*
X116009523Y-97352380D01*
X116961904Y-97352380D02*
X116485714Y-97352380D01*
X116438095Y-97828571D01*
X116485714Y-97780952D01*
X116580952Y-97733333D01*
X116819047Y-97733333D01*
X116914285Y-97780952D01*
X116961904Y-97828571D01*
X117009523Y-97923809D01*
X117009523Y-98161904D01*
X116961904Y-98257142D01*
X116914285Y-98304761D01*
X116819047Y-98352380D01*
X116580952Y-98352380D01*
X116485714Y-98304761D01*
X116438095Y-98257142D01*
%TO.C,U6*%
X107638095Y-102452380D02*
X107638095Y-103261904D01*
X107685714Y-103357142D01*
X107733333Y-103404761D01*
X107828571Y-103452380D01*
X108019047Y-103452380D01*
X108114285Y-103404761D01*
X108161904Y-103357142D01*
X108209523Y-103261904D01*
X108209523Y-102452380D01*
X109114285Y-102452380D02*
X108923809Y-102452380D01*
X108828571Y-102500000D01*
X108780952Y-102547619D01*
X108685714Y-102690476D01*
X108638095Y-102880952D01*
X108638095Y-103261904D01*
X108685714Y-103357142D01*
X108733333Y-103404761D01*
X108828571Y-103452380D01*
X109019047Y-103452380D01*
X109114285Y-103404761D01*
X109161904Y-103357142D01*
X109209523Y-103261904D01*
X109209523Y-103023809D01*
X109161904Y-102928571D01*
X109114285Y-102880952D01*
X109019047Y-102833333D01*
X108828571Y-102833333D01*
X108733333Y-102880952D01*
X108685714Y-102928571D01*
X108638095Y-103023809D01*
%TO.C,U7*%
X130838095Y-98252380D02*
X130838095Y-99061904D01*
X130885714Y-99157142D01*
X130933333Y-99204761D01*
X131028571Y-99252380D01*
X131219047Y-99252380D01*
X131314285Y-99204761D01*
X131361904Y-99157142D01*
X131409523Y-99061904D01*
X131409523Y-98252380D01*
X131790476Y-98252380D02*
X132457142Y-98252380D01*
X132028571Y-99252380D01*
%TO.C,U8*%
X130438095Y-99865579D02*
X130438095Y-100675103D01*
X130485714Y-100770341D01*
X130533333Y-100817960D01*
X130628571Y-100865579D01*
X130819047Y-100865579D01*
X130914285Y-100817960D01*
X130961904Y-100770341D01*
X131009523Y-100675103D01*
X131009523Y-99865579D01*
X131628571Y-100294151D02*
X131533333Y-100246532D01*
X131485714Y-100198913D01*
X131438095Y-100103675D01*
X131438095Y-100056056D01*
X131485714Y-99960818D01*
X131533333Y-99913199D01*
X131628571Y-99865579D01*
X131819047Y-99865579D01*
X131914285Y-99913199D01*
X131961904Y-99960818D01*
X132009523Y-100056056D01*
X132009523Y-100103675D01*
X131961904Y-100198913D01*
X131914285Y-100246532D01*
X131819047Y-100294151D01*
X131628571Y-100294151D01*
X131533333Y-100341770D01*
X131485714Y-100389389D01*
X131438095Y-100484627D01*
X131438095Y-100675103D01*
X131485714Y-100770341D01*
X131533333Y-100817960D01*
X131628571Y-100865579D01*
X131819047Y-100865579D01*
X131914285Y-100817960D01*
X131961904Y-100770341D01*
X132009523Y-100675103D01*
X132009523Y-100484627D01*
X131961904Y-100389389D01*
X131914285Y-100341770D01*
X131819047Y-100294151D01*
X129650600Y-99937780D02*
X129650600Y-100175876D01*
X129412504Y-100080638D02*
X129650600Y-100175876D01*
X129888695Y-100080638D01*
X129507742Y-100366352D02*
X129650600Y-100175876D01*
X129793457Y-100366352D01*
X129650600Y-99937780D02*
X129650600Y-100175876D01*
X129412504Y-100080638D02*
X129650600Y-100175876D01*
X129888695Y-100080638D01*
X129507742Y-100366352D02*
X129650600Y-100175876D01*
X129793457Y-100366352D01*
%TD*%
M02*
