%TF.GenerationSoftware,KiCad,Pcbnew,(5.1.10)-1*%
%TF.CreationDate,2022-02-13T15:16:37-05:00*%
%TF.ProjectId,wristband,77726973-7462-4616-9e64-2e6b69636164,rev?*%
%TF.SameCoordinates,Original*%
%TF.FileFunction,Soldermask,Bot*%
%TF.FilePolarity,Negative*%
%FSLAX46Y46*%
G04 Gerber Fmt 4.6, Leading zero omitted, Abs format (unit mm)*
G04 Created by KiCad (PCBNEW (5.1.10)-1) date 2022-02-13 15:16:37*
%MOMM*%
%LPD*%
G01*
G04 APERTURE LIST*
%ADD10C,0.010000*%
%ADD11C,3.000000*%
%ADD12C,0.490000*%
%ADD13C,0.750000*%
%ADD14C,0.600000*%
%ADD15C,1.000000*%
%ADD16C,1.150000*%
%ADD17O,1.700000X1.700000*%
%ADD18R,1.700000X1.700000*%
%ADD19C,1.300000*%
%ADD20R,1.200000X1.200000*%
%ADD21C,1.600000*%
G04 APERTURE END LIST*
D10*
%TO.C,P1*%
G36*
X105349880Y-98350000D02*
G01*
X108350000Y-98350000D01*
X108350000Y-99449959D01*
X105349880Y-99449959D01*
X105349880Y-98350000D01*
G37*
X105349880Y-98350000D02*
X108350000Y-98350000D01*
X108350000Y-99449959D01*
X105349880Y-99449959D01*
X105349880Y-98350000D01*
%TD*%
D11*
%TO.C,TP6*%
X135000000Y-75000000D03*
%TD*%
%TO.C,TP5*%
X126800000Y-112800000D03*
%TD*%
%TO.C,TP4*%
X132400000Y-107200000D03*
%TD*%
%TO.C,TP3*%
X132200000Y-112800000D03*
%TD*%
%TO.C,TP2*%
X128000000Y-107200000D03*
%TD*%
%TO.C,TP1*%
X134400000Y-81000000D03*
%TD*%
D12*
%TO.C,P1*%
X106850000Y-98900000D03*
D13*
X109775000Y-99950000D03*
D14*
X103925000Y-99950000D03*
D15*
X109000000Y-101000000D03*
X104700000Y-101000000D03*
%TD*%
D16*
%TO.C,U9*%
X136600000Y-104330000D03*
X136600000Y-101790000D03*
X136600000Y-99250000D03*
X136600000Y-96710000D03*
X136600000Y-106870000D03*
X136600000Y-109410000D03*
X136600000Y-111950000D03*
X136600000Y-114490000D03*
%TD*%
D17*
%TO.C,J3*%
X129600000Y-76620000D03*
X129600000Y-74080000D03*
X129600000Y-71540000D03*
D18*
X129600000Y-69000000D03*
%TD*%
D17*
%TO.C,J2*%
X89400000Y-75480000D03*
X89400000Y-72940000D03*
X89400000Y-70400000D03*
D18*
X89400000Y-67860000D03*
%TD*%
D19*
%TO.C,BT1*%
X131800000Y-82400000D03*
D20*
X131800000Y-85400000D03*
%TD*%
D21*
%TO.C,SW1*%
X87260000Y-89400000D03*
X92340000Y-89400000D03*
%TD*%
%TO.C,SW2*%
X92340000Y-97600000D03*
X87260000Y-97600000D03*
%TD*%
%TO.C,SW3*%
X87260000Y-81300000D03*
X92340000Y-81300000D03*
%TD*%
%TO.C,SW4*%
X92340000Y-105800000D03*
X87260000Y-105800000D03*
%TD*%
M02*
