M48
; DRILL file {KiCad (5.1.10)-1} date 02/13/22 15:16:40
; FORMAT={-:-/ absolute / inch / decimal}
; #@! TF.CreationDate,2022-02-13T15:16:40-05:00
; #@! TF.GenerationSoftware,Kicad,Pcbnew,(5.1.10)-1
; #@! TF.FileFunction,Plated,1,4,PTH
FMAT,2
INCH
T1C0.0157
T2C0.0276
T3C0.0394
T4C0.0787
%
G90
G05
T1
X3.4331Y-4.315
X3.5197Y-4.2283
X3.7323Y-3.7323
X3.7638Y-4.3228
X3.8031Y-3.1181
X3.8346Y-4.2677
X3.8425Y-3.811
X3.8425Y-3.8504
X3.8425Y-3.8898
X3.8504Y-4.0394
X3.8819Y-3.5984
X3.8819Y-3.811
X3.8819Y-3.8504
X3.8819Y-3.8898
X3.9055Y-4.0394
X3.9213Y-3.811
X3.9213Y-3.8504
X3.9213Y-3.8898
X3.937Y-3.4331
X3.9449Y-3.1654
X3.9843Y-3.0
X4.0157Y-4.0315
X4.0315Y-3.7717
X4.0472Y-3.6378
X4.1555Y-4.0571
X4.248Y-3.9882
X4.2835Y-3.1102
X4.2835Y-3.1496
X4.2835Y-3.189
X4.2835Y-3.2283
X4.2835Y-3.2677
X4.3228Y-3.1102
X4.3228Y-3.1496
X4.3228Y-3.189
X4.3228Y-3.2283
X4.3228Y-3.2677
X4.3622Y-3.1102
X4.3622Y-3.1496
X4.3622Y-3.189
X4.3622Y-3.2283
X4.3622Y-3.2677
X4.3858Y-4.1575
X4.4016Y-3.1102
X4.4016Y-3.1496
X4.4016Y-3.189
X4.4016Y-3.2283
X4.4016Y-3.2677
X4.4252Y-3.7953
X4.4409Y-3.1102
X4.4409Y-3.1496
X4.4409Y-3.189
X4.4409Y-3.2283
X4.4409Y-3.2677
X4.4803Y-3.4882
X4.5039Y-4.0236
X4.5276Y-3.4882
X4.5984Y-4.2677
X4.6378Y-3.0394
X4.6378Y-3.0945
X4.6535Y-3.2441
X4.6535Y-3.2913
X4.6772Y-4.0394
X4.7087Y-3.6772
X4.7087Y-3.8583
X4.7244Y-4.4173
X4.7402Y-3.6063
X5.0Y-4.0866
X5.1102Y-4.0551
X5.1102Y-4.3425
X5.1181Y-3.5276
X5.1654Y-3.8346
X5.2283Y-3.622
T2
X4.122Y-3.9764
X4.2913Y-3.9764
X5.189Y-3.2441
X5.189Y-3.3622
X5.378Y-3.8075
X5.378Y-3.9075
X5.378Y-4.0075
X5.378Y-4.1075
X5.378Y-4.2075
X5.378Y-4.3075
X5.378Y-4.4075
X5.378Y-4.5075
T3
X3.4354Y-3.2008
X3.4354Y-3.5197
X3.4354Y-3.8425
X3.4354Y-4.1654
X3.5197Y-2.6717
X3.5197Y-2.7717
X3.5197Y-2.8717
X3.5197Y-2.9717
X3.6354Y-3.2008
X3.6354Y-3.5197
X3.6354Y-3.8425
X3.6354Y-4.1654
X5.1024Y-2.7165
X5.1024Y-2.8165
X5.1024Y-2.9165
X5.1024Y-3.0165
T4
X4.9921Y-4.4409
X5.0394Y-4.2205
X5.2047Y-4.4409
X5.2126Y-4.2205
X5.2913Y-3.189
X5.315Y-2.9528
T0
M30
