%TF.GenerationSoftware,KiCad,Pcbnew,(5.1.10)-1*%
%TF.CreationDate,2022-02-13T15:16:36-05:00*%
%TF.ProjectId,wristband,77726973-7462-4616-9e64-2e6b69636164,rev?*%
%TF.SameCoordinates,Original*%
%TF.FileFunction,Paste,Top*%
%TF.FilePolarity,Positive*%
%FSLAX46Y46*%
G04 Gerber Fmt 4.6, Leading zero omitted, Abs format (unit mm)*
G04 Created by KiCad (PCBNEW (5.1.10)-1) date 2022-02-13 15:16:36*
%MOMM*%
%LPD*%
G01*
G04 APERTURE LIST*
%ADD10C,0.001000*%
%ADD11R,2.184400X1.651000*%
%ADD12R,0.800000X0.900000*%
%ADD13R,0.900000X0.800000*%
%ADD14R,5.000000X5.000000*%
%ADD15R,2.000000X0.900000*%
%ADD16R,0.900000X2.000000*%
%ADD17R,1.560000X0.650000*%
%ADD18R,0.914400X0.431800*%
G04 APERTURE END LIST*
D10*
%TO.C,P1*%
G36*
X105650000Y-98900000D02*
G01*
X105450000Y-98900000D01*
X105451000Y-98876000D01*
X105452000Y-98853000D01*
X105456000Y-98830000D01*
X105460000Y-98806000D01*
X105465000Y-98784000D01*
X105472000Y-98761000D01*
X105480000Y-98739000D01*
X105489000Y-98717000D01*
X105499000Y-98696000D01*
X105510000Y-98675000D01*
X105523000Y-98655000D01*
X105536000Y-98635000D01*
X105550000Y-98617000D01*
X105566000Y-98599000D01*
X105582000Y-98582000D01*
X105599000Y-98566000D01*
X105617000Y-98550000D01*
X105635000Y-98536000D01*
X105655000Y-98523000D01*
X105675000Y-98510000D01*
X105696000Y-98499000D01*
X105717000Y-98489000D01*
X105739000Y-98480000D01*
X105761000Y-98472000D01*
X105784000Y-98465000D01*
X105806000Y-98460000D01*
X105830000Y-98456000D01*
X105853000Y-98452000D01*
X105876000Y-98451000D01*
X105900000Y-98450000D01*
X107800000Y-98450000D01*
X107824000Y-98451000D01*
X107847000Y-98452000D01*
X107870000Y-98456000D01*
X107894000Y-98460000D01*
X107916000Y-98465000D01*
X107939000Y-98472000D01*
X107961000Y-98480000D01*
X107983000Y-98489000D01*
X108004000Y-98499000D01*
X108025000Y-98510000D01*
X108045000Y-98523000D01*
X108065000Y-98536000D01*
X108083000Y-98550000D01*
X108101000Y-98566000D01*
X108118000Y-98582000D01*
X108134000Y-98599000D01*
X108150000Y-98617000D01*
X108164000Y-98635000D01*
X108177000Y-98655000D01*
X108190000Y-98675000D01*
X108201000Y-98696000D01*
X108211000Y-98717000D01*
X108220000Y-98739000D01*
X108228000Y-98761000D01*
X108235000Y-98784000D01*
X108240000Y-98806000D01*
X108244000Y-98830000D01*
X108248000Y-98853000D01*
X108249000Y-98876000D01*
X108250000Y-98900000D01*
X108050000Y-98900000D01*
X108050000Y-98887000D01*
X108049000Y-98874000D01*
X108047000Y-98861000D01*
X108045000Y-98848000D01*
X108041000Y-98835000D01*
X108038000Y-98823000D01*
X108033000Y-98810000D01*
X108028000Y-98798000D01*
X108023000Y-98787000D01*
X108017000Y-98775000D01*
X108010000Y-98764000D01*
X108002000Y-98753000D01*
X107994000Y-98743000D01*
X107986000Y-98733000D01*
X107977000Y-98723000D01*
X107967000Y-98714000D01*
X107957000Y-98706000D01*
X107947000Y-98698000D01*
X107936000Y-98690000D01*
X107925000Y-98683000D01*
X107913000Y-98677000D01*
X107902000Y-98672000D01*
X107890000Y-98667000D01*
X107877000Y-98662000D01*
X107865000Y-98659000D01*
X107852000Y-98655000D01*
X107839000Y-98653000D01*
X107826000Y-98651000D01*
X107813000Y-98650000D01*
X107800000Y-98650000D01*
X105900000Y-98650000D01*
X105887000Y-98650000D01*
X105874000Y-98651000D01*
X105861000Y-98653000D01*
X105848000Y-98655000D01*
X105835000Y-98659000D01*
X105823000Y-98662000D01*
X105810000Y-98667000D01*
X105798000Y-98672000D01*
X105787000Y-98677000D01*
X105775000Y-98683000D01*
X105764000Y-98690000D01*
X105753000Y-98698000D01*
X105743000Y-98706000D01*
X105733000Y-98714000D01*
X105723000Y-98723000D01*
X105714000Y-98733000D01*
X105706000Y-98743000D01*
X105698000Y-98753000D01*
X105690000Y-98764000D01*
X105683000Y-98775000D01*
X105677000Y-98787000D01*
X105672000Y-98798000D01*
X105667000Y-98810000D01*
X105662000Y-98823000D01*
X105659000Y-98835000D01*
X105655000Y-98848000D01*
X105653000Y-98861000D01*
X105651000Y-98874000D01*
X105650000Y-98887000D01*
X105650000Y-98900000D01*
G37*
X105650000Y-98900000D02*
X105450000Y-98900000D01*
X105451000Y-98876000D01*
X105452000Y-98853000D01*
X105456000Y-98830000D01*
X105460000Y-98806000D01*
X105465000Y-98784000D01*
X105472000Y-98761000D01*
X105480000Y-98739000D01*
X105489000Y-98717000D01*
X105499000Y-98696000D01*
X105510000Y-98675000D01*
X105523000Y-98655000D01*
X105536000Y-98635000D01*
X105550000Y-98617000D01*
X105566000Y-98599000D01*
X105582000Y-98582000D01*
X105599000Y-98566000D01*
X105617000Y-98550000D01*
X105635000Y-98536000D01*
X105655000Y-98523000D01*
X105675000Y-98510000D01*
X105696000Y-98499000D01*
X105717000Y-98489000D01*
X105739000Y-98480000D01*
X105761000Y-98472000D01*
X105784000Y-98465000D01*
X105806000Y-98460000D01*
X105830000Y-98456000D01*
X105853000Y-98452000D01*
X105876000Y-98451000D01*
X105900000Y-98450000D01*
X107800000Y-98450000D01*
X107824000Y-98451000D01*
X107847000Y-98452000D01*
X107870000Y-98456000D01*
X107894000Y-98460000D01*
X107916000Y-98465000D01*
X107939000Y-98472000D01*
X107961000Y-98480000D01*
X107983000Y-98489000D01*
X108004000Y-98499000D01*
X108025000Y-98510000D01*
X108045000Y-98523000D01*
X108065000Y-98536000D01*
X108083000Y-98550000D01*
X108101000Y-98566000D01*
X108118000Y-98582000D01*
X108134000Y-98599000D01*
X108150000Y-98617000D01*
X108164000Y-98635000D01*
X108177000Y-98655000D01*
X108190000Y-98675000D01*
X108201000Y-98696000D01*
X108211000Y-98717000D01*
X108220000Y-98739000D01*
X108228000Y-98761000D01*
X108235000Y-98784000D01*
X108240000Y-98806000D01*
X108244000Y-98830000D01*
X108248000Y-98853000D01*
X108249000Y-98876000D01*
X108250000Y-98900000D01*
X108050000Y-98900000D01*
X108050000Y-98887000D01*
X108049000Y-98874000D01*
X108047000Y-98861000D01*
X108045000Y-98848000D01*
X108041000Y-98835000D01*
X108038000Y-98823000D01*
X108033000Y-98810000D01*
X108028000Y-98798000D01*
X108023000Y-98787000D01*
X108017000Y-98775000D01*
X108010000Y-98764000D01*
X108002000Y-98753000D01*
X107994000Y-98743000D01*
X107986000Y-98733000D01*
X107977000Y-98723000D01*
X107967000Y-98714000D01*
X107957000Y-98706000D01*
X107947000Y-98698000D01*
X107936000Y-98690000D01*
X107925000Y-98683000D01*
X107913000Y-98677000D01*
X107902000Y-98672000D01*
X107890000Y-98667000D01*
X107877000Y-98662000D01*
X107865000Y-98659000D01*
X107852000Y-98655000D01*
X107839000Y-98653000D01*
X107826000Y-98651000D01*
X107813000Y-98650000D01*
X107800000Y-98650000D01*
X105900000Y-98650000D01*
X105887000Y-98650000D01*
X105874000Y-98651000D01*
X105861000Y-98653000D01*
X105848000Y-98655000D01*
X105835000Y-98659000D01*
X105823000Y-98662000D01*
X105810000Y-98667000D01*
X105798000Y-98672000D01*
X105787000Y-98677000D01*
X105775000Y-98683000D01*
X105764000Y-98690000D01*
X105753000Y-98698000D01*
X105743000Y-98706000D01*
X105733000Y-98714000D01*
X105723000Y-98723000D01*
X105714000Y-98733000D01*
X105706000Y-98743000D01*
X105698000Y-98753000D01*
X105690000Y-98764000D01*
X105683000Y-98775000D01*
X105677000Y-98787000D01*
X105672000Y-98798000D01*
X105667000Y-98810000D01*
X105662000Y-98823000D01*
X105659000Y-98835000D01*
X105655000Y-98848000D01*
X105653000Y-98861000D01*
X105651000Y-98874000D01*
X105650000Y-98887000D01*
X105650000Y-98900000D01*
G36*
X108050000Y-98900000D02*
G01*
X108250000Y-98900000D01*
X108249000Y-98924000D01*
X108248000Y-98947000D01*
X108244000Y-98970000D01*
X108240000Y-98994000D01*
X108235000Y-99016000D01*
X108228000Y-99039000D01*
X108220000Y-99061000D01*
X108211000Y-99083000D01*
X108201000Y-99104000D01*
X108190000Y-99125000D01*
X108177000Y-99145000D01*
X108164000Y-99165000D01*
X108150000Y-99183000D01*
X108134000Y-99201000D01*
X108118000Y-99218000D01*
X108101000Y-99234000D01*
X108083000Y-99250000D01*
X108065000Y-99264000D01*
X108045000Y-99277000D01*
X108025000Y-99290000D01*
X108004000Y-99301000D01*
X107983000Y-99311000D01*
X107961000Y-99320000D01*
X107939000Y-99328000D01*
X107916000Y-99335000D01*
X107894000Y-99340000D01*
X107870000Y-99344000D01*
X107847000Y-99348000D01*
X107824000Y-99349000D01*
X107800000Y-99350000D01*
X105900000Y-99350000D01*
X105876000Y-99349000D01*
X105853000Y-99348000D01*
X105830000Y-99344000D01*
X105806000Y-99340000D01*
X105784000Y-99335000D01*
X105761000Y-99328000D01*
X105739000Y-99320000D01*
X105717000Y-99311000D01*
X105696000Y-99301000D01*
X105675000Y-99290000D01*
X105655000Y-99277000D01*
X105635000Y-99264000D01*
X105617000Y-99250000D01*
X105599000Y-99234000D01*
X105582000Y-99218000D01*
X105566000Y-99201000D01*
X105550000Y-99183000D01*
X105536000Y-99165000D01*
X105523000Y-99145000D01*
X105510000Y-99125000D01*
X105499000Y-99104000D01*
X105489000Y-99083000D01*
X105480000Y-99061000D01*
X105472000Y-99039000D01*
X105465000Y-99016000D01*
X105460000Y-98994000D01*
X105456000Y-98970000D01*
X105452000Y-98947000D01*
X105451000Y-98924000D01*
X105450000Y-98900000D01*
X105650000Y-98900000D01*
X105650000Y-98913000D01*
X105651000Y-98926000D01*
X105653000Y-98939000D01*
X105655000Y-98952000D01*
X105659000Y-98965000D01*
X105662000Y-98977000D01*
X105667000Y-98990000D01*
X105672000Y-99002000D01*
X105677000Y-99013000D01*
X105683000Y-99025000D01*
X105690000Y-99036000D01*
X105698000Y-99047000D01*
X105706000Y-99057000D01*
X105714000Y-99067000D01*
X105723000Y-99077000D01*
X105733000Y-99086000D01*
X105743000Y-99094000D01*
X105753000Y-99102000D01*
X105764000Y-99110000D01*
X105775000Y-99117000D01*
X105787000Y-99123000D01*
X105798000Y-99128000D01*
X105810000Y-99133000D01*
X105823000Y-99138000D01*
X105835000Y-99141000D01*
X105848000Y-99145000D01*
X105861000Y-99147000D01*
X105874000Y-99149000D01*
X105887000Y-99150000D01*
X105900000Y-99150000D01*
X107800000Y-99150000D01*
X107813000Y-99150000D01*
X107826000Y-99149000D01*
X107839000Y-99147000D01*
X107852000Y-99145000D01*
X107865000Y-99141000D01*
X107877000Y-99138000D01*
X107890000Y-99133000D01*
X107902000Y-99128000D01*
X107913000Y-99123000D01*
X107925000Y-99117000D01*
X107936000Y-99110000D01*
X107947000Y-99102000D01*
X107957000Y-99094000D01*
X107967000Y-99086000D01*
X107977000Y-99077000D01*
X107986000Y-99067000D01*
X107994000Y-99057000D01*
X108002000Y-99047000D01*
X108010000Y-99036000D01*
X108017000Y-99025000D01*
X108023000Y-99013000D01*
X108028000Y-99002000D01*
X108033000Y-98990000D01*
X108038000Y-98977000D01*
X108041000Y-98965000D01*
X108045000Y-98952000D01*
X108047000Y-98939000D01*
X108049000Y-98926000D01*
X108050000Y-98913000D01*
X108050000Y-98900000D01*
G37*
X108050000Y-98900000D02*
X108250000Y-98900000D01*
X108249000Y-98924000D01*
X108248000Y-98947000D01*
X108244000Y-98970000D01*
X108240000Y-98994000D01*
X108235000Y-99016000D01*
X108228000Y-99039000D01*
X108220000Y-99061000D01*
X108211000Y-99083000D01*
X108201000Y-99104000D01*
X108190000Y-99125000D01*
X108177000Y-99145000D01*
X108164000Y-99165000D01*
X108150000Y-99183000D01*
X108134000Y-99201000D01*
X108118000Y-99218000D01*
X108101000Y-99234000D01*
X108083000Y-99250000D01*
X108065000Y-99264000D01*
X108045000Y-99277000D01*
X108025000Y-99290000D01*
X108004000Y-99301000D01*
X107983000Y-99311000D01*
X107961000Y-99320000D01*
X107939000Y-99328000D01*
X107916000Y-99335000D01*
X107894000Y-99340000D01*
X107870000Y-99344000D01*
X107847000Y-99348000D01*
X107824000Y-99349000D01*
X107800000Y-99350000D01*
X105900000Y-99350000D01*
X105876000Y-99349000D01*
X105853000Y-99348000D01*
X105830000Y-99344000D01*
X105806000Y-99340000D01*
X105784000Y-99335000D01*
X105761000Y-99328000D01*
X105739000Y-99320000D01*
X105717000Y-99311000D01*
X105696000Y-99301000D01*
X105675000Y-99290000D01*
X105655000Y-99277000D01*
X105635000Y-99264000D01*
X105617000Y-99250000D01*
X105599000Y-99234000D01*
X105582000Y-99218000D01*
X105566000Y-99201000D01*
X105550000Y-99183000D01*
X105536000Y-99165000D01*
X105523000Y-99145000D01*
X105510000Y-99125000D01*
X105499000Y-99104000D01*
X105489000Y-99083000D01*
X105480000Y-99061000D01*
X105472000Y-99039000D01*
X105465000Y-99016000D01*
X105460000Y-98994000D01*
X105456000Y-98970000D01*
X105452000Y-98947000D01*
X105451000Y-98924000D01*
X105450000Y-98900000D01*
X105650000Y-98900000D01*
X105650000Y-98913000D01*
X105651000Y-98926000D01*
X105653000Y-98939000D01*
X105655000Y-98952000D01*
X105659000Y-98965000D01*
X105662000Y-98977000D01*
X105667000Y-98990000D01*
X105672000Y-99002000D01*
X105677000Y-99013000D01*
X105683000Y-99025000D01*
X105690000Y-99036000D01*
X105698000Y-99047000D01*
X105706000Y-99057000D01*
X105714000Y-99067000D01*
X105723000Y-99077000D01*
X105733000Y-99086000D01*
X105743000Y-99094000D01*
X105753000Y-99102000D01*
X105764000Y-99110000D01*
X105775000Y-99117000D01*
X105787000Y-99123000D01*
X105798000Y-99128000D01*
X105810000Y-99133000D01*
X105823000Y-99138000D01*
X105835000Y-99141000D01*
X105848000Y-99145000D01*
X105861000Y-99147000D01*
X105874000Y-99149000D01*
X105887000Y-99150000D01*
X105900000Y-99150000D01*
X107800000Y-99150000D01*
X107813000Y-99150000D01*
X107826000Y-99149000D01*
X107839000Y-99147000D01*
X107852000Y-99145000D01*
X107865000Y-99141000D01*
X107877000Y-99138000D01*
X107890000Y-99133000D01*
X107902000Y-99128000D01*
X107913000Y-99123000D01*
X107925000Y-99117000D01*
X107936000Y-99110000D01*
X107947000Y-99102000D01*
X107957000Y-99094000D01*
X107967000Y-99086000D01*
X107977000Y-99077000D01*
X107986000Y-99067000D01*
X107994000Y-99057000D01*
X108002000Y-99047000D01*
X108010000Y-99036000D01*
X108017000Y-99025000D01*
X108023000Y-99013000D01*
X108028000Y-99002000D01*
X108033000Y-98990000D01*
X108038000Y-98977000D01*
X108041000Y-98965000D01*
X108045000Y-98952000D01*
X108047000Y-98939000D01*
X108049000Y-98926000D01*
X108050000Y-98913000D01*
X108050000Y-98900000D01*
%TD*%
%TO.C,P1*%
G36*
G01*
X107925000Y-101982500D02*
X107925000Y-100617500D01*
G75*
G02*
X107992500Y-100550000I67500J0D01*
G01*
X108307500Y-100550000D01*
G75*
G02*
X108375000Y-100617500I0J-67500D01*
G01*
X108375000Y-101982500D01*
G75*
G02*
X108307500Y-102050000I-67500J0D01*
G01*
X107992500Y-102050000D01*
G75*
G02*
X107925000Y-101982500I0J67500D01*
G01*
G37*
G36*
G01*
X107275000Y-101982500D02*
X107275000Y-100617500D01*
G75*
G02*
X107342500Y-100550000I67500J0D01*
G01*
X107657500Y-100550000D01*
G75*
G02*
X107725000Y-100617500I0J-67500D01*
G01*
X107725000Y-101982500D01*
G75*
G02*
X107657500Y-102050000I-67500J0D01*
G01*
X107342500Y-102050000D01*
G75*
G02*
X107275000Y-101982500I0J67500D01*
G01*
G37*
G36*
G01*
X106625000Y-101982500D02*
X106625000Y-100617500D01*
G75*
G02*
X106692500Y-100550000I67500J0D01*
G01*
X107007500Y-100550000D01*
G75*
G02*
X107075000Y-100617500I0J-67500D01*
G01*
X107075000Y-101982500D01*
G75*
G02*
X107007500Y-102050000I-67500J0D01*
G01*
X106692500Y-102050000D01*
G75*
G02*
X106625000Y-101982500I0J67500D01*
G01*
G37*
G36*
G01*
X105975000Y-101982500D02*
X105975000Y-100617500D01*
G75*
G02*
X106042500Y-100550000I67500J0D01*
G01*
X106357500Y-100550000D01*
G75*
G02*
X106425000Y-100617500I0J-67500D01*
G01*
X106425000Y-101982500D01*
G75*
G02*
X106357500Y-102050000I-67500J0D01*
G01*
X106042500Y-102050000D01*
G75*
G02*
X105975000Y-101982500I0J67500D01*
G01*
G37*
G36*
G01*
X105325000Y-101982500D02*
X105325000Y-100617500D01*
G75*
G02*
X105392500Y-100550000I67500J0D01*
G01*
X105707500Y-100550000D01*
G75*
G02*
X105775000Y-100617500I0J-67500D01*
G01*
X105775000Y-101982500D01*
G75*
G02*
X105707500Y-102050000I-67500J0D01*
G01*
X105392500Y-102050000D01*
G75*
G02*
X105325000Y-101982500I0J67500D01*
G01*
G37*
%TD*%
%TO.C,F1*%
G36*
G01*
X131837500Y-88450000D02*
X131362500Y-88450000D01*
G75*
G02*
X131125000Y-88212500I0J237500D01*
G01*
X131125000Y-87637500D01*
G75*
G02*
X131362500Y-87400000I237500J0D01*
G01*
X131837500Y-87400000D01*
G75*
G02*
X132075000Y-87637500I0J-237500D01*
G01*
X132075000Y-88212500D01*
G75*
G02*
X131837500Y-88450000I-237500J0D01*
G01*
G37*
G36*
G01*
X131837500Y-90200000D02*
X131362500Y-90200000D01*
G75*
G02*
X131125000Y-89962500I0J237500D01*
G01*
X131125000Y-89387500D01*
G75*
G02*
X131362500Y-89150000I237500J0D01*
G01*
X131837500Y-89150000D01*
G75*
G02*
X132075000Y-89387500I0J-237500D01*
G01*
X132075000Y-89962500D01*
G75*
G02*
X131837500Y-90200000I-237500J0D01*
G01*
G37*
%TD*%
%TO.C,C1*%
G36*
G01*
X136637500Y-94400000D02*
X136162500Y-94400000D01*
G75*
G02*
X135925000Y-94162500I0J237500D01*
G01*
X135925000Y-93562500D01*
G75*
G02*
X136162500Y-93325000I237500J0D01*
G01*
X136637500Y-93325000D01*
G75*
G02*
X136875000Y-93562500I0J-237500D01*
G01*
X136875000Y-94162500D01*
G75*
G02*
X136637500Y-94400000I-237500J0D01*
G01*
G37*
G36*
G01*
X136637500Y-92675000D02*
X136162500Y-92675000D01*
G75*
G02*
X135925000Y-92437500I0J237500D01*
G01*
X135925000Y-91837500D01*
G75*
G02*
X136162500Y-91600000I237500J0D01*
G01*
X136637500Y-91600000D01*
G75*
G02*
X136875000Y-91837500I0J-237500D01*
G01*
X136875000Y-92437500D01*
G75*
G02*
X136637500Y-92675000I-237500J0D01*
G01*
G37*
%TD*%
%TO.C,C2*%
G36*
G01*
X98162500Y-80462500D02*
X98637500Y-80462500D01*
G75*
G02*
X98875000Y-80700000I0J-237500D01*
G01*
X98875000Y-81300000D01*
G75*
G02*
X98637500Y-81537500I-237500J0D01*
G01*
X98162500Y-81537500D01*
G75*
G02*
X97925000Y-81300000I0J237500D01*
G01*
X97925000Y-80700000D01*
G75*
G02*
X98162500Y-80462500I237500J0D01*
G01*
G37*
G36*
G01*
X98162500Y-78737500D02*
X98637500Y-78737500D01*
G75*
G02*
X98875000Y-78975000I0J-237500D01*
G01*
X98875000Y-79575000D01*
G75*
G02*
X98637500Y-79812500I-237500J0D01*
G01*
X98162500Y-79812500D01*
G75*
G02*
X97925000Y-79575000I0J237500D01*
G01*
X97925000Y-78975000D01*
G75*
G02*
X98162500Y-78737500I237500J0D01*
G01*
G37*
%TD*%
%TO.C,C3*%
G36*
G01*
X98162500Y-74337500D02*
X98637500Y-74337500D01*
G75*
G02*
X98875000Y-74575000I0J-237500D01*
G01*
X98875000Y-75175000D01*
G75*
G02*
X98637500Y-75412500I-237500J0D01*
G01*
X98162500Y-75412500D01*
G75*
G02*
X97925000Y-75175000I0J237500D01*
G01*
X97925000Y-74575000D01*
G75*
G02*
X98162500Y-74337500I237500J0D01*
G01*
G37*
G36*
G01*
X98162500Y-76062500D02*
X98637500Y-76062500D01*
G75*
G02*
X98875000Y-76300000I0J-237500D01*
G01*
X98875000Y-76900000D01*
G75*
G02*
X98637500Y-77137500I-237500J0D01*
G01*
X98162500Y-77137500D01*
G75*
G02*
X97925000Y-76900000I0J237500D01*
G01*
X97925000Y-76300000D01*
G75*
G02*
X98162500Y-76062500I237500J0D01*
G01*
G37*
%TD*%
%TO.C,C4*%
G36*
G01*
X107237500Y-97337500D02*
X106762500Y-97337500D01*
G75*
G02*
X106525000Y-97100000I0J237500D01*
G01*
X106525000Y-96500000D01*
G75*
G02*
X106762500Y-96262500I237500J0D01*
G01*
X107237500Y-96262500D01*
G75*
G02*
X107475000Y-96500000I0J-237500D01*
G01*
X107475000Y-97100000D01*
G75*
G02*
X107237500Y-97337500I-237500J0D01*
G01*
G37*
G36*
G01*
X107237500Y-95612500D02*
X106762500Y-95612500D01*
G75*
G02*
X106525000Y-95375000I0J237500D01*
G01*
X106525000Y-94775000D01*
G75*
G02*
X106762500Y-94537500I237500J0D01*
G01*
X107237500Y-94537500D01*
G75*
G02*
X107475000Y-94775000I0J-237500D01*
G01*
X107475000Y-95375000D01*
G75*
G02*
X107237500Y-95612500I-237500J0D01*
G01*
G37*
%TD*%
%TO.C,C5*%
G36*
G01*
X132762500Y-70262500D02*
X133237500Y-70262500D01*
G75*
G02*
X133475000Y-70500000I0J-237500D01*
G01*
X133475000Y-71100000D01*
G75*
G02*
X133237500Y-71337500I-237500J0D01*
G01*
X132762500Y-71337500D01*
G75*
G02*
X132525000Y-71100000I0J237500D01*
G01*
X132525000Y-70500000D01*
G75*
G02*
X132762500Y-70262500I237500J0D01*
G01*
G37*
G36*
G01*
X132762500Y-68537500D02*
X133237500Y-68537500D01*
G75*
G02*
X133475000Y-68775000I0J-237500D01*
G01*
X133475000Y-69375000D01*
G75*
G02*
X133237500Y-69612500I-237500J0D01*
G01*
X132762500Y-69612500D01*
G75*
G02*
X132525000Y-69375000I0J237500D01*
G01*
X132525000Y-68775000D01*
G75*
G02*
X132762500Y-68537500I237500J0D01*
G01*
G37*
%TD*%
%TO.C,C6*%
G36*
G01*
X118262500Y-104237500D02*
X118262500Y-103762500D01*
G75*
G02*
X118500000Y-103525000I237500J0D01*
G01*
X119100000Y-103525000D01*
G75*
G02*
X119337500Y-103762500I0J-237500D01*
G01*
X119337500Y-104237500D01*
G75*
G02*
X119100000Y-104475000I-237500J0D01*
G01*
X118500000Y-104475000D01*
G75*
G02*
X118262500Y-104237500I0J237500D01*
G01*
G37*
G36*
G01*
X116537500Y-104237500D02*
X116537500Y-103762500D01*
G75*
G02*
X116775000Y-103525000I237500J0D01*
G01*
X117375000Y-103525000D01*
G75*
G02*
X117612500Y-103762500I0J-237500D01*
G01*
X117612500Y-104237500D01*
G75*
G02*
X117375000Y-104475000I-237500J0D01*
G01*
X116775000Y-104475000D01*
G75*
G02*
X116537500Y-104237500I0J237500D01*
G01*
G37*
%TD*%
%TO.C,C7*%
G36*
G01*
X117537500Y-99362500D02*
X117537500Y-99837500D01*
G75*
G02*
X117300000Y-100075000I-237500J0D01*
G01*
X116700000Y-100075000D01*
G75*
G02*
X116462500Y-99837500I0J237500D01*
G01*
X116462500Y-99362500D01*
G75*
G02*
X116700000Y-99125000I237500J0D01*
G01*
X117300000Y-99125000D01*
G75*
G02*
X117537500Y-99362500I0J-237500D01*
G01*
G37*
G36*
G01*
X115812500Y-99362500D02*
X115812500Y-99837500D01*
G75*
G02*
X115575000Y-100075000I-237500J0D01*
G01*
X114975000Y-100075000D01*
G75*
G02*
X114737500Y-99837500I0J237500D01*
G01*
X114737500Y-99362500D01*
G75*
G02*
X114975000Y-99125000I237500J0D01*
G01*
X115575000Y-99125000D01*
G75*
G02*
X115812500Y-99362500I0J-237500D01*
G01*
G37*
%TD*%
%TO.C,C8*%
G36*
G01*
X127137500Y-92962500D02*
X127137500Y-93437500D01*
G75*
G02*
X126900000Y-93675000I-237500J0D01*
G01*
X126300000Y-93675000D01*
G75*
G02*
X126062500Y-93437500I0J237500D01*
G01*
X126062500Y-92962500D01*
G75*
G02*
X126300000Y-92725000I237500J0D01*
G01*
X126900000Y-92725000D01*
G75*
G02*
X127137500Y-92962500I0J-237500D01*
G01*
G37*
G36*
G01*
X125412500Y-92962500D02*
X125412500Y-93437500D01*
G75*
G02*
X125175000Y-93675000I-237500J0D01*
G01*
X124575000Y-93675000D01*
G75*
G02*
X124337500Y-93437500I0J237500D01*
G01*
X124337500Y-92962500D01*
G75*
G02*
X124575000Y-92725000I237500J0D01*
G01*
X125175000Y-92725000D01*
G75*
G02*
X125412500Y-92962500I0J-237500D01*
G01*
G37*
%TD*%
%TO.C,C9*%
G36*
G01*
X131537500Y-91762500D02*
X131537500Y-92237500D01*
G75*
G02*
X131300000Y-92475000I-237500J0D01*
G01*
X130700000Y-92475000D01*
G75*
G02*
X130462500Y-92237500I0J237500D01*
G01*
X130462500Y-91762500D01*
G75*
G02*
X130700000Y-91525000I237500J0D01*
G01*
X131300000Y-91525000D01*
G75*
G02*
X131537500Y-91762500I0J-237500D01*
G01*
G37*
G36*
G01*
X129812500Y-91762500D02*
X129812500Y-92237500D01*
G75*
G02*
X129575000Y-92475000I-237500J0D01*
G01*
X128975000Y-92475000D01*
G75*
G02*
X128737500Y-92237500I0J237500D01*
G01*
X128737500Y-91762500D01*
G75*
G02*
X128975000Y-91525000I237500J0D01*
G01*
X129575000Y-91525000D01*
G75*
G02*
X129812500Y-91762500I0J-237500D01*
G01*
G37*
%TD*%
%TO.C,C10*%
G36*
G01*
X135437500Y-88537500D02*
X134962500Y-88537500D01*
G75*
G02*
X134725000Y-88300000I0J237500D01*
G01*
X134725000Y-87700000D01*
G75*
G02*
X134962500Y-87462500I237500J0D01*
G01*
X135437500Y-87462500D01*
G75*
G02*
X135675000Y-87700000I0J-237500D01*
G01*
X135675000Y-88300000D01*
G75*
G02*
X135437500Y-88537500I-237500J0D01*
G01*
G37*
G36*
G01*
X135437500Y-90262500D02*
X134962500Y-90262500D01*
G75*
G02*
X134725000Y-90025000I0J237500D01*
G01*
X134725000Y-89425000D01*
G75*
G02*
X134962500Y-89187500I237500J0D01*
G01*
X135437500Y-89187500D01*
G75*
G02*
X135675000Y-89425000I0J-237500D01*
G01*
X135675000Y-90025000D01*
G75*
G02*
X135437500Y-90262500I-237500J0D01*
G01*
G37*
%TD*%
%TO.C,C11*%
G36*
G01*
X126762500Y-103062500D02*
X127237500Y-103062500D01*
G75*
G02*
X127475000Y-103300000I0J-237500D01*
G01*
X127475000Y-103900000D01*
G75*
G02*
X127237500Y-104137500I-237500J0D01*
G01*
X126762500Y-104137500D01*
G75*
G02*
X126525000Y-103900000I0J237500D01*
G01*
X126525000Y-103300000D01*
G75*
G02*
X126762500Y-103062500I237500J0D01*
G01*
G37*
G36*
G01*
X126762500Y-101337500D02*
X127237500Y-101337500D01*
G75*
G02*
X127475000Y-101575000I0J-237500D01*
G01*
X127475000Y-102175000D01*
G75*
G02*
X127237500Y-102412500I-237500J0D01*
G01*
X126762500Y-102412500D01*
G75*
G02*
X126525000Y-102175000I0J237500D01*
G01*
X126525000Y-101575000D01*
G75*
G02*
X126762500Y-101337500I237500J0D01*
G01*
G37*
%TD*%
%TO.C,C12*%
G36*
G01*
X134362500Y-103262500D02*
X134837500Y-103262500D01*
G75*
G02*
X135075000Y-103500000I0J-237500D01*
G01*
X135075000Y-104100000D01*
G75*
G02*
X134837500Y-104337500I-237500J0D01*
G01*
X134362500Y-104337500D01*
G75*
G02*
X134125000Y-104100000I0J237500D01*
G01*
X134125000Y-103500000D01*
G75*
G02*
X134362500Y-103262500I237500J0D01*
G01*
G37*
G36*
G01*
X134362500Y-101537500D02*
X134837500Y-101537500D01*
G75*
G02*
X135075000Y-101775000I0J-237500D01*
G01*
X135075000Y-102375000D01*
G75*
G02*
X134837500Y-102612500I-237500J0D01*
G01*
X134362500Y-102612500D01*
G75*
G02*
X134125000Y-102375000I0J237500D01*
G01*
X134125000Y-101775000D01*
G75*
G02*
X134362500Y-101537500I237500J0D01*
G01*
G37*
%TD*%
%TO.C,C13*%
G36*
G01*
X111037500Y-95212500D02*
X110562500Y-95212500D01*
G75*
G02*
X110325000Y-94975000I0J237500D01*
G01*
X110325000Y-94375000D01*
G75*
G02*
X110562500Y-94137500I237500J0D01*
G01*
X111037500Y-94137500D01*
G75*
G02*
X111275000Y-94375000I0J-237500D01*
G01*
X111275000Y-94975000D01*
G75*
G02*
X111037500Y-95212500I-237500J0D01*
G01*
G37*
G36*
G01*
X111037500Y-96937500D02*
X110562500Y-96937500D01*
G75*
G02*
X110325000Y-96700000I0J237500D01*
G01*
X110325000Y-96100000D01*
G75*
G02*
X110562500Y-95862500I237500J0D01*
G01*
X111037500Y-95862500D01*
G75*
G02*
X111275000Y-96100000I0J-237500D01*
G01*
X111275000Y-96700000D01*
G75*
G02*
X111037500Y-96937500I-237500J0D01*
G01*
G37*
%TD*%
%TO.C,C14*%
G36*
G01*
X97937500Y-109562500D02*
X97937500Y-110037500D01*
G75*
G02*
X97700000Y-110275000I-237500J0D01*
G01*
X97100000Y-110275000D01*
G75*
G02*
X96862500Y-110037500I0J237500D01*
G01*
X96862500Y-109562500D01*
G75*
G02*
X97100000Y-109325000I237500J0D01*
G01*
X97700000Y-109325000D01*
G75*
G02*
X97937500Y-109562500I0J-237500D01*
G01*
G37*
G36*
G01*
X96212500Y-109562500D02*
X96212500Y-110037500D01*
G75*
G02*
X95975000Y-110275000I-237500J0D01*
G01*
X95375000Y-110275000D01*
G75*
G02*
X95137500Y-110037500I0J237500D01*
G01*
X95137500Y-109562500D01*
G75*
G02*
X95375000Y-109325000I237500J0D01*
G01*
X95975000Y-109325000D01*
G75*
G02*
X96212500Y-109562500I0J-237500D01*
G01*
G37*
%TD*%
D11*
%TO.C,D1*%
X103800000Y-111000000D03*
X100396400Y-111000000D03*
%TD*%
%TO.C,D2*%
G36*
G01*
X112125000Y-109637500D02*
X112125000Y-109162500D01*
G75*
G02*
X112362500Y-108925000I237500J0D01*
G01*
X112937500Y-108925000D01*
G75*
G02*
X113175000Y-109162500I0J-237500D01*
G01*
X113175000Y-109637500D01*
G75*
G02*
X112937500Y-109875000I-237500J0D01*
G01*
X112362500Y-109875000D01*
G75*
G02*
X112125000Y-109637500I0J237500D01*
G01*
G37*
G36*
G01*
X113875000Y-109637500D02*
X113875000Y-109162500D01*
G75*
G02*
X114112500Y-108925000I237500J0D01*
G01*
X114687500Y-108925000D01*
G75*
G02*
X114925000Y-109162500I0J-237500D01*
G01*
X114925000Y-109637500D01*
G75*
G02*
X114687500Y-109875000I-237500J0D01*
G01*
X114112500Y-109875000D01*
G75*
G02*
X113875000Y-109637500I0J237500D01*
G01*
G37*
%TD*%
%TO.C,D3*%
G36*
G01*
X109762500Y-110075000D02*
X110237500Y-110075000D01*
G75*
G02*
X110475000Y-110312500I0J-237500D01*
G01*
X110475000Y-110887500D01*
G75*
G02*
X110237500Y-111125000I-237500J0D01*
G01*
X109762500Y-111125000D01*
G75*
G02*
X109525000Y-110887500I0J237500D01*
G01*
X109525000Y-110312500D01*
G75*
G02*
X109762500Y-110075000I237500J0D01*
G01*
G37*
G36*
G01*
X109762500Y-108325000D02*
X110237500Y-108325000D01*
G75*
G02*
X110475000Y-108562500I0J-237500D01*
G01*
X110475000Y-109137500D01*
G75*
G02*
X110237500Y-109375000I-237500J0D01*
G01*
X109762500Y-109375000D01*
G75*
G02*
X109525000Y-109137500I0J237500D01*
G01*
X109525000Y-108562500D01*
G75*
G02*
X109762500Y-108325000I237500J0D01*
G01*
G37*
%TD*%
D12*
%TO.C,Q1*%
X122600000Y-103000000D03*
X121650000Y-101000000D03*
X123550000Y-101000000D03*
%TD*%
D13*
%TO.C,Q2*%
X125400000Y-96250000D03*
X125400000Y-98150000D03*
X127400000Y-97200000D03*
%TD*%
%TO.C,Q3*%
X91200000Y-113200000D03*
X91200000Y-111300000D03*
X89200000Y-112250000D03*
%TD*%
%TO.C,Q4*%
X99600000Y-106200000D03*
X97600000Y-107150000D03*
X97600000Y-105250000D03*
%TD*%
%TO.C,R1*%
G36*
G01*
X123162500Y-84487500D02*
X123637500Y-84487500D01*
G75*
G02*
X123875000Y-84725000I0J-237500D01*
G01*
X123875000Y-85225000D01*
G75*
G02*
X123637500Y-85462500I-237500J0D01*
G01*
X123162500Y-85462500D01*
G75*
G02*
X122925000Y-85225000I0J237500D01*
G01*
X122925000Y-84725000D01*
G75*
G02*
X123162500Y-84487500I237500J0D01*
G01*
G37*
G36*
G01*
X123162500Y-86312500D02*
X123637500Y-86312500D01*
G75*
G02*
X123875000Y-86550000I0J-237500D01*
G01*
X123875000Y-87050000D01*
G75*
G02*
X123637500Y-87287500I-237500J0D01*
G01*
X123162500Y-87287500D01*
G75*
G02*
X122925000Y-87050000I0J237500D01*
G01*
X122925000Y-86550000D01*
G75*
G02*
X123162500Y-86312500I237500J0D01*
G01*
G37*
%TD*%
%TO.C,R2*%
G36*
G01*
X97087500Y-92962500D02*
X97087500Y-93437500D01*
G75*
G02*
X96850000Y-93675000I-237500J0D01*
G01*
X96350000Y-93675000D01*
G75*
G02*
X96112500Y-93437500I0J237500D01*
G01*
X96112500Y-92962500D01*
G75*
G02*
X96350000Y-92725000I237500J0D01*
G01*
X96850000Y-92725000D01*
G75*
G02*
X97087500Y-92962500I0J-237500D01*
G01*
G37*
G36*
G01*
X95262500Y-92962500D02*
X95262500Y-93437500D01*
G75*
G02*
X95025000Y-93675000I-237500J0D01*
G01*
X94525000Y-93675000D01*
G75*
G02*
X94287500Y-93437500I0J237500D01*
G01*
X94287500Y-92962500D01*
G75*
G02*
X94525000Y-92725000I237500J0D01*
G01*
X95025000Y-92725000D01*
G75*
G02*
X95262500Y-92962500I0J-237500D01*
G01*
G37*
%TD*%
%TO.C,R3*%
G36*
G01*
X99262500Y-92962500D02*
X99262500Y-93437500D01*
G75*
G02*
X99025000Y-93675000I-237500J0D01*
G01*
X98525000Y-93675000D01*
G75*
G02*
X98287500Y-93437500I0J237500D01*
G01*
X98287500Y-92962500D01*
G75*
G02*
X98525000Y-92725000I237500J0D01*
G01*
X99025000Y-92725000D01*
G75*
G02*
X99262500Y-92962500I0J-237500D01*
G01*
G37*
G36*
G01*
X101087500Y-92962500D02*
X101087500Y-93437500D01*
G75*
G02*
X100850000Y-93675000I-237500J0D01*
G01*
X100350000Y-93675000D01*
G75*
G02*
X100112500Y-93437500I0J237500D01*
G01*
X100112500Y-92962500D01*
G75*
G02*
X100350000Y-92725000I237500J0D01*
G01*
X100850000Y-92725000D01*
G75*
G02*
X101087500Y-92962500I0J-237500D01*
G01*
G37*
%TD*%
%TO.C,R4*%
G36*
G01*
X103562500Y-96112500D02*
X104037500Y-96112500D01*
G75*
G02*
X104275000Y-96350000I0J-237500D01*
G01*
X104275000Y-96850000D01*
G75*
G02*
X104037500Y-97087500I-237500J0D01*
G01*
X103562500Y-97087500D01*
G75*
G02*
X103325000Y-96850000I0J237500D01*
G01*
X103325000Y-96350000D01*
G75*
G02*
X103562500Y-96112500I237500J0D01*
G01*
G37*
G36*
G01*
X103562500Y-94287500D02*
X104037500Y-94287500D01*
G75*
G02*
X104275000Y-94525000I0J-237500D01*
G01*
X104275000Y-95025000D01*
G75*
G02*
X104037500Y-95262500I-237500J0D01*
G01*
X103562500Y-95262500D01*
G75*
G02*
X103325000Y-95025000I0J237500D01*
G01*
X103325000Y-94525000D01*
G75*
G02*
X103562500Y-94287500I237500J0D01*
G01*
G37*
%TD*%
%TO.C,R5*%
G36*
G01*
X121837500Y-96087500D02*
X121362500Y-96087500D01*
G75*
G02*
X121125000Y-95850000I0J237500D01*
G01*
X121125000Y-95350000D01*
G75*
G02*
X121362500Y-95112500I237500J0D01*
G01*
X121837500Y-95112500D01*
G75*
G02*
X122075000Y-95350000I0J-237500D01*
G01*
X122075000Y-95850000D01*
G75*
G02*
X121837500Y-96087500I-237500J0D01*
G01*
G37*
G36*
G01*
X121837500Y-94262500D02*
X121362500Y-94262500D01*
G75*
G02*
X121125000Y-94025000I0J237500D01*
G01*
X121125000Y-93525000D01*
G75*
G02*
X121362500Y-93287500I237500J0D01*
G01*
X121837500Y-93287500D01*
G75*
G02*
X122075000Y-93525000I0J-237500D01*
G01*
X122075000Y-94025000D01*
G75*
G02*
X121837500Y-94262500I-237500J0D01*
G01*
G37*
%TD*%
%TO.C,R6*%
G36*
G01*
X122425000Y-98837500D02*
X122425000Y-98362500D01*
G75*
G02*
X122662500Y-98125000I237500J0D01*
G01*
X123162500Y-98125000D01*
G75*
G02*
X123400000Y-98362500I0J-237500D01*
G01*
X123400000Y-98837500D01*
G75*
G02*
X123162500Y-99075000I-237500J0D01*
G01*
X122662500Y-99075000D01*
G75*
G02*
X122425000Y-98837500I0J237500D01*
G01*
G37*
G36*
G01*
X120600000Y-98837500D02*
X120600000Y-98362500D01*
G75*
G02*
X120837500Y-98125000I237500J0D01*
G01*
X121337500Y-98125000D01*
G75*
G02*
X121575000Y-98362500I0J-237500D01*
G01*
X121575000Y-98837500D01*
G75*
G02*
X121337500Y-99075000I-237500J0D01*
G01*
X120837500Y-99075000D01*
G75*
G02*
X120600000Y-98837500I0J237500D01*
G01*
G37*
%TD*%
%TO.C,R7*%
G36*
G01*
X102037500Y-106887500D02*
X101562500Y-106887500D01*
G75*
G02*
X101325000Y-106650000I0J237500D01*
G01*
X101325000Y-106150000D01*
G75*
G02*
X101562500Y-105912500I237500J0D01*
G01*
X102037500Y-105912500D01*
G75*
G02*
X102275000Y-106150000I0J-237500D01*
G01*
X102275000Y-106650000D01*
G75*
G02*
X102037500Y-106887500I-237500J0D01*
G01*
G37*
G36*
G01*
X102037500Y-105062500D02*
X101562500Y-105062500D01*
G75*
G02*
X101325000Y-104825000I0J237500D01*
G01*
X101325000Y-104325000D01*
G75*
G02*
X101562500Y-104087500I237500J0D01*
G01*
X102037500Y-104087500D01*
G75*
G02*
X102275000Y-104325000I0J-237500D01*
G01*
X102275000Y-104825000D01*
G75*
G02*
X102037500Y-105062500I-237500J0D01*
G01*
G37*
%TD*%
%TO.C,R8*%
G36*
G01*
X104637500Y-106912500D02*
X104162500Y-106912500D01*
G75*
G02*
X103925000Y-106675000I0J237500D01*
G01*
X103925000Y-106175000D01*
G75*
G02*
X104162500Y-105937500I237500J0D01*
G01*
X104637500Y-105937500D01*
G75*
G02*
X104875000Y-106175000I0J-237500D01*
G01*
X104875000Y-106675000D01*
G75*
G02*
X104637500Y-106912500I-237500J0D01*
G01*
G37*
G36*
G01*
X104637500Y-105087500D02*
X104162500Y-105087500D01*
G75*
G02*
X103925000Y-104850000I0J237500D01*
G01*
X103925000Y-104350000D01*
G75*
G02*
X104162500Y-104112500I237500J0D01*
G01*
X104637500Y-104112500D01*
G75*
G02*
X104875000Y-104350000I0J-237500D01*
G01*
X104875000Y-104850000D01*
G75*
G02*
X104637500Y-105087500I-237500J0D01*
G01*
G37*
%TD*%
%TO.C,R9*%
G36*
G01*
X112087500Y-106637500D02*
X112087500Y-106162500D01*
G75*
G02*
X112325000Y-105925000I237500J0D01*
G01*
X112825000Y-105925000D01*
G75*
G02*
X113062500Y-106162500I0J-237500D01*
G01*
X113062500Y-106637500D01*
G75*
G02*
X112825000Y-106875000I-237500J0D01*
G01*
X112325000Y-106875000D01*
G75*
G02*
X112087500Y-106637500I0J237500D01*
G01*
G37*
G36*
G01*
X113912500Y-106637500D02*
X113912500Y-106162500D01*
G75*
G02*
X114150000Y-105925000I237500J0D01*
G01*
X114650000Y-105925000D01*
G75*
G02*
X114887500Y-106162500I0J-237500D01*
G01*
X114887500Y-106637500D01*
G75*
G02*
X114650000Y-106875000I-237500J0D01*
G01*
X114150000Y-106875000D01*
G75*
G02*
X113912500Y-106637500I0J237500D01*
G01*
G37*
%TD*%
%TO.C,R10*%
G36*
G01*
X107362500Y-110112500D02*
X107837500Y-110112500D01*
G75*
G02*
X108075000Y-110350000I0J-237500D01*
G01*
X108075000Y-110850000D01*
G75*
G02*
X107837500Y-111087500I-237500J0D01*
G01*
X107362500Y-111087500D01*
G75*
G02*
X107125000Y-110850000I0J237500D01*
G01*
X107125000Y-110350000D01*
G75*
G02*
X107362500Y-110112500I237500J0D01*
G01*
G37*
G36*
G01*
X107362500Y-108287500D02*
X107837500Y-108287500D01*
G75*
G02*
X108075000Y-108525000I0J-237500D01*
G01*
X108075000Y-109025000D01*
G75*
G02*
X107837500Y-109262500I-237500J0D01*
G01*
X107362500Y-109262500D01*
G75*
G02*
X107125000Y-109025000I0J237500D01*
G01*
X107125000Y-108525000D01*
G75*
G02*
X107362500Y-108287500I237500J0D01*
G01*
G37*
%TD*%
%TO.C,R11*%
G36*
G01*
X95162500Y-85112500D02*
X95637500Y-85112500D01*
G75*
G02*
X95875000Y-85350000I0J-237500D01*
G01*
X95875000Y-85850000D01*
G75*
G02*
X95637500Y-86087500I-237500J0D01*
G01*
X95162500Y-86087500D01*
G75*
G02*
X94925000Y-85850000I0J237500D01*
G01*
X94925000Y-85350000D01*
G75*
G02*
X95162500Y-85112500I237500J0D01*
G01*
G37*
G36*
G01*
X95162500Y-83287500D02*
X95637500Y-83287500D01*
G75*
G02*
X95875000Y-83525000I0J-237500D01*
G01*
X95875000Y-84025000D01*
G75*
G02*
X95637500Y-84262500I-237500J0D01*
G01*
X95162500Y-84262500D01*
G75*
G02*
X94925000Y-84025000I0J237500D01*
G01*
X94925000Y-83525000D01*
G75*
G02*
X95162500Y-83287500I237500J0D01*
G01*
G37*
%TD*%
%TO.C,R12*%
G36*
G01*
X98637500Y-88062500D02*
X98162500Y-88062500D01*
G75*
G02*
X97925000Y-87825000I0J237500D01*
G01*
X97925000Y-87325000D01*
G75*
G02*
X98162500Y-87087500I237500J0D01*
G01*
X98637500Y-87087500D01*
G75*
G02*
X98875000Y-87325000I0J-237500D01*
G01*
X98875000Y-87825000D01*
G75*
G02*
X98637500Y-88062500I-237500J0D01*
G01*
G37*
G36*
G01*
X98637500Y-89887500D02*
X98162500Y-89887500D01*
G75*
G02*
X97925000Y-89650000I0J237500D01*
G01*
X97925000Y-89150000D01*
G75*
G02*
X98162500Y-88912500I237500J0D01*
G01*
X98637500Y-88912500D01*
G75*
G02*
X98875000Y-89150000I0J-237500D01*
G01*
X98875000Y-89650000D01*
G75*
G02*
X98637500Y-89887500I-237500J0D01*
G01*
G37*
%TD*%
%TO.C,R13*%
G36*
G01*
X95237500Y-81587500D02*
X94762500Y-81587500D01*
G75*
G02*
X94525000Y-81350000I0J237500D01*
G01*
X94525000Y-80850000D01*
G75*
G02*
X94762500Y-80612500I237500J0D01*
G01*
X95237500Y-80612500D01*
G75*
G02*
X95475000Y-80850000I0J-237500D01*
G01*
X95475000Y-81350000D01*
G75*
G02*
X95237500Y-81587500I-237500J0D01*
G01*
G37*
G36*
G01*
X95237500Y-79762500D02*
X94762500Y-79762500D01*
G75*
G02*
X94525000Y-79525000I0J237500D01*
G01*
X94525000Y-79025000D01*
G75*
G02*
X94762500Y-78787500I237500J0D01*
G01*
X95237500Y-78787500D01*
G75*
G02*
X95475000Y-79025000I0J-237500D01*
G01*
X95475000Y-79525000D01*
G75*
G02*
X95237500Y-79762500I-237500J0D01*
G01*
G37*
%TD*%
%TO.C,R14*%
G36*
G01*
X93837500Y-113487500D02*
X93362500Y-113487500D01*
G75*
G02*
X93125000Y-113250000I0J237500D01*
G01*
X93125000Y-112750000D01*
G75*
G02*
X93362500Y-112512500I237500J0D01*
G01*
X93837500Y-112512500D01*
G75*
G02*
X94075000Y-112750000I0J-237500D01*
G01*
X94075000Y-113250000D01*
G75*
G02*
X93837500Y-113487500I-237500J0D01*
G01*
G37*
G36*
G01*
X93837500Y-111662500D02*
X93362500Y-111662500D01*
G75*
G02*
X93125000Y-111425000I0J237500D01*
G01*
X93125000Y-110925000D01*
G75*
G02*
X93362500Y-110687500I237500J0D01*
G01*
X93837500Y-110687500D01*
G75*
G02*
X94075000Y-110925000I0J-237500D01*
G01*
X94075000Y-111425000D01*
G75*
G02*
X93837500Y-111662500I-237500J0D01*
G01*
G37*
%TD*%
%TO.C,R15*%
G36*
G01*
X94362500Y-106825000D02*
X94837500Y-106825000D01*
G75*
G02*
X95075000Y-107062500I0J-237500D01*
G01*
X95075000Y-107562500D01*
G75*
G02*
X94837500Y-107800000I-237500J0D01*
G01*
X94362500Y-107800000D01*
G75*
G02*
X94125000Y-107562500I0J237500D01*
G01*
X94125000Y-107062500D01*
G75*
G02*
X94362500Y-106825000I237500J0D01*
G01*
G37*
G36*
G01*
X94362500Y-105000000D02*
X94837500Y-105000000D01*
G75*
G02*
X95075000Y-105237500I0J-237500D01*
G01*
X95075000Y-105737500D01*
G75*
G02*
X94837500Y-105975000I-237500J0D01*
G01*
X94362500Y-105975000D01*
G75*
G02*
X94125000Y-105737500I0J237500D01*
G01*
X94125000Y-105237500D01*
G75*
G02*
X94362500Y-105000000I237500J0D01*
G01*
G37*
%TD*%
%TO.C,R16*%
G36*
G01*
X86962500Y-110712500D02*
X87437500Y-110712500D01*
G75*
G02*
X87675000Y-110950000I0J-237500D01*
G01*
X87675000Y-111450000D01*
G75*
G02*
X87437500Y-111687500I-237500J0D01*
G01*
X86962500Y-111687500D01*
G75*
G02*
X86725000Y-111450000I0J237500D01*
G01*
X86725000Y-110950000D01*
G75*
G02*
X86962500Y-110712500I237500J0D01*
G01*
G37*
G36*
G01*
X86962500Y-112537500D02*
X87437500Y-112537500D01*
G75*
G02*
X87675000Y-112775000I0J-237500D01*
G01*
X87675000Y-113275000D01*
G75*
G02*
X87437500Y-113512500I-237500J0D01*
G01*
X86962500Y-113512500D01*
G75*
G02*
X86725000Y-113275000I0J237500D01*
G01*
X86725000Y-112775000D01*
G75*
G02*
X86962500Y-112537500I237500J0D01*
G01*
G37*
%TD*%
%TO.C,R17*%
G36*
G01*
X128037500Y-85262500D02*
X127562500Y-85262500D01*
G75*
G02*
X127325000Y-85025000I0J237500D01*
G01*
X127325000Y-84525000D01*
G75*
G02*
X127562500Y-84287500I237500J0D01*
G01*
X128037500Y-84287500D01*
G75*
G02*
X128275000Y-84525000I0J-237500D01*
G01*
X128275000Y-85025000D01*
G75*
G02*
X128037500Y-85262500I-237500J0D01*
G01*
G37*
G36*
G01*
X128037500Y-87087500D02*
X127562500Y-87087500D01*
G75*
G02*
X127325000Y-86850000I0J237500D01*
G01*
X127325000Y-86350000D01*
G75*
G02*
X127562500Y-86112500I237500J0D01*
G01*
X128037500Y-86112500D01*
G75*
G02*
X128275000Y-86350000I0J-237500D01*
G01*
X128275000Y-86850000D01*
G75*
G02*
X128037500Y-87087500I-237500J0D01*
G01*
G37*
%TD*%
%TO.C,R18*%
G36*
G01*
X125237500Y-107862500D02*
X124762500Y-107862500D01*
G75*
G02*
X124525000Y-107625000I0J237500D01*
G01*
X124525000Y-107125000D01*
G75*
G02*
X124762500Y-106887500I237500J0D01*
G01*
X125237500Y-106887500D01*
G75*
G02*
X125475000Y-107125000I0J-237500D01*
G01*
X125475000Y-107625000D01*
G75*
G02*
X125237500Y-107862500I-237500J0D01*
G01*
G37*
G36*
G01*
X125237500Y-109687500D02*
X124762500Y-109687500D01*
G75*
G02*
X124525000Y-109450000I0J237500D01*
G01*
X124525000Y-108950000D01*
G75*
G02*
X124762500Y-108712500I237500J0D01*
G01*
X125237500Y-108712500D01*
G75*
G02*
X125475000Y-108950000I0J-237500D01*
G01*
X125475000Y-109450000D01*
G75*
G02*
X125237500Y-109687500I-237500J0D01*
G01*
G37*
%TD*%
%TO.C,R19*%
G36*
G01*
X112087500Y-104237500D02*
X112087500Y-103762500D01*
G75*
G02*
X112325000Y-103525000I237500J0D01*
G01*
X112825000Y-103525000D01*
G75*
G02*
X113062500Y-103762500I0J-237500D01*
G01*
X113062500Y-104237500D01*
G75*
G02*
X112825000Y-104475000I-237500J0D01*
G01*
X112325000Y-104475000D01*
G75*
G02*
X112087500Y-104237500I0J237500D01*
G01*
G37*
G36*
G01*
X113912500Y-104237500D02*
X113912500Y-103762500D01*
G75*
G02*
X114150000Y-103525000I237500J0D01*
G01*
X114650000Y-103525000D01*
G75*
G02*
X114887500Y-103762500I0J-237500D01*
G01*
X114887500Y-104237500D01*
G75*
G02*
X114650000Y-104475000I-237500J0D01*
G01*
X114150000Y-104475000D01*
G75*
G02*
X113912500Y-104237500I0J237500D01*
G01*
G37*
%TD*%
D14*
%TO.C,U1*%
X110800000Y-81045000D03*
D15*
X103300000Y-73545000D03*
X103300000Y-74815000D03*
X103300000Y-76085000D03*
X103300000Y-77355000D03*
X103300000Y-78625000D03*
X103300000Y-79895000D03*
X103300000Y-81165000D03*
X103300000Y-82435000D03*
X103300000Y-83705000D03*
X103300000Y-84975000D03*
X103300000Y-86245000D03*
X103300000Y-87515000D03*
X103300000Y-88785000D03*
X103300000Y-90055000D03*
D16*
X106085000Y-91055000D03*
X107355000Y-91055000D03*
X108625000Y-91055000D03*
X109895000Y-91055000D03*
X111165000Y-91055000D03*
X112435000Y-91055000D03*
X113705000Y-91055000D03*
X114975000Y-91055000D03*
X116245000Y-91055000D03*
X117515000Y-91055000D03*
D15*
X120300000Y-90055000D03*
X120300000Y-88785000D03*
X120300000Y-87515000D03*
X120300000Y-86245000D03*
X120300000Y-84975000D03*
X120300000Y-83705000D03*
X120300000Y-82435000D03*
X120300000Y-81165000D03*
X120300000Y-79895000D03*
X120300000Y-78625000D03*
X120300000Y-77355000D03*
X120300000Y-76085000D03*
X120300000Y-74815000D03*
X120300000Y-73545000D03*
%TD*%
%TO.C,U2*%
G36*
G01*
X101450000Y-99237500D02*
X101450000Y-99362500D01*
G75*
G02*
X101387500Y-99425000I-62500J0D01*
G01*
X100712500Y-99425000D01*
G75*
G02*
X100650000Y-99362500I0J62500D01*
G01*
X100650000Y-99237500D01*
G75*
G02*
X100712500Y-99175000I62500J0D01*
G01*
X101387500Y-99175000D01*
G75*
G02*
X101450000Y-99237500I0J-62500D01*
G01*
G37*
G36*
G01*
X101450000Y-98737500D02*
X101450000Y-98862500D01*
G75*
G02*
X101387500Y-98925000I-62500J0D01*
G01*
X100712500Y-98925000D01*
G75*
G02*
X100650000Y-98862500I0J62500D01*
G01*
X100650000Y-98737500D01*
G75*
G02*
X100712500Y-98675000I62500J0D01*
G01*
X101387500Y-98675000D01*
G75*
G02*
X101450000Y-98737500I0J-62500D01*
G01*
G37*
G36*
G01*
X101450000Y-98237500D02*
X101450000Y-98362500D01*
G75*
G02*
X101387500Y-98425000I-62500J0D01*
G01*
X100712500Y-98425000D01*
G75*
G02*
X100650000Y-98362500I0J62500D01*
G01*
X100650000Y-98237500D01*
G75*
G02*
X100712500Y-98175000I62500J0D01*
G01*
X101387500Y-98175000D01*
G75*
G02*
X101450000Y-98237500I0J-62500D01*
G01*
G37*
G36*
G01*
X101450000Y-97737500D02*
X101450000Y-97862500D01*
G75*
G02*
X101387500Y-97925000I-62500J0D01*
G01*
X100712500Y-97925000D01*
G75*
G02*
X100650000Y-97862500I0J62500D01*
G01*
X100650000Y-97737500D01*
G75*
G02*
X100712500Y-97675000I62500J0D01*
G01*
X101387500Y-97675000D01*
G75*
G02*
X101450000Y-97737500I0J-62500D01*
G01*
G37*
G36*
G01*
X101450000Y-97237500D02*
X101450000Y-97362500D01*
G75*
G02*
X101387500Y-97425000I-62500J0D01*
G01*
X100712500Y-97425000D01*
G75*
G02*
X100650000Y-97362500I0J62500D01*
G01*
X100650000Y-97237500D01*
G75*
G02*
X100712500Y-97175000I62500J0D01*
G01*
X101387500Y-97175000D01*
G75*
G02*
X101450000Y-97237500I0J-62500D01*
G01*
G37*
G36*
G01*
X101450000Y-96737500D02*
X101450000Y-96862500D01*
G75*
G02*
X101387500Y-96925000I-62500J0D01*
G01*
X100712500Y-96925000D01*
G75*
G02*
X100650000Y-96862500I0J62500D01*
G01*
X100650000Y-96737500D01*
G75*
G02*
X100712500Y-96675000I62500J0D01*
G01*
X101387500Y-96675000D01*
G75*
G02*
X101450000Y-96737500I0J-62500D01*
G01*
G37*
G36*
G01*
X101450000Y-96237500D02*
X101450000Y-96362500D01*
G75*
G02*
X101387500Y-96425000I-62500J0D01*
G01*
X100712500Y-96425000D01*
G75*
G02*
X100650000Y-96362500I0J62500D01*
G01*
X100650000Y-96237500D01*
G75*
G02*
X100712500Y-96175000I62500J0D01*
G01*
X101387500Y-96175000D01*
G75*
G02*
X101450000Y-96237500I0J-62500D01*
G01*
G37*
G36*
G01*
X100225000Y-95012500D02*
X100225000Y-95687500D01*
G75*
G02*
X100162500Y-95750000I-62500J0D01*
G01*
X100037500Y-95750000D01*
G75*
G02*
X99975000Y-95687500I0J62500D01*
G01*
X99975000Y-95012500D01*
G75*
G02*
X100037500Y-94950000I62500J0D01*
G01*
X100162500Y-94950000D01*
G75*
G02*
X100225000Y-95012500I0J-62500D01*
G01*
G37*
G36*
G01*
X99725000Y-95012500D02*
X99725000Y-95687500D01*
G75*
G02*
X99662500Y-95750000I-62500J0D01*
G01*
X99537500Y-95750000D01*
G75*
G02*
X99475000Y-95687500I0J62500D01*
G01*
X99475000Y-95012500D01*
G75*
G02*
X99537500Y-94950000I62500J0D01*
G01*
X99662500Y-94950000D01*
G75*
G02*
X99725000Y-95012500I0J-62500D01*
G01*
G37*
G36*
G01*
X99225000Y-95012500D02*
X99225000Y-95687500D01*
G75*
G02*
X99162500Y-95750000I-62500J0D01*
G01*
X99037500Y-95750000D01*
G75*
G02*
X98975000Y-95687500I0J62500D01*
G01*
X98975000Y-95012500D01*
G75*
G02*
X99037500Y-94950000I62500J0D01*
G01*
X99162500Y-94950000D01*
G75*
G02*
X99225000Y-95012500I0J-62500D01*
G01*
G37*
G36*
G01*
X98725000Y-95012500D02*
X98725000Y-95687500D01*
G75*
G02*
X98662500Y-95750000I-62500J0D01*
G01*
X98537500Y-95750000D01*
G75*
G02*
X98475000Y-95687500I0J62500D01*
G01*
X98475000Y-95012500D01*
G75*
G02*
X98537500Y-94950000I62500J0D01*
G01*
X98662500Y-94950000D01*
G75*
G02*
X98725000Y-95012500I0J-62500D01*
G01*
G37*
G36*
G01*
X98225000Y-95012500D02*
X98225000Y-95687500D01*
G75*
G02*
X98162500Y-95750000I-62500J0D01*
G01*
X98037500Y-95750000D01*
G75*
G02*
X97975000Y-95687500I0J62500D01*
G01*
X97975000Y-95012500D01*
G75*
G02*
X98037500Y-94950000I62500J0D01*
G01*
X98162500Y-94950000D01*
G75*
G02*
X98225000Y-95012500I0J-62500D01*
G01*
G37*
G36*
G01*
X97725000Y-95012500D02*
X97725000Y-95687500D01*
G75*
G02*
X97662500Y-95750000I-62500J0D01*
G01*
X97537500Y-95750000D01*
G75*
G02*
X97475000Y-95687500I0J62500D01*
G01*
X97475000Y-95012500D01*
G75*
G02*
X97537500Y-94950000I62500J0D01*
G01*
X97662500Y-94950000D01*
G75*
G02*
X97725000Y-95012500I0J-62500D01*
G01*
G37*
G36*
G01*
X97225000Y-95012500D02*
X97225000Y-95687500D01*
G75*
G02*
X97162500Y-95750000I-62500J0D01*
G01*
X97037500Y-95750000D01*
G75*
G02*
X96975000Y-95687500I0J62500D01*
G01*
X96975000Y-95012500D01*
G75*
G02*
X97037500Y-94950000I62500J0D01*
G01*
X97162500Y-94950000D01*
G75*
G02*
X97225000Y-95012500I0J-62500D01*
G01*
G37*
G36*
G01*
X96550000Y-96237500D02*
X96550000Y-96362500D01*
G75*
G02*
X96487500Y-96425000I-62500J0D01*
G01*
X95812500Y-96425000D01*
G75*
G02*
X95750000Y-96362500I0J62500D01*
G01*
X95750000Y-96237500D01*
G75*
G02*
X95812500Y-96175000I62500J0D01*
G01*
X96487500Y-96175000D01*
G75*
G02*
X96550000Y-96237500I0J-62500D01*
G01*
G37*
G36*
G01*
X96550000Y-96737500D02*
X96550000Y-96862500D01*
G75*
G02*
X96487500Y-96925000I-62500J0D01*
G01*
X95812500Y-96925000D01*
G75*
G02*
X95750000Y-96862500I0J62500D01*
G01*
X95750000Y-96737500D01*
G75*
G02*
X95812500Y-96675000I62500J0D01*
G01*
X96487500Y-96675000D01*
G75*
G02*
X96550000Y-96737500I0J-62500D01*
G01*
G37*
G36*
G01*
X96550000Y-97237500D02*
X96550000Y-97362500D01*
G75*
G02*
X96487500Y-97425000I-62500J0D01*
G01*
X95812500Y-97425000D01*
G75*
G02*
X95750000Y-97362500I0J62500D01*
G01*
X95750000Y-97237500D01*
G75*
G02*
X95812500Y-97175000I62500J0D01*
G01*
X96487500Y-97175000D01*
G75*
G02*
X96550000Y-97237500I0J-62500D01*
G01*
G37*
G36*
G01*
X96550000Y-97737500D02*
X96550000Y-97862500D01*
G75*
G02*
X96487500Y-97925000I-62500J0D01*
G01*
X95812500Y-97925000D01*
G75*
G02*
X95750000Y-97862500I0J62500D01*
G01*
X95750000Y-97737500D01*
G75*
G02*
X95812500Y-97675000I62500J0D01*
G01*
X96487500Y-97675000D01*
G75*
G02*
X96550000Y-97737500I0J-62500D01*
G01*
G37*
G36*
G01*
X96550000Y-98237500D02*
X96550000Y-98362500D01*
G75*
G02*
X96487500Y-98425000I-62500J0D01*
G01*
X95812500Y-98425000D01*
G75*
G02*
X95750000Y-98362500I0J62500D01*
G01*
X95750000Y-98237500D01*
G75*
G02*
X95812500Y-98175000I62500J0D01*
G01*
X96487500Y-98175000D01*
G75*
G02*
X96550000Y-98237500I0J-62500D01*
G01*
G37*
G36*
G01*
X96550000Y-98737500D02*
X96550000Y-98862500D01*
G75*
G02*
X96487500Y-98925000I-62500J0D01*
G01*
X95812500Y-98925000D01*
G75*
G02*
X95750000Y-98862500I0J62500D01*
G01*
X95750000Y-98737500D01*
G75*
G02*
X95812500Y-98675000I62500J0D01*
G01*
X96487500Y-98675000D01*
G75*
G02*
X96550000Y-98737500I0J-62500D01*
G01*
G37*
G36*
G01*
X96550000Y-99237500D02*
X96550000Y-99362500D01*
G75*
G02*
X96487500Y-99425000I-62500J0D01*
G01*
X95812500Y-99425000D01*
G75*
G02*
X95750000Y-99362500I0J62500D01*
G01*
X95750000Y-99237500D01*
G75*
G02*
X95812500Y-99175000I62500J0D01*
G01*
X96487500Y-99175000D01*
G75*
G02*
X96550000Y-99237500I0J-62500D01*
G01*
G37*
G36*
G01*
X97225000Y-99912500D02*
X97225000Y-100587500D01*
G75*
G02*
X97162500Y-100650000I-62500J0D01*
G01*
X97037500Y-100650000D01*
G75*
G02*
X96975000Y-100587500I0J62500D01*
G01*
X96975000Y-99912500D01*
G75*
G02*
X97037500Y-99850000I62500J0D01*
G01*
X97162500Y-99850000D01*
G75*
G02*
X97225000Y-99912500I0J-62500D01*
G01*
G37*
G36*
G01*
X97725000Y-99912500D02*
X97725000Y-100587500D01*
G75*
G02*
X97662500Y-100650000I-62500J0D01*
G01*
X97537500Y-100650000D01*
G75*
G02*
X97475000Y-100587500I0J62500D01*
G01*
X97475000Y-99912500D01*
G75*
G02*
X97537500Y-99850000I62500J0D01*
G01*
X97662500Y-99850000D01*
G75*
G02*
X97725000Y-99912500I0J-62500D01*
G01*
G37*
G36*
G01*
X98225000Y-99912500D02*
X98225000Y-100587500D01*
G75*
G02*
X98162500Y-100650000I-62500J0D01*
G01*
X98037500Y-100650000D01*
G75*
G02*
X97975000Y-100587500I0J62500D01*
G01*
X97975000Y-99912500D01*
G75*
G02*
X98037500Y-99850000I62500J0D01*
G01*
X98162500Y-99850000D01*
G75*
G02*
X98225000Y-99912500I0J-62500D01*
G01*
G37*
G36*
G01*
X98725000Y-99912500D02*
X98725000Y-100587500D01*
G75*
G02*
X98662500Y-100650000I-62500J0D01*
G01*
X98537500Y-100650000D01*
G75*
G02*
X98475000Y-100587500I0J62500D01*
G01*
X98475000Y-99912500D01*
G75*
G02*
X98537500Y-99850000I62500J0D01*
G01*
X98662500Y-99850000D01*
G75*
G02*
X98725000Y-99912500I0J-62500D01*
G01*
G37*
G36*
G01*
X99225000Y-99912500D02*
X99225000Y-100587500D01*
G75*
G02*
X99162500Y-100650000I-62500J0D01*
G01*
X99037500Y-100650000D01*
G75*
G02*
X98975000Y-100587500I0J62500D01*
G01*
X98975000Y-99912500D01*
G75*
G02*
X99037500Y-99850000I62500J0D01*
G01*
X99162500Y-99850000D01*
G75*
G02*
X99225000Y-99912500I0J-62500D01*
G01*
G37*
G36*
G01*
X99725000Y-99912500D02*
X99725000Y-100587500D01*
G75*
G02*
X99662500Y-100650000I-62500J0D01*
G01*
X99537500Y-100650000D01*
G75*
G02*
X99475000Y-100587500I0J62500D01*
G01*
X99475000Y-99912500D01*
G75*
G02*
X99537500Y-99850000I62500J0D01*
G01*
X99662500Y-99850000D01*
G75*
G02*
X99725000Y-99912500I0J-62500D01*
G01*
G37*
G36*
G01*
X100225000Y-99912500D02*
X100225000Y-100587500D01*
G75*
G02*
X100162500Y-100650000I-62500J0D01*
G01*
X100037500Y-100650000D01*
G75*
G02*
X99975000Y-100587500I0J62500D01*
G01*
X99975000Y-99912500D01*
G75*
G02*
X100037500Y-99850000I62500J0D01*
G01*
X100162500Y-99850000D01*
G75*
G02*
X100225000Y-99912500I0J-62500D01*
G01*
G37*
G36*
G01*
X100170000Y-98695000D02*
X100170000Y-99145000D01*
G75*
G02*
X99945000Y-99370000I-225000J0D01*
G01*
X99495000Y-99370000D01*
G75*
G02*
X99270000Y-99145000I0J225000D01*
G01*
X99270000Y-98695000D01*
G75*
G02*
X99495000Y-98470000I225000J0D01*
G01*
X99945000Y-98470000D01*
G75*
G02*
X100170000Y-98695000I0J-225000D01*
G01*
G37*
G36*
G01*
X100170000Y-97575000D02*
X100170000Y-98025000D01*
G75*
G02*
X99945000Y-98250000I-225000J0D01*
G01*
X99495000Y-98250000D01*
G75*
G02*
X99270000Y-98025000I0J225000D01*
G01*
X99270000Y-97575000D01*
G75*
G02*
X99495000Y-97350000I225000J0D01*
G01*
X99945000Y-97350000D01*
G75*
G02*
X100170000Y-97575000I0J-225000D01*
G01*
G37*
G36*
G01*
X100170000Y-96455000D02*
X100170000Y-96905000D01*
G75*
G02*
X99945000Y-97130000I-225000J0D01*
G01*
X99495000Y-97130000D01*
G75*
G02*
X99270000Y-96905000I0J225000D01*
G01*
X99270000Y-96455000D01*
G75*
G02*
X99495000Y-96230000I225000J0D01*
G01*
X99945000Y-96230000D01*
G75*
G02*
X100170000Y-96455000I0J-225000D01*
G01*
G37*
G36*
G01*
X99050000Y-98695000D02*
X99050000Y-99145000D01*
G75*
G02*
X98825000Y-99370000I-225000J0D01*
G01*
X98375000Y-99370000D01*
G75*
G02*
X98150000Y-99145000I0J225000D01*
G01*
X98150000Y-98695000D01*
G75*
G02*
X98375000Y-98470000I225000J0D01*
G01*
X98825000Y-98470000D01*
G75*
G02*
X99050000Y-98695000I0J-225000D01*
G01*
G37*
G36*
G01*
X99050000Y-97575000D02*
X99050000Y-98025000D01*
G75*
G02*
X98825000Y-98250000I-225000J0D01*
G01*
X98375000Y-98250000D01*
G75*
G02*
X98150000Y-98025000I0J225000D01*
G01*
X98150000Y-97575000D01*
G75*
G02*
X98375000Y-97350000I225000J0D01*
G01*
X98825000Y-97350000D01*
G75*
G02*
X99050000Y-97575000I0J-225000D01*
G01*
G37*
G36*
G01*
X99050000Y-96455000D02*
X99050000Y-96905000D01*
G75*
G02*
X98825000Y-97130000I-225000J0D01*
G01*
X98375000Y-97130000D01*
G75*
G02*
X98150000Y-96905000I0J225000D01*
G01*
X98150000Y-96455000D01*
G75*
G02*
X98375000Y-96230000I225000J0D01*
G01*
X98825000Y-96230000D01*
G75*
G02*
X99050000Y-96455000I0J-225000D01*
G01*
G37*
G36*
G01*
X97930000Y-98695000D02*
X97930000Y-99145000D01*
G75*
G02*
X97705000Y-99370000I-225000J0D01*
G01*
X97255000Y-99370000D01*
G75*
G02*
X97030000Y-99145000I0J225000D01*
G01*
X97030000Y-98695000D01*
G75*
G02*
X97255000Y-98470000I225000J0D01*
G01*
X97705000Y-98470000D01*
G75*
G02*
X97930000Y-98695000I0J-225000D01*
G01*
G37*
G36*
G01*
X97930000Y-97575000D02*
X97930000Y-98025000D01*
G75*
G02*
X97705000Y-98250000I-225000J0D01*
G01*
X97255000Y-98250000D01*
G75*
G02*
X97030000Y-98025000I0J225000D01*
G01*
X97030000Y-97575000D01*
G75*
G02*
X97255000Y-97350000I225000J0D01*
G01*
X97705000Y-97350000D01*
G75*
G02*
X97930000Y-97575000I0J-225000D01*
G01*
G37*
G36*
G01*
X97930000Y-96455000D02*
X97930000Y-96905000D01*
G75*
G02*
X97705000Y-97130000I-225000J0D01*
G01*
X97255000Y-97130000D01*
G75*
G02*
X97030000Y-96905000I0J225000D01*
G01*
X97030000Y-96455000D01*
G75*
G02*
X97255000Y-96230000I225000J0D01*
G01*
X97705000Y-96230000D01*
G75*
G02*
X97930000Y-96455000I0J-225000D01*
G01*
G37*
%TD*%
%TO.C,U3*%
G36*
G01*
X122650000Y-114555000D02*
X122650000Y-114855000D01*
G75*
G02*
X122500000Y-115005000I-150000J0D01*
G01*
X121150000Y-115005000D01*
G75*
G02*
X121000000Y-114855000I0J150000D01*
G01*
X121000000Y-114555000D01*
G75*
G02*
X121150000Y-114405000I150000J0D01*
G01*
X122500000Y-114405000D01*
G75*
G02*
X122650000Y-114555000I0J-150000D01*
G01*
G37*
G36*
G01*
X122650000Y-113285000D02*
X122650000Y-113585000D01*
G75*
G02*
X122500000Y-113735000I-150000J0D01*
G01*
X121150000Y-113735000D01*
G75*
G02*
X121000000Y-113585000I0J150000D01*
G01*
X121000000Y-113285000D01*
G75*
G02*
X121150000Y-113135000I150000J0D01*
G01*
X122500000Y-113135000D01*
G75*
G02*
X122650000Y-113285000I0J-150000D01*
G01*
G37*
G36*
G01*
X122650000Y-112015000D02*
X122650000Y-112315000D01*
G75*
G02*
X122500000Y-112465000I-150000J0D01*
G01*
X121150000Y-112465000D01*
G75*
G02*
X121000000Y-112315000I0J150000D01*
G01*
X121000000Y-112015000D01*
G75*
G02*
X121150000Y-111865000I150000J0D01*
G01*
X122500000Y-111865000D01*
G75*
G02*
X122650000Y-112015000I0J-150000D01*
G01*
G37*
G36*
G01*
X122650000Y-110745000D02*
X122650000Y-111045000D01*
G75*
G02*
X122500000Y-111195000I-150000J0D01*
G01*
X121150000Y-111195000D01*
G75*
G02*
X121000000Y-111045000I0J150000D01*
G01*
X121000000Y-110745000D01*
G75*
G02*
X121150000Y-110595000I150000J0D01*
G01*
X122500000Y-110595000D01*
G75*
G02*
X122650000Y-110745000I0J-150000D01*
G01*
G37*
G36*
G01*
X117400000Y-110745000D02*
X117400000Y-111045000D01*
G75*
G02*
X117250000Y-111195000I-150000J0D01*
G01*
X115900000Y-111195000D01*
G75*
G02*
X115750000Y-111045000I0J150000D01*
G01*
X115750000Y-110745000D01*
G75*
G02*
X115900000Y-110595000I150000J0D01*
G01*
X117250000Y-110595000D01*
G75*
G02*
X117400000Y-110745000I0J-150000D01*
G01*
G37*
G36*
G01*
X117400000Y-112015000D02*
X117400000Y-112315000D01*
G75*
G02*
X117250000Y-112465000I-150000J0D01*
G01*
X115900000Y-112465000D01*
G75*
G02*
X115750000Y-112315000I0J150000D01*
G01*
X115750000Y-112015000D01*
G75*
G02*
X115900000Y-111865000I150000J0D01*
G01*
X117250000Y-111865000D01*
G75*
G02*
X117400000Y-112015000I0J-150000D01*
G01*
G37*
G36*
G01*
X117400000Y-113285000D02*
X117400000Y-113585000D01*
G75*
G02*
X117250000Y-113735000I-150000J0D01*
G01*
X115900000Y-113735000D01*
G75*
G02*
X115750000Y-113585000I0J150000D01*
G01*
X115750000Y-113285000D01*
G75*
G02*
X115900000Y-113135000I150000J0D01*
G01*
X117250000Y-113135000D01*
G75*
G02*
X117400000Y-113285000I0J-150000D01*
G01*
G37*
G36*
G01*
X117400000Y-114555000D02*
X117400000Y-114855000D01*
G75*
G02*
X117250000Y-115005000I-150000J0D01*
G01*
X115900000Y-115005000D01*
G75*
G02*
X115750000Y-114855000I0J150000D01*
G01*
X115750000Y-114555000D01*
G75*
G02*
X115900000Y-114405000I150000J0D01*
G01*
X117250000Y-114405000D01*
G75*
G02*
X117400000Y-114555000I0J-150000D01*
G01*
G37*
%TD*%
D17*
%TO.C,U4*%
X121350000Y-108350000D03*
X121350000Y-107400000D03*
X121350000Y-106450000D03*
X118650000Y-106450000D03*
X118650000Y-108350000D03*
X118650000Y-107400000D03*
%TD*%
%TO.C,U5*%
X114850000Y-95950000D03*
X114850000Y-94050000D03*
X117550000Y-94050000D03*
X117550000Y-95000000D03*
X117550000Y-95950000D03*
%TD*%
%TO.C,U6*%
X109750000Y-106550000D03*
X109750000Y-105600000D03*
X109750000Y-104650000D03*
X107050000Y-104650000D03*
X107050000Y-106550000D03*
%TD*%
%TO.C,U7*%
X130250000Y-95050000D03*
X130250000Y-96000000D03*
X130250000Y-96950000D03*
X132950000Y-96950000D03*
X132950000Y-95050000D03*
%TD*%
D18*
%TO.C,U8*%
X129904600Y-102060200D03*
X129904600Y-103000000D03*
X129904600Y-103939800D03*
X132495400Y-103952500D03*
X132495400Y-102047500D03*
%TD*%
M02*
