%TF.GenerationSoftware,KiCad,Pcbnew,(5.1.10)-1*%
%TF.CreationDate,2022-02-13T15:16:36-05:00*%
%TF.ProjectId,wristband,77726973-7462-4616-9e64-2e6b69636164,rev?*%
%TF.SameCoordinates,Original*%
%TF.FileFunction,Copper,L4,Bot*%
%TF.FilePolarity,Positive*%
%FSLAX46Y46*%
G04 Gerber Fmt 4.6, Leading zero omitted, Abs format (unit mm)*
G04 Created by KiCad (PCBNEW (5.1.10)-1) date 2022-02-13 15:16:36*
%MOMM*%
%LPD*%
G01*
G04 APERTURE LIST*
%TA.AperFunction,ComponentPad*%
%ADD10C,3.000000*%
%TD*%
%TA.AperFunction,ComponentPad*%
%ADD11C,1.000000*%
%TD*%
%TA.AperFunction,ComponentPad*%
%ADD12C,1.150000*%
%TD*%
%TA.AperFunction,ComponentPad*%
%ADD13O,1.700000X1.700000*%
%TD*%
%TA.AperFunction,ComponentPad*%
%ADD14R,1.700000X1.700000*%
%TD*%
%TA.AperFunction,ComponentPad*%
%ADD15C,1.300000*%
%TD*%
%TA.AperFunction,ComponentPad*%
%ADD16R,1.200000X1.200000*%
%TD*%
%TA.AperFunction,ComponentPad*%
%ADD17C,1.600000*%
%TD*%
%TA.AperFunction,ViaPad*%
%ADD18C,0.800000*%
%TD*%
%TA.AperFunction,Conductor*%
%ADD19C,0.500000*%
%TD*%
%TA.AperFunction,Conductor*%
%ADD20C,0.254000*%
%TD*%
%TA.AperFunction,Conductor*%
%ADD21C,0.100000*%
%TD*%
G04 APERTURE END LIST*
D10*
%TO.P,TP6,1*%
%TO.N,+3V3*%
X135000000Y-75000000D03*
%TD*%
%TO.P,TP5,1*%
%TO.N,-BATT*%
X126800000Y-112800000D03*
%TD*%
%TO.P,TP4,1*%
%TO.N,+BATT*%
X132400000Y-107200000D03*
%TD*%
%TO.P,TP3,1*%
%TO.N,+1V8*%
X132200000Y-112800000D03*
%TD*%
%TO.P,TP2,1*%
%TO.N,BATT_OUT*%
X128000000Y-107200000D03*
%TD*%
%TO.P,TP1,1*%
%TO.N,GND*%
X134400000Y-81000000D03*
%TD*%
D11*
%TO.P,P1,P2*%
%TO.N,N/C*%
X109000000Y-101000000D03*
%TO.P,P1,P1*%
X104700000Y-101000000D03*
%TD*%
D12*
%TO.P,U9,4*%
%TO.N,SCL*%
X136600000Y-104330000D03*
%TO.P,U9,3*%
%TO.N,SDA*%
X136600000Y-101790000D03*
%TO.P,U9,2*%
%TO.N,GND*%
X136600000Y-99250000D03*
%TO.P,U9,1*%
%TO.N,+3V3*%
X136600000Y-96710000D03*
%TO.P,U9,5*%
%TO.N,N/C*%
X136600000Y-106870000D03*
%TO.P,U9,6*%
X136600000Y-109410000D03*
%TO.P,U9,7*%
X136600000Y-111950000D03*
%TO.P,U9,8*%
%TO.N,ACC_INT*%
X136600000Y-114490000D03*
%TD*%
D13*
%TO.P,J3,4*%
%TO.N,GND*%
X129600000Y-76620000D03*
%TO.P,J3,3*%
%TO.N,SCL*%
X129600000Y-74080000D03*
%TO.P,J3,2*%
%TO.N,SDA*%
X129600000Y-71540000D03*
D14*
%TO.P,J3,1*%
%TO.N,+1V8*%
X129600000Y-69000000D03*
%TD*%
D13*
%TO.P,J2,4*%
%TO.N,HLTH_INT*%
X89400000Y-75480000D03*
%TO.P,J2,3*%
%TO.N,N/C*%
X89400000Y-72940000D03*
%TO.P,J2,2*%
X89400000Y-70400000D03*
D14*
%TO.P,J2,1*%
%TO.N,GND*%
X89400000Y-67860000D03*
%TD*%
D15*
%TO.P,BT1,2*%
%TO.N,-BATT*%
X131800000Y-82400000D03*
D16*
%TO.P,BT1,1*%
%TO.N,Net-(BT1-Pad1)*%
X131800000Y-85400000D03*
%TD*%
D17*
%TO.P,SW1,1*%
%TO.N,GND*%
X87260000Y-89400000D03*
%TO.P,SW1,2*%
%TO.N,PB_2*%
X92340000Y-89400000D03*
%TD*%
%TO.P,SW2,2*%
%TO.N,PB_3*%
X92340000Y-97600000D03*
%TO.P,SW2,1*%
%TO.N,GND*%
X87260000Y-97600000D03*
%TD*%
%TO.P,SW3,1*%
%TO.N,GND*%
X87260000Y-81300000D03*
%TO.P,SW3,2*%
%TO.N,PB_1*%
X92340000Y-81300000D03*
%TD*%
%TO.P,SW4,2*%
%TO.N,IO_0*%
X92340000Y-105800000D03*
%TO.P,SW4,1*%
%TO.N,GND*%
X87260000Y-105800000D03*
%TD*%
D18*
%TO.N,+BATT*%
X114400000Y-102200000D03*
X119600000Y-98000000D03*
X130000000Y-89600000D03*
%TO.N,-BATT*%
X116800000Y-108400000D03*
X118800000Y-102600000D03*
%TO.N,+3V3*%
X100000000Y-87200000D03*
X112400000Y-96400000D03*
X87200000Y-109600000D03*
X96600000Y-79200000D03*
%TO.N,GND*%
X127000000Y-103800000D03*
X129800000Y-103000000D03*
X95600000Y-109800000D03*
X111400000Y-105600000D03*
X98600000Y-98800000D03*
X99600000Y-98800000D03*
X97600000Y-98800000D03*
X98600000Y-97800000D03*
X99600000Y-97800000D03*
X97600000Y-97800000D03*
X108800000Y-83000000D03*
X109800000Y-83000000D03*
X110800000Y-83000000D03*
X111800000Y-83000000D03*
X112800000Y-83000000D03*
X108800000Y-82000000D03*
X109800000Y-82000000D03*
X110800000Y-82000000D03*
X111800000Y-82000000D03*
X112800000Y-82000000D03*
X108800000Y-81000000D03*
X109800000Y-81000000D03*
X110800000Y-81000000D03*
X111800000Y-81000000D03*
X112800000Y-81000000D03*
X108800000Y-80000000D03*
X109800000Y-80000000D03*
X110800000Y-80000000D03*
X111800000Y-80000000D03*
X112800000Y-80000000D03*
X112800000Y-79000000D03*
X111800000Y-79000000D03*
X110800000Y-79000000D03*
X109800000Y-79000000D03*
X108800000Y-79000000D03*
X97600000Y-96800000D03*
X98600000Y-96800000D03*
X99600000Y-96800000D03*
X102800000Y-92400000D03*
X120000000Y-112200000D03*
X131200000Y-97400000D03*
X119600000Y-93400000D03*
X107900000Y-101300000D03*
X102000000Y-102400000D03*
X100200000Y-80400000D03*
X129800000Y-110300000D03*
%TO.N,+1V8*%
X132800000Y-92000000D03*
%TO.N,IO_0*%
X120400000Y-91600000D03*
X97400000Y-108400000D03*
%TO.N,/BMS/VBUS*%
X94800000Y-94800000D03*
X105550000Y-103050000D03*
%TO.N,HLTH_INT*%
X118200000Y-82400000D03*
%TO.N,SDA*%
X113800000Y-88600000D03*
%TO.N,SCL*%
X115000000Y-88600000D03*
%TO.N,ACC_INT*%
X118200000Y-83600000D03*
%TO.N,EN*%
X89400000Y-107400000D03*
X101200000Y-76200000D03*
%TO.N,Net-(R2-Pad1)*%
X98600000Y-91400000D03*
X102400000Y-95800000D03*
%TO.N,TXD*%
X99200000Y-102600000D03*
X117800000Y-78600000D03*
%TO.N,RXD*%
X97800000Y-102600000D03*
X117800000Y-77200000D03*
%TD*%
D19*
%TO.N,+3V3*%
X136290000Y-96400000D02*
X136600000Y-96710000D01*
X112400000Y-96400000D02*
X136290000Y-96400000D01*
X100000000Y-82600000D02*
X96600000Y-79200000D01*
X100000000Y-87200000D02*
X100000000Y-82600000D01*
X103200000Y-87200000D02*
X112400000Y-96400000D01*
X100000000Y-87200000D02*
X103200000Y-87200000D01*
%TO.N,GND*%
X99600000Y-95600000D02*
X102800000Y-92400000D01*
X99600000Y-96800000D02*
X99600000Y-95600000D01*
%TD*%
D20*
%TO.N,GND*%
X96873000Y-72600000D02*
X96875440Y-72624776D01*
X96882667Y-72648601D01*
X96894403Y-72670557D01*
X96910197Y-72689803D01*
X96929443Y-72705597D01*
X96951399Y-72717333D01*
X96975224Y-72724560D01*
X97000000Y-72727000D01*
X126800000Y-72727000D01*
X126824776Y-72724560D01*
X126848601Y-72717333D01*
X126870557Y-72705597D01*
X126889803Y-72689803D01*
X126905597Y-72670557D01*
X126917333Y-72648601D01*
X126924560Y-72624776D01*
X126927000Y-72600000D01*
X126927000Y-68150000D01*
X128111928Y-68150000D01*
X128111928Y-69850000D01*
X128124188Y-69974482D01*
X128160498Y-70094180D01*
X128219463Y-70204494D01*
X128298815Y-70301185D01*
X128395506Y-70380537D01*
X128505820Y-70439502D01*
X128578380Y-70461513D01*
X128446525Y-70593368D01*
X128284010Y-70836589D01*
X128172068Y-71106842D01*
X128115000Y-71393740D01*
X128115000Y-71686260D01*
X128172068Y-71973158D01*
X128284010Y-72243411D01*
X128446525Y-72486632D01*
X128653368Y-72693475D01*
X128827760Y-72810000D01*
X128653368Y-72926525D01*
X128446525Y-73133368D01*
X128284010Y-73376589D01*
X128172068Y-73646842D01*
X128115000Y-73933740D01*
X128115000Y-74226260D01*
X128172068Y-74513158D01*
X128284010Y-74783411D01*
X128446525Y-75026632D01*
X128653368Y-75233475D01*
X128835534Y-75355195D01*
X128718645Y-75424822D01*
X128502412Y-75619731D01*
X128328359Y-75853080D01*
X128203175Y-76115901D01*
X128158524Y-76263110D01*
X128279845Y-76493000D01*
X129473000Y-76493000D01*
X129473000Y-76473000D01*
X129727000Y-76473000D01*
X129727000Y-76493000D01*
X130920155Y-76493000D01*
X131041476Y-76263110D01*
X130996825Y-76115901D01*
X130871641Y-75853080D01*
X130697588Y-75619731D01*
X130481355Y-75424822D01*
X130364466Y-75355195D01*
X130546632Y-75233475D01*
X130753475Y-75026632D01*
X130911773Y-74789721D01*
X132865000Y-74789721D01*
X132865000Y-75210279D01*
X132947047Y-75622756D01*
X133107988Y-76011302D01*
X133341637Y-76360983D01*
X133639017Y-76658363D01*
X133988698Y-76892012D01*
X134377244Y-77052953D01*
X134789721Y-77135000D01*
X135210279Y-77135000D01*
X135622756Y-77052953D01*
X136011302Y-76892012D01*
X136360983Y-76658363D01*
X136658363Y-76360983D01*
X136892012Y-76011302D01*
X137052953Y-75622756D01*
X137135000Y-75210279D01*
X137135000Y-74789721D01*
X137052953Y-74377244D01*
X136892012Y-73988698D01*
X136658363Y-73639017D01*
X136360983Y-73341637D01*
X136011302Y-73107988D01*
X135622756Y-72947047D01*
X135210279Y-72865000D01*
X134789721Y-72865000D01*
X134377244Y-72947047D01*
X133988698Y-73107988D01*
X133639017Y-73341637D01*
X133341637Y-73639017D01*
X133107988Y-73988698D01*
X132947047Y-74377244D01*
X132865000Y-74789721D01*
X130911773Y-74789721D01*
X130915990Y-74783411D01*
X131027932Y-74513158D01*
X131085000Y-74226260D01*
X131085000Y-73933740D01*
X131027932Y-73646842D01*
X130915990Y-73376589D01*
X130753475Y-73133368D01*
X130546632Y-72926525D01*
X130372240Y-72810000D01*
X130546632Y-72693475D01*
X130753475Y-72486632D01*
X130915990Y-72243411D01*
X131027932Y-71973158D01*
X131085000Y-71686260D01*
X131085000Y-71393740D01*
X131027932Y-71106842D01*
X130915990Y-70836589D01*
X130753475Y-70593368D01*
X130621620Y-70461513D01*
X130694180Y-70439502D01*
X130804494Y-70380537D01*
X130901185Y-70301185D01*
X130980537Y-70204494D01*
X131039502Y-70094180D01*
X131075812Y-69974482D01*
X131088072Y-69850000D01*
X131088072Y-68150000D01*
X131075812Y-68025518D01*
X131039502Y-67905820D01*
X130980537Y-67795506D01*
X130901185Y-67698815D01*
X130804494Y-67619463D01*
X130694180Y-67560498D01*
X130574482Y-67524188D01*
X130450000Y-67511928D01*
X128750000Y-67511928D01*
X128625518Y-67524188D01*
X128505820Y-67560498D01*
X128395506Y-67619463D01*
X128298815Y-67698815D01*
X128219463Y-67795506D01*
X128160498Y-67905820D01*
X128124188Y-68025518D01*
X128111928Y-68150000D01*
X126927000Y-68150000D01*
X126927000Y-66260000D01*
X137140000Y-66260000D01*
X137140001Y-95623981D01*
X136952944Y-95546499D01*
X136719175Y-95500000D01*
X136480825Y-95500000D01*
X136381591Y-95519739D01*
X136333477Y-95515000D01*
X136333469Y-95515000D01*
X136290000Y-95510719D01*
X136246531Y-95515000D01*
X112938454Y-95515000D01*
X112890256Y-95482795D01*
X112701898Y-95404774D01*
X112645044Y-95393465D01*
X108749640Y-91498061D01*
X119365000Y-91498061D01*
X119365000Y-91701939D01*
X119404774Y-91901898D01*
X119482795Y-92090256D01*
X119596063Y-92259774D01*
X119740226Y-92403937D01*
X119909744Y-92517205D01*
X120098102Y-92595226D01*
X120298061Y-92635000D01*
X120501939Y-92635000D01*
X120701898Y-92595226D01*
X120890256Y-92517205D01*
X121059774Y-92403937D01*
X121203937Y-92259774D01*
X121317205Y-92090256D01*
X121395226Y-91901898D01*
X121395989Y-91898061D01*
X131765000Y-91898061D01*
X131765000Y-92101939D01*
X131804774Y-92301898D01*
X131882795Y-92490256D01*
X131996063Y-92659774D01*
X132140226Y-92803937D01*
X132309744Y-92917205D01*
X132498102Y-92995226D01*
X132698061Y-93035000D01*
X132901939Y-93035000D01*
X133101898Y-92995226D01*
X133290256Y-92917205D01*
X133459774Y-92803937D01*
X133603937Y-92659774D01*
X133717205Y-92490256D01*
X133795226Y-92301898D01*
X133835000Y-92101939D01*
X133835000Y-91898061D01*
X133795226Y-91698102D01*
X133717205Y-91509744D01*
X133603937Y-91340226D01*
X133459774Y-91196063D01*
X133290256Y-91082795D01*
X133101898Y-91004774D01*
X132901939Y-90965000D01*
X132698061Y-90965000D01*
X132498102Y-91004774D01*
X132309744Y-91082795D01*
X132140226Y-91196063D01*
X131996063Y-91340226D01*
X131882795Y-91509744D01*
X131804774Y-91698102D01*
X131765000Y-91898061D01*
X121395989Y-91898061D01*
X121435000Y-91701939D01*
X121435000Y-91498061D01*
X121395226Y-91298102D01*
X121317205Y-91109744D01*
X121203937Y-90940226D01*
X121059774Y-90796063D01*
X120890256Y-90682795D01*
X120701898Y-90604774D01*
X120501939Y-90565000D01*
X120298061Y-90565000D01*
X120098102Y-90604774D01*
X119909744Y-90682795D01*
X119740226Y-90796063D01*
X119596063Y-90940226D01*
X119482795Y-91109744D01*
X119404774Y-91298102D01*
X119365000Y-91498061D01*
X108749640Y-91498061D01*
X105749640Y-88498061D01*
X112765000Y-88498061D01*
X112765000Y-88701939D01*
X112804774Y-88901898D01*
X112882795Y-89090256D01*
X112996063Y-89259774D01*
X113140226Y-89403937D01*
X113309744Y-89517205D01*
X113498102Y-89595226D01*
X113698061Y-89635000D01*
X113901939Y-89635000D01*
X114101898Y-89595226D01*
X114290256Y-89517205D01*
X114400000Y-89443877D01*
X114509744Y-89517205D01*
X114698102Y-89595226D01*
X114898061Y-89635000D01*
X115101939Y-89635000D01*
X115301898Y-89595226D01*
X115490256Y-89517205D01*
X115518907Y-89498061D01*
X128965000Y-89498061D01*
X128965000Y-89701939D01*
X129004774Y-89901898D01*
X129082795Y-90090256D01*
X129196063Y-90259774D01*
X129340226Y-90403937D01*
X129509744Y-90517205D01*
X129698102Y-90595226D01*
X129898061Y-90635000D01*
X130101939Y-90635000D01*
X130301898Y-90595226D01*
X130490256Y-90517205D01*
X130659774Y-90403937D01*
X130803937Y-90259774D01*
X130917205Y-90090256D01*
X130995226Y-89901898D01*
X131035000Y-89701939D01*
X131035000Y-89498061D01*
X130995226Y-89298102D01*
X130917205Y-89109744D01*
X130803937Y-88940226D01*
X130659774Y-88796063D01*
X130490256Y-88682795D01*
X130301898Y-88604774D01*
X130101939Y-88565000D01*
X129898061Y-88565000D01*
X129698102Y-88604774D01*
X129509744Y-88682795D01*
X129340226Y-88796063D01*
X129196063Y-88940226D01*
X129082795Y-89109744D01*
X129004774Y-89298102D01*
X128965000Y-89498061D01*
X115518907Y-89498061D01*
X115659774Y-89403937D01*
X115803937Y-89259774D01*
X115917205Y-89090256D01*
X115995226Y-88901898D01*
X116035000Y-88701939D01*
X116035000Y-88498061D01*
X115995226Y-88298102D01*
X115917205Y-88109744D01*
X115803937Y-87940226D01*
X115659774Y-87796063D01*
X115490256Y-87682795D01*
X115301898Y-87604774D01*
X115101939Y-87565000D01*
X114898061Y-87565000D01*
X114698102Y-87604774D01*
X114509744Y-87682795D01*
X114400000Y-87756123D01*
X114290256Y-87682795D01*
X114101898Y-87604774D01*
X113901939Y-87565000D01*
X113698061Y-87565000D01*
X113498102Y-87604774D01*
X113309744Y-87682795D01*
X113140226Y-87796063D01*
X112996063Y-87940226D01*
X112882795Y-88109744D01*
X112804774Y-88298102D01*
X112765000Y-88498061D01*
X105749640Y-88498061D01*
X103856534Y-86604956D01*
X103828817Y-86571183D01*
X103694059Y-86460589D01*
X103540313Y-86378411D01*
X103373490Y-86327805D01*
X103243477Y-86315000D01*
X103243469Y-86315000D01*
X103200000Y-86310719D01*
X103156531Y-86315000D01*
X100885000Y-86315000D01*
X100885000Y-84800000D01*
X130561928Y-84800000D01*
X130561928Y-86000000D01*
X130574188Y-86124482D01*
X130610498Y-86244180D01*
X130669463Y-86354494D01*
X130748815Y-86451185D01*
X130845506Y-86530537D01*
X130955820Y-86589502D01*
X131075518Y-86625812D01*
X131200000Y-86638072D01*
X132400000Y-86638072D01*
X132524482Y-86625812D01*
X132644180Y-86589502D01*
X132754494Y-86530537D01*
X132851185Y-86451185D01*
X132930537Y-86354494D01*
X132989502Y-86244180D01*
X133025812Y-86124482D01*
X133038072Y-86000000D01*
X133038072Y-84800000D01*
X133025812Y-84675518D01*
X132989502Y-84555820D01*
X132930537Y-84445506D01*
X132851185Y-84348815D01*
X132754494Y-84269463D01*
X132644180Y-84210498D01*
X132524482Y-84174188D01*
X132400000Y-84161928D01*
X131200000Y-84161928D01*
X131075518Y-84174188D01*
X130955820Y-84210498D01*
X130845506Y-84269463D01*
X130748815Y-84348815D01*
X130669463Y-84445506D01*
X130610498Y-84555820D01*
X130574188Y-84675518D01*
X130561928Y-84800000D01*
X100885000Y-84800000D01*
X100885000Y-82643465D01*
X100889281Y-82599999D01*
X100885000Y-82556533D01*
X100885000Y-82556523D01*
X100872195Y-82426510D01*
X100833230Y-82298061D01*
X117165000Y-82298061D01*
X117165000Y-82501939D01*
X117204774Y-82701898D01*
X117282795Y-82890256D01*
X117356123Y-83000000D01*
X117282795Y-83109744D01*
X117204774Y-83298102D01*
X117165000Y-83498061D01*
X117165000Y-83701939D01*
X117204774Y-83901898D01*
X117282795Y-84090256D01*
X117396063Y-84259774D01*
X117540226Y-84403937D01*
X117709744Y-84517205D01*
X117898102Y-84595226D01*
X118098061Y-84635000D01*
X118301939Y-84635000D01*
X118501898Y-84595226D01*
X118690256Y-84517205D01*
X118859774Y-84403937D01*
X119003937Y-84259774D01*
X119117205Y-84090256D01*
X119195226Y-83901898D01*
X119235000Y-83701939D01*
X119235000Y-83498061D01*
X119195226Y-83298102D01*
X119117205Y-83109744D01*
X119043877Y-83000000D01*
X119117205Y-82890256D01*
X119195226Y-82701898D01*
X119235000Y-82501939D01*
X119235000Y-82298061D01*
X119230103Y-82273439D01*
X130515000Y-82273439D01*
X130515000Y-82526561D01*
X130564381Y-82774821D01*
X130661247Y-83008676D01*
X130801875Y-83219140D01*
X130980860Y-83398125D01*
X131191324Y-83538753D01*
X131425179Y-83635619D01*
X131673439Y-83685000D01*
X131926561Y-83685000D01*
X132174821Y-83635619D01*
X132408676Y-83538753D01*
X132619140Y-83398125D01*
X132798125Y-83219140D01*
X132938753Y-83008676D01*
X133035619Y-82774821D01*
X133085000Y-82526561D01*
X133085000Y-82494608D01*
X133087953Y-82491655D01*
X133243962Y-82807214D01*
X133618745Y-82998020D01*
X134023551Y-83112044D01*
X134442824Y-83144902D01*
X134860451Y-83095334D01*
X135260383Y-82965243D01*
X135556038Y-82807214D01*
X135712048Y-82491653D01*
X134400000Y-81179605D01*
X134385858Y-81193748D01*
X134206253Y-81014143D01*
X134220395Y-81000000D01*
X134579605Y-81000000D01*
X135891653Y-82312048D01*
X136207214Y-82156038D01*
X136398020Y-81781255D01*
X136512044Y-81376449D01*
X136544902Y-80957176D01*
X136495334Y-80539549D01*
X136365243Y-80139617D01*
X136207214Y-79843962D01*
X135891653Y-79687952D01*
X134579605Y-81000000D01*
X134220395Y-81000000D01*
X132908347Y-79687952D01*
X132592786Y-79843962D01*
X132401980Y-80218745D01*
X132287956Y-80623551D01*
X132255098Y-81042824D01*
X132274422Y-81205637D01*
X132174821Y-81164381D01*
X131926561Y-81115000D01*
X131673439Y-81115000D01*
X131425179Y-81164381D01*
X131191324Y-81261247D01*
X130980860Y-81401875D01*
X130801875Y-81580860D01*
X130661247Y-81791324D01*
X130564381Y-82025179D01*
X130515000Y-82273439D01*
X119230103Y-82273439D01*
X119195226Y-82098102D01*
X119117205Y-81909744D01*
X119003937Y-81740226D01*
X118859774Y-81596063D01*
X118690256Y-81482795D01*
X118501898Y-81404774D01*
X118301939Y-81365000D01*
X118098061Y-81365000D01*
X117898102Y-81404774D01*
X117709744Y-81482795D01*
X117540226Y-81596063D01*
X117396063Y-81740226D01*
X117282795Y-81909744D01*
X117204774Y-82098102D01*
X117165000Y-82298061D01*
X100833230Y-82298061D01*
X100821589Y-82259687D01*
X100739411Y-82105941D01*
X100628817Y-81971183D01*
X100595049Y-81943470D01*
X97606535Y-78954957D01*
X97595226Y-78898102D01*
X97517205Y-78709744D01*
X97403937Y-78540226D01*
X97259774Y-78396063D01*
X97090256Y-78282795D01*
X96901898Y-78204774D01*
X96701939Y-78165000D01*
X96498061Y-78165000D01*
X96298102Y-78204774D01*
X96109744Y-78282795D01*
X95940226Y-78396063D01*
X95796063Y-78540226D01*
X95682795Y-78709744D01*
X95604774Y-78898102D01*
X95565000Y-79098061D01*
X95565000Y-79301939D01*
X95604774Y-79501898D01*
X95682795Y-79690256D01*
X95796063Y-79859774D01*
X95940226Y-80003937D01*
X96109744Y-80117205D01*
X96298102Y-80195226D01*
X96354957Y-80206535D01*
X99115001Y-82966580D01*
X99115000Y-86661545D01*
X99082795Y-86709744D01*
X99004774Y-86898102D01*
X98965000Y-87098061D01*
X98965000Y-87301939D01*
X99004774Y-87501898D01*
X99082795Y-87690256D01*
X99196063Y-87859774D01*
X99340226Y-88003937D01*
X99509744Y-88117205D01*
X99698102Y-88195226D01*
X99898061Y-88235000D01*
X100101939Y-88235000D01*
X100301898Y-88195226D01*
X100490256Y-88117205D01*
X100538454Y-88085000D01*
X102833422Y-88085000D01*
X111393465Y-96645044D01*
X111404774Y-96701898D01*
X111482795Y-96890256D01*
X111596063Y-97059774D01*
X111740226Y-97203937D01*
X111909744Y-97317205D01*
X112098102Y-97395226D01*
X112298061Y-97435000D01*
X112501939Y-97435000D01*
X112701898Y-97395226D01*
X112890256Y-97317205D01*
X112938454Y-97285000D01*
X118851289Y-97285000D01*
X118796063Y-97340226D01*
X118682795Y-97509744D01*
X118604774Y-97698102D01*
X118565000Y-97898061D01*
X118565000Y-98101939D01*
X118604774Y-98301898D01*
X118682795Y-98490256D01*
X118796063Y-98659774D01*
X118940226Y-98803937D01*
X119109744Y-98917205D01*
X119298102Y-98995226D01*
X119498061Y-99035000D01*
X119701939Y-99035000D01*
X119901898Y-98995226D01*
X120090256Y-98917205D01*
X120259774Y-98803937D01*
X120403937Y-98659774D01*
X120517205Y-98490256D01*
X120595226Y-98301898D01*
X120635000Y-98101939D01*
X120635000Y-97898061D01*
X120595226Y-97698102D01*
X120517205Y-97509744D01*
X120403937Y-97340226D01*
X120348711Y-97285000D01*
X135528948Y-97285000D01*
X135660131Y-97481330D01*
X135828670Y-97649869D01*
X136026850Y-97782288D01*
X136247056Y-97873501D01*
X136480825Y-97920000D01*
X136719175Y-97920000D01*
X136952944Y-97873501D01*
X137140001Y-97796019D01*
X137140001Y-98166264D01*
X136990911Y-98098699D01*
X136758792Y-98044558D01*
X136520571Y-98036742D01*
X136285402Y-98075550D01*
X136062323Y-98159491D01*
X135991993Y-98197084D01*
X135947731Y-98418126D01*
X136600000Y-99070395D01*
X136614143Y-99056253D01*
X136793748Y-99235858D01*
X136779605Y-99250000D01*
X136793748Y-99264143D01*
X136614143Y-99443748D01*
X136600000Y-99429605D01*
X135947731Y-100081874D01*
X135991993Y-100302916D01*
X136209089Y-100401301D01*
X136441208Y-100455442D01*
X136679429Y-100463258D01*
X136914598Y-100424450D01*
X137137677Y-100340509D01*
X137140001Y-100339267D01*
X137140001Y-100703981D01*
X136952944Y-100626499D01*
X136719175Y-100580000D01*
X136480825Y-100580000D01*
X136247056Y-100626499D01*
X136026850Y-100717712D01*
X135828670Y-100850131D01*
X135660131Y-101018670D01*
X135527712Y-101216850D01*
X135436499Y-101437056D01*
X135390000Y-101670825D01*
X135390000Y-101909175D01*
X135436499Y-102142944D01*
X135527712Y-102363150D01*
X135660131Y-102561330D01*
X135828670Y-102729869D01*
X136026850Y-102862288D01*
X136247056Y-102953501D01*
X136480825Y-103000000D01*
X136719175Y-103000000D01*
X136952944Y-102953501D01*
X137140001Y-102876019D01*
X137140001Y-103243981D01*
X136952944Y-103166499D01*
X136719175Y-103120000D01*
X136480825Y-103120000D01*
X136247056Y-103166499D01*
X136026850Y-103257712D01*
X135828670Y-103390131D01*
X135660131Y-103558670D01*
X135527712Y-103756850D01*
X135436499Y-103977056D01*
X135390000Y-104210825D01*
X135390000Y-104449175D01*
X135436499Y-104682944D01*
X135527712Y-104903150D01*
X135660131Y-105101330D01*
X135828670Y-105269869D01*
X136026850Y-105402288D01*
X136247056Y-105493501D01*
X136480825Y-105540000D01*
X136719175Y-105540000D01*
X136952944Y-105493501D01*
X137140001Y-105416019D01*
X137140001Y-105783981D01*
X136952944Y-105706499D01*
X136719175Y-105660000D01*
X136480825Y-105660000D01*
X136247056Y-105706499D01*
X136026850Y-105797712D01*
X135828670Y-105930131D01*
X135660131Y-106098670D01*
X135527712Y-106296850D01*
X135436499Y-106517056D01*
X135390000Y-106750825D01*
X135390000Y-106989175D01*
X135436499Y-107222944D01*
X135527712Y-107443150D01*
X135660131Y-107641330D01*
X135828670Y-107809869D01*
X136026850Y-107942288D01*
X136247056Y-108033501D01*
X136480825Y-108080000D01*
X136719175Y-108080000D01*
X136952944Y-108033501D01*
X137140001Y-107956019D01*
X137140001Y-108323981D01*
X136952944Y-108246499D01*
X136719175Y-108200000D01*
X136480825Y-108200000D01*
X136247056Y-108246499D01*
X136026850Y-108337712D01*
X135828670Y-108470131D01*
X135660131Y-108638670D01*
X135527712Y-108836850D01*
X135436499Y-109057056D01*
X135390000Y-109290825D01*
X135390000Y-109529175D01*
X135436499Y-109762944D01*
X135527712Y-109983150D01*
X135660131Y-110181330D01*
X135828670Y-110349869D01*
X136026850Y-110482288D01*
X136247056Y-110573501D01*
X136480825Y-110620000D01*
X136719175Y-110620000D01*
X136952944Y-110573501D01*
X137140001Y-110496019D01*
X137140001Y-110863981D01*
X136952944Y-110786499D01*
X136719175Y-110740000D01*
X136480825Y-110740000D01*
X136247056Y-110786499D01*
X136026850Y-110877712D01*
X135828670Y-111010131D01*
X135660131Y-111178670D01*
X135527712Y-111376850D01*
X135436499Y-111597056D01*
X135390000Y-111830825D01*
X135390000Y-112069175D01*
X135436499Y-112302944D01*
X135527712Y-112523150D01*
X135660131Y-112721330D01*
X135828670Y-112889869D01*
X136026850Y-113022288D01*
X136247056Y-113113501D01*
X136480825Y-113160000D01*
X136719175Y-113160000D01*
X136952944Y-113113501D01*
X137140001Y-113036019D01*
X137140001Y-113403981D01*
X136952944Y-113326499D01*
X136719175Y-113280000D01*
X136480825Y-113280000D01*
X136247056Y-113326499D01*
X136026850Y-113417712D01*
X135828670Y-113550131D01*
X135660131Y-113718670D01*
X135527712Y-113916850D01*
X135436499Y-114137056D01*
X135390000Y-114370825D01*
X135390000Y-114609175D01*
X135436499Y-114842944D01*
X135527712Y-115063150D01*
X135660131Y-115261330D01*
X135828670Y-115429869D01*
X135993493Y-115540000D01*
X86660000Y-115540000D01*
X86660000Y-112589721D01*
X124665000Y-112589721D01*
X124665000Y-113010279D01*
X124747047Y-113422756D01*
X124907988Y-113811302D01*
X125141637Y-114160983D01*
X125439017Y-114458363D01*
X125788698Y-114692012D01*
X126177244Y-114852953D01*
X126589721Y-114935000D01*
X127010279Y-114935000D01*
X127422756Y-114852953D01*
X127811302Y-114692012D01*
X128160983Y-114458363D01*
X128458363Y-114160983D01*
X128692012Y-113811302D01*
X128852953Y-113422756D01*
X128935000Y-113010279D01*
X128935000Y-112589721D01*
X130065000Y-112589721D01*
X130065000Y-113010279D01*
X130147047Y-113422756D01*
X130307988Y-113811302D01*
X130541637Y-114160983D01*
X130839017Y-114458363D01*
X131188698Y-114692012D01*
X131577244Y-114852953D01*
X131989721Y-114935000D01*
X132410279Y-114935000D01*
X132822756Y-114852953D01*
X133211302Y-114692012D01*
X133560983Y-114458363D01*
X133858363Y-114160983D01*
X134092012Y-113811302D01*
X134252953Y-113422756D01*
X134335000Y-113010279D01*
X134335000Y-112589721D01*
X134252953Y-112177244D01*
X134092012Y-111788698D01*
X133858363Y-111439017D01*
X133560983Y-111141637D01*
X133211302Y-110907988D01*
X132822756Y-110747047D01*
X132410279Y-110665000D01*
X131989721Y-110665000D01*
X131577244Y-110747047D01*
X131188698Y-110907988D01*
X130839017Y-111141637D01*
X130541637Y-111439017D01*
X130307988Y-111788698D01*
X130147047Y-112177244D01*
X130065000Y-112589721D01*
X128935000Y-112589721D01*
X128852953Y-112177244D01*
X128692012Y-111788698D01*
X128458363Y-111439017D01*
X128160983Y-111141637D01*
X127811302Y-110907988D01*
X127422756Y-110747047D01*
X127010279Y-110665000D01*
X126589721Y-110665000D01*
X126177244Y-110747047D01*
X125788698Y-110907988D01*
X125439017Y-111141637D01*
X125141637Y-111439017D01*
X124907988Y-111788698D01*
X124747047Y-112177244D01*
X124665000Y-112589721D01*
X86660000Y-112589721D01*
X86660000Y-110483967D01*
X86709744Y-110517205D01*
X86898102Y-110595226D01*
X87098061Y-110635000D01*
X87301939Y-110635000D01*
X87501898Y-110595226D01*
X87690256Y-110517205D01*
X87859774Y-110403937D01*
X88003937Y-110259774D01*
X88117205Y-110090256D01*
X88195226Y-109901898D01*
X88235000Y-109701939D01*
X88235000Y-109498061D01*
X88195226Y-109298102D01*
X88117205Y-109109744D01*
X88003937Y-108940226D01*
X87859774Y-108796063D01*
X87690256Y-108682795D01*
X87501898Y-108604774D01*
X87301939Y-108565000D01*
X87098061Y-108565000D01*
X86898102Y-108604774D01*
X86709744Y-108682795D01*
X86660000Y-108716033D01*
X86660000Y-107298061D01*
X88365000Y-107298061D01*
X88365000Y-107501939D01*
X88404774Y-107701898D01*
X88482795Y-107890256D01*
X88596063Y-108059774D01*
X88740226Y-108203937D01*
X88909744Y-108317205D01*
X89098102Y-108395226D01*
X89298061Y-108435000D01*
X89501939Y-108435000D01*
X89701898Y-108395226D01*
X89890256Y-108317205D01*
X89918907Y-108298061D01*
X96365000Y-108298061D01*
X96365000Y-108501939D01*
X96404774Y-108701898D01*
X96482795Y-108890256D01*
X96596063Y-109059774D01*
X96740226Y-109203937D01*
X96909744Y-109317205D01*
X97098102Y-109395226D01*
X97298061Y-109435000D01*
X97501939Y-109435000D01*
X97701898Y-109395226D01*
X97890256Y-109317205D01*
X98059774Y-109203937D01*
X98203937Y-109059774D01*
X98317205Y-108890256D01*
X98395226Y-108701898D01*
X98435000Y-108501939D01*
X98435000Y-108298061D01*
X115765000Y-108298061D01*
X115765000Y-108501939D01*
X115804774Y-108701898D01*
X115882795Y-108890256D01*
X115996063Y-109059774D01*
X116140226Y-109203937D01*
X116309744Y-109317205D01*
X116498102Y-109395226D01*
X116698061Y-109435000D01*
X116901939Y-109435000D01*
X117101898Y-109395226D01*
X117290256Y-109317205D01*
X117459774Y-109203937D01*
X117603937Y-109059774D01*
X117717205Y-108890256D01*
X117795226Y-108701898D01*
X117835000Y-108501939D01*
X117835000Y-108298061D01*
X117795226Y-108098102D01*
X117717205Y-107909744D01*
X117603937Y-107740226D01*
X117459774Y-107596063D01*
X117290256Y-107482795D01*
X117101898Y-107404774D01*
X116901939Y-107365000D01*
X116698061Y-107365000D01*
X116498102Y-107404774D01*
X116309744Y-107482795D01*
X116140226Y-107596063D01*
X115996063Y-107740226D01*
X115882795Y-107909744D01*
X115804774Y-108098102D01*
X115765000Y-108298061D01*
X98435000Y-108298061D01*
X98395226Y-108098102D01*
X98317205Y-107909744D01*
X98203937Y-107740226D01*
X98059774Y-107596063D01*
X97890256Y-107482795D01*
X97701898Y-107404774D01*
X97501939Y-107365000D01*
X97298061Y-107365000D01*
X97098102Y-107404774D01*
X96909744Y-107482795D01*
X96740226Y-107596063D01*
X96596063Y-107740226D01*
X96482795Y-107909744D01*
X96404774Y-108098102D01*
X96365000Y-108298061D01*
X89918907Y-108298061D01*
X90059774Y-108203937D01*
X90203937Y-108059774D01*
X90317205Y-107890256D01*
X90395226Y-107701898D01*
X90435000Y-107501939D01*
X90435000Y-107298061D01*
X90395226Y-107098102D01*
X90317205Y-106909744D01*
X90203937Y-106740226D01*
X90059774Y-106596063D01*
X89890256Y-106482795D01*
X89701898Y-106404774D01*
X89501939Y-106365000D01*
X89298061Y-106365000D01*
X89098102Y-106404774D01*
X88909744Y-106482795D01*
X88740226Y-106596063D01*
X88596063Y-106740226D01*
X88482795Y-106909744D01*
X88404774Y-107098102D01*
X88365000Y-107298061D01*
X86660000Y-107298061D01*
X86660000Y-107103631D01*
X86773996Y-107157571D01*
X87048184Y-107226300D01*
X87330512Y-107240217D01*
X87610130Y-107198787D01*
X87876292Y-107103603D01*
X88001514Y-107036671D01*
X88073097Y-106792702D01*
X87260000Y-105979605D01*
X87245858Y-105993748D01*
X87066253Y-105814143D01*
X87080395Y-105800000D01*
X87439605Y-105800000D01*
X88252702Y-106613097D01*
X88496671Y-106541514D01*
X88617571Y-106286004D01*
X88686300Y-106011816D01*
X88700217Y-105729488D01*
X88689724Y-105658665D01*
X90905000Y-105658665D01*
X90905000Y-105941335D01*
X90960147Y-106218574D01*
X91068320Y-106479727D01*
X91225363Y-106714759D01*
X91425241Y-106914637D01*
X91660273Y-107071680D01*
X91921426Y-107179853D01*
X92198665Y-107235000D01*
X92481335Y-107235000D01*
X92758574Y-107179853D01*
X93019727Y-107071680D01*
X93142387Y-106989721D01*
X125865000Y-106989721D01*
X125865000Y-107410279D01*
X125947047Y-107822756D01*
X126107988Y-108211302D01*
X126341637Y-108560983D01*
X126639017Y-108858363D01*
X126988698Y-109092012D01*
X127377244Y-109252953D01*
X127789721Y-109335000D01*
X128210279Y-109335000D01*
X128622756Y-109252953D01*
X129011302Y-109092012D01*
X129360983Y-108858363D01*
X129658363Y-108560983D01*
X129892012Y-108211302D01*
X130052953Y-107822756D01*
X130135000Y-107410279D01*
X130135000Y-106989721D01*
X130265000Y-106989721D01*
X130265000Y-107410279D01*
X130347047Y-107822756D01*
X130507988Y-108211302D01*
X130741637Y-108560983D01*
X131039017Y-108858363D01*
X131388698Y-109092012D01*
X131777244Y-109252953D01*
X132189721Y-109335000D01*
X132610279Y-109335000D01*
X133022756Y-109252953D01*
X133411302Y-109092012D01*
X133760983Y-108858363D01*
X134058363Y-108560983D01*
X134292012Y-108211302D01*
X134452953Y-107822756D01*
X134535000Y-107410279D01*
X134535000Y-106989721D01*
X134452953Y-106577244D01*
X134292012Y-106188698D01*
X134058363Y-105839017D01*
X133760983Y-105541637D01*
X133411302Y-105307988D01*
X133022756Y-105147047D01*
X132610279Y-105065000D01*
X132189721Y-105065000D01*
X131777244Y-105147047D01*
X131388698Y-105307988D01*
X131039017Y-105541637D01*
X130741637Y-105839017D01*
X130507988Y-106188698D01*
X130347047Y-106577244D01*
X130265000Y-106989721D01*
X130135000Y-106989721D01*
X130052953Y-106577244D01*
X129892012Y-106188698D01*
X129658363Y-105839017D01*
X129360983Y-105541637D01*
X129011302Y-105307988D01*
X128622756Y-105147047D01*
X128210279Y-105065000D01*
X127789721Y-105065000D01*
X127377244Y-105147047D01*
X126988698Y-105307988D01*
X126639017Y-105541637D01*
X126341637Y-105839017D01*
X126107988Y-106188698D01*
X125947047Y-106577244D01*
X125865000Y-106989721D01*
X93142387Y-106989721D01*
X93254759Y-106914637D01*
X93454637Y-106714759D01*
X93611680Y-106479727D01*
X93719853Y-106218574D01*
X93775000Y-105941335D01*
X93775000Y-105658665D01*
X93719853Y-105381426D01*
X93611680Y-105120273D01*
X93454637Y-104885241D01*
X93254759Y-104685363D01*
X93019727Y-104528320D01*
X92758574Y-104420147D01*
X92481335Y-104365000D01*
X92198665Y-104365000D01*
X91921426Y-104420147D01*
X91660273Y-104528320D01*
X91425241Y-104685363D01*
X91225363Y-104885241D01*
X91068320Y-105120273D01*
X90960147Y-105381426D01*
X90905000Y-105658665D01*
X88689724Y-105658665D01*
X88658787Y-105449870D01*
X88563603Y-105183708D01*
X88496671Y-105058486D01*
X88252702Y-104986903D01*
X87439605Y-105800000D01*
X87080395Y-105800000D01*
X87066253Y-105785858D01*
X87245858Y-105606253D01*
X87260000Y-105620395D01*
X88073097Y-104807298D01*
X88001514Y-104563329D01*
X87746004Y-104442429D01*
X87471816Y-104373700D01*
X87189488Y-104359783D01*
X86909870Y-104401213D01*
X86660000Y-104490571D01*
X86660000Y-102498061D01*
X96765000Y-102498061D01*
X96765000Y-102701939D01*
X96804774Y-102901898D01*
X96882795Y-103090256D01*
X96996063Y-103259774D01*
X97140226Y-103403937D01*
X97309744Y-103517205D01*
X97498102Y-103595226D01*
X97698061Y-103635000D01*
X97901939Y-103635000D01*
X98101898Y-103595226D01*
X98290256Y-103517205D01*
X98459774Y-103403937D01*
X98500000Y-103363711D01*
X98540226Y-103403937D01*
X98709744Y-103517205D01*
X98898102Y-103595226D01*
X99098061Y-103635000D01*
X99301939Y-103635000D01*
X99501898Y-103595226D01*
X99690256Y-103517205D01*
X99859774Y-103403937D01*
X100003937Y-103259774D01*
X100117205Y-103090256D01*
X100176104Y-102948061D01*
X104515000Y-102948061D01*
X104515000Y-103151939D01*
X104554774Y-103351898D01*
X104632795Y-103540256D01*
X104746063Y-103709774D01*
X104890226Y-103853937D01*
X105059744Y-103967205D01*
X105248102Y-104045226D01*
X105448061Y-104085000D01*
X105651939Y-104085000D01*
X105851898Y-104045226D01*
X106040256Y-103967205D01*
X106209774Y-103853937D01*
X106353937Y-103709774D01*
X106467205Y-103540256D01*
X106545226Y-103351898D01*
X106585000Y-103151939D01*
X106585000Y-102948061D01*
X106545226Y-102748102D01*
X106467205Y-102559744D01*
X106353937Y-102390226D01*
X106209774Y-102246063D01*
X106040256Y-102132795D01*
X105851898Y-102054774D01*
X105651939Y-102015000D01*
X105448061Y-102015000D01*
X105248102Y-102054774D01*
X105059744Y-102132795D01*
X104890226Y-102246063D01*
X104746063Y-102390226D01*
X104632795Y-102559744D01*
X104554774Y-102748102D01*
X104515000Y-102948061D01*
X100176104Y-102948061D01*
X100195226Y-102901898D01*
X100235000Y-102701939D01*
X100235000Y-102498061D01*
X100195226Y-102298102D01*
X100117205Y-102109744D01*
X100003937Y-101940226D01*
X99859774Y-101796063D01*
X99690256Y-101682795D01*
X99501898Y-101604774D01*
X99301939Y-101565000D01*
X99098061Y-101565000D01*
X98898102Y-101604774D01*
X98709744Y-101682795D01*
X98540226Y-101796063D01*
X98500000Y-101836289D01*
X98459774Y-101796063D01*
X98290256Y-101682795D01*
X98101898Y-101604774D01*
X97901939Y-101565000D01*
X97698061Y-101565000D01*
X97498102Y-101604774D01*
X97309744Y-101682795D01*
X97140226Y-101796063D01*
X96996063Y-101940226D01*
X96882795Y-102109744D01*
X96804774Y-102298102D01*
X96765000Y-102498061D01*
X86660000Y-102498061D01*
X86660000Y-99857911D01*
X102990000Y-99857911D01*
X102990000Y-100042089D01*
X103025932Y-100222729D01*
X103096414Y-100392889D01*
X103198738Y-100546028D01*
X103328972Y-100676262D01*
X103482111Y-100778586D01*
X103578837Y-100818651D01*
X103565000Y-100888212D01*
X103565000Y-101111788D01*
X103608617Y-101331067D01*
X103694176Y-101537624D01*
X103818388Y-101723520D01*
X103976480Y-101881612D01*
X104162376Y-102005824D01*
X104368933Y-102091383D01*
X104588212Y-102135000D01*
X104811788Y-102135000D01*
X105031067Y-102091383D01*
X105237624Y-102005824D01*
X105423520Y-101881612D01*
X105581612Y-101723520D01*
X105705824Y-101537624D01*
X105791383Y-101331067D01*
X105835000Y-101111788D01*
X105835000Y-100888212D01*
X107865000Y-100888212D01*
X107865000Y-101111788D01*
X107908617Y-101331067D01*
X107994176Y-101537624D01*
X108118388Y-101723520D01*
X108276480Y-101881612D01*
X108462376Y-102005824D01*
X108668933Y-102091383D01*
X108888212Y-102135000D01*
X109111788Y-102135000D01*
X109297494Y-102098061D01*
X113365000Y-102098061D01*
X113365000Y-102301939D01*
X113404774Y-102501898D01*
X113482795Y-102690256D01*
X113596063Y-102859774D01*
X113740226Y-103003937D01*
X113909744Y-103117205D01*
X114098102Y-103195226D01*
X114298061Y-103235000D01*
X114501939Y-103235000D01*
X114701898Y-103195226D01*
X114890256Y-103117205D01*
X115059774Y-103003937D01*
X115203937Y-102859774D01*
X115317205Y-102690256D01*
X115395226Y-102501898D01*
X115395989Y-102498061D01*
X117765000Y-102498061D01*
X117765000Y-102701939D01*
X117804774Y-102901898D01*
X117882795Y-103090256D01*
X117996063Y-103259774D01*
X118140226Y-103403937D01*
X118309744Y-103517205D01*
X118498102Y-103595226D01*
X118698061Y-103635000D01*
X118901939Y-103635000D01*
X119101898Y-103595226D01*
X119290256Y-103517205D01*
X119459774Y-103403937D01*
X119603937Y-103259774D01*
X119717205Y-103090256D01*
X119795226Y-102901898D01*
X119835000Y-102701939D01*
X119835000Y-102498061D01*
X119795226Y-102298102D01*
X119717205Y-102109744D01*
X119603937Y-101940226D01*
X119459774Y-101796063D01*
X119290256Y-101682795D01*
X119101898Y-101604774D01*
X118901939Y-101565000D01*
X118698061Y-101565000D01*
X118498102Y-101604774D01*
X118309744Y-101682795D01*
X118140226Y-101796063D01*
X117996063Y-101940226D01*
X117882795Y-102109744D01*
X117804774Y-102298102D01*
X117765000Y-102498061D01*
X115395989Y-102498061D01*
X115435000Y-102301939D01*
X115435000Y-102098061D01*
X115395226Y-101898102D01*
X115317205Y-101709744D01*
X115203937Y-101540226D01*
X115059774Y-101396063D01*
X114890256Y-101282795D01*
X114701898Y-101204774D01*
X114501939Y-101165000D01*
X114298061Y-101165000D01*
X114098102Y-101204774D01*
X113909744Y-101282795D01*
X113740226Y-101396063D01*
X113596063Y-101540226D01*
X113482795Y-101709744D01*
X113404774Y-101898102D01*
X113365000Y-102098061D01*
X109297494Y-102098061D01*
X109331067Y-102091383D01*
X109537624Y-102005824D01*
X109723520Y-101881612D01*
X109881612Y-101723520D01*
X110005824Y-101537624D01*
X110091383Y-101331067D01*
X110135000Y-101111788D01*
X110135000Y-100894099D01*
X110253414Y-100845050D01*
X110418837Y-100734518D01*
X110559518Y-100593837D01*
X110670050Y-100428414D01*
X110746186Y-100244606D01*
X110785000Y-100049476D01*
X110785000Y-99850524D01*
X110746186Y-99655394D01*
X110670050Y-99471586D01*
X110575064Y-99329429D01*
X135386742Y-99329429D01*
X135425550Y-99564598D01*
X135509491Y-99787677D01*
X135547084Y-99858007D01*
X135768126Y-99902269D01*
X136420395Y-99250000D01*
X135768126Y-98597731D01*
X135547084Y-98641993D01*
X135448699Y-98859089D01*
X135394558Y-99091208D01*
X135386742Y-99329429D01*
X110575064Y-99329429D01*
X110559518Y-99306163D01*
X110418837Y-99165482D01*
X110253414Y-99054950D01*
X110069606Y-98978814D01*
X109874476Y-98940000D01*
X109675524Y-98940000D01*
X109480394Y-98978814D01*
X109296586Y-99054950D01*
X109131163Y-99165482D01*
X108990482Y-99306163D01*
X108879950Y-99471586D01*
X108803814Y-99655394D01*
X108765000Y-99850524D01*
X108765000Y-99889508D01*
X108668933Y-99908617D01*
X108462376Y-99994176D01*
X108276480Y-100118388D01*
X108118388Y-100276480D01*
X107994176Y-100462376D01*
X107908617Y-100668933D01*
X107865000Y-100888212D01*
X105835000Y-100888212D01*
X105791383Y-100668933D01*
X105705824Y-100462376D01*
X105581612Y-100276480D01*
X105423520Y-100118388D01*
X105237624Y-99994176D01*
X105031067Y-99908617D01*
X104860000Y-99874590D01*
X104860000Y-99857911D01*
X104824068Y-99677271D01*
X104753586Y-99507111D01*
X104651262Y-99353972D01*
X104521028Y-99223738D01*
X104367889Y-99121414D01*
X104197729Y-99050932D01*
X104017089Y-99015000D01*
X103832911Y-99015000D01*
X103652271Y-99050932D01*
X103482111Y-99121414D01*
X103328972Y-99223738D01*
X103198738Y-99353972D01*
X103096414Y-99507111D01*
X103025932Y-99677271D01*
X102990000Y-99857911D01*
X86660000Y-99857911D01*
X86660000Y-98903631D01*
X86773996Y-98957571D01*
X87048184Y-99026300D01*
X87330512Y-99040217D01*
X87610130Y-98998787D01*
X87876292Y-98903603D01*
X88001514Y-98836671D01*
X88073097Y-98592702D01*
X87260000Y-97779605D01*
X87245858Y-97793748D01*
X87066253Y-97614143D01*
X87080395Y-97600000D01*
X87439605Y-97600000D01*
X88252702Y-98413097D01*
X88496671Y-98341514D01*
X88617571Y-98086004D01*
X88686300Y-97811816D01*
X88700217Y-97529488D01*
X88689724Y-97458665D01*
X90905000Y-97458665D01*
X90905000Y-97741335D01*
X90960147Y-98018574D01*
X91068320Y-98279727D01*
X91225363Y-98514759D01*
X91425241Y-98714637D01*
X91660273Y-98871680D01*
X91921426Y-98979853D01*
X92198665Y-99035000D01*
X92481335Y-99035000D01*
X92758574Y-98979853D01*
X92946042Y-98902201D01*
X105010004Y-98902201D01*
X105010010Y-98903946D01*
X105012835Y-98931770D01*
X105012639Y-98959749D01*
X105013512Y-98968642D01*
X105018612Y-99017166D01*
X105030270Y-99073957D01*
X105041144Y-99130965D01*
X105043727Y-99139520D01*
X105058155Y-99186130D01*
X105080630Y-99239595D01*
X105102367Y-99293396D01*
X105106563Y-99301286D01*
X105129770Y-99344205D01*
X105162199Y-99392282D01*
X105193956Y-99440814D01*
X105199604Y-99447739D01*
X105230704Y-99485334D01*
X105271877Y-99526222D01*
X105312464Y-99567667D01*
X105319349Y-99573363D01*
X105357160Y-99604200D01*
X105405469Y-99636295D01*
X105453320Y-99669061D01*
X105461180Y-99673311D01*
X105504261Y-99696218D01*
X105557858Y-99718310D01*
X105611218Y-99741180D01*
X105619755Y-99743822D01*
X105666464Y-99757924D01*
X105723320Y-99769181D01*
X105767147Y-99778497D01*
X105774538Y-99780739D01*
X105785585Y-99781827D01*
X105788991Y-99782185D01*
X105837550Y-99786946D01*
X105837558Y-99786946D01*
X105868566Y-99790000D01*
X107831434Y-99790000D01*
X107858329Y-99787351D01*
X107859749Y-99787361D01*
X107868642Y-99786488D01*
X107891739Y-99784060D01*
X107925462Y-99780739D01*
X107936208Y-99777479D01*
X107973957Y-99769730D01*
X108030965Y-99758856D01*
X108039520Y-99756273D01*
X108086130Y-99741845D01*
X108139595Y-99719370D01*
X108193396Y-99697633D01*
X108201286Y-99693437D01*
X108244205Y-99670230D01*
X108292282Y-99637801D01*
X108340814Y-99606044D01*
X108347739Y-99600396D01*
X108385334Y-99569296D01*
X108426222Y-99528123D01*
X108467667Y-99487536D01*
X108473363Y-99480651D01*
X108504200Y-99442840D01*
X108536295Y-99394531D01*
X108569061Y-99346680D01*
X108573311Y-99338820D01*
X108596218Y-99295739D01*
X108618310Y-99242142D01*
X108641180Y-99188782D01*
X108643822Y-99180245D01*
X108657924Y-99133536D01*
X108669181Y-99076680D01*
X108681251Y-99019896D01*
X108682185Y-99011009D01*
X108686946Y-98962450D01*
X108686946Y-98934513D01*
X108689965Y-98906736D01*
X108689996Y-98897799D01*
X108689990Y-98896054D01*
X108687164Y-98868223D01*
X108687360Y-98840251D01*
X108686488Y-98831358D01*
X108681388Y-98782834D01*
X108669730Y-98726043D01*
X108658856Y-98669035D01*
X108656273Y-98660480D01*
X108641845Y-98613870D01*
X108619367Y-98560397D01*
X108597632Y-98506603D01*
X108593437Y-98498713D01*
X108570230Y-98455795D01*
X108537812Y-98407736D01*
X108506044Y-98359185D01*
X108500396Y-98352260D01*
X108469296Y-98314666D01*
X108428142Y-98273796D01*
X108387536Y-98232332D01*
X108380673Y-98226656D01*
X108380668Y-98226651D01*
X108380663Y-98226647D01*
X108380650Y-98226637D01*
X108342840Y-98195800D01*
X108294526Y-98163701D01*
X108246681Y-98130939D01*
X108238820Y-98126689D01*
X108238805Y-98126681D01*
X108238802Y-98126679D01*
X108238798Y-98126678D01*
X108195740Y-98103782D01*
X108142091Y-98081669D01*
X108088781Y-98058820D01*
X108080245Y-98056177D01*
X108033536Y-98042076D01*
X107976655Y-98030813D01*
X107932853Y-98021503D01*
X107925462Y-98019261D01*
X107914415Y-98018173D01*
X107911009Y-98017815D01*
X107862450Y-98013054D01*
X107862442Y-98013054D01*
X107831434Y-98010000D01*
X105868566Y-98010000D01*
X105841662Y-98012650D01*
X105840251Y-98012640D01*
X105831358Y-98013512D01*
X105808261Y-98015940D01*
X105774538Y-98019261D01*
X105763792Y-98022521D01*
X105726043Y-98030270D01*
X105669035Y-98041144D01*
X105660480Y-98043727D01*
X105613870Y-98058155D01*
X105560397Y-98080633D01*
X105506603Y-98102368D01*
X105498713Y-98106563D01*
X105455795Y-98129770D01*
X105407736Y-98162188D01*
X105359185Y-98193956D01*
X105352260Y-98199604D01*
X105314666Y-98230704D01*
X105273796Y-98271858D01*
X105232332Y-98312464D01*
X105226656Y-98319327D01*
X105226651Y-98319332D01*
X105226647Y-98319337D01*
X105226637Y-98319350D01*
X105195800Y-98357160D01*
X105163701Y-98405474D01*
X105130939Y-98453319D01*
X105126689Y-98461180D01*
X105103782Y-98504260D01*
X105081669Y-98557909D01*
X105058820Y-98611219D01*
X105056177Y-98619755D01*
X105042076Y-98666464D01*
X105030813Y-98723345D01*
X105018749Y-98780104D01*
X105017815Y-98788991D01*
X105013054Y-98837550D01*
X105013054Y-98865487D01*
X105010035Y-98893264D01*
X105010004Y-98902201D01*
X92946042Y-98902201D01*
X93019727Y-98871680D01*
X93254759Y-98714637D01*
X93454637Y-98514759D01*
X93611680Y-98279727D01*
X93719853Y-98018574D01*
X93775000Y-97741335D01*
X93775000Y-97458665D01*
X93719853Y-97181426D01*
X93611680Y-96920273D01*
X93454637Y-96685241D01*
X93254759Y-96485363D01*
X93019727Y-96328320D01*
X92758574Y-96220147D01*
X92481335Y-96165000D01*
X92198665Y-96165000D01*
X91921426Y-96220147D01*
X91660273Y-96328320D01*
X91425241Y-96485363D01*
X91225363Y-96685241D01*
X91068320Y-96920273D01*
X90960147Y-97181426D01*
X90905000Y-97458665D01*
X88689724Y-97458665D01*
X88658787Y-97249870D01*
X88563603Y-96983708D01*
X88496671Y-96858486D01*
X88252702Y-96786903D01*
X87439605Y-97600000D01*
X87080395Y-97600000D01*
X87066253Y-97585858D01*
X87245858Y-97406253D01*
X87260000Y-97420395D01*
X88073097Y-96607298D01*
X88001514Y-96363329D01*
X87746004Y-96242429D01*
X87471816Y-96173700D01*
X87189488Y-96159783D01*
X86909870Y-96201213D01*
X86660000Y-96290571D01*
X86660000Y-94698061D01*
X93765000Y-94698061D01*
X93765000Y-94901939D01*
X93804774Y-95101898D01*
X93882795Y-95290256D01*
X93996063Y-95459774D01*
X94140226Y-95603937D01*
X94309744Y-95717205D01*
X94498102Y-95795226D01*
X94698061Y-95835000D01*
X94901939Y-95835000D01*
X95101898Y-95795226D01*
X95290256Y-95717205D01*
X95318907Y-95698061D01*
X101365000Y-95698061D01*
X101365000Y-95901939D01*
X101404774Y-96101898D01*
X101482795Y-96290256D01*
X101596063Y-96459774D01*
X101740226Y-96603937D01*
X101909744Y-96717205D01*
X102098102Y-96795226D01*
X102298061Y-96835000D01*
X102501939Y-96835000D01*
X102701898Y-96795226D01*
X102890256Y-96717205D01*
X103059774Y-96603937D01*
X103203937Y-96459774D01*
X103317205Y-96290256D01*
X103395226Y-96101898D01*
X103435000Y-95901939D01*
X103435000Y-95698061D01*
X103395226Y-95498102D01*
X103317205Y-95309744D01*
X103203937Y-95140226D01*
X103059774Y-94996063D01*
X102890256Y-94882795D01*
X102701898Y-94804774D01*
X102501939Y-94765000D01*
X102298061Y-94765000D01*
X102098102Y-94804774D01*
X101909744Y-94882795D01*
X101740226Y-94996063D01*
X101596063Y-95140226D01*
X101482795Y-95309744D01*
X101404774Y-95498102D01*
X101365000Y-95698061D01*
X95318907Y-95698061D01*
X95459774Y-95603937D01*
X95603937Y-95459774D01*
X95717205Y-95290256D01*
X95795226Y-95101898D01*
X95835000Y-94901939D01*
X95835000Y-94698061D01*
X95795226Y-94498102D01*
X95717205Y-94309744D01*
X95603937Y-94140226D01*
X95459774Y-93996063D01*
X95290256Y-93882795D01*
X95101898Y-93804774D01*
X94901939Y-93765000D01*
X94698061Y-93765000D01*
X94498102Y-93804774D01*
X94309744Y-93882795D01*
X94140226Y-93996063D01*
X93996063Y-94140226D01*
X93882795Y-94309744D01*
X93804774Y-94498102D01*
X93765000Y-94698061D01*
X86660000Y-94698061D01*
X86660000Y-91298061D01*
X97565000Y-91298061D01*
X97565000Y-91501939D01*
X97604774Y-91701898D01*
X97682795Y-91890256D01*
X97796063Y-92059774D01*
X97940226Y-92203937D01*
X98109744Y-92317205D01*
X98298102Y-92395226D01*
X98498061Y-92435000D01*
X98701939Y-92435000D01*
X98901898Y-92395226D01*
X99090256Y-92317205D01*
X99259774Y-92203937D01*
X99403937Y-92059774D01*
X99517205Y-91890256D01*
X99595226Y-91701898D01*
X99635000Y-91501939D01*
X99635000Y-91298061D01*
X99595226Y-91098102D01*
X99517205Y-90909744D01*
X99403937Y-90740226D01*
X99259774Y-90596063D01*
X99090256Y-90482795D01*
X98901898Y-90404774D01*
X98701939Y-90365000D01*
X98498061Y-90365000D01*
X98298102Y-90404774D01*
X98109744Y-90482795D01*
X97940226Y-90596063D01*
X97796063Y-90740226D01*
X97682795Y-90909744D01*
X97604774Y-91098102D01*
X97565000Y-91298061D01*
X86660000Y-91298061D01*
X86660000Y-90703631D01*
X86773996Y-90757571D01*
X87048184Y-90826300D01*
X87330512Y-90840217D01*
X87610130Y-90798787D01*
X87876292Y-90703603D01*
X88001514Y-90636671D01*
X88073097Y-90392702D01*
X87260000Y-89579605D01*
X87245858Y-89593748D01*
X87066253Y-89414143D01*
X87080395Y-89400000D01*
X87439605Y-89400000D01*
X88252702Y-90213097D01*
X88496671Y-90141514D01*
X88617571Y-89886004D01*
X88686300Y-89611816D01*
X88700217Y-89329488D01*
X88689724Y-89258665D01*
X90905000Y-89258665D01*
X90905000Y-89541335D01*
X90960147Y-89818574D01*
X91068320Y-90079727D01*
X91225363Y-90314759D01*
X91425241Y-90514637D01*
X91660273Y-90671680D01*
X91921426Y-90779853D01*
X92198665Y-90835000D01*
X92481335Y-90835000D01*
X92758574Y-90779853D01*
X93019727Y-90671680D01*
X93254759Y-90514637D01*
X93454637Y-90314759D01*
X93611680Y-90079727D01*
X93719853Y-89818574D01*
X93775000Y-89541335D01*
X93775000Y-89258665D01*
X93719853Y-88981426D01*
X93611680Y-88720273D01*
X93454637Y-88485241D01*
X93254759Y-88285363D01*
X93019727Y-88128320D01*
X92758574Y-88020147D01*
X92481335Y-87965000D01*
X92198665Y-87965000D01*
X91921426Y-88020147D01*
X91660273Y-88128320D01*
X91425241Y-88285363D01*
X91225363Y-88485241D01*
X91068320Y-88720273D01*
X90960147Y-88981426D01*
X90905000Y-89258665D01*
X88689724Y-89258665D01*
X88658787Y-89049870D01*
X88563603Y-88783708D01*
X88496671Y-88658486D01*
X88252702Y-88586903D01*
X87439605Y-89400000D01*
X87080395Y-89400000D01*
X87066253Y-89385858D01*
X87245858Y-89206253D01*
X87260000Y-89220395D01*
X88073097Y-88407298D01*
X88001514Y-88163329D01*
X87746004Y-88042429D01*
X87471816Y-87973700D01*
X87189488Y-87959783D01*
X86909870Y-88001213D01*
X86660000Y-88090571D01*
X86660000Y-82603631D01*
X86773996Y-82657571D01*
X87048184Y-82726300D01*
X87330512Y-82740217D01*
X87610130Y-82698787D01*
X87876292Y-82603603D01*
X88001514Y-82536671D01*
X88073097Y-82292702D01*
X87260000Y-81479605D01*
X87245858Y-81493748D01*
X87066253Y-81314143D01*
X87080395Y-81300000D01*
X87439605Y-81300000D01*
X88252702Y-82113097D01*
X88496671Y-82041514D01*
X88617571Y-81786004D01*
X88686300Y-81511816D01*
X88700217Y-81229488D01*
X88689724Y-81158665D01*
X90905000Y-81158665D01*
X90905000Y-81441335D01*
X90960147Y-81718574D01*
X91068320Y-81979727D01*
X91225363Y-82214759D01*
X91425241Y-82414637D01*
X91660273Y-82571680D01*
X91921426Y-82679853D01*
X92198665Y-82735000D01*
X92481335Y-82735000D01*
X92758574Y-82679853D01*
X93019727Y-82571680D01*
X93254759Y-82414637D01*
X93454637Y-82214759D01*
X93611680Y-81979727D01*
X93719853Y-81718574D01*
X93775000Y-81441335D01*
X93775000Y-81158665D01*
X93719853Y-80881426D01*
X93611680Y-80620273D01*
X93454637Y-80385241D01*
X93254759Y-80185363D01*
X93019727Y-80028320D01*
X92758574Y-79920147D01*
X92481335Y-79865000D01*
X92198665Y-79865000D01*
X91921426Y-79920147D01*
X91660273Y-80028320D01*
X91425241Y-80185363D01*
X91225363Y-80385241D01*
X91068320Y-80620273D01*
X90960147Y-80881426D01*
X90905000Y-81158665D01*
X88689724Y-81158665D01*
X88658787Y-80949870D01*
X88563603Y-80683708D01*
X88496671Y-80558486D01*
X88252702Y-80486903D01*
X87439605Y-81300000D01*
X87080395Y-81300000D01*
X87066253Y-81285858D01*
X87245858Y-81106253D01*
X87260000Y-81120395D01*
X88073097Y-80307298D01*
X88001514Y-80063329D01*
X87746004Y-79942429D01*
X87471816Y-79873700D01*
X87189488Y-79859783D01*
X86909870Y-79901213D01*
X86660000Y-79990571D01*
X86660000Y-68710000D01*
X87911928Y-68710000D01*
X87924188Y-68834482D01*
X87960498Y-68954180D01*
X88019463Y-69064494D01*
X88098815Y-69161185D01*
X88195506Y-69240537D01*
X88305820Y-69299502D01*
X88378380Y-69321513D01*
X88246525Y-69453368D01*
X88084010Y-69696589D01*
X87972068Y-69966842D01*
X87915000Y-70253740D01*
X87915000Y-70546260D01*
X87972068Y-70833158D01*
X88084010Y-71103411D01*
X88246525Y-71346632D01*
X88453368Y-71553475D01*
X88627760Y-71670000D01*
X88453368Y-71786525D01*
X88246525Y-71993368D01*
X88084010Y-72236589D01*
X87972068Y-72506842D01*
X87915000Y-72793740D01*
X87915000Y-73086260D01*
X87972068Y-73373158D01*
X88084010Y-73643411D01*
X88246525Y-73886632D01*
X88453368Y-74093475D01*
X88627760Y-74210000D01*
X88453368Y-74326525D01*
X88246525Y-74533368D01*
X88084010Y-74776589D01*
X87972068Y-75046842D01*
X87915000Y-75333740D01*
X87915000Y-75626260D01*
X87972068Y-75913158D01*
X88084010Y-76183411D01*
X88246525Y-76426632D01*
X88453368Y-76633475D01*
X88696589Y-76795990D01*
X88966842Y-76907932D01*
X89253740Y-76965000D01*
X89546260Y-76965000D01*
X89833158Y-76907932D01*
X90103411Y-76795990D01*
X90346632Y-76633475D01*
X90553475Y-76426632D01*
X90715990Y-76183411D01*
X90751342Y-76098061D01*
X100165000Y-76098061D01*
X100165000Y-76301939D01*
X100204774Y-76501898D01*
X100282795Y-76690256D01*
X100396063Y-76859774D01*
X100540226Y-77003937D01*
X100709744Y-77117205D01*
X100898102Y-77195226D01*
X101098061Y-77235000D01*
X101301939Y-77235000D01*
X101501898Y-77195226D01*
X101690256Y-77117205D01*
X101718907Y-77098061D01*
X116765000Y-77098061D01*
X116765000Y-77301939D01*
X116804774Y-77501898D01*
X116882795Y-77690256D01*
X116996063Y-77859774D01*
X117036289Y-77900000D01*
X116996063Y-77940226D01*
X116882795Y-78109744D01*
X116804774Y-78298102D01*
X116765000Y-78498061D01*
X116765000Y-78701939D01*
X116804774Y-78901898D01*
X116882795Y-79090256D01*
X116996063Y-79259774D01*
X117140226Y-79403937D01*
X117309744Y-79517205D01*
X117498102Y-79595226D01*
X117698061Y-79635000D01*
X117901939Y-79635000D01*
X118101898Y-79595226D01*
X118290256Y-79517205D01*
X118303512Y-79508347D01*
X133087952Y-79508347D01*
X134400000Y-80820395D01*
X135712048Y-79508347D01*
X135556038Y-79192786D01*
X135181255Y-79001980D01*
X134776449Y-78887956D01*
X134357176Y-78855098D01*
X133939549Y-78904666D01*
X133539617Y-79034757D01*
X133243962Y-79192786D01*
X133087952Y-79508347D01*
X118303512Y-79508347D01*
X118459774Y-79403937D01*
X118603937Y-79259774D01*
X118717205Y-79090256D01*
X118795226Y-78901898D01*
X118835000Y-78701939D01*
X118835000Y-78498061D01*
X118795226Y-78298102D01*
X118717205Y-78109744D01*
X118603937Y-77940226D01*
X118563711Y-77900000D01*
X118603937Y-77859774D01*
X118717205Y-77690256D01*
X118795226Y-77501898D01*
X118835000Y-77301939D01*
X118835000Y-77098061D01*
X118810898Y-76976890D01*
X128158524Y-76976890D01*
X128203175Y-77124099D01*
X128328359Y-77386920D01*
X128502412Y-77620269D01*
X128718645Y-77815178D01*
X128968748Y-77964157D01*
X129243109Y-78061481D01*
X129473000Y-77940814D01*
X129473000Y-76747000D01*
X129727000Y-76747000D01*
X129727000Y-77940814D01*
X129956891Y-78061481D01*
X130231252Y-77964157D01*
X130481355Y-77815178D01*
X130697588Y-77620269D01*
X130871641Y-77386920D01*
X130996825Y-77124099D01*
X131041476Y-76976890D01*
X130920155Y-76747000D01*
X129727000Y-76747000D01*
X129473000Y-76747000D01*
X128279845Y-76747000D01*
X128158524Y-76976890D01*
X118810898Y-76976890D01*
X118795226Y-76898102D01*
X118717205Y-76709744D01*
X118603937Y-76540226D01*
X118459774Y-76396063D01*
X118290256Y-76282795D01*
X118101898Y-76204774D01*
X117901939Y-76165000D01*
X117698061Y-76165000D01*
X117498102Y-76204774D01*
X117309744Y-76282795D01*
X117140226Y-76396063D01*
X116996063Y-76540226D01*
X116882795Y-76709744D01*
X116804774Y-76898102D01*
X116765000Y-77098061D01*
X101718907Y-77098061D01*
X101859774Y-77003937D01*
X102003937Y-76859774D01*
X102117205Y-76690256D01*
X102195226Y-76501898D01*
X102235000Y-76301939D01*
X102235000Y-76098061D01*
X102195226Y-75898102D01*
X102117205Y-75709744D01*
X102003937Y-75540226D01*
X101859774Y-75396063D01*
X101690256Y-75282795D01*
X101501898Y-75204774D01*
X101301939Y-75165000D01*
X101098061Y-75165000D01*
X100898102Y-75204774D01*
X100709744Y-75282795D01*
X100540226Y-75396063D01*
X100396063Y-75540226D01*
X100282795Y-75709744D01*
X100204774Y-75898102D01*
X100165000Y-76098061D01*
X90751342Y-76098061D01*
X90827932Y-75913158D01*
X90885000Y-75626260D01*
X90885000Y-75333740D01*
X90827932Y-75046842D01*
X90715990Y-74776589D01*
X90553475Y-74533368D01*
X90346632Y-74326525D01*
X90172240Y-74210000D01*
X90346632Y-74093475D01*
X90553475Y-73886632D01*
X90715990Y-73643411D01*
X90827932Y-73373158D01*
X90885000Y-73086260D01*
X90885000Y-72793740D01*
X90827932Y-72506842D01*
X90715990Y-72236589D01*
X90553475Y-71993368D01*
X90346632Y-71786525D01*
X90172240Y-71670000D01*
X90346632Y-71553475D01*
X90553475Y-71346632D01*
X90715990Y-71103411D01*
X90827932Y-70833158D01*
X90885000Y-70546260D01*
X90885000Y-70253740D01*
X90827932Y-69966842D01*
X90715990Y-69696589D01*
X90553475Y-69453368D01*
X90421620Y-69321513D01*
X90494180Y-69299502D01*
X90604494Y-69240537D01*
X90701185Y-69161185D01*
X90780537Y-69064494D01*
X90839502Y-68954180D01*
X90875812Y-68834482D01*
X90888072Y-68710000D01*
X90885000Y-68145750D01*
X90726250Y-67987000D01*
X89527000Y-67987000D01*
X89527000Y-68007000D01*
X89273000Y-68007000D01*
X89273000Y-67987000D01*
X88073750Y-67987000D01*
X87915000Y-68145750D01*
X87911928Y-68710000D01*
X86660000Y-68710000D01*
X86660000Y-67010000D01*
X87911928Y-67010000D01*
X87915000Y-67574250D01*
X88073750Y-67733000D01*
X89273000Y-67733000D01*
X89273000Y-66533750D01*
X89527000Y-66533750D01*
X89527000Y-67733000D01*
X90726250Y-67733000D01*
X90885000Y-67574250D01*
X90888072Y-67010000D01*
X90875812Y-66885518D01*
X90839502Y-66765820D01*
X90780537Y-66655506D01*
X90701185Y-66558815D01*
X90604494Y-66479463D01*
X90494180Y-66420498D01*
X90374482Y-66384188D01*
X90250000Y-66371928D01*
X89685750Y-66375000D01*
X89527000Y-66533750D01*
X89273000Y-66533750D01*
X89114250Y-66375000D01*
X88550000Y-66371928D01*
X88425518Y-66384188D01*
X88305820Y-66420498D01*
X88195506Y-66479463D01*
X88098815Y-66558815D01*
X88019463Y-66655506D01*
X87960498Y-66765820D01*
X87924188Y-66885518D01*
X87911928Y-67010000D01*
X86660000Y-67010000D01*
X86660000Y-66260000D01*
X96873000Y-66260000D01*
X96873000Y-72600000D01*
%TA.AperFunction,Conductor*%
D21*
G36*
X96873000Y-72600000D02*
G01*
X96875440Y-72624776D01*
X96882667Y-72648601D01*
X96894403Y-72670557D01*
X96910197Y-72689803D01*
X96929443Y-72705597D01*
X96951399Y-72717333D01*
X96975224Y-72724560D01*
X97000000Y-72727000D01*
X126800000Y-72727000D01*
X126824776Y-72724560D01*
X126848601Y-72717333D01*
X126870557Y-72705597D01*
X126889803Y-72689803D01*
X126905597Y-72670557D01*
X126917333Y-72648601D01*
X126924560Y-72624776D01*
X126927000Y-72600000D01*
X126927000Y-68150000D01*
X128111928Y-68150000D01*
X128111928Y-69850000D01*
X128124188Y-69974482D01*
X128160498Y-70094180D01*
X128219463Y-70204494D01*
X128298815Y-70301185D01*
X128395506Y-70380537D01*
X128505820Y-70439502D01*
X128578380Y-70461513D01*
X128446525Y-70593368D01*
X128284010Y-70836589D01*
X128172068Y-71106842D01*
X128115000Y-71393740D01*
X128115000Y-71686260D01*
X128172068Y-71973158D01*
X128284010Y-72243411D01*
X128446525Y-72486632D01*
X128653368Y-72693475D01*
X128827760Y-72810000D01*
X128653368Y-72926525D01*
X128446525Y-73133368D01*
X128284010Y-73376589D01*
X128172068Y-73646842D01*
X128115000Y-73933740D01*
X128115000Y-74226260D01*
X128172068Y-74513158D01*
X128284010Y-74783411D01*
X128446525Y-75026632D01*
X128653368Y-75233475D01*
X128835534Y-75355195D01*
X128718645Y-75424822D01*
X128502412Y-75619731D01*
X128328359Y-75853080D01*
X128203175Y-76115901D01*
X128158524Y-76263110D01*
X128279845Y-76493000D01*
X129473000Y-76493000D01*
X129473000Y-76473000D01*
X129727000Y-76473000D01*
X129727000Y-76493000D01*
X130920155Y-76493000D01*
X131041476Y-76263110D01*
X130996825Y-76115901D01*
X130871641Y-75853080D01*
X130697588Y-75619731D01*
X130481355Y-75424822D01*
X130364466Y-75355195D01*
X130546632Y-75233475D01*
X130753475Y-75026632D01*
X130911773Y-74789721D01*
X132865000Y-74789721D01*
X132865000Y-75210279D01*
X132947047Y-75622756D01*
X133107988Y-76011302D01*
X133341637Y-76360983D01*
X133639017Y-76658363D01*
X133988698Y-76892012D01*
X134377244Y-77052953D01*
X134789721Y-77135000D01*
X135210279Y-77135000D01*
X135622756Y-77052953D01*
X136011302Y-76892012D01*
X136360983Y-76658363D01*
X136658363Y-76360983D01*
X136892012Y-76011302D01*
X137052953Y-75622756D01*
X137135000Y-75210279D01*
X137135000Y-74789721D01*
X137052953Y-74377244D01*
X136892012Y-73988698D01*
X136658363Y-73639017D01*
X136360983Y-73341637D01*
X136011302Y-73107988D01*
X135622756Y-72947047D01*
X135210279Y-72865000D01*
X134789721Y-72865000D01*
X134377244Y-72947047D01*
X133988698Y-73107988D01*
X133639017Y-73341637D01*
X133341637Y-73639017D01*
X133107988Y-73988698D01*
X132947047Y-74377244D01*
X132865000Y-74789721D01*
X130911773Y-74789721D01*
X130915990Y-74783411D01*
X131027932Y-74513158D01*
X131085000Y-74226260D01*
X131085000Y-73933740D01*
X131027932Y-73646842D01*
X130915990Y-73376589D01*
X130753475Y-73133368D01*
X130546632Y-72926525D01*
X130372240Y-72810000D01*
X130546632Y-72693475D01*
X130753475Y-72486632D01*
X130915990Y-72243411D01*
X131027932Y-71973158D01*
X131085000Y-71686260D01*
X131085000Y-71393740D01*
X131027932Y-71106842D01*
X130915990Y-70836589D01*
X130753475Y-70593368D01*
X130621620Y-70461513D01*
X130694180Y-70439502D01*
X130804494Y-70380537D01*
X130901185Y-70301185D01*
X130980537Y-70204494D01*
X131039502Y-70094180D01*
X131075812Y-69974482D01*
X131088072Y-69850000D01*
X131088072Y-68150000D01*
X131075812Y-68025518D01*
X131039502Y-67905820D01*
X130980537Y-67795506D01*
X130901185Y-67698815D01*
X130804494Y-67619463D01*
X130694180Y-67560498D01*
X130574482Y-67524188D01*
X130450000Y-67511928D01*
X128750000Y-67511928D01*
X128625518Y-67524188D01*
X128505820Y-67560498D01*
X128395506Y-67619463D01*
X128298815Y-67698815D01*
X128219463Y-67795506D01*
X128160498Y-67905820D01*
X128124188Y-68025518D01*
X128111928Y-68150000D01*
X126927000Y-68150000D01*
X126927000Y-66260000D01*
X137140000Y-66260000D01*
X137140001Y-95623981D01*
X136952944Y-95546499D01*
X136719175Y-95500000D01*
X136480825Y-95500000D01*
X136381591Y-95519739D01*
X136333477Y-95515000D01*
X136333469Y-95515000D01*
X136290000Y-95510719D01*
X136246531Y-95515000D01*
X112938454Y-95515000D01*
X112890256Y-95482795D01*
X112701898Y-95404774D01*
X112645044Y-95393465D01*
X108749640Y-91498061D01*
X119365000Y-91498061D01*
X119365000Y-91701939D01*
X119404774Y-91901898D01*
X119482795Y-92090256D01*
X119596063Y-92259774D01*
X119740226Y-92403937D01*
X119909744Y-92517205D01*
X120098102Y-92595226D01*
X120298061Y-92635000D01*
X120501939Y-92635000D01*
X120701898Y-92595226D01*
X120890256Y-92517205D01*
X121059774Y-92403937D01*
X121203937Y-92259774D01*
X121317205Y-92090256D01*
X121395226Y-91901898D01*
X121395989Y-91898061D01*
X131765000Y-91898061D01*
X131765000Y-92101939D01*
X131804774Y-92301898D01*
X131882795Y-92490256D01*
X131996063Y-92659774D01*
X132140226Y-92803937D01*
X132309744Y-92917205D01*
X132498102Y-92995226D01*
X132698061Y-93035000D01*
X132901939Y-93035000D01*
X133101898Y-92995226D01*
X133290256Y-92917205D01*
X133459774Y-92803937D01*
X133603937Y-92659774D01*
X133717205Y-92490256D01*
X133795226Y-92301898D01*
X133835000Y-92101939D01*
X133835000Y-91898061D01*
X133795226Y-91698102D01*
X133717205Y-91509744D01*
X133603937Y-91340226D01*
X133459774Y-91196063D01*
X133290256Y-91082795D01*
X133101898Y-91004774D01*
X132901939Y-90965000D01*
X132698061Y-90965000D01*
X132498102Y-91004774D01*
X132309744Y-91082795D01*
X132140226Y-91196063D01*
X131996063Y-91340226D01*
X131882795Y-91509744D01*
X131804774Y-91698102D01*
X131765000Y-91898061D01*
X121395989Y-91898061D01*
X121435000Y-91701939D01*
X121435000Y-91498061D01*
X121395226Y-91298102D01*
X121317205Y-91109744D01*
X121203937Y-90940226D01*
X121059774Y-90796063D01*
X120890256Y-90682795D01*
X120701898Y-90604774D01*
X120501939Y-90565000D01*
X120298061Y-90565000D01*
X120098102Y-90604774D01*
X119909744Y-90682795D01*
X119740226Y-90796063D01*
X119596063Y-90940226D01*
X119482795Y-91109744D01*
X119404774Y-91298102D01*
X119365000Y-91498061D01*
X108749640Y-91498061D01*
X105749640Y-88498061D01*
X112765000Y-88498061D01*
X112765000Y-88701939D01*
X112804774Y-88901898D01*
X112882795Y-89090256D01*
X112996063Y-89259774D01*
X113140226Y-89403937D01*
X113309744Y-89517205D01*
X113498102Y-89595226D01*
X113698061Y-89635000D01*
X113901939Y-89635000D01*
X114101898Y-89595226D01*
X114290256Y-89517205D01*
X114400000Y-89443877D01*
X114509744Y-89517205D01*
X114698102Y-89595226D01*
X114898061Y-89635000D01*
X115101939Y-89635000D01*
X115301898Y-89595226D01*
X115490256Y-89517205D01*
X115518907Y-89498061D01*
X128965000Y-89498061D01*
X128965000Y-89701939D01*
X129004774Y-89901898D01*
X129082795Y-90090256D01*
X129196063Y-90259774D01*
X129340226Y-90403937D01*
X129509744Y-90517205D01*
X129698102Y-90595226D01*
X129898061Y-90635000D01*
X130101939Y-90635000D01*
X130301898Y-90595226D01*
X130490256Y-90517205D01*
X130659774Y-90403937D01*
X130803937Y-90259774D01*
X130917205Y-90090256D01*
X130995226Y-89901898D01*
X131035000Y-89701939D01*
X131035000Y-89498061D01*
X130995226Y-89298102D01*
X130917205Y-89109744D01*
X130803937Y-88940226D01*
X130659774Y-88796063D01*
X130490256Y-88682795D01*
X130301898Y-88604774D01*
X130101939Y-88565000D01*
X129898061Y-88565000D01*
X129698102Y-88604774D01*
X129509744Y-88682795D01*
X129340226Y-88796063D01*
X129196063Y-88940226D01*
X129082795Y-89109744D01*
X129004774Y-89298102D01*
X128965000Y-89498061D01*
X115518907Y-89498061D01*
X115659774Y-89403937D01*
X115803937Y-89259774D01*
X115917205Y-89090256D01*
X115995226Y-88901898D01*
X116035000Y-88701939D01*
X116035000Y-88498061D01*
X115995226Y-88298102D01*
X115917205Y-88109744D01*
X115803937Y-87940226D01*
X115659774Y-87796063D01*
X115490256Y-87682795D01*
X115301898Y-87604774D01*
X115101939Y-87565000D01*
X114898061Y-87565000D01*
X114698102Y-87604774D01*
X114509744Y-87682795D01*
X114400000Y-87756123D01*
X114290256Y-87682795D01*
X114101898Y-87604774D01*
X113901939Y-87565000D01*
X113698061Y-87565000D01*
X113498102Y-87604774D01*
X113309744Y-87682795D01*
X113140226Y-87796063D01*
X112996063Y-87940226D01*
X112882795Y-88109744D01*
X112804774Y-88298102D01*
X112765000Y-88498061D01*
X105749640Y-88498061D01*
X103856534Y-86604956D01*
X103828817Y-86571183D01*
X103694059Y-86460589D01*
X103540313Y-86378411D01*
X103373490Y-86327805D01*
X103243477Y-86315000D01*
X103243469Y-86315000D01*
X103200000Y-86310719D01*
X103156531Y-86315000D01*
X100885000Y-86315000D01*
X100885000Y-84800000D01*
X130561928Y-84800000D01*
X130561928Y-86000000D01*
X130574188Y-86124482D01*
X130610498Y-86244180D01*
X130669463Y-86354494D01*
X130748815Y-86451185D01*
X130845506Y-86530537D01*
X130955820Y-86589502D01*
X131075518Y-86625812D01*
X131200000Y-86638072D01*
X132400000Y-86638072D01*
X132524482Y-86625812D01*
X132644180Y-86589502D01*
X132754494Y-86530537D01*
X132851185Y-86451185D01*
X132930537Y-86354494D01*
X132989502Y-86244180D01*
X133025812Y-86124482D01*
X133038072Y-86000000D01*
X133038072Y-84800000D01*
X133025812Y-84675518D01*
X132989502Y-84555820D01*
X132930537Y-84445506D01*
X132851185Y-84348815D01*
X132754494Y-84269463D01*
X132644180Y-84210498D01*
X132524482Y-84174188D01*
X132400000Y-84161928D01*
X131200000Y-84161928D01*
X131075518Y-84174188D01*
X130955820Y-84210498D01*
X130845506Y-84269463D01*
X130748815Y-84348815D01*
X130669463Y-84445506D01*
X130610498Y-84555820D01*
X130574188Y-84675518D01*
X130561928Y-84800000D01*
X100885000Y-84800000D01*
X100885000Y-82643465D01*
X100889281Y-82599999D01*
X100885000Y-82556533D01*
X100885000Y-82556523D01*
X100872195Y-82426510D01*
X100833230Y-82298061D01*
X117165000Y-82298061D01*
X117165000Y-82501939D01*
X117204774Y-82701898D01*
X117282795Y-82890256D01*
X117356123Y-83000000D01*
X117282795Y-83109744D01*
X117204774Y-83298102D01*
X117165000Y-83498061D01*
X117165000Y-83701939D01*
X117204774Y-83901898D01*
X117282795Y-84090256D01*
X117396063Y-84259774D01*
X117540226Y-84403937D01*
X117709744Y-84517205D01*
X117898102Y-84595226D01*
X118098061Y-84635000D01*
X118301939Y-84635000D01*
X118501898Y-84595226D01*
X118690256Y-84517205D01*
X118859774Y-84403937D01*
X119003937Y-84259774D01*
X119117205Y-84090256D01*
X119195226Y-83901898D01*
X119235000Y-83701939D01*
X119235000Y-83498061D01*
X119195226Y-83298102D01*
X119117205Y-83109744D01*
X119043877Y-83000000D01*
X119117205Y-82890256D01*
X119195226Y-82701898D01*
X119235000Y-82501939D01*
X119235000Y-82298061D01*
X119230103Y-82273439D01*
X130515000Y-82273439D01*
X130515000Y-82526561D01*
X130564381Y-82774821D01*
X130661247Y-83008676D01*
X130801875Y-83219140D01*
X130980860Y-83398125D01*
X131191324Y-83538753D01*
X131425179Y-83635619D01*
X131673439Y-83685000D01*
X131926561Y-83685000D01*
X132174821Y-83635619D01*
X132408676Y-83538753D01*
X132619140Y-83398125D01*
X132798125Y-83219140D01*
X132938753Y-83008676D01*
X133035619Y-82774821D01*
X133085000Y-82526561D01*
X133085000Y-82494608D01*
X133087953Y-82491655D01*
X133243962Y-82807214D01*
X133618745Y-82998020D01*
X134023551Y-83112044D01*
X134442824Y-83144902D01*
X134860451Y-83095334D01*
X135260383Y-82965243D01*
X135556038Y-82807214D01*
X135712048Y-82491653D01*
X134400000Y-81179605D01*
X134385858Y-81193748D01*
X134206253Y-81014143D01*
X134220395Y-81000000D01*
X134579605Y-81000000D01*
X135891653Y-82312048D01*
X136207214Y-82156038D01*
X136398020Y-81781255D01*
X136512044Y-81376449D01*
X136544902Y-80957176D01*
X136495334Y-80539549D01*
X136365243Y-80139617D01*
X136207214Y-79843962D01*
X135891653Y-79687952D01*
X134579605Y-81000000D01*
X134220395Y-81000000D01*
X132908347Y-79687952D01*
X132592786Y-79843962D01*
X132401980Y-80218745D01*
X132287956Y-80623551D01*
X132255098Y-81042824D01*
X132274422Y-81205637D01*
X132174821Y-81164381D01*
X131926561Y-81115000D01*
X131673439Y-81115000D01*
X131425179Y-81164381D01*
X131191324Y-81261247D01*
X130980860Y-81401875D01*
X130801875Y-81580860D01*
X130661247Y-81791324D01*
X130564381Y-82025179D01*
X130515000Y-82273439D01*
X119230103Y-82273439D01*
X119195226Y-82098102D01*
X119117205Y-81909744D01*
X119003937Y-81740226D01*
X118859774Y-81596063D01*
X118690256Y-81482795D01*
X118501898Y-81404774D01*
X118301939Y-81365000D01*
X118098061Y-81365000D01*
X117898102Y-81404774D01*
X117709744Y-81482795D01*
X117540226Y-81596063D01*
X117396063Y-81740226D01*
X117282795Y-81909744D01*
X117204774Y-82098102D01*
X117165000Y-82298061D01*
X100833230Y-82298061D01*
X100821589Y-82259687D01*
X100739411Y-82105941D01*
X100628817Y-81971183D01*
X100595049Y-81943470D01*
X97606535Y-78954957D01*
X97595226Y-78898102D01*
X97517205Y-78709744D01*
X97403937Y-78540226D01*
X97259774Y-78396063D01*
X97090256Y-78282795D01*
X96901898Y-78204774D01*
X96701939Y-78165000D01*
X96498061Y-78165000D01*
X96298102Y-78204774D01*
X96109744Y-78282795D01*
X95940226Y-78396063D01*
X95796063Y-78540226D01*
X95682795Y-78709744D01*
X95604774Y-78898102D01*
X95565000Y-79098061D01*
X95565000Y-79301939D01*
X95604774Y-79501898D01*
X95682795Y-79690256D01*
X95796063Y-79859774D01*
X95940226Y-80003937D01*
X96109744Y-80117205D01*
X96298102Y-80195226D01*
X96354957Y-80206535D01*
X99115001Y-82966580D01*
X99115000Y-86661545D01*
X99082795Y-86709744D01*
X99004774Y-86898102D01*
X98965000Y-87098061D01*
X98965000Y-87301939D01*
X99004774Y-87501898D01*
X99082795Y-87690256D01*
X99196063Y-87859774D01*
X99340226Y-88003937D01*
X99509744Y-88117205D01*
X99698102Y-88195226D01*
X99898061Y-88235000D01*
X100101939Y-88235000D01*
X100301898Y-88195226D01*
X100490256Y-88117205D01*
X100538454Y-88085000D01*
X102833422Y-88085000D01*
X111393465Y-96645044D01*
X111404774Y-96701898D01*
X111482795Y-96890256D01*
X111596063Y-97059774D01*
X111740226Y-97203937D01*
X111909744Y-97317205D01*
X112098102Y-97395226D01*
X112298061Y-97435000D01*
X112501939Y-97435000D01*
X112701898Y-97395226D01*
X112890256Y-97317205D01*
X112938454Y-97285000D01*
X118851289Y-97285000D01*
X118796063Y-97340226D01*
X118682795Y-97509744D01*
X118604774Y-97698102D01*
X118565000Y-97898061D01*
X118565000Y-98101939D01*
X118604774Y-98301898D01*
X118682795Y-98490256D01*
X118796063Y-98659774D01*
X118940226Y-98803937D01*
X119109744Y-98917205D01*
X119298102Y-98995226D01*
X119498061Y-99035000D01*
X119701939Y-99035000D01*
X119901898Y-98995226D01*
X120090256Y-98917205D01*
X120259774Y-98803937D01*
X120403937Y-98659774D01*
X120517205Y-98490256D01*
X120595226Y-98301898D01*
X120635000Y-98101939D01*
X120635000Y-97898061D01*
X120595226Y-97698102D01*
X120517205Y-97509744D01*
X120403937Y-97340226D01*
X120348711Y-97285000D01*
X135528948Y-97285000D01*
X135660131Y-97481330D01*
X135828670Y-97649869D01*
X136026850Y-97782288D01*
X136247056Y-97873501D01*
X136480825Y-97920000D01*
X136719175Y-97920000D01*
X136952944Y-97873501D01*
X137140001Y-97796019D01*
X137140001Y-98166264D01*
X136990911Y-98098699D01*
X136758792Y-98044558D01*
X136520571Y-98036742D01*
X136285402Y-98075550D01*
X136062323Y-98159491D01*
X135991993Y-98197084D01*
X135947731Y-98418126D01*
X136600000Y-99070395D01*
X136614143Y-99056253D01*
X136793748Y-99235858D01*
X136779605Y-99250000D01*
X136793748Y-99264143D01*
X136614143Y-99443748D01*
X136600000Y-99429605D01*
X135947731Y-100081874D01*
X135991993Y-100302916D01*
X136209089Y-100401301D01*
X136441208Y-100455442D01*
X136679429Y-100463258D01*
X136914598Y-100424450D01*
X137137677Y-100340509D01*
X137140001Y-100339267D01*
X137140001Y-100703981D01*
X136952944Y-100626499D01*
X136719175Y-100580000D01*
X136480825Y-100580000D01*
X136247056Y-100626499D01*
X136026850Y-100717712D01*
X135828670Y-100850131D01*
X135660131Y-101018670D01*
X135527712Y-101216850D01*
X135436499Y-101437056D01*
X135390000Y-101670825D01*
X135390000Y-101909175D01*
X135436499Y-102142944D01*
X135527712Y-102363150D01*
X135660131Y-102561330D01*
X135828670Y-102729869D01*
X136026850Y-102862288D01*
X136247056Y-102953501D01*
X136480825Y-103000000D01*
X136719175Y-103000000D01*
X136952944Y-102953501D01*
X137140001Y-102876019D01*
X137140001Y-103243981D01*
X136952944Y-103166499D01*
X136719175Y-103120000D01*
X136480825Y-103120000D01*
X136247056Y-103166499D01*
X136026850Y-103257712D01*
X135828670Y-103390131D01*
X135660131Y-103558670D01*
X135527712Y-103756850D01*
X135436499Y-103977056D01*
X135390000Y-104210825D01*
X135390000Y-104449175D01*
X135436499Y-104682944D01*
X135527712Y-104903150D01*
X135660131Y-105101330D01*
X135828670Y-105269869D01*
X136026850Y-105402288D01*
X136247056Y-105493501D01*
X136480825Y-105540000D01*
X136719175Y-105540000D01*
X136952944Y-105493501D01*
X137140001Y-105416019D01*
X137140001Y-105783981D01*
X136952944Y-105706499D01*
X136719175Y-105660000D01*
X136480825Y-105660000D01*
X136247056Y-105706499D01*
X136026850Y-105797712D01*
X135828670Y-105930131D01*
X135660131Y-106098670D01*
X135527712Y-106296850D01*
X135436499Y-106517056D01*
X135390000Y-106750825D01*
X135390000Y-106989175D01*
X135436499Y-107222944D01*
X135527712Y-107443150D01*
X135660131Y-107641330D01*
X135828670Y-107809869D01*
X136026850Y-107942288D01*
X136247056Y-108033501D01*
X136480825Y-108080000D01*
X136719175Y-108080000D01*
X136952944Y-108033501D01*
X137140001Y-107956019D01*
X137140001Y-108323981D01*
X136952944Y-108246499D01*
X136719175Y-108200000D01*
X136480825Y-108200000D01*
X136247056Y-108246499D01*
X136026850Y-108337712D01*
X135828670Y-108470131D01*
X135660131Y-108638670D01*
X135527712Y-108836850D01*
X135436499Y-109057056D01*
X135390000Y-109290825D01*
X135390000Y-109529175D01*
X135436499Y-109762944D01*
X135527712Y-109983150D01*
X135660131Y-110181330D01*
X135828670Y-110349869D01*
X136026850Y-110482288D01*
X136247056Y-110573501D01*
X136480825Y-110620000D01*
X136719175Y-110620000D01*
X136952944Y-110573501D01*
X137140001Y-110496019D01*
X137140001Y-110863981D01*
X136952944Y-110786499D01*
X136719175Y-110740000D01*
X136480825Y-110740000D01*
X136247056Y-110786499D01*
X136026850Y-110877712D01*
X135828670Y-111010131D01*
X135660131Y-111178670D01*
X135527712Y-111376850D01*
X135436499Y-111597056D01*
X135390000Y-111830825D01*
X135390000Y-112069175D01*
X135436499Y-112302944D01*
X135527712Y-112523150D01*
X135660131Y-112721330D01*
X135828670Y-112889869D01*
X136026850Y-113022288D01*
X136247056Y-113113501D01*
X136480825Y-113160000D01*
X136719175Y-113160000D01*
X136952944Y-113113501D01*
X137140001Y-113036019D01*
X137140001Y-113403981D01*
X136952944Y-113326499D01*
X136719175Y-113280000D01*
X136480825Y-113280000D01*
X136247056Y-113326499D01*
X136026850Y-113417712D01*
X135828670Y-113550131D01*
X135660131Y-113718670D01*
X135527712Y-113916850D01*
X135436499Y-114137056D01*
X135390000Y-114370825D01*
X135390000Y-114609175D01*
X135436499Y-114842944D01*
X135527712Y-115063150D01*
X135660131Y-115261330D01*
X135828670Y-115429869D01*
X135993493Y-115540000D01*
X86660000Y-115540000D01*
X86660000Y-112589721D01*
X124665000Y-112589721D01*
X124665000Y-113010279D01*
X124747047Y-113422756D01*
X124907988Y-113811302D01*
X125141637Y-114160983D01*
X125439017Y-114458363D01*
X125788698Y-114692012D01*
X126177244Y-114852953D01*
X126589721Y-114935000D01*
X127010279Y-114935000D01*
X127422756Y-114852953D01*
X127811302Y-114692012D01*
X128160983Y-114458363D01*
X128458363Y-114160983D01*
X128692012Y-113811302D01*
X128852953Y-113422756D01*
X128935000Y-113010279D01*
X128935000Y-112589721D01*
X130065000Y-112589721D01*
X130065000Y-113010279D01*
X130147047Y-113422756D01*
X130307988Y-113811302D01*
X130541637Y-114160983D01*
X130839017Y-114458363D01*
X131188698Y-114692012D01*
X131577244Y-114852953D01*
X131989721Y-114935000D01*
X132410279Y-114935000D01*
X132822756Y-114852953D01*
X133211302Y-114692012D01*
X133560983Y-114458363D01*
X133858363Y-114160983D01*
X134092012Y-113811302D01*
X134252953Y-113422756D01*
X134335000Y-113010279D01*
X134335000Y-112589721D01*
X134252953Y-112177244D01*
X134092012Y-111788698D01*
X133858363Y-111439017D01*
X133560983Y-111141637D01*
X133211302Y-110907988D01*
X132822756Y-110747047D01*
X132410279Y-110665000D01*
X131989721Y-110665000D01*
X131577244Y-110747047D01*
X131188698Y-110907988D01*
X130839017Y-111141637D01*
X130541637Y-111439017D01*
X130307988Y-111788698D01*
X130147047Y-112177244D01*
X130065000Y-112589721D01*
X128935000Y-112589721D01*
X128852953Y-112177244D01*
X128692012Y-111788698D01*
X128458363Y-111439017D01*
X128160983Y-111141637D01*
X127811302Y-110907988D01*
X127422756Y-110747047D01*
X127010279Y-110665000D01*
X126589721Y-110665000D01*
X126177244Y-110747047D01*
X125788698Y-110907988D01*
X125439017Y-111141637D01*
X125141637Y-111439017D01*
X124907988Y-111788698D01*
X124747047Y-112177244D01*
X124665000Y-112589721D01*
X86660000Y-112589721D01*
X86660000Y-110483967D01*
X86709744Y-110517205D01*
X86898102Y-110595226D01*
X87098061Y-110635000D01*
X87301939Y-110635000D01*
X87501898Y-110595226D01*
X87690256Y-110517205D01*
X87859774Y-110403937D01*
X88003937Y-110259774D01*
X88117205Y-110090256D01*
X88195226Y-109901898D01*
X88235000Y-109701939D01*
X88235000Y-109498061D01*
X88195226Y-109298102D01*
X88117205Y-109109744D01*
X88003937Y-108940226D01*
X87859774Y-108796063D01*
X87690256Y-108682795D01*
X87501898Y-108604774D01*
X87301939Y-108565000D01*
X87098061Y-108565000D01*
X86898102Y-108604774D01*
X86709744Y-108682795D01*
X86660000Y-108716033D01*
X86660000Y-107298061D01*
X88365000Y-107298061D01*
X88365000Y-107501939D01*
X88404774Y-107701898D01*
X88482795Y-107890256D01*
X88596063Y-108059774D01*
X88740226Y-108203937D01*
X88909744Y-108317205D01*
X89098102Y-108395226D01*
X89298061Y-108435000D01*
X89501939Y-108435000D01*
X89701898Y-108395226D01*
X89890256Y-108317205D01*
X89918907Y-108298061D01*
X96365000Y-108298061D01*
X96365000Y-108501939D01*
X96404774Y-108701898D01*
X96482795Y-108890256D01*
X96596063Y-109059774D01*
X96740226Y-109203937D01*
X96909744Y-109317205D01*
X97098102Y-109395226D01*
X97298061Y-109435000D01*
X97501939Y-109435000D01*
X97701898Y-109395226D01*
X97890256Y-109317205D01*
X98059774Y-109203937D01*
X98203937Y-109059774D01*
X98317205Y-108890256D01*
X98395226Y-108701898D01*
X98435000Y-108501939D01*
X98435000Y-108298061D01*
X115765000Y-108298061D01*
X115765000Y-108501939D01*
X115804774Y-108701898D01*
X115882795Y-108890256D01*
X115996063Y-109059774D01*
X116140226Y-109203937D01*
X116309744Y-109317205D01*
X116498102Y-109395226D01*
X116698061Y-109435000D01*
X116901939Y-109435000D01*
X117101898Y-109395226D01*
X117290256Y-109317205D01*
X117459774Y-109203937D01*
X117603937Y-109059774D01*
X117717205Y-108890256D01*
X117795226Y-108701898D01*
X117835000Y-108501939D01*
X117835000Y-108298061D01*
X117795226Y-108098102D01*
X117717205Y-107909744D01*
X117603937Y-107740226D01*
X117459774Y-107596063D01*
X117290256Y-107482795D01*
X117101898Y-107404774D01*
X116901939Y-107365000D01*
X116698061Y-107365000D01*
X116498102Y-107404774D01*
X116309744Y-107482795D01*
X116140226Y-107596063D01*
X115996063Y-107740226D01*
X115882795Y-107909744D01*
X115804774Y-108098102D01*
X115765000Y-108298061D01*
X98435000Y-108298061D01*
X98395226Y-108098102D01*
X98317205Y-107909744D01*
X98203937Y-107740226D01*
X98059774Y-107596063D01*
X97890256Y-107482795D01*
X97701898Y-107404774D01*
X97501939Y-107365000D01*
X97298061Y-107365000D01*
X97098102Y-107404774D01*
X96909744Y-107482795D01*
X96740226Y-107596063D01*
X96596063Y-107740226D01*
X96482795Y-107909744D01*
X96404774Y-108098102D01*
X96365000Y-108298061D01*
X89918907Y-108298061D01*
X90059774Y-108203937D01*
X90203937Y-108059774D01*
X90317205Y-107890256D01*
X90395226Y-107701898D01*
X90435000Y-107501939D01*
X90435000Y-107298061D01*
X90395226Y-107098102D01*
X90317205Y-106909744D01*
X90203937Y-106740226D01*
X90059774Y-106596063D01*
X89890256Y-106482795D01*
X89701898Y-106404774D01*
X89501939Y-106365000D01*
X89298061Y-106365000D01*
X89098102Y-106404774D01*
X88909744Y-106482795D01*
X88740226Y-106596063D01*
X88596063Y-106740226D01*
X88482795Y-106909744D01*
X88404774Y-107098102D01*
X88365000Y-107298061D01*
X86660000Y-107298061D01*
X86660000Y-107103631D01*
X86773996Y-107157571D01*
X87048184Y-107226300D01*
X87330512Y-107240217D01*
X87610130Y-107198787D01*
X87876292Y-107103603D01*
X88001514Y-107036671D01*
X88073097Y-106792702D01*
X87260000Y-105979605D01*
X87245858Y-105993748D01*
X87066253Y-105814143D01*
X87080395Y-105800000D01*
X87439605Y-105800000D01*
X88252702Y-106613097D01*
X88496671Y-106541514D01*
X88617571Y-106286004D01*
X88686300Y-106011816D01*
X88700217Y-105729488D01*
X88689724Y-105658665D01*
X90905000Y-105658665D01*
X90905000Y-105941335D01*
X90960147Y-106218574D01*
X91068320Y-106479727D01*
X91225363Y-106714759D01*
X91425241Y-106914637D01*
X91660273Y-107071680D01*
X91921426Y-107179853D01*
X92198665Y-107235000D01*
X92481335Y-107235000D01*
X92758574Y-107179853D01*
X93019727Y-107071680D01*
X93142387Y-106989721D01*
X125865000Y-106989721D01*
X125865000Y-107410279D01*
X125947047Y-107822756D01*
X126107988Y-108211302D01*
X126341637Y-108560983D01*
X126639017Y-108858363D01*
X126988698Y-109092012D01*
X127377244Y-109252953D01*
X127789721Y-109335000D01*
X128210279Y-109335000D01*
X128622756Y-109252953D01*
X129011302Y-109092012D01*
X129360983Y-108858363D01*
X129658363Y-108560983D01*
X129892012Y-108211302D01*
X130052953Y-107822756D01*
X130135000Y-107410279D01*
X130135000Y-106989721D01*
X130265000Y-106989721D01*
X130265000Y-107410279D01*
X130347047Y-107822756D01*
X130507988Y-108211302D01*
X130741637Y-108560983D01*
X131039017Y-108858363D01*
X131388698Y-109092012D01*
X131777244Y-109252953D01*
X132189721Y-109335000D01*
X132610279Y-109335000D01*
X133022756Y-109252953D01*
X133411302Y-109092012D01*
X133760983Y-108858363D01*
X134058363Y-108560983D01*
X134292012Y-108211302D01*
X134452953Y-107822756D01*
X134535000Y-107410279D01*
X134535000Y-106989721D01*
X134452953Y-106577244D01*
X134292012Y-106188698D01*
X134058363Y-105839017D01*
X133760983Y-105541637D01*
X133411302Y-105307988D01*
X133022756Y-105147047D01*
X132610279Y-105065000D01*
X132189721Y-105065000D01*
X131777244Y-105147047D01*
X131388698Y-105307988D01*
X131039017Y-105541637D01*
X130741637Y-105839017D01*
X130507988Y-106188698D01*
X130347047Y-106577244D01*
X130265000Y-106989721D01*
X130135000Y-106989721D01*
X130052953Y-106577244D01*
X129892012Y-106188698D01*
X129658363Y-105839017D01*
X129360983Y-105541637D01*
X129011302Y-105307988D01*
X128622756Y-105147047D01*
X128210279Y-105065000D01*
X127789721Y-105065000D01*
X127377244Y-105147047D01*
X126988698Y-105307988D01*
X126639017Y-105541637D01*
X126341637Y-105839017D01*
X126107988Y-106188698D01*
X125947047Y-106577244D01*
X125865000Y-106989721D01*
X93142387Y-106989721D01*
X93254759Y-106914637D01*
X93454637Y-106714759D01*
X93611680Y-106479727D01*
X93719853Y-106218574D01*
X93775000Y-105941335D01*
X93775000Y-105658665D01*
X93719853Y-105381426D01*
X93611680Y-105120273D01*
X93454637Y-104885241D01*
X93254759Y-104685363D01*
X93019727Y-104528320D01*
X92758574Y-104420147D01*
X92481335Y-104365000D01*
X92198665Y-104365000D01*
X91921426Y-104420147D01*
X91660273Y-104528320D01*
X91425241Y-104685363D01*
X91225363Y-104885241D01*
X91068320Y-105120273D01*
X90960147Y-105381426D01*
X90905000Y-105658665D01*
X88689724Y-105658665D01*
X88658787Y-105449870D01*
X88563603Y-105183708D01*
X88496671Y-105058486D01*
X88252702Y-104986903D01*
X87439605Y-105800000D01*
X87080395Y-105800000D01*
X87066253Y-105785858D01*
X87245858Y-105606253D01*
X87260000Y-105620395D01*
X88073097Y-104807298D01*
X88001514Y-104563329D01*
X87746004Y-104442429D01*
X87471816Y-104373700D01*
X87189488Y-104359783D01*
X86909870Y-104401213D01*
X86660000Y-104490571D01*
X86660000Y-102498061D01*
X96765000Y-102498061D01*
X96765000Y-102701939D01*
X96804774Y-102901898D01*
X96882795Y-103090256D01*
X96996063Y-103259774D01*
X97140226Y-103403937D01*
X97309744Y-103517205D01*
X97498102Y-103595226D01*
X97698061Y-103635000D01*
X97901939Y-103635000D01*
X98101898Y-103595226D01*
X98290256Y-103517205D01*
X98459774Y-103403937D01*
X98500000Y-103363711D01*
X98540226Y-103403937D01*
X98709744Y-103517205D01*
X98898102Y-103595226D01*
X99098061Y-103635000D01*
X99301939Y-103635000D01*
X99501898Y-103595226D01*
X99690256Y-103517205D01*
X99859774Y-103403937D01*
X100003937Y-103259774D01*
X100117205Y-103090256D01*
X100176104Y-102948061D01*
X104515000Y-102948061D01*
X104515000Y-103151939D01*
X104554774Y-103351898D01*
X104632795Y-103540256D01*
X104746063Y-103709774D01*
X104890226Y-103853937D01*
X105059744Y-103967205D01*
X105248102Y-104045226D01*
X105448061Y-104085000D01*
X105651939Y-104085000D01*
X105851898Y-104045226D01*
X106040256Y-103967205D01*
X106209774Y-103853937D01*
X106353937Y-103709774D01*
X106467205Y-103540256D01*
X106545226Y-103351898D01*
X106585000Y-103151939D01*
X106585000Y-102948061D01*
X106545226Y-102748102D01*
X106467205Y-102559744D01*
X106353937Y-102390226D01*
X106209774Y-102246063D01*
X106040256Y-102132795D01*
X105851898Y-102054774D01*
X105651939Y-102015000D01*
X105448061Y-102015000D01*
X105248102Y-102054774D01*
X105059744Y-102132795D01*
X104890226Y-102246063D01*
X104746063Y-102390226D01*
X104632795Y-102559744D01*
X104554774Y-102748102D01*
X104515000Y-102948061D01*
X100176104Y-102948061D01*
X100195226Y-102901898D01*
X100235000Y-102701939D01*
X100235000Y-102498061D01*
X100195226Y-102298102D01*
X100117205Y-102109744D01*
X100003937Y-101940226D01*
X99859774Y-101796063D01*
X99690256Y-101682795D01*
X99501898Y-101604774D01*
X99301939Y-101565000D01*
X99098061Y-101565000D01*
X98898102Y-101604774D01*
X98709744Y-101682795D01*
X98540226Y-101796063D01*
X98500000Y-101836289D01*
X98459774Y-101796063D01*
X98290256Y-101682795D01*
X98101898Y-101604774D01*
X97901939Y-101565000D01*
X97698061Y-101565000D01*
X97498102Y-101604774D01*
X97309744Y-101682795D01*
X97140226Y-101796063D01*
X96996063Y-101940226D01*
X96882795Y-102109744D01*
X96804774Y-102298102D01*
X96765000Y-102498061D01*
X86660000Y-102498061D01*
X86660000Y-99857911D01*
X102990000Y-99857911D01*
X102990000Y-100042089D01*
X103025932Y-100222729D01*
X103096414Y-100392889D01*
X103198738Y-100546028D01*
X103328972Y-100676262D01*
X103482111Y-100778586D01*
X103578837Y-100818651D01*
X103565000Y-100888212D01*
X103565000Y-101111788D01*
X103608617Y-101331067D01*
X103694176Y-101537624D01*
X103818388Y-101723520D01*
X103976480Y-101881612D01*
X104162376Y-102005824D01*
X104368933Y-102091383D01*
X104588212Y-102135000D01*
X104811788Y-102135000D01*
X105031067Y-102091383D01*
X105237624Y-102005824D01*
X105423520Y-101881612D01*
X105581612Y-101723520D01*
X105705824Y-101537624D01*
X105791383Y-101331067D01*
X105835000Y-101111788D01*
X105835000Y-100888212D01*
X107865000Y-100888212D01*
X107865000Y-101111788D01*
X107908617Y-101331067D01*
X107994176Y-101537624D01*
X108118388Y-101723520D01*
X108276480Y-101881612D01*
X108462376Y-102005824D01*
X108668933Y-102091383D01*
X108888212Y-102135000D01*
X109111788Y-102135000D01*
X109297494Y-102098061D01*
X113365000Y-102098061D01*
X113365000Y-102301939D01*
X113404774Y-102501898D01*
X113482795Y-102690256D01*
X113596063Y-102859774D01*
X113740226Y-103003937D01*
X113909744Y-103117205D01*
X114098102Y-103195226D01*
X114298061Y-103235000D01*
X114501939Y-103235000D01*
X114701898Y-103195226D01*
X114890256Y-103117205D01*
X115059774Y-103003937D01*
X115203937Y-102859774D01*
X115317205Y-102690256D01*
X115395226Y-102501898D01*
X115395989Y-102498061D01*
X117765000Y-102498061D01*
X117765000Y-102701939D01*
X117804774Y-102901898D01*
X117882795Y-103090256D01*
X117996063Y-103259774D01*
X118140226Y-103403937D01*
X118309744Y-103517205D01*
X118498102Y-103595226D01*
X118698061Y-103635000D01*
X118901939Y-103635000D01*
X119101898Y-103595226D01*
X119290256Y-103517205D01*
X119459774Y-103403937D01*
X119603937Y-103259774D01*
X119717205Y-103090256D01*
X119795226Y-102901898D01*
X119835000Y-102701939D01*
X119835000Y-102498061D01*
X119795226Y-102298102D01*
X119717205Y-102109744D01*
X119603937Y-101940226D01*
X119459774Y-101796063D01*
X119290256Y-101682795D01*
X119101898Y-101604774D01*
X118901939Y-101565000D01*
X118698061Y-101565000D01*
X118498102Y-101604774D01*
X118309744Y-101682795D01*
X118140226Y-101796063D01*
X117996063Y-101940226D01*
X117882795Y-102109744D01*
X117804774Y-102298102D01*
X117765000Y-102498061D01*
X115395989Y-102498061D01*
X115435000Y-102301939D01*
X115435000Y-102098061D01*
X115395226Y-101898102D01*
X115317205Y-101709744D01*
X115203937Y-101540226D01*
X115059774Y-101396063D01*
X114890256Y-101282795D01*
X114701898Y-101204774D01*
X114501939Y-101165000D01*
X114298061Y-101165000D01*
X114098102Y-101204774D01*
X113909744Y-101282795D01*
X113740226Y-101396063D01*
X113596063Y-101540226D01*
X113482795Y-101709744D01*
X113404774Y-101898102D01*
X113365000Y-102098061D01*
X109297494Y-102098061D01*
X109331067Y-102091383D01*
X109537624Y-102005824D01*
X109723520Y-101881612D01*
X109881612Y-101723520D01*
X110005824Y-101537624D01*
X110091383Y-101331067D01*
X110135000Y-101111788D01*
X110135000Y-100894099D01*
X110253414Y-100845050D01*
X110418837Y-100734518D01*
X110559518Y-100593837D01*
X110670050Y-100428414D01*
X110746186Y-100244606D01*
X110785000Y-100049476D01*
X110785000Y-99850524D01*
X110746186Y-99655394D01*
X110670050Y-99471586D01*
X110575064Y-99329429D01*
X135386742Y-99329429D01*
X135425550Y-99564598D01*
X135509491Y-99787677D01*
X135547084Y-99858007D01*
X135768126Y-99902269D01*
X136420395Y-99250000D01*
X135768126Y-98597731D01*
X135547084Y-98641993D01*
X135448699Y-98859089D01*
X135394558Y-99091208D01*
X135386742Y-99329429D01*
X110575064Y-99329429D01*
X110559518Y-99306163D01*
X110418837Y-99165482D01*
X110253414Y-99054950D01*
X110069606Y-98978814D01*
X109874476Y-98940000D01*
X109675524Y-98940000D01*
X109480394Y-98978814D01*
X109296586Y-99054950D01*
X109131163Y-99165482D01*
X108990482Y-99306163D01*
X108879950Y-99471586D01*
X108803814Y-99655394D01*
X108765000Y-99850524D01*
X108765000Y-99889508D01*
X108668933Y-99908617D01*
X108462376Y-99994176D01*
X108276480Y-100118388D01*
X108118388Y-100276480D01*
X107994176Y-100462376D01*
X107908617Y-100668933D01*
X107865000Y-100888212D01*
X105835000Y-100888212D01*
X105791383Y-100668933D01*
X105705824Y-100462376D01*
X105581612Y-100276480D01*
X105423520Y-100118388D01*
X105237624Y-99994176D01*
X105031067Y-99908617D01*
X104860000Y-99874590D01*
X104860000Y-99857911D01*
X104824068Y-99677271D01*
X104753586Y-99507111D01*
X104651262Y-99353972D01*
X104521028Y-99223738D01*
X104367889Y-99121414D01*
X104197729Y-99050932D01*
X104017089Y-99015000D01*
X103832911Y-99015000D01*
X103652271Y-99050932D01*
X103482111Y-99121414D01*
X103328972Y-99223738D01*
X103198738Y-99353972D01*
X103096414Y-99507111D01*
X103025932Y-99677271D01*
X102990000Y-99857911D01*
X86660000Y-99857911D01*
X86660000Y-98903631D01*
X86773996Y-98957571D01*
X87048184Y-99026300D01*
X87330512Y-99040217D01*
X87610130Y-98998787D01*
X87876292Y-98903603D01*
X88001514Y-98836671D01*
X88073097Y-98592702D01*
X87260000Y-97779605D01*
X87245858Y-97793748D01*
X87066253Y-97614143D01*
X87080395Y-97600000D01*
X87439605Y-97600000D01*
X88252702Y-98413097D01*
X88496671Y-98341514D01*
X88617571Y-98086004D01*
X88686300Y-97811816D01*
X88700217Y-97529488D01*
X88689724Y-97458665D01*
X90905000Y-97458665D01*
X90905000Y-97741335D01*
X90960147Y-98018574D01*
X91068320Y-98279727D01*
X91225363Y-98514759D01*
X91425241Y-98714637D01*
X91660273Y-98871680D01*
X91921426Y-98979853D01*
X92198665Y-99035000D01*
X92481335Y-99035000D01*
X92758574Y-98979853D01*
X92946042Y-98902201D01*
X105010004Y-98902201D01*
X105010010Y-98903946D01*
X105012835Y-98931770D01*
X105012639Y-98959749D01*
X105013512Y-98968642D01*
X105018612Y-99017166D01*
X105030270Y-99073957D01*
X105041144Y-99130965D01*
X105043727Y-99139520D01*
X105058155Y-99186130D01*
X105080630Y-99239595D01*
X105102367Y-99293396D01*
X105106563Y-99301286D01*
X105129770Y-99344205D01*
X105162199Y-99392282D01*
X105193956Y-99440814D01*
X105199604Y-99447739D01*
X105230704Y-99485334D01*
X105271877Y-99526222D01*
X105312464Y-99567667D01*
X105319349Y-99573363D01*
X105357160Y-99604200D01*
X105405469Y-99636295D01*
X105453320Y-99669061D01*
X105461180Y-99673311D01*
X105504261Y-99696218D01*
X105557858Y-99718310D01*
X105611218Y-99741180D01*
X105619755Y-99743822D01*
X105666464Y-99757924D01*
X105723320Y-99769181D01*
X105767147Y-99778497D01*
X105774538Y-99780739D01*
X105785585Y-99781827D01*
X105788991Y-99782185D01*
X105837550Y-99786946D01*
X105837558Y-99786946D01*
X105868566Y-99790000D01*
X107831434Y-99790000D01*
X107858329Y-99787351D01*
X107859749Y-99787361D01*
X107868642Y-99786488D01*
X107891739Y-99784060D01*
X107925462Y-99780739D01*
X107936208Y-99777479D01*
X107973957Y-99769730D01*
X108030965Y-99758856D01*
X108039520Y-99756273D01*
X108086130Y-99741845D01*
X108139595Y-99719370D01*
X108193396Y-99697633D01*
X108201286Y-99693437D01*
X108244205Y-99670230D01*
X108292282Y-99637801D01*
X108340814Y-99606044D01*
X108347739Y-99600396D01*
X108385334Y-99569296D01*
X108426222Y-99528123D01*
X108467667Y-99487536D01*
X108473363Y-99480651D01*
X108504200Y-99442840D01*
X108536295Y-99394531D01*
X108569061Y-99346680D01*
X108573311Y-99338820D01*
X108596218Y-99295739D01*
X108618310Y-99242142D01*
X108641180Y-99188782D01*
X108643822Y-99180245D01*
X108657924Y-99133536D01*
X108669181Y-99076680D01*
X108681251Y-99019896D01*
X108682185Y-99011009D01*
X108686946Y-98962450D01*
X108686946Y-98934513D01*
X108689965Y-98906736D01*
X108689996Y-98897799D01*
X108689990Y-98896054D01*
X108687164Y-98868223D01*
X108687360Y-98840251D01*
X108686488Y-98831358D01*
X108681388Y-98782834D01*
X108669730Y-98726043D01*
X108658856Y-98669035D01*
X108656273Y-98660480D01*
X108641845Y-98613870D01*
X108619367Y-98560397D01*
X108597632Y-98506603D01*
X108593437Y-98498713D01*
X108570230Y-98455795D01*
X108537812Y-98407736D01*
X108506044Y-98359185D01*
X108500396Y-98352260D01*
X108469296Y-98314666D01*
X108428142Y-98273796D01*
X108387536Y-98232332D01*
X108380673Y-98226656D01*
X108380668Y-98226651D01*
X108380663Y-98226647D01*
X108380650Y-98226637D01*
X108342840Y-98195800D01*
X108294526Y-98163701D01*
X108246681Y-98130939D01*
X108238820Y-98126689D01*
X108238805Y-98126681D01*
X108238802Y-98126679D01*
X108238798Y-98126678D01*
X108195740Y-98103782D01*
X108142091Y-98081669D01*
X108088781Y-98058820D01*
X108080245Y-98056177D01*
X108033536Y-98042076D01*
X107976655Y-98030813D01*
X107932853Y-98021503D01*
X107925462Y-98019261D01*
X107914415Y-98018173D01*
X107911009Y-98017815D01*
X107862450Y-98013054D01*
X107862442Y-98013054D01*
X107831434Y-98010000D01*
X105868566Y-98010000D01*
X105841662Y-98012650D01*
X105840251Y-98012640D01*
X105831358Y-98013512D01*
X105808261Y-98015940D01*
X105774538Y-98019261D01*
X105763792Y-98022521D01*
X105726043Y-98030270D01*
X105669035Y-98041144D01*
X105660480Y-98043727D01*
X105613870Y-98058155D01*
X105560397Y-98080633D01*
X105506603Y-98102368D01*
X105498713Y-98106563D01*
X105455795Y-98129770D01*
X105407736Y-98162188D01*
X105359185Y-98193956D01*
X105352260Y-98199604D01*
X105314666Y-98230704D01*
X105273796Y-98271858D01*
X105232332Y-98312464D01*
X105226656Y-98319327D01*
X105226651Y-98319332D01*
X105226647Y-98319337D01*
X105226637Y-98319350D01*
X105195800Y-98357160D01*
X105163701Y-98405474D01*
X105130939Y-98453319D01*
X105126689Y-98461180D01*
X105103782Y-98504260D01*
X105081669Y-98557909D01*
X105058820Y-98611219D01*
X105056177Y-98619755D01*
X105042076Y-98666464D01*
X105030813Y-98723345D01*
X105018749Y-98780104D01*
X105017815Y-98788991D01*
X105013054Y-98837550D01*
X105013054Y-98865487D01*
X105010035Y-98893264D01*
X105010004Y-98902201D01*
X92946042Y-98902201D01*
X93019727Y-98871680D01*
X93254759Y-98714637D01*
X93454637Y-98514759D01*
X93611680Y-98279727D01*
X93719853Y-98018574D01*
X93775000Y-97741335D01*
X93775000Y-97458665D01*
X93719853Y-97181426D01*
X93611680Y-96920273D01*
X93454637Y-96685241D01*
X93254759Y-96485363D01*
X93019727Y-96328320D01*
X92758574Y-96220147D01*
X92481335Y-96165000D01*
X92198665Y-96165000D01*
X91921426Y-96220147D01*
X91660273Y-96328320D01*
X91425241Y-96485363D01*
X91225363Y-96685241D01*
X91068320Y-96920273D01*
X90960147Y-97181426D01*
X90905000Y-97458665D01*
X88689724Y-97458665D01*
X88658787Y-97249870D01*
X88563603Y-96983708D01*
X88496671Y-96858486D01*
X88252702Y-96786903D01*
X87439605Y-97600000D01*
X87080395Y-97600000D01*
X87066253Y-97585858D01*
X87245858Y-97406253D01*
X87260000Y-97420395D01*
X88073097Y-96607298D01*
X88001514Y-96363329D01*
X87746004Y-96242429D01*
X87471816Y-96173700D01*
X87189488Y-96159783D01*
X86909870Y-96201213D01*
X86660000Y-96290571D01*
X86660000Y-94698061D01*
X93765000Y-94698061D01*
X93765000Y-94901939D01*
X93804774Y-95101898D01*
X93882795Y-95290256D01*
X93996063Y-95459774D01*
X94140226Y-95603937D01*
X94309744Y-95717205D01*
X94498102Y-95795226D01*
X94698061Y-95835000D01*
X94901939Y-95835000D01*
X95101898Y-95795226D01*
X95290256Y-95717205D01*
X95318907Y-95698061D01*
X101365000Y-95698061D01*
X101365000Y-95901939D01*
X101404774Y-96101898D01*
X101482795Y-96290256D01*
X101596063Y-96459774D01*
X101740226Y-96603937D01*
X101909744Y-96717205D01*
X102098102Y-96795226D01*
X102298061Y-96835000D01*
X102501939Y-96835000D01*
X102701898Y-96795226D01*
X102890256Y-96717205D01*
X103059774Y-96603937D01*
X103203937Y-96459774D01*
X103317205Y-96290256D01*
X103395226Y-96101898D01*
X103435000Y-95901939D01*
X103435000Y-95698061D01*
X103395226Y-95498102D01*
X103317205Y-95309744D01*
X103203937Y-95140226D01*
X103059774Y-94996063D01*
X102890256Y-94882795D01*
X102701898Y-94804774D01*
X102501939Y-94765000D01*
X102298061Y-94765000D01*
X102098102Y-94804774D01*
X101909744Y-94882795D01*
X101740226Y-94996063D01*
X101596063Y-95140226D01*
X101482795Y-95309744D01*
X101404774Y-95498102D01*
X101365000Y-95698061D01*
X95318907Y-95698061D01*
X95459774Y-95603937D01*
X95603937Y-95459774D01*
X95717205Y-95290256D01*
X95795226Y-95101898D01*
X95835000Y-94901939D01*
X95835000Y-94698061D01*
X95795226Y-94498102D01*
X95717205Y-94309744D01*
X95603937Y-94140226D01*
X95459774Y-93996063D01*
X95290256Y-93882795D01*
X95101898Y-93804774D01*
X94901939Y-93765000D01*
X94698061Y-93765000D01*
X94498102Y-93804774D01*
X94309744Y-93882795D01*
X94140226Y-93996063D01*
X93996063Y-94140226D01*
X93882795Y-94309744D01*
X93804774Y-94498102D01*
X93765000Y-94698061D01*
X86660000Y-94698061D01*
X86660000Y-91298061D01*
X97565000Y-91298061D01*
X97565000Y-91501939D01*
X97604774Y-91701898D01*
X97682795Y-91890256D01*
X97796063Y-92059774D01*
X97940226Y-92203937D01*
X98109744Y-92317205D01*
X98298102Y-92395226D01*
X98498061Y-92435000D01*
X98701939Y-92435000D01*
X98901898Y-92395226D01*
X99090256Y-92317205D01*
X99259774Y-92203937D01*
X99403937Y-92059774D01*
X99517205Y-91890256D01*
X99595226Y-91701898D01*
X99635000Y-91501939D01*
X99635000Y-91298061D01*
X99595226Y-91098102D01*
X99517205Y-90909744D01*
X99403937Y-90740226D01*
X99259774Y-90596063D01*
X99090256Y-90482795D01*
X98901898Y-90404774D01*
X98701939Y-90365000D01*
X98498061Y-90365000D01*
X98298102Y-90404774D01*
X98109744Y-90482795D01*
X97940226Y-90596063D01*
X97796063Y-90740226D01*
X97682795Y-90909744D01*
X97604774Y-91098102D01*
X97565000Y-91298061D01*
X86660000Y-91298061D01*
X86660000Y-90703631D01*
X86773996Y-90757571D01*
X87048184Y-90826300D01*
X87330512Y-90840217D01*
X87610130Y-90798787D01*
X87876292Y-90703603D01*
X88001514Y-90636671D01*
X88073097Y-90392702D01*
X87260000Y-89579605D01*
X87245858Y-89593748D01*
X87066253Y-89414143D01*
X87080395Y-89400000D01*
X87439605Y-89400000D01*
X88252702Y-90213097D01*
X88496671Y-90141514D01*
X88617571Y-89886004D01*
X88686300Y-89611816D01*
X88700217Y-89329488D01*
X88689724Y-89258665D01*
X90905000Y-89258665D01*
X90905000Y-89541335D01*
X90960147Y-89818574D01*
X91068320Y-90079727D01*
X91225363Y-90314759D01*
X91425241Y-90514637D01*
X91660273Y-90671680D01*
X91921426Y-90779853D01*
X92198665Y-90835000D01*
X92481335Y-90835000D01*
X92758574Y-90779853D01*
X93019727Y-90671680D01*
X93254759Y-90514637D01*
X93454637Y-90314759D01*
X93611680Y-90079727D01*
X93719853Y-89818574D01*
X93775000Y-89541335D01*
X93775000Y-89258665D01*
X93719853Y-88981426D01*
X93611680Y-88720273D01*
X93454637Y-88485241D01*
X93254759Y-88285363D01*
X93019727Y-88128320D01*
X92758574Y-88020147D01*
X92481335Y-87965000D01*
X92198665Y-87965000D01*
X91921426Y-88020147D01*
X91660273Y-88128320D01*
X91425241Y-88285363D01*
X91225363Y-88485241D01*
X91068320Y-88720273D01*
X90960147Y-88981426D01*
X90905000Y-89258665D01*
X88689724Y-89258665D01*
X88658787Y-89049870D01*
X88563603Y-88783708D01*
X88496671Y-88658486D01*
X88252702Y-88586903D01*
X87439605Y-89400000D01*
X87080395Y-89400000D01*
X87066253Y-89385858D01*
X87245858Y-89206253D01*
X87260000Y-89220395D01*
X88073097Y-88407298D01*
X88001514Y-88163329D01*
X87746004Y-88042429D01*
X87471816Y-87973700D01*
X87189488Y-87959783D01*
X86909870Y-88001213D01*
X86660000Y-88090571D01*
X86660000Y-82603631D01*
X86773996Y-82657571D01*
X87048184Y-82726300D01*
X87330512Y-82740217D01*
X87610130Y-82698787D01*
X87876292Y-82603603D01*
X88001514Y-82536671D01*
X88073097Y-82292702D01*
X87260000Y-81479605D01*
X87245858Y-81493748D01*
X87066253Y-81314143D01*
X87080395Y-81300000D01*
X87439605Y-81300000D01*
X88252702Y-82113097D01*
X88496671Y-82041514D01*
X88617571Y-81786004D01*
X88686300Y-81511816D01*
X88700217Y-81229488D01*
X88689724Y-81158665D01*
X90905000Y-81158665D01*
X90905000Y-81441335D01*
X90960147Y-81718574D01*
X91068320Y-81979727D01*
X91225363Y-82214759D01*
X91425241Y-82414637D01*
X91660273Y-82571680D01*
X91921426Y-82679853D01*
X92198665Y-82735000D01*
X92481335Y-82735000D01*
X92758574Y-82679853D01*
X93019727Y-82571680D01*
X93254759Y-82414637D01*
X93454637Y-82214759D01*
X93611680Y-81979727D01*
X93719853Y-81718574D01*
X93775000Y-81441335D01*
X93775000Y-81158665D01*
X93719853Y-80881426D01*
X93611680Y-80620273D01*
X93454637Y-80385241D01*
X93254759Y-80185363D01*
X93019727Y-80028320D01*
X92758574Y-79920147D01*
X92481335Y-79865000D01*
X92198665Y-79865000D01*
X91921426Y-79920147D01*
X91660273Y-80028320D01*
X91425241Y-80185363D01*
X91225363Y-80385241D01*
X91068320Y-80620273D01*
X90960147Y-80881426D01*
X90905000Y-81158665D01*
X88689724Y-81158665D01*
X88658787Y-80949870D01*
X88563603Y-80683708D01*
X88496671Y-80558486D01*
X88252702Y-80486903D01*
X87439605Y-81300000D01*
X87080395Y-81300000D01*
X87066253Y-81285858D01*
X87245858Y-81106253D01*
X87260000Y-81120395D01*
X88073097Y-80307298D01*
X88001514Y-80063329D01*
X87746004Y-79942429D01*
X87471816Y-79873700D01*
X87189488Y-79859783D01*
X86909870Y-79901213D01*
X86660000Y-79990571D01*
X86660000Y-68710000D01*
X87911928Y-68710000D01*
X87924188Y-68834482D01*
X87960498Y-68954180D01*
X88019463Y-69064494D01*
X88098815Y-69161185D01*
X88195506Y-69240537D01*
X88305820Y-69299502D01*
X88378380Y-69321513D01*
X88246525Y-69453368D01*
X88084010Y-69696589D01*
X87972068Y-69966842D01*
X87915000Y-70253740D01*
X87915000Y-70546260D01*
X87972068Y-70833158D01*
X88084010Y-71103411D01*
X88246525Y-71346632D01*
X88453368Y-71553475D01*
X88627760Y-71670000D01*
X88453368Y-71786525D01*
X88246525Y-71993368D01*
X88084010Y-72236589D01*
X87972068Y-72506842D01*
X87915000Y-72793740D01*
X87915000Y-73086260D01*
X87972068Y-73373158D01*
X88084010Y-73643411D01*
X88246525Y-73886632D01*
X88453368Y-74093475D01*
X88627760Y-74210000D01*
X88453368Y-74326525D01*
X88246525Y-74533368D01*
X88084010Y-74776589D01*
X87972068Y-75046842D01*
X87915000Y-75333740D01*
X87915000Y-75626260D01*
X87972068Y-75913158D01*
X88084010Y-76183411D01*
X88246525Y-76426632D01*
X88453368Y-76633475D01*
X88696589Y-76795990D01*
X88966842Y-76907932D01*
X89253740Y-76965000D01*
X89546260Y-76965000D01*
X89833158Y-76907932D01*
X90103411Y-76795990D01*
X90346632Y-76633475D01*
X90553475Y-76426632D01*
X90715990Y-76183411D01*
X90751342Y-76098061D01*
X100165000Y-76098061D01*
X100165000Y-76301939D01*
X100204774Y-76501898D01*
X100282795Y-76690256D01*
X100396063Y-76859774D01*
X100540226Y-77003937D01*
X100709744Y-77117205D01*
X100898102Y-77195226D01*
X101098061Y-77235000D01*
X101301939Y-77235000D01*
X101501898Y-77195226D01*
X101690256Y-77117205D01*
X101718907Y-77098061D01*
X116765000Y-77098061D01*
X116765000Y-77301939D01*
X116804774Y-77501898D01*
X116882795Y-77690256D01*
X116996063Y-77859774D01*
X117036289Y-77900000D01*
X116996063Y-77940226D01*
X116882795Y-78109744D01*
X116804774Y-78298102D01*
X116765000Y-78498061D01*
X116765000Y-78701939D01*
X116804774Y-78901898D01*
X116882795Y-79090256D01*
X116996063Y-79259774D01*
X117140226Y-79403937D01*
X117309744Y-79517205D01*
X117498102Y-79595226D01*
X117698061Y-79635000D01*
X117901939Y-79635000D01*
X118101898Y-79595226D01*
X118290256Y-79517205D01*
X118303512Y-79508347D01*
X133087952Y-79508347D01*
X134400000Y-80820395D01*
X135712048Y-79508347D01*
X135556038Y-79192786D01*
X135181255Y-79001980D01*
X134776449Y-78887956D01*
X134357176Y-78855098D01*
X133939549Y-78904666D01*
X133539617Y-79034757D01*
X133243962Y-79192786D01*
X133087952Y-79508347D01*
X118303512Y-79508347D01*
X118459774Y-79403937D01*
X118603937Y-79259774D01*
X118717205Y-79090256D01*
X118795226Y-78901898D01*
X118835000Y-78701939D01*
X118835000Y-78498061D01*
X118795226Y-78298102D01*
X118717205Y-78109744D01*
X118603937Y-77940226D01*
X118563711Y-77900000D01*
X118603937Y-77859774D01*
X118717205Y-77690256D01*
X118795226Y-77501898D01*
X118835000Y-77301939D01*
X118835000Y-77098061D01*
X118810898Y-76976890D01*
X128158524Y-76976890D01*
X128203175Y-77124099D01*
X128328359Y-77386920D01*
X128502412Y-77620269D01*
X128718645Y-77815178D01*
X128968748Y-77964157D01*
X129243109Y-78061481D01*
X129473000Y-77940814D01*
X129473000Y-76747000D01*
X129727000Y-76747000D01*
X129727000Y-77940814D01*
X129956891Y-78061481D01*
X130231252Y-77964157D01*
X130481355Y-77815178D01*
X130697588Y-77620269D01*
X130871641Y-77386920D01*
X130996825Y-77124099D01*
X131041476Y-76976890D01*
X130920155Y-76747000D01*
X129727000Y-76747000D01*
X129473000Y-76747000D01*
X128279845Y-76747000D01*
X128158524Y-76976890D01*
X118810898Y-76976890D01*
X118795226Y-76898102D01*
X118717205Y-76709744D01*
X118603937Y-76540226D01*
X118459774Y-76396063D01*
X118290256Y-76282795D01*
X118101898Y-76204774D01*
X117901939Y-76165000D01*
X117698061Y-76165000D01*
X117498102Y-76204774D01*
X117309744Y-76282795D01*
X117140226Y-76396063D01*
X116996063Y-76540226D01*
X116882795Y-76709744D01*
X116804774Y-76898102D01*
X116765000Y-77098061D01*
X101718907Y-77098061D01*
X101859774Y-77003937D01*
X102003937Y-76859774D01*
X102117205Y-76690256D01*
X102195226Y-76501898D01*
X102235000Y-76301939D01*
X102235000Y-76098061D01*
X102195226Y-75898102D01*
X102117205Y-75709744D01*
X102003937Y-75540226D01*
X101859774Y-75396063D01*
X101690256Y-75282795D01*
X101501898Y-75204774D01*
X101301939Y-75165000D01*
X101098061Y-75165000D01*
X100898102Y-75204774D01*
X100709744Y-75282795D01*
X100540226Y-75396063D01*
X100396063Y-75540226D01*
X100282795Y-75709744D01*
X100204774Y-75898102D01*
X100165000Y-76098061D01*
X90751342Y-76098061D01*
X90827932Y-75913158D01*
X90885000Y-75626260D01*
X90885000Y-75333740D01*
X90827932Y-75046842D01*
X90715990Y-74776589D01*
X90553475Y-74533368D01*
X90346632Y-74326525D01*
X90172240Y-74210000D01*
X90346632Y-74093475D01*
X90553475Y-73886632D01*
X90715990Y-73643411D01*
X90827932Y-73373158D01*
X90885000Y-73086260D01*
X90885000Y-72793740D01*
X90827932Y-72506842D01*
X90715990Y-72236589D01*
X90553475Y-71993368D01*
X90346632Y-71786525D01*
X90172240Y-71670000D01*
X90346632Y-71553475D01*
X90553475Y-71346632D01*
X90715990Y-71103411D01*
X90827932Y-70833158D01*
X90885000Y-70546260D01*
X90885000Y-70253740D01*
X90827932Y-69966842D01*
X90715990Y-69696589D01*
X90553475Y-69453368D01*
X90421620Y-69321513D01*
X90494180Y-69299502D01*
X90604494Y-69240537D01*
X90701185Y-69161185D01*
X90780537Y-69064494D01*
X90839502Y-68954180D01*
X90875812Y-68834482D01*
X90888072Y-68710000D01*
X90885000Y-68145750D01*
X90726250Y-67987000D01*
X89527000Y-67987000D01*
X89527000Y-68007000D01*
X89273000Y-68007000D01*
X89273000Y-67987000D01*
X88073750Y-67987000D01*
X87915000Y-68145750D01*
X87911928Y-68710000D01*
X86660000Y-68710000D01*
X86660000Y-67010000D01*
X87911928Y-67010000D01*
X87915000Y-67574250D01*
X88073750Y-67733000D01*
X89273000Y-67733000D01*
X89273000Y-66533750D01*
X89527000Y-66533750D01*
X89527000Y-67733000D01*
X90726250Y-67733000D01*
X90885000Y-67574250D01*
X90888072Y-67010000D01*
X90875812Y-66885518D01*
X90839502Y-66765820D01*
X90780537Y-66655506D01*
X90701185Y-66558815D01*
X90604494Y-66479463D01*
X90494180Y-66420498D01*
X90374482Y-66384188D01*
X90250000Y-66371928D01*
X89685750Y-66375000D01*
X89527000Y-66533750D01*
X89273000Y-66533750D01*
X89114250Y-66375000D01*
X88550000Y-66371928D01*
X88425518Y-66384188D01*
X88305820Y-66420498D01*
X88195506Y-66479463D01*
X88098815Y-66558815D01*
X88019463Y-66655506D01*
X87960498Y-66765820D01*
X87924188Y-66885518D01*
X87911928Y-67010000D01*
X86660000Y-67010000D01*
X86660000Y-66260000D01*
X96873000Y-66260000D01*
X96873000Y-72600000D01*
G37*
%TD.AperFunction*%
%TD*%
M02*
