M48
; DRILL file {KiCad (5.1.10)-1} date 02/13/22 15:13:26
; FORMAT={-:-/ absolute / inch / decimal}
; #@! TF.CreationDate,2022-02-13T15:13:26-05:00
; #@! TF.GenerationSoftware,Kicad,Pcbnew,(5.1.10)-1
; #@! TF.FileFunction,Plated,1,2,PTH
FMAT,2
INCH
T1C0.0157
T2C0.0180
T3C0.0197
T4C0.0217
T5C0.0290
T6C0.0315
T7C0.0394
T8C0.0433
T9C0.0591
T10C0.0787
%
G90
G05
T1
X3.63Y-2.693
X3.718Y-2.532
X3.764Y-3.148
X3.8307Y-4.5276
X4.0551Y-4.1496
X4.0551Y-4.2913
X4.227Y-3.103
X4.227Y-3.141
X4.227Y-3.182
X4.227Y-3.22
X4.227Y-3.258
X4.266Y-3.103
X4.266Y-3.141
X4.266Y-3.182
X4.266Y-3.22
X4.266Y-3.258
X4.306Y-3.103
X4.306Y-3.141
X4.306Y-3.182
X4.306Y-3.22
X4.306Y-3.258
X4.306Y-3.937
X4.322Y-4.558
X4.325Y-4.172
X4.325Y-4.21
X4.325Y-4.248
X4.325Y-4.364
X4.345Y-3.103
X4.345Y-3.141
X4.345Y-3.182
X4.345Y-3.22
X4.345Y-3.258
X4.359Y-4.586
X4.364Y-4.172
X4.364Y-4.21
X4.364Y-4.248
X4.38Y-4.364
X4.381Y-4.759
X4.384Y-3.103
X4.384Y-3.141
X4.384Y-3.182
X4.384Y-3.22
X4.384Y-3.258
X4.387Y-3.69
X4.404Y-4.172
X4.404Y-4.21
X4.404Y-4.248
X4.465Y-3.695
X4.49Y-4.309
X4.5276Y-3.0945
X4.5433Y-3.0315
X4.602Y-3.438
X4.674Y-4.275
X4.7919Y-4.1609
X4.866Y-3.68
X5.252Y-3.415
X5.253Y-3.377
X5.254Y-3.135
X5.254Y-3.173
X5.254Y-3.46
X5.255Y-3.214
X5.255Y-3.298
X5.255Y-3.339
X5.256Y-3.256
X5.291Y-3.415
X5.292Y-3.377
X5.293Y-3.135
X5.293Y-3.173
X5.293Y-3.46
X5.294Y-3.214
X5.294Y-3.298
X5.294Y-3.339
X5.295Y-3.256
X5.331Y-3.415
X5.332Y-3.377
X5.333Y-3.135
X5.333Y-3.173
X5.333Y-3.46
X5.334Y-3.214
X5.334Y-3.298
X5.334Y-3.339
X5.335Y-3.256
X5.37Y-3.415
X5.371Y-3.377
X5.372Y-3.135
X5.372Y-3.173
X5.372Y-3.46
X5.373Y-3.214
X5.373Y-3.298
X5.373Y-3.339
X5.374Y-3.256
X5.409Y-3.415
X5.41Y-3.377
X5.411Y-3.135
X5.411Y-3.173
X5.411Y-3.46
X5.412Y-3.214
X5.412Y-3.298
X5.412Y-3.339
X5.413Y-3.256
X5.448Y-3.416
X5.449Y-3.378
X5.45Y-3.136
X5.45Y-3.174
X5.45Y-3.461
X5.451Y-3.215
X5.451Y-3.299
X5.451Y-3.34
X5.452Y-3.257
X5.487Y-3.416
X5.488Y-3.378
X5.489Y-3.136
X5.489Y-3.174
X5.489Y-3.461
X5.49Y-3.215
X5.49Y-3.299
X5.49Y-3.34
X5.491Y-3.257
X5.527Y-3.416
X5.528Y-3.378
X5.529Y-3.136
X5.529Y-3.174
X5.529Y-3.461
X5.53Y-3.215
X5.53Y-3.299
X5.53Y-3.34
X5.531Y-3.257
X5.566Y-3.416
X5.567Y-3.378
X5.568Y-3.136
X5.568Y-3.174
X5.568Y-3.461
X5.569Y-3.215
X5.569Y-3.299
X5.569Y-3.34
X5.57Y-3.257
X5.605Y-3.416
X5.606Y-3.378
X5.607Y-3.136
X5.607Y-3.174
X5.607Y-3.461
X5.608Y-3.215
X5.608Y-3.299
X5.608Y-3.34
X5.609Y-3.257
X5.643Y-3.416
X5.644Y-3.378
X5.645Y-3.136
X5.645Y-3.174
X5.645Y-3.461
X5.646Y-3.215
X5.646Y-3.299
X5.646Y-3.34
X5.647Y-3.257
T2
X6.156Y-2.533
X6.2544Y-2.4346
X6.3529Y-2.533
T5
X3.526Y-4.032
X3.5851Y-4.032
X6.1024Y-4.3701
X6.1024Y-4.4291
X6.2598Y-2.9173
X6.2598Y-2.9764
X6.6575Y-2.4567
X6.7165Y-2.4567
X6.9921Y-4.2874
X6.9921Y-4.3465
T6
X5.031Y-4.25
X5.331Y-4.25
X6.3655Y-3.2429
X6.3655Y-3.3429
X6.3655Y-3.4429
X6.3655Y-3.5429
X6.3655Y-3.6429
X6.3655Y-3.7429
X6.3655Y-3.8429
X6.3655Y-3.9429
X6.3655Y-4.0429
X6.3655Y-4.1429
X6.3655Y-4.2429
X6.3655Y-4.3429
X6.3655Y-4.4429
X6.3655Y-4.5429
X6.6655Y-3.2429
X6.6655Y-3.3429
X6.6655Y-3.4429
X6.6655Y-3.5429
X6.6655Y-3.6429
X6.6655Y-3.7429
X6.6655Y-3.8429
X6.6655Y-3.9429
X6.6655Y-4.0429
X6.6655Y-4.1429
X6.6655Y-4.2429
X6.6655Y-4.3429
X6.6655Y-4.4429
X6.6655Y-4.5429
T7
X3.418Y-3.254
X3.434Y-2.668
X3.434Y-2.768
X3.434Y-2.868
X3.434Y-2.968
X3.518Y-3.254
X3.7717Y-3.2835
X3.7717Y-3.3835
X3.7717Y-3.4835
X3.7717Y-3.5835
X3.9646Y-4.5693
X3.9646Y-4.7693
X5.1535Y-4.5693
X5.1535Y-4.7693
X5.177Y-2.534
X5.177Y-2.634
X5.177Y-2.734
X5.497Y-2.48
X5.497Y-2.58
X5.497Y-2.68
X5.497Y-2.78
X5.837Y-3.046
X5.837Y-3.146
X5.842Y-2.518
X5.842Y-2.618
X5.842Y-2.718
X6.0394Y-3.7323
X6.0394Y-3.8323
X6.0394Y-3.9323
X6.0394Y-4.0323
X6.0866Y-3.2205
X6.0866Y-3.3205
X6.0866Y-3.4205
X6.0866Y-3.5205
X6.69Y-2.792
X6.69Y-2.892
X6.9843Y-3.2173
X6.9843Y-3.3173
X6.9843Y-3.4173
X6.9843Y-3.5173
X6.9843Y-3.7236
X6.9843Y-3.8236
X6.9843Y-3.9236
X6.9843Y-4.0236
T8
X5.434Y-4.759
X5.784Y-4.759
T9
X5.111Y-3.832
X5.111Y-3.992
T10
X3.4331Y-4.2441
X3.6339Y-4.5669
X3.6417Y-4.2362
X4.5276Y-3.9724
X6.0669Y-4.689
T3
G00X4.2082Y-4.7492
M15
G01X4.2082Y-4.7748
M16
G05
G00X4.4838Y-4.7492
M15
G01X4.4838Y-4.7748
M16
G05
T4
G00X4.2417Y-4.6557
M15
G01X4.2535Y-4.6557
M16
G05
G00X4.4385Y-4.6557
M15
G01X4.4503Y-4.6557
M16
G05
T0
M30
