%TF.GenerationSoftware,KiCad,Pcbnew,(5.1.10)-1*%
%TF.CreationDate,2022-02-13T15:12:39-05:00*%
%TF.ProjectId,dispenser,64697370-656e-4736-9572-2e6b69636164,rev?*%
%TF.SameCoordinates,Original*%
%TF.FileFunction,Soldermask,Bot*%
%TF.FilePolarity,Negative*%
%FSLAX46Y46*%
G04 Gerber Fmt 4.6, Leading zero omitted, Abs format (unit mm)*
G04 Created by KiCad (PCBNEW (5.1.10)-1) date 2022-02-13 15:12:39*
%MOMM*%
%LPD*%
G01*
G04 APERTURE LIST*
%ADD10O,1.700000X1.700000*%
%ADD11R,1.700000X1.700000*%
%ADD12C,3.000000*%
%ADD13C,2.400000*%
%ADD14R,1.800000X1.800000*%
%ADD15C,2.000000*%
%ADD16O,1.600000X1.600000*%
%ADD17R,1.600000X1.600000*%
%ADD18C,1.244600*%
%ADD19O,0.775000X1.550000*%
%ADD20O,1.300000X0.650000*%
%ADD21C,0.965200*%
%ADD22C,1.600000*%
G04 APERTURE END LIST*
D10*
%TO.C,J3*%
X154600000Y-89420000D03*
X154600000Y-86880000D03*
X154600000Y-84340000D03*
D11*
X154600000Y-81800000D03*
%TD*%
D10*
%TO.C,J6*%
X177400000Y-81720000D03*
X177400000Y-84260000D03*
X177400000Y-86800000D03*
D11*
X177400000Y-89340000D03*
%TD*%
D10*
%TO.C,J5*%
X177400000Y-94580000D03*
X177400000Y-97120000D03*
X177400000Y-99660000D03*
D11*
X177400000Y-102200000D03*
%TD*%
D10*
%TO.C,J4*%
X153400000Y-102420000D03*
X153400000Y-99880000D03*
X153400000Y-97340000D03*
D11*
X153400000Y-94800000D03*
%TD*%
D10*
%TO.C,J2*%
X95800000Y-91020000D03*
X95800000Y-88480000D03*
X95800000Y-85940000D03*
D11*
X95800000Y-83400000D03*
%TD*%
D12*
%TO.C,TP5*%
X154100000Y-119100000D03*
%TD*%
%TO.C,TP4*%
X92500000Y-107600000D03*
%TD*%
%TO.C,TP3*%
X92300000Y-116000000D03*
%TD*%
%TO.C,TP2*%
X115000000Y-100900000D03*
%TD*%
%TO.C,TP1*%
X87200000Y-107800000D03*
%TD*%
D13*
%TO.C,SW3*%
X129819400Y-101396800D03*
X129819400Y-97332800D03*
%TD*%
D10*
%TO.C,J9*%
X169926000Y-73456800D03*
D11*
X169926000Y-70916800D03*
%TD*%
D14*
%TO.C,BT1*%
X138023600Y-120878600D03*
D15*
X146913600Y-120878600D03*
%TD*%
D16*
%TO.C,D2*%
X135407400Y-107950000D03*
D17*
X127787400Y-107950000D03*
%TD*%
D10*
%TO.C,J1*%
X86817200Y-82651600D03*
D11*
X89357200Y-82651600D03*
%TD*%
D18*
%TO.C,J7*%
X91060401Y-102412800D03*
X89560399Y-102412800D03*
%TD*%
%TO.C,J8*%
X177600000Y-108899999D03*
X177600000Y-110400001D03*
%TD*%
%TO.C,J10*%
X169099999Y-62400000D03*
X170600001Y-62400000D03*
%TD*%
%TO.C,J11*%
X159000000Y-74099999D03*
X159000000Y-75600001D03*
%TD*%
%TO.C,J12*%
X155000000Y-110999999D03*
X155000000Y-112500001D03*
%TD*%
D10*
%TO.C,J13*%
X131495800Y-64363600D03*
X131495800Y-66903600D03*
D11*
X131495800Y-69443600D03*
%TD*%
D10*
%TO.C,J14*%
X139623800Y-62992000D03*
X139623800Y-65532000D03*
X139623800Y-68072000D03*
D11*
X139623800Y-70612000D03*
%TD*%
D10*
%TO.C,J15*%
X148259800Y-77368400D03*
D11*
X148259800Y-79908400D03*
%TD*%
D10*
%TO.C,J16*%
X148386800Y-69037200D03*
X148386800Y-66497200D03*
D11*
X148386800Y-63957200D03*
%TD*%
D19*
%TO.C,J17*%
X113888400Y-120954800D03*
X106888400Y-120954800D03*
D20*
X112888400Y-118254800D03*
X107888400Y-118254800D03*
%TD*%
D21*
%TO.C,RV1*%
X161362400Y-64338200D03*
X158862400Y-61838200D03*
X156362400Y-64338200D03*
%TD*%
D22*
%TO.C,SW1*%
X130900000Y-116060000D03*
X130900000Y-121140000D03*
%TD*%
%TO.C,SW2*%
X100700000Y-116060000D03*
X100700000Y-121140000D03*
%TD*%
D16*
%TO.C,U1*%
X169304800Y-82369000D03*
X161684800Y-115389000D03*
X169304800Y-84909000D03*
X161684800Y-112849000D03*
X169304800Y-87449000D03*
X161684800Y-110309000D03*
X169304800Y-89989000D03*
X161684800Y-107769000D03*
X169304800Y-92529000D03*
X161684800Y-105229000D03*
X169304800Y-95069000D03*
X161684800Y-102689000D03*
X169304800Y-97609000D03*
X161684800Y-100149000D03*
X169304800Y-100149000D03*
X161684800Y-97609000D03*
X169304800Y-102689000D03*
X161684800Y-95069000D03*
X169304800Y-105229000D03*
X161684800Y-92529000D03*
X169304800Y-107769000D03*
X161684800Y-89989000D03*
X169304800Y-110309000D03*
X161684800Y-87449000D03*
X169304800Y-112849000D03*
X161684800Y-84909000D03*
X169304800Y-115389000D03*
D17*
X161684800Y-82369000D03*
%TD*%
D10*
%TO.C,J18*%
X87223600Y-75387200D03*
X87223600Y-72847200D03*
X87223600Y-70307200D03*
D11*
X87223600Y-67767200D03*
%TD*%
M02*
