%TF.GenerationSoftware,KiCad,Pcbnew,(5.1.10)-1*%
%TF.CreationDate,2022-02-13T15:12:39-05:00*%
%TF.ProjectId,dispenser,64697370-656e-4736-9572-2e6b69636164,rev?*%
%TF.SameCoordinates,Original*%
%TF.FileFunction,Legend,Top*%
%TF.FilePolarity,Positive*%
%FSLAX46Y46*%
G04 Gerber Fmt 4.6, Leading zero omitted, Abs format (unit mm)*
G04 Created by KiCad (PCBNEW (5.1.10)-1) date 2022-02-13 15:12:39*
%MOMM*%
%LPD*%
G01*
G04 APERTURE LIST*
%ADD10C,0.120000*%
%ADD11C,0.200000*%
%ADD12C,0.127000*%
%ADD13C,0.150000*%
G04 APERTURE END LIST*
D10*
%TO.C,J3*%
X153270000Y-90750000D02*
X155930000Y-90750000D01*
X153270000Y-83070000D02*
X153270000Y-90750000D01*
X155930000Y-83070000D02*
X155930000Y-90750000D01*
X153270000Y-83070000D02*
X155930000Y-83070000D01*
X153270000Y-81800000D02*
X153270000Y-80470000D01*
X153270000Y-80470000D02*
X154600000Y-80470000D01*
%TO.C,J6*%
X178730000Y-80390000D02*
X176070000Y-80390000D01*
X178730000Y-88070000D02*
X178730000Y-80390000D01*
X176070000Y-88070000D02*
X176070000Y-80390000D01*
X178730000Y-88070000D02*
X176070000Y-88070000D01*
X178730000Y-89340000D02*
X178730000Y-90670000D01*
X178730000Y-90670000D02*
X177400000Y-90670000D01*
%TO.C,J5*%
X178730000Y-93250000D02*
X176070000Y-93250000D01*
X178730000Y-100930000D02*
X178730000Y-93250000D01*
X176070000Y-100930000D02*
X176070000Y-93250000D01*
X178730000Y-100930000D02*
X176070000Y-100930000D01*
X178730000Y-102200000D02*
X178730000Y-103530000D01*
X178730000Y-103530000D02*
X177400000Y-103530000D01*
%TO.C,J4*%
X152070000Y-103750000D02*
X154730000Y-103750000D01*
X152070000Y-96070000D02*
X152070000Y-103750000D01*
X154730000Y-96070000D02*
X154730000Y-103750000D01*
X152070000Y-96070000D02*
X154730000Y-96070000D01*
X152070000Y-94800000D02*
X152070000Y-93470000D01*
X152070000Y-93470000D02*
X153400000Y-93470000D01*
%TO.C,J2*%
X94470000Y-92350000D02*
X97130000Y-92350000D01*
X94470000Y-84670000D02*
X94470000Y-92350000D01*
X97130000Y-84670000D02*
X97130000Y-92350000D01*
X94470000Y-84670000D02*
X97130000Y-84670000D01*
X94470000Y-83400000D02*
X94470000Y-82070000D01*
X94470000Y-82070000D02*
X95800000Y-82070000D01*
%TO.C,TP5*%
X155800000Y-119100000D02*
G75*
G03*
X155800000Y-119100000I-1700000J0D01*
G01*
%TO.C,TP4*%
X94200000Y-107600000D02*
G75*
G03*
X94200000Y-107600000I-1700000J0D01*
G01*
%TO.C,TP3*%
X94000000Y-116000000D02*
G75*
G03*
X94000000Y-116000000I-1700000J0D01*
G01*
%TO.C,TP2*%
X116700000Y-100900000D02*
G75*
G03*
X116700000Y-100900000I-1700000J0D01*
G01*
%TO.C,TP1*%
X88900000Y-107800000D02*
G75*
G03*
X88900000Y-107800000I-1700000J0D01*
G01*
%TO.C,C9*%
X150010000Y-113216233D02*
X150010000Y-113508767D01*
X148990000Y-113216233D02*
X148990000Y-113508767D01*
%TO.C,F2*%
X137025533Y-117955600D02*
X137368067Y-117955600D01*
X137025533Y-118975600D02*
X137368067Y-118975600D01*
%TO.C,F1*%
X116965000Y-118701667D02*
X116965000Y-118359133D01*
X117985000Y-118701667D02*
X117985000Y-118359133D01*
%TO.C,R3*%
X174661300Y-72187524D02*
X174661300Y-71678076D01*
X175706300Y-72187524D02*
X175706300Y-71678076D01*
%TO.C,J9*%
X168596000Y-74786800D02*
X171256000Y-74786800D01*
X168596000Y-72186800D02*
X168596000Y-74786800D01*
X171256000Y-72186800D02*
X171256000Y-74786800D01*
X168596000Y-72186800D02*
X171256000Y-72186800D01*
X168596000Y-70916800D02*
X168596000Y-69586800D01*
X168596000Y-69586800D02*
X169926000Y-69586800D01*
%TO.C,R14*%
X96032776Y-110177500D02*
X96542224Y-110177500D01*
X96032776Y-111222500D02*
X96542224Y-111222500D01*
%TO.C,R13*%
X101347176Y-100620300D02*
X101856624Y-100620300D01*
X101347176Y-101665300D02*
X101856624Y-101665300D01*
%TO.C,R12*%
X105576900Y-112421576D02*
X105576900Y-112931024D01*
X104531900Y-112421576D02*
X104531900Y-112931024D01*
%TO.C,R11*%
X103799676Y-108494300D02*
X104309124Y-108494300D01*
X103799676Y-109539300D02*
X104309124Y-109539300D01*
%TO.C,R10*%
X103783676Y-104938300D02*
X104293124Y-104938300D01*
X103783676Y-105983300D02*
X104293124Y-105983300D01*
%TO.C,R9*%
X117499676Y-109510300D02*
X118009124Y-109510300D01*
X117499676Y-110555300D02*
X118009124Y-110555300D01*
%TO.C,R8*%
X119800900Y-113080076D02*
X119800900Y-113589524D01*
X118755900Y-113080076D02*
X118755900Y-113589524D01*
%TO.C,R7*%
X116469900Y-113589524D02*
X116469900Y-113080076D01*
X117514900Y-113589524D02*
X117514900Y-113080076D01*
%TO.C,R6*%
X140845624Y-104256100D02*
X140336176Y-104256100D01*
X140845624Y-103211100D02*
X140336176Y-103211100D01*
%TO.C,R5*%
X139739900Y-113996376D02*
X139739900Y-114505824D01*
X138694900Y-113996376D02*
X138694900Y-114505824D01*
%TO.C,R4*%
X143724100Y-67639024D02*
X143724100Y-67129576D01*
X144769100Y-67639024D02*
X144769100Y-67129576D01*
%TO.C,R2*%
X90473624Y-87720700D02*
X89964176Y-87720700D01*
X90473624Y-86675700D02*
X89964176Y-86675700D01*
%TO.C,C20*%
X96116233Y-113190000D02*
X96408767Y-113190000D01*
X96116233Y-114210000D02*
X96408767Y-114210000D01*
%TO.C,C19*%
X123979400Y-90380433D02*
X123979400Y-90672967D01*
X122959400Y-90380433D02*
X122959400Y-90672967D01*
%TO.C,C18*%
X110415800Y-113319433D02*
X110415800Y-113611967D01*
X109395800Y-113319433D02*
X109395800Y-113611967D01*
%TO.C,C17*%
X112447800Y-113362433D02*
X112447800Y-113654967D01*
X111427800Y-113362433D02*
X111427800Y-113654967D01*
%TO.C,C16*%
X135989600Y-114625167D02*
X135989600Y-114332633D01*
X137009600Y-114625167D02*
X137009600Y-114332633D01*
%TO.C,C15*%
X120911233Y-103325200D02*
X121203767Y-103325200D01*
X120911233Y-104345200D02*
X121203767Y-104345200D01*
%TO.C,C14*%
X147169600Y-93453833D02*
X147169600Y-93746367D01*
X146149600Y-93453833D02*
X146149600Y-93746367D01*
%TO.C,C13*%
X127328200Y-90647567D02*
X127328200Y-90355033D01*
X128348200Y-90647567D02*
X128348200Y-90355033D01*
%TO.C,C12*%
X145260600Y-108426467D02*
X145260600Y-108133933D01*
X146280600Y-108426467D02*
X146280600Y-108133933D01*
%TO.C,C11*%
X148795200Y-86875233D02*
X148795200Y-87167767D01*
X147775200Y-86875233D02*
X147775200Y-87167767D01*
%TO.C,C10*%
X91615800Y-69512567D02*
X91615800Y-69220033D01*
X92635800Y-69512567D02*
X92635800Y-69220033D01*
%TO.C,C8*%
X152490000Y-75683767D02*
X152490000Y-75391233D01*
X153510000Y-75683767D02*
X153510000Y-75391233D01*
%TO.C,C7*%
X95785400Y-102011433D02*
X95785400Y-102303967D01*
X94765400Y-102011433D02*
X94765400Y-102303967D01*
%TO.C,C6*%
X175890000Y-62683767D02*
X175890000Y-62391233D01*
X176910000Y-62683767D02*
X176910000Y-62391233D01*
%TO.C,C5*%
X177391233Y-116890000D02*
X177683767Y-116890000D01*
X177391233Y-117910000D02*
X177683767Y-117910000D01*
%TO.C,C4*%
X93114400Y-75762067D02*
X93114400Y-75469533D01*
X94134400Y-75762067D02*
X94134400Y-75469533D01*
%TO.C,C3*%
X96797400Y-75735567D02*
X96797400Y-75443033D01*
X97817400Y-75735567D02*
X97817400Y-75443033D01*
%TO.C,C2*%
X158110000Y-103191233D02*
X158110000Y-103483767D01*
X157090000Y-103191233D02*
X157090000Y-103483767D01*
%TO.C,D1*%
X122700000Y-115752200D02*
X122700000Y-114482200D01*
X123335000Y-114736200D02*
X122065000Y-114736200D01*
X122700000Y-114736200D02*
X123335000Y-115498200D01*
X122700000Y-114736200D02*
X123208000Y-115498200D01*
X122700000Y-114736200D02*
X123081000Y-115498200D01*
X122700000Y-114736200D02*
X122954000Y-115498200D01*
X122700000Y-114736200D02*
X122827000Y-115498200D01*
X122700000Y-114736200D02*
X122065000Y-115498200D01*
X122700000Y-114736200D02*
X122192000Y-115498200D01*
X122700000Y-114736200D02*
X122319000Y-115498200D01*
X122700000Y-114736200D02*
X122446000Y-115498200D01*
X122700000Y-114736200D02*
X122573000Y-115498200D01*
X123335000Y-115498200D02*
X122065000Y-115498200D01*
X121176000Y-116133200D02*
X121176000Y-121670400D01*
X121176000Y-121670400D02*
X121541760Y-121670400D01*
X124224000Y-121670400D02*
X124224000Y-116133200D01*
X124224000Y-116133200D02*
X123858240Y-116133200D01*
X121541760Y-116133200D02*
X121176000Y-116133200D01*
X123858240Y-121670400D02*
X124224000Y-121670400D01*
%TO.C,D2*%
X129477400Y-106830000D02*
X129477400Y-109070000D01*
X129477400Y-109070000D02*
X133717400Y-109070000D01*
X133717400Y-109070000D02*
X133717400Y-106830000D01*
X133717400Y-106830000D02*
X129477400Y-106830000D01*
X128827400Y-107950000D02*
X129477400Y-107950000D01*
X134367400Y-107950000D02*
X133717400Y-107950000D01*
X130197400Y-106830000D02*
X130197400Y-109070000D01*
X130317400Y-106830000D02*
X130317400Y-109070000D01*
X130077400Y-106830000D02*
X130077400Y-109070000D01*
%TO.C,J1*%
X85487200Y-81321600D02*
X85487200Y-83981600D01*
X88087200Y-81321600D02*
X85487200Y-81321600D01*
X88087200Y-83981600D02*
X85487200Y-83981600D01*
X88087200Y-81321600D02*
X88087200Y-83981600D01*
X89357200Y-81321600D02*
X90687200Y-81321600D01*
X90687200Y-81321600D02*
X90687200Y-82651600D01*
%TO.C,J7*%
X87935500Y-103845000D02*
X92685300Y-103845000D01*
X92685300Y-103845000D02*
X92685300Y-100085800D01*
X92685300Y-100085800D02*
X87935500Y-100085800D01*
X87935500Y-100085800D02*
X87935500Y-103845000D01*
X86538500Y-102412800D02*
G75*
G03*
X86538500Y-102412800I-381000J0D01*
G01*
%TO.C,J8*%
X179032200Y-112024900D02*
X179032200Y-107275100D01*
X179032200Y-107275100D02*
X175273000Y-107275100D01*
X175273000Y-107275100D02*
X175273000Y-112024900D01*
X175273000Y-112024900D02*
X179032200Y-112024900D01*
X177981000Y-113802900D02*
G75*
G03*
X177981000Y-113802900I-381000J0D01*
G01*
%TO.C,J10*%
X172224900Y-60967800D02*
X167475100Y-60967800D01*
X167475100Y-60967800D02*
X167475100Y-64727000D01*
X167475100Y-64727000D02*
X172224900Y-64727000D01*
X172224900Y-64727000D02*
X172224900Y-60967800D01*
X174383900Y-62400000D02*
G75*
G03*
X174383900Y-62400000I-381000J0D01*
G01*
%TO.C,J11*%
X160432200Y-77224900D02*
X160432200Y-72475100D01*
X160432200Y-72475100D02*
X156673000Y-72475100D01*
X156673000Y-72475100D02*
X156673000Y-77224900D01*
X156673000Y-77224900D02*
X160432200Y-77224900D01*
X159381000Y-79002900D02*
G75*
G03*
X159381000Y-79002900I-381000J0D01*
G01*
%TO.C,J12*%
X156432200Y-114124900D02*
X156432200Y-109375100D01*
X156432200Y-109375100D02*
X152673000Y-109375100D01*
X152673000Y-109375100D02*
X152673000Y-114124900D01*
X152673000Y-114124900D02*
X156432200Y-114124900D01*
X155381000Y-115902900D02*
G75*
G03*
X155381000Y-115902900I-381000J0D01*
G01*
%TO.C,J13*%
X132825800Y-63033600D02*
X130165800Y-63033600D01*
X132825800Y-68173600D02*
X132825800Y-63033600D01*
X130165800Y-68173600D02*
X130165800Y-63033600D01*
X132825800Y-68173600D02*
X130165800Y-68173600D01*
X132825800Y-69443600D02*
X132825800Y-70773600D01*
X132825800Y-70773600D02*
X131495800Y-70773600D01*
%TO.C,J14*%
X140953800Y-61662000D02*
X138293800Y-61662000D01*
X140953800Y-69342000D02*
X140953800Y-61662000D01*
X138293800Y-69342000D02*
X138293800Y-61662000D01*
X140953800Y-69342000D02*
X138293800Y-69342000D01*
X140953800Y-70612000D02*
X140953800Y-71942000D01*
X140953800Y-71942000D02*
X139623800Y-71942000D01*
%TO.C,J15*%
X149589800Y-76038400D02*
X146929800Y-76038400D01*
X149589800Y-78638400D02*
X149589800Y-76038400D01*
X146929800Y-78638400D02*
X146929800Y-76038400D01*
X149589800Y-78638400D02*
X146929800Y-78638400D01*
X149589800Y-79908400D02*
X149589800Y-81238400D01*
X149589800Y-81238400D02*
X148259800Y-81238400D01*
%TO.C,J16*%
X147056800Y-70367200D02*
X149716800Y-70367200D01*
X147056800Y-65227200D02*
X147056800Y-70367200D01*
X149716800Y-65227200D02*
X149716800Y-70367200D01*
X147056800Y-65227200D02*
X149716800Y-65227200D01*
X147056800Y-63957200D02*
X147056800Y-62627200D01*
X147056800Y-62627200D02*
X148386800Y-62627200D01*
D11*
%TO.C,J17*%
X109138400Y-116854800D02*
G75*
G03*
X109138400Y-116854800I-100000J0D01*
G01*
D12*
X106688400Y-122404800D02*
X114088400Y-122404800D01*
X114088400Y-122134800D02*
X114088400Y-122404800D01*
X106688400Y-122404800D02*
X106688400Y-122134800D01*
X114088400Y-118104800D02*
X113908400Y-118104800D01*
X106688400Y-118104800D02*
X106868400Y-118104800D01*
X114088400Y-118104800D02*
X114088400Y-119859800D01*
X106688400Y-118104800D02*
X106688400Y-119859800D01*
D10*
%TO.C,Q1*%
X139651200Y-106649400D02*
X139651200Y-107579400D01*
X139651200Y-109809400D02*
X139651200Y-108879400D01*
X139651200Y-109809400D02*
X141811200Y-109809400D01*
X139651200Y-106649400D02*
X141111200Y-106649400D01*
%TO.C,Q2*%
X142067400Y-98808000D02*
X141137400Y-98808000D01*
X138907400Y-98808000D02*
X139837400Y-98808000D01*
X138907400Y-98808000D02*
X138907400Y-100968000D01*
X142067400Y-98808000D02*
X142067400Y-100268000D01*
%TO.C,Q3*%
X133834600Y-97988000D02*
X133834600Y-98918000D01*
X133834600Y-101148000D02*
X133834600Y-100218000D01*
X133834600Y-101148000D02*
X135994600Y-101148000D01*
X133834600Y-97988000D02*
X135294600Y-97988000D01*
%TO.C,Q4*%
X107592400Y-101706800D02*
X107592400Y-100776800D01*
X107592400Y-98546800D02*
X107592400Y-99476800D01*
X107592400Y-98546800D02*
X105432400Y-98546800D01*
X107592400Y-101706800D02*
X106132400Y-101706800D01*
%TO.C,Q5*%
X101246400Y-110992800D02*
X101246400Y-111922800D01*
X101246400Y-114152800D02*
X101246400Y-113222800D01*
X101246400Y-114152800D02*
X103406400Y-114152800D01*
X101246400Y-110992800D02*
X102706400Y-110992800D01*
%TO.C,RV1*%
X155235400Y-67965201D02*
X162489401Y-67965201D01*
X162489401Y-67965201D02*
X162489401Y-60711199D01*
X162489401Y-60711199D02*
X155235400Y-60711199D01*
X155235400Y-60711199D02*
X155235400Y-67965201D01*
X154489401Y-69108200D02*
G75*
G03*
X154489401Y-69108200I-127000J0D01*
G01*
%TO.C,SW1*%
X134400000Y-122100000D02*
X127400000Y-122100000D01*
X134400000Y-115100000D02*
X134400000Y-122100000D01*
X127400000Y-115100000D02*
X134400000Y-115100000D01*
X127400000Y-122100000D02*
X127400000Y-115100000D01*
%TO.C,SW2*%
X104200000Y-122100000D02*
X97200000Y-122100000D01*
X104200000Y-115100000D02*
X104200000Y-122100000D01*
X97200000Y-115100000D02*
X104200000Y-115100000D01*
X97200000Y-122100000D02*
X97200000Y-115100000D01*
%TO.C,U1*%
X164494800Y-81039000D02*
X162844800Y-81039000D01*
X162844800Y-81039000D02*
X162844800Y-116719000D01*
X162844800Y-116719000D02*
X168144800Y-116719000D01*
X168144800Y-116719000D02*
X168144800Y-81039000D01*
X168144800Y-81039000D02*
X166494800Y-81039000D01*
X166494800Y-81039000D02*
G75*
G02*
X164494800Y-81039000I-1000000J0D01*
G01*
%TO.C,U2*%
X101268400Y-90684800D02*
X101268400Y-91464800D01*
X101268400Y-91464800D02*
X102268400Y-91464800D01*
X119508400Y-90684800D02*
X119508400Y-91464800D01*
X119508400Y-91464800D02*
X118508400Y-91464800D01*
X101268400Y-65719800D02*
X119508400Y-65719800D01*
X119508400Y-65719800D02*
X119508400Y-72139800D01*
X101268400Y-65719800D02*
X101268400Y-72139800D01*
X101268400Y-72139800D02*
X100888400Y-72139800D01*
%TO.C,U4*%
X143422800Y-115579800D02*
X145222800Y-115579800D01*
X145222800Y-112359800D02*
X142772800Y-112359800D01*
%TO.C,U5*%
X133204600Y-88613600D02*
X133204600Y-90113600D01*
X133204600Y-90113600D02*
X135014600Y-90113600D01*
X135014600Y-90113600D02*
X135014600Y-95238600D01*
X143604600Y-88613600D02*
X143604600Y-90113600D01*
X143604600Y-90113600D02*
X141794600Y-90113600D01*
X141794600Y-90113600D02*
X141794600Y-91213600D01*
%TO.C,U6*%
X120230900Y-100330000D02*
X122085100Y-100330000D01*
X120230900Y-98351340D02*
X120230900Y-99159060D01*
X122085100Y-97180400D02*
X120230900Y-97180400D01*
%TO.C,U7*%
X108286400Y-105099800D02*
X108286400Y-104374800D01*
X108286400Y-104374800D02*
X109011400Y-104374800D01*
X113506400Y-108869800D02*
X113506400Y-109594800D01*
X113506400Y-109594800D02*
X112781400Y-109594800D01*
X113506400Y-105099800D02*
X113506400Y-104374800D01*
X113506400Y-104374800D02*
X112781400Y-104374800D01*
X108286400Y-108869800D02*
X108286400Y-109594800D01*
%TO.C,J18*%
X85893600Y-76717200D02*
X88553600Y-76717200D01*
X85893600Y-69037200D02*
X85893600Y-76717200D01*
X88553600Y-69037200D02*
X88553600Y-76717200D01*
X85893600Y-69037200D02*
X88553600Y-69037200D01*
X85893600Y-67767200D02*
X85893600Y-66437200D01*
X85893600Y-66437200D02*
X87223600Y-66437200D01*
%TO.C,J3*%
D13*
X154266666Y-78922380D02*
X154266666Y-79636666D01*
X154219047Y-79779523D01*
X154123809Y-79874761D01*
X153980952Y-79922380D01*
X153885714Y-79922380D01*
X154647619Y-78922380D02*
X155266666Y-78922380D01*
X154933333Y-79303333D01*
X155076190Y-79303333D01*
X155171428Y-79350952D01*
X155219047Y-79398571D01*
X155266666Y-79493809D01*
X155266666Y-79731904D01*
X155219047Y-79827142D01*
X155171428Y-79874761D01*
X155076190Y-79922380D01*
X154790476Y-79922380D01*
X154695238Y-79874761D01*
X154647619Y-79827142D01*
%TO.C,J6*%
X177066666Y-91122380D02*
X177066666Y-91836666D01*
X177019047Y-91979523D01*
X176923809Y-92074761D01*
X176780952Y-92122380D01*
X176685714Y-92122380D01*
X177971428Y-91122380D02*
X177780952Y-91122380D01*
X177685714Y-91170000D01*
X177638095Y-91217619D01*
X177542857Y-91360476D01*
X177495238Y-91550952D01*
X177495238Y-91931904D01*
X177542857Y-92027142D01*
X177590476Y-92074761D01*
X177685714Y-92122380D01*
X177876190Y-92122380D01*
X177971428Y-92074761D01*
X178019047Y-92027142D01*
X178066666Y-91931904D01*
X178066666Y-91693809D01*
X178019047Y-91598571D01*
X177971428Y-91550952D01*
X177876190Y-91503333D01*
X177685714Y-91503333D01*
X177590476Y-91550952D01*
X177542857Y-91598571D01*
X177495238Y-91693809D01*
%TO.C,J5*%
X177066666Y-103982380D02*
X177066666Y-104696666D01*
X177019047Y-104839523D01*
X176923809Y-104934761D01*
X176780952Y-104982380D01*
X176685714Y-104982380D01*
X178019047Y-103982380D02*
X177542857Y-103982380D01*
X177495238Y-104458571D01*
X177542857Y-104410952D01*
X177638095Y-104363333D01*
X177876190Y-104363333D01*
X177971428Y-104410952D01*
X178019047Y-104458571D01*
X178066666Y-104553809D01*
X178066666Y-104791904D01*
X178019047Y-104887142D01*
X177971428Y-104934761D01*
X177876190Y-104982380D01*
X177638095Y-104982380D01*
X177542857Y-104934761D01*
X177495238Y-104887142D01*
%TO.C,J4*%
X153066666Y-91922380D02*
X153066666Y-92636666D01*
X153019047Y-92779523D01*
X152923809Y-92874761D01*
X152780952Y-92922380D01*
X152685714Y-92922380D01*
X153971428Y-92255714D02*
X153971428Y-92922380D01*
X153733333Y-91874761D02*
X153495238Y-92589047D01*
X154114285Y-92589047D01*
%TO.C,J2*%
X95466666Y-80522380D02*
X95466666Y-81236666D01*
X95419047Y-81379523D01*
X95323809Y-81474761D01*
X95180952Y-81522380D01*
X95085714Y-81522380D01*
X95895238Y-80617619D02*
X95942857Y-80570000D01*
X96038095Y-80522380D01*
X96276190Y-80522380D01*
X96371428Y-80570000D01*
X96419047Y-80617619D01*
X96466666Y-80712857D01*
X96466666Y-80808095D01*
X96419047Y-80950952D01*
X95847619Y-81522380D01*
X96466666Y-81522380D01*
%TO.C,TP5*%
X152838095Y-116054380D02*
X153409523Y-116054380D01*
X153123809Y-117054380D02*
X153123809Y-116054380D01*
X153742857Y-117054380D02*
X153742857Y-116054380D01*
X154123809Y-116054380D01*
X154219047Y-116102000D01*
X154266666Y-116149619D01*
X154314285Y-116244857D01*
X154314285Y-116387714D01*
X154266666Y-116482952D01*
X154219047Y-116530571D01*
X154123809Y-116578190D01*
X153742857Y-116578190D01*
X155219047Y-116054380D02*
X154742857Y-116054380D01*
X154695238Y-116530571D01*
X154742857Y-116482952D01*
X154838095Y-116435333D01*
X155076190Y-116435333D01*
X155171428Y-116482952D01*
X155219047Y-116530571D01*
X155266666Y-116625809D01*
X155266666Y-116863904D01*
X155219047Y-116959142D01*
X155171428Y-117006761D01*
X155076190Y-117054380D01*
X154838095Y-117054380D01*
X154742857Y-117006761D01*
X154695238Y-116959142D01*
%TO.C,TP4*%
X91238095Y-109952380D02*
X91809523Y-109952380D01*
X91523809Y-110952380D02*
X91523809Y-109952380D01*
X92142857Y-110952380D02*
X92142857Y-109952380D01*
X92523809Y-109952380D01*
X92619047Y-110000000D01*
X92666666Y-110047619D01*
X92714285Y-110142857D01*
X92714285Y-110285714D01*
X92666666Y-110380952D01*
X92619047Y-110428571D01*
X92523809Y-110476190D01*
X92142857Y-110476190D01*
X93571428Y-110285714D02*
X93571428Y-110952380D01*
X93333333Y-109904761D02*
X93095238Y-110619047D01*
X93714285Y-110619047D01*
%TO.C,TP3*%
X91038095Y-112954380D02*
X91609523Y-112954380D01*
X91323809Y-113954380D02*
X91323809Y-112954380D01*
X91942857Y-113954380D02*
X91942857Y-112954380D01*
X92323809Y-112954380D01*
X92419047Y-113002000D01*
X92466666Y-113049619D01*
X92514285Y-113144857D01*
X92514285Y-113287714D01*
X92466666Y-113382952D01*
X92419047Y-113430571D01*
X92323809Y-113478190D01*
X91942857Y-113478190D01*
X92847619Y-112954380D02*
X93466666Y-112954380D01*
X93133333Y-113335333D01*
X93276190Y-113335333D01*
X93371428Y-113382952D01*
X93419047Y-113430571D01*
X93466666Y-113525809D01*
X93466666Y-113763904D01*
X93419047Y-113859142D01*
X93371428Y-113906761D01*
X93276190Y-113954380D01*
X92990476Y-113954380D01*
X92895238Y-113906761D01*
X92847619Y-113859142D01*
%TO.C,TP2*%
X113738095Y-97854380D02*
X114309523Y-97854380D01*
X114023809Y-98854380D02*
X114023809Y-97854380D01*
X114642857Y-98854380D02*
X114642857Y-97854380D01*
X115023809Y-97854380D01*
X115119047Y-97902000D01*
X115166666Y-97949619D01*
X115214285Y-98044857D01*
X115214285Y-98187714D01*
X115166666Y-98282952D01*
X115119047Y-98330571D01*
X115023809Y-98378190D01*
X114642857Y-98378190D01*
X115595238Y-97949619D02*
X115642857Y-97902000D01*
X115738095Y-97854380D01*
X115976190Y-97854380D01*
X116071428Y-97902000D01*
X116119047Y-97949619D01*
X116166666Y-98044857D01*
X116166666Y-98140095D01*
X116119047Y-98282952D01*
X115547619Y-98854380D01*
X116166666Y-98854380D01*
%TO.C,TP1*%
X86038095Y-110552380D02*
X86609523Y-110552380D01*
X86323809Y-111552380D02*
X86323809Y-110552380D01*
X86942857Y-111552380D02*
X86942857Y-110552380D01*
X87323809Y-110552380D01*
X87419047Y-110600000D01*
X87466666Y-110647619D01*
X87514285Y-110742857D01*
X87514285Y-110885714D01*
X87466666Y-110980952D01*
X87419047Y-111028571D01*
X87323809Y-111076190D01*
X86942857Y-111076190D01*
X88466666Y-111552380D02*
X87895238Y-111552380D01*
X88180952Y-111552380D02*
X88180952Y-110552380D01*
X88085714Y-110695238D01*
X87990476Y-110790476D01*
X87895238Y-110838095D01*
%TO.C,C9*%
X151287142Y-113529166D02*
X151334761Y-113576785D01*
X151382380Y-113719642D01*
X151382380Y-113814880D01*
X151334761Y-113957738D01*
X151239523Y-114052976D01*
X151144285Y-114100595D01*
X150953809Y-114148214D01*
X150810952Y-114148214D01*
X150620476Y-114100595D01*
X150525238Y-114052976D01*
X150430000Y-113957738D01*
X150382380Y-113814880D01*
X150382380Y-113719642D01*
X150430000Y-113576785D01*
X150477619Y-113529166D01*
X151382380Y-113052976D02*
X151382380Y-112862500D01*
X151334761Y-112767261D01*
X151287142Y-112719642D01*
X151144285Y-112624404D01*
X150953809Y-112576785D01*
X150572857Y-112576785D01*
X150477619Y-112624404D01*
X150430000Y-112672023D01*
X150382380Y-112767261D01*
X150382380Y-112957738D01*
X150430000Y-113052976D01*
X150477619Y-113100595D01*
X150572857Y-113148214D01*
X150810952Y-113148214D01*
X150906190Y-113100595D01*
X150953809Y-113052976D01*
X151001428Y-112957738D01*
X151001428Y-112767261D01*
X150953809Y-112672023D01*
X150906190Y-112624404D01*
X150810952Y-112576785D01*
%TO.C,SW3*%
X126609361Y-100240933D02*
X126656980Y-100098076D01*
X126656980Y-99859980D01*
X126609361Y-99764742D01*
X126561742Y-99717123D01*
X126466504Y-99669504D01*
X126371266Y-99669504D01*
X126276028Y-99717123D01*
X126228409Y-99764742D01*
X126180790Y-99859980D01*
X126133171Y-100050457D01*
X126085552Y-100145695D01*
X126037933Y-100193314D01*
X125942695Y-100240933D01*
X125847457Y-100240933D01*
X125752219Y-100193314D01*
X125704600Y-100145695D01*
X125656980Y-100050457D01*
X125656980Y-99812361D01*
X125704600Y-99669504D01*
X125656980Y-99336171D02*
X126656980Y-99098076D01*
X125942695Y-98907600D01*
X126656980Y-98717123D01*
X125656980Y-98479028D01*
X125656980Y-98193314D02*
X125656980Y-97574266D01*
X126037933Y-97907600D01*
X126037933Y-97764742D01*
X126085552Y-97669504D01*
X126133171Y-97621885D01*
X126228409Y-97574266D01*
X126466504Y-97574266D01*
X126561742Y-97621885D01*
X126609361Y-97669504D01*
X126656980Y-97764742D01*
X126656980Y-98050457D01*
X126609361Y-98145695D01*
X126561742Y-98193314D01*
%TO.C,F2*%
X136863466Y-116964171D02*
X136530133Y-116964171D01*
X136530133Y-117487980D02*
X136530133Y-116487980D01*
X137006323Y-116487980D01*
X137339657Y-116583219D02*
X137387276Y-116535600D01*
X137482514Y-116487980D01*
X137720609Y-116487980D01*
X137815847Y-116535600D01*
X137863466Y-116583219D01*
X137911085Y-116678457D01*
X137911085Y-116773695D01*
X137863466Y-116916552D01*
X137292038Y-117487980D01*
X137911085Y-117487980D01*
%TO.C,F1*%
X115973571Y-118863733D02*
X115973571Y-119197066D01*
X116497380Y-119197066D02*
X115497380Y-119197066D01*
X115497380Y-118720876D01*
X116497380Y-117816114D02*
X116497380Y-118387542D01*
X116497380Y-118101828D02*
X115497380Y-118101828D01*
X115640238Y-118197066D01*
X115735476Y-118292304D01*
X115783095Y-118387542D01*
%TO.C,R3*%
X174206180Y-72099466D02*
X173729990Y-72432800D01*
X174206180Y-72670895D02*
X173206180Y-72670895D01*
X173206180Y-72289942D01*
X173253800Y-72194704D01*
X173301419Y-72147085D01*
X173396657Y-72099466D01*
X173539514Y-72099466D01*
X173634752Y-72147085D01*
X173682371Y-72194704D01*
X173729990Y-72289942D01*
X173729990Y-72670895D01*
X173206180Y-71766133D02*
X173206180Y-71147085D01*
X173587133Y-71480419D01*
X173587133Y-71337561D01*
X173634752Y-71242323D01*
X173682371Y-71194704D01*
X173777609Y-71147085D01*
X174015704Y-71147085D01*
X174110942Y-71194704D01*
X174158561Y-71242323D01*
X174206180Y-71337561D01*
X174206180Y-71623276D01*
X174158561Y-71718514D01*
X174110942Y-71766133D01*
%TO.C,J9*%
X169592666Y-68039180D02*
X169592666Y-68753466D01*
X169545047Y-68896323D01*
X169449809Y-68991561D01*
X169306952Y-69039180D01*
X169211714Y-69039180D01*
X170116476Y-69039180D02*
X170306952Y-69039180D01*
X170402190Y-68991561D01*
X170449809Y-68943942D01*
X170545047Y-68801085D01*
X170592666Y-68610609D01*
X170592666Y-68229657D01*
X170545047Y-68134419D01*
X170497428Y-68086800D01*
X170402190Y-68039180D01*
X170211714Y-68039180D01*
X170116476Y-68086800D01*
X170068857Y-68134419D01*
X170021238Y-68229657D01*
X170021238Y-68467752D01*
X170068857Y-68562990D01*
X170116476Y-68610609D01*
X170211714Y-68658228D01*
X170402190Y-68658228D01*
X170497428Y-68610609D01*
X170545047Y-68562990D01*
X170592666Y-68467752D01*
%TO.C,R14*%
X95644642Y-109722380D02*
X95311309Y-109246190D01*
X95073214Y-109722380D02*
X95073214Y-108722380D01*
X95454166Y-108722380D01*
X95549404Y-108770000D01*
X95597023Y-108817619D01*
X95644642Y-108912857D01*
X95644642Y-109055714D01*
X95597023Y-109150952D01*
X95549404Y-109198571D01*
X95454166Y-109246190D01*
X95073214Y-109246190D01*
X96597023Y-109722380D02*
X96025595Y-109722380D01*
X96311309Y-109722380D02*
X96311309Y-108722380D01*
X96216071Y-108865238D01*
X96120833Y-108960476D01*
X96025595Y-109008095D01*
X97454166Y-109055714D02*
X97454166Y-109722380D01*
X97216071Y-108674761D02*
X96977976Y-109389047D01*
X97597023Y-109389047D01*
%TO.C,R13*%
X100959042Y-100165180D02*
X100625709Y-99688990D01*
X100387614Y-100165180D02*
X100387614Y-99165180D01*
X100768566Y-99165180D01*
X100863804Y-99212800D01*
X100911423Y-99260419D01*
X100959042Y-99355657D01*
X100959042Y-99498514D01*
X100911423Y-99593752D01*
X100863804Y-99641371D01*
X100768566Y-99688990D01*
X100387614Y-99688990D01*
X101911423Y-100165180D02*
X101339995Y-100165180D01*
X101625709Y-100165180D02*
X101625709Y-99165180D01*
X101530471Y-99308038D01*
X101435233Y-99403276D01*
X101339995Y-99450895D01*
X102244757Y-99165180D02*
X102863804Y-99165180D01*
X102530471Y-99546133D01*
X102673328Y-99546133D01*
X102768566Y-99593752D01*
X102816185Y-99641371D01*
X102863804Y-99736609D01*
X102863804Y-99974704D01*
X102816185Y-100069942D01*
X102768566Y-100117561D01*
X102673328Y-100165180D01*
X102387614Y-100165180D01*
X102292376Y-100117561D01*
X102244757Y-100069942D01*
%TO.C,R12*%
X106936780Y-113319157D02*
X106460590Y-113652490D01*
X106936780Y-113890585D02*
X105936780Y-113890585D01*
X105936780Y-113509633D01*
X105984400Y-113414395D01*
X106032019Y-113366776D01*
X106127257Y-113319157D01*
X106270114Y-113319157D01*
X106365352Y-113366776D01*
X106412971Y-113414395D01*
X106460590Y-113509633D01*
X106460590Y-113890585D01*
X106936780Y-112366776D02*
X106936780Y-112938204D01*
X106936780Y-112652490D02*
X105936780Y-112652490D01*
X106079638Y-112747728D01*
X106174876Y-112842966D01*
X106222495Y-112938204D01*
X106032019Y-111985823D02*
X105984400Y-111938204D01*
X105936780Y-111842966D01*
X105936780Y-111604871D01*
X105984400Y-111509633D01*
X106032019Y-111462014D01*
X106127257Y-111414395D01*
X106222495Y-111414395D01*
X106365352Y-111462014D01*
X106936780Y-112033442D01*
X106936780Y-111414395D01*
%TO.C,R11*%
X103411542Y-108039180D02*
X103078209Y-107562990D01*
X102840114Y-108039180D02*
X102840114Y-107039180D01*
X103221066Y-107039180D01*
X103316304Y-107086800D01*
X103363923Y-107134419D01*
X103411542Y-107229657D01*
X103411542Y-107372514D01*
X103363923Y-107467752D01*
X103316304Y-107515371D01*
X103221066Y-107562990D01*
X102840114Y-107562990D01*
X104363923Y-108039180D02*
X103792495Y-108039180D01*
X104078209Y-108039180D02*
X104078209Y-107039180D01*
X103982971Y-107182038D01*
X103887733Y-107277276D01*
X103792495Y-107324895D01*
X105316304Y-108039180D02*
X104744876Y-108039180D01*
X105030590Y-108039180D02*
X105030590Y-107039180D01*
X104935352Y-107182038D01*
X104840114Y-107277276D01*
X104744876Y-107324895D01*
%TO.C,R10*%
X103395542Y-104483180D02*
X103062209Y-104006990D01*
X102824114Y-104483180D02*
X102824114Y-103483180D01*
X103205066Y-103483180D01*
X103300304Y-103530800D01*
X103347923Y-103578419D01*
X103395542Y-103673657D01*
X103395542Y-103816514D01*
X103347923Y-103911752D01*
X103300304Y-103959371D01*
X103205066Y-104006990D01*
X102824114Y-104006990D01*
X104347923Y-104483180D02*
X103776495Y-104483180D01*
X104062209Y-104483180D02*
X104062209Y-103483180D01*
X103966971Y-103626038D01*
X103871733Y-103721276D01*
X103776495Y-103768895D01*
X104966971Y-103483180D02*
X105062209Y-103483180D01*
X105157447Y-103530800D01*
X105205066Y-103578419D01*
X105252685Y-103673657D01*
X105300304Y-103864133D01*
X105300304Y-104102228D01*
X105252685Y-104292704D01*
X105205066Y-104387942D01*
X105157447Y-104435561D01*
X105062209Y-104483180D01*
X104966971Y-104483180D01*
X104871733Y-104435561D01*
X104824114Y-104387942D01*
X104776495Y-104292704D01*
X104728876Y-104102228D01*
X104728876Y-103864133D01*
X104776495Y-103673657D01*
X104824114Y-103578419D01*
X104871733Y-103530800D01*
X104966971Y-103483180D01*
%TO.C,R9*%
X117587733Y-109055180D02*
X117254400Y-108578990D01*
X117016304Y-109055180D02*
X117016304Y-108055180D01*
X117397257Y-108055180D01*
X117492495Y-108102800D01*
X117540114Y-108150419D01*
X117587733Y-108245657D01*
X117587733Y-108388514D01*
X117540114Y-108483752D01*
X117492495Y-108531371D01*
X117397257Y-108578990D01*
X117016304Y-108578990D01*
X118063923Y-109055180D02*
X118254400Y-109055180D01*
X118349638Y-109007561D01*
X118397257Y-108959942D01*
X118492495Y-108817085D01*
X118540114Y-108626609D01*
X118540114Y-108245657D01*
X118492495Y-108150419D01*
X118444876Y-108102800D01*
X118349638Y-108055180D01*
X118159161Y-108055180D01*
X118063923Y-108102800D01*
X118016304Y-108150419D01*
X117968685Y-108245657D01*
X117968685Y-108483752D01*
X118016304Y-108578990D01*
X118063923Y-108626609D01*
X118159161Y-108674228D01*
X118349638Y-108674228D01*
X118444876Y-108626609D01*
X118492495Y-108578990D01*
X118540114Y-108483752D01*
%TO.C,R8*%
X121160780Y-113501466D02*
X120684590Y-113834800D01*
X121160780Y-114072895D02*
X120160780Y-114072895D01*
X120160780Y-113691942D01*
X120208400Y-113596704D01*
X120256019Y-113549085D01*
X120351257Y-113501466D01*
X120494114Y-113501466D01*
X120589352Y-113549085D01*
X120636971Y-113596704D01*
X120684590Y-113691942D01*
X120684590Y-114072895D01*
X120589352Y-112930038D02*
X120541733Y-113025276D01*
X120494114Y-113072895D01*
X120398876Y-113120514D01*
X120351257Y-113120514D01*
X120256019Y-113072895D01*
X120208400Y-113025276D01*
X120160780Y-112930038D01*
X120160780Y-112739561D01*
X120208400Y-112644323D01*
X120256019Y-112596704D01*
X120351257Y-112549085D01*
X120398876Y-112549085D01*
X120494114Y-112596704D01*
X120541733Y-112644323D01*
X120589352Y-112739561D01*
X120589352Y-112930038D01*
X120636971Y-113025276D01*
X120684590Y-113072895D01*
X120779828Y-113120514D01*
X120970304Y-113120514D01*
X121065542Y-113072895D01*
X121113161Y-113025276D01*
X121160780Y-112930038D01*
X121160780Y-112739561D01*
X121113161Y-112644323D01*
X121065542Y-112596704D01*
X120970304Y-112549085D01*
X120779828Y-112549085D01*
X120684590Y-112596704D01*
X120636971Y-112644323D01*
X120589352Y-112739561D01*
%TO.C,R7*%
X116014780Y-113501466D02*
X115538590Y-113834800D01*
X116014780Y-114072895D02*
X115014780Y-114072895D01*
X115014780Y-113691942D01*
X115062400Y-113596704D01*
X115110019Y-113549085D01*
X115205257Y-113501466D01*
X115348114Y-113501466D01*
X115443352Y-113549085D01*
X115490971Y-113596704D01*
X115538590Y-113691942D01*
X115538590Y-114072895D01*
X115014780Y-113168133D02*
X115014780Y-112501466D01*
X116014780Y-112930038D01*
%TO.C,R6*%
X140424233Y-105615980D02*
X140090900Y-105139790D01*
X139852804Y-105615980D02*
X139852804Y-104615980D01*
X140233757Y-104615980D01*
X140328995Y-104663600D01*
X140376614Y-104711219D01*
X140424233Y-104806457D01*
X140424233Y-104949314D01*
X140376614Y-105044552D01*
X140328995Y-105092171D01*
X140233757Y-105139790D01*
X139852804Y-105139790D01*
X141281376Y-104615980D02*
X141090900Y-104615980D01*
X140995661Y-104663600D01*
X140948042Y-104711219D01*
X140852804Y-104854076D01*
X140805185Y-105044552D01*
X140805185Y-105425504D01*
X140852804Y-105520742D01*
X140900423Y-105568361D01*
X140995661Y-105615980D01*
X141186138Y-105615980D01*
X141281376Y-105568361D01*
X141328995Y-105520742D01*
X141376614Y-105425504D01*
X141376614Y-105187409D01*
X141328995Y-105092171D01*
X141281376Y-105044552D01*
X141186138Y-104996933D01*
X140995661Y-104996933D01*
X140900423Y-105044552D01*
X140852804Y-105092171D01*
X140805185Y-105187409D01*
%TO.C,R5*%
X141099780Y-114417766D02*
X140623590Y-114751100D01*
X141099780Y-114989195D02*
X140099780Y-114989195D01*
X140099780Y-114608242D01*
X140147400Y-114513004D01*
X140195019Y-114465385D01*
X140290257Y-114417766D01*
X140433114Y-114417766D01*
X140528352Y-114465385D01*
X140575971Y-114513004D01*
X140623590Y-114608242D01*
X140623590Y-114989195D01*
X140099780Y-113513004D02*
X140099780Y-113989195D01*
X140575971Y-114036814D01*
X140528352Y-113989195D01*
X140480733Y-113893957D01*
X140480733Y-113655861D01*
X140528352Y-113560623D01*
X140575971Y-113513004D01*
X140671209Y-113465385D01*
X140909304Y-113465385D01*
X141004542Y-113513004D01*
X141052161Y-113560623D01*
X141099780Y-113655861D01*
X141099780Y-113893957D01*
X141052161Y-113989195D01*
X141004542Y-114036814D01*
%TO.C,R4*%
X143268980Y-67550966D02*
X142792790Y-67884300D01*
X143268980Y-68122395D02*
X142268980Y-68122395D01*
X142268980Y-67741442D01*
X142316600Y-67646204D01*
X142364219Y-67598585D01*
X142459457Y-67550966D01*
X142602314Y-67550966D01*
X142697552Y-67598585D01*
X142745171Y-67646204D01*
X142792790Y-67741442D01*
X142792790Y-68122395D01*
X142602314Y-66693823D02*
X143268980Y-66693823D01*
X142221361Y-66931919D02*
X142935647Y-67170014D01*
X142935647Y-66550966D01*
%TO.C,R2*%
X90052233Y-89080580D02*
X89718900Y-88604390D01*
X89480804Y-89080580D02*
X89480804Y-88080580D01*
X89861757Y-88080580D01*
X89956995Y-88128200D01*
X90004614Y-88175819D01*
X90052233Y-88271057D01*
X90052233Y-88413914D01*
X90004614Y-88509152D01*
X89956995Y-88556771D01*
X89861757Y-88604390D01*
X89480804Y-88604390D01*
X90433185Y-88175819D02*
X90480804Y-88128200D01*
X90576042Y-88080580D01*
X90814138Y-88080580D01*
X90909376Y-88128200D01*
X90956995Y-88175819D01*
X91004614Y-88271057D01*
X91004614Y-88366295D01*
X90956995Y-88509152D01*
X90385566Y-89080580D01*
X91004614Y-89080580D01*
%TO.C,C20*%
X95619642Y-112627142D02*
X95572023Y-112674761D01*
X95429166Y-112722380D01*
X95333928Y-112722380D01*
X95191071Y-112674761D01*
X95095833Y-112579523D01*
X95048214Y-112484285D01*
X95000595Y-112293809D01*
X95000595Y-112150952D01*
X95048214Y-111960476D01*
X95095833Y-111865238D01*
X95191071Y-111770000D01*
X95333928Y-111722380D01*
X95429166Y-111722380D01*
X95572023Y-111770000D01*
X95619642Y-111817619D01*
X96000595Y-111817619D02*
X96048214Y-111770000D01*
X96143452Y-111722380D01*
X96381547Y-111722380D01*
X96476785Y-111770000D01*
X96524404Y-111817619D01*
X96572023Y-111912857D01*
X96572023Y-112008095D01*
X96524404Y-112150952D01*
X95952976Y-112722380D01*
X96572023Y-112722380D01*
X97191071Y-111722380D02*
X97286309Y-111722380D01*
X97381547Y-111770000D01*
X97429166Y-111817619D01*
X97476785Y-111912857D01*
X97524404Y-112103333D01*
X97524404Y-112341428D01*
X97476785Y-112531904D01*
X97429166Y-112627142D01*
X97381547Y-112674761D01*
X97286309Y-112722380D01*
X97191071Y-112722380D01*
X97095833Y-112674761D01*
X97048214Y-112627142D01*
X97000595Y-112531904D01*
X96952976Y-112341428D01*
X96952976Y-112103333D01*
X97000595Y-111912857D01*
X97048214Y-111817619D01*
X97095833Y-111770000D01*
X97191071Y-111722380D01*
%TO.C,C19*%
X125256542Y-91169557D02*
X125304161Y-91217176D01*
X125351780Y-91360033D01*
X125351780Y-91455271D01*
X125304161Y-91598128D01*
X125208923Y-91693366D01*
X125113685Y-91740985D01*
X124923209Y-91788604D01*
X124780352Y-91788604D01*
X124589876Y-91740985D01*
X124494638Y-91693366D01*
X124399400Y-91598128D01*
X124351780Y-91455271D01*
X124351780Y-91360033D01*
X124399400Y-91217176D01*
X124447019Y-91169557D01*
X125351780Y-90217176D02*
X125351780Y-90788604D01*
X125351780Y-90502890D02*
X124351780Y-90502890D01*
X124494638Y-90598128D01*
X124589876Y-90693366D01*
X124637495Y-90788604D01*
X125351780Y-89740985D02*
X125351780Y-89550509D01*
X125304161Y-89455271D01*
X125256542Y-89407652D01*
X125113685Y-89312414D01*
X124923209Y-89264795D01*
X124542257Y-89264795D01*
X124447019Y-89312414D01*
X124399400Y-89360033D01*
X124351780Y-89455271D01*
X124351780Y-89645747D01*
X124399400Y-89740985D01*
X124447019Y-89788604D01*
X124542257Y-89836223D01*
X124780352Y-89836223D01*
X124875590Y-89788604D01*
X124923209Y-89740985D01*
X124970828Y-89645747D01*
X124970828Y-89455271D01*
X124923209Y-89360033D01*
X124875590Y-89312414D01*
X124780352Y-89264795D01*
%TO.C,C18*%
X108738942Y-114108557D02*
X108786561Y-114156176D01*
X108834180Y-114299033D01*
X108834180Y-114394271D01*
X108786561Y-114537128D01*
X108691323Y-114632366D01*
X108596085Y-114679985D01*
X108405609Y-114727604D01*
X108262752Y-114727604D01*
X108072276Y-114679985D01*
X107977038Y-114632366D01*
X107881800Y-114537128D01*
X107834180Y-114394271D01*
X107834180Y-114299033D01*
X107881800Y-114156176D01*
X107929419Y-114108557D01*
X108834180Y-113156176D02*
X108834180Y-113727604D01*
X108834180Y-113441890D02*
X107834180Y-113441890D01*
X107977038Y-113537128D01*
X108072276Y-113632366D01*
X108119895Y-113727604D01*
X108262752Y-112584747D02*
X108215133Y-112679985D01*
X108167514Y-112727604D01*
X108072276Y-112775223D01*
X108024657Y-112775223D01*
X107929419Y-112727604D01*
X107881800Y-112679985D01*
X107834180Y-112584747D01*
X107834180Y-112394271D01*
X107881800Y-112299033D01*
X107929419Y-112251414D01*
X108024657Y-112203795D01*
X108072276Y-112203795D01*
X108167514Y-112251414D01*
X108215133Y-112299033D01*
X108262752Y-112394271D01*
X108262752Y-112584747D01*
X108310371Y-112679985D01*
X108357990Y-112727604D01*
X108453228Y-112775223D01*
X108643704Y-112775223D01*
X108738942Y-112727604D01*
X108786561Y-112679985D01*
X108834180Y-112584747D01*
X108834180Y-112394271D01*
X108786561Y-112299033D01*
X108738942Y-112251414D01*
X108643704Y-112203795D01*
X108453228Y-112203795D01*
X108357990Y-112251414D01*
X108310371Y-112299033D01*
X108262752Y-112394271D01*
%TO.C,C17*%
X113724942Y-114151557D02*
X113772561Y-114199176D01*
X113820180Y-114342033D01*
X113820180Y-114437271D01*
X113772561Y-114580128D01*
X113677323Y-114675366D01*
X113582085Y-114722985D01*
X113391609Y-114770604D01*
X113248752Y-114770604D01*
X113058276Y-114722985D01*
X112963038Y-114675366D01*
X112867800Y-114580128D01*
X112820180Y-114437271D01*
X112820180Y-114342033D01*
X112867800Y-114199176D01*
X112915419Y-114151557D01*
X113820180Y-113199176D02*
X113820180Y-113770604D01*
X113820180Y-113484890D02*
X112820180Y-113484890D01*
X112963038Y-113580128D01*
X113058276Y-113675366D01*
X113105895Y-113770604D01*
X112820180Y-112865842D02*
X112820180Y-112199176D01*
X113820180Y-112627747D01*
%TO.C,C16*%
X135426742Y-115121757D02*
X135474361Y-115169376D01*
X135521980Y-115312233D01*
X135521980Y-115407471D01*
X135474361Y-115550328D01*
X135379123Y-115645566D01*
X135283885Y-115693185D01*
X135093409Y-115740804D01*
X134950552Y-115740804D01*
X134760076Y-115693185D01*
X134664838Y-115645566D01*
X134569600Y-115550328D01*
X134521980Y-115407471D01*
X134521980Y-115312233D01*
X134569600Y-115169376D01*
X134617219Y-115121757D01*
X135521980Y-114169376D02*
X135521980Y-114740804D01*
X135521980Y-114455090D02*
X134521980Y-114455090D01*
X134664838Y-114550328D01*
X134760076Y-114645566D01*
X134807695Y-114740804D01*
X134521980Y-113312233D02*
X134521980Y-113502709D01*
X134569600Y-113597947D01*
X134617219Y-113645566D01*
X134760076Y-113740804D01*
X134950552Y-113788423D01*
X135331504Y-113788423D01*
X135426742Y-113740804D01*
X135474361Y-113693185D01*
X135521980Y-113597947D01*
X135521980Y-113407471D01*
X135474361Y-113312233D01*
X135426742Y-113264614D01*
X135331504Y-113216995D01*
X135093409Y-113216995D01*
X134998171Y-113264614D01*
X134950552Y-113312233D01*
X134902933Y-113407471D01*
X134902933Y-113597947D01*
X134950552Y-113693185D01*
X134998171Y-113740804D01*
X135093409Y-113788423D01*
%TO.C,C15*%
X120311942Y-106503742D02*
X120264323Y-106551361D01*
X120121466Y-106598980D01*
X120026228Y-106598980D01*
X119883371Y-106551361D01*
X119788133Y-106456123D01*
X119740514Y-106360885D01*
X119692895Y-106170409D01*
X119692895Y-106027552D01*
X119740514Y-105837076D01*
X119788133Y-105741838D01*
X119883371Y-105646600D01*
X120026228Y-105598980D01*
X120121466Y-105598980D01*
X120264323Y-105646600D01*
X120311942Y-105694219D01*
X121264323Y-106598980D02*
X120692895Y-106598980D01*
X120978609Y-106598980D02*
X120978609Y-105598980D01*
X120883371Y-105741838D01*
X120788133Y-105837076D01*
X120692895Y-105884695D01*
X122169085Y-105598980D02*
X121692895Y-105598980D01*
X121645276Y-106075171D01*
X121692895Y-106027552D01*
X121788133Y-105979933D01*
X122026228Y-105979933D01*
X122121466Y-106027552D01*
X122169085Y-106075171D01*
X122216704Y-106170409D01*
X122216704Y-106408504D01*
X122169085Y-106503742D01*
X122121466Y-106551361D01*
X122026228Y-106598980D01*
X121788133Y-106598980D01*
X121692895Y-106551361D01*
X121645276Y-106503742D01*
%TO.C,C14*%
X148446742Y-94242957D02*
X148494361Y-94290576D01*
X148541980Y-94433433D01*
X148541980Y-94528671D01*
X148494361Y-94671528D01*
X148399123Y-94766766D01*
X148303885Y-94814385D01*
X148113409Y-94862004D01*
X147970552Y-94862004D01*
X147780076Y-94814385D01*
X147684838Y-94766766D01*
X147589600Y-94671528D01*
X147541980Y-94528671D01*
X147541980Y-94433433D01*
X147589600Y-94290576D01*
X147637219Y-94242957D01*
X148541980Y-93290576D02*
X148541980Y-93862004D01*
X148541980Y-93576290D02*
X147541980Y-93576290D01*
X147684838Y-93671528D01*
X147780076Y-93766766D01*
X147827695Y-93862004D01*
X147875314Y-92433433D02*
X148541980Y-92433433D01*
X147494361Y-92671528D02*
X148208647Y-92909623D01*
X148208647Y-92290576D01*
%TO.C,C13*%
X126765342Y-91144157D02*
X126812961Y-91191776D01*
X126860580Y-91334633D01*
X126860580Y-91429871D01*
X126812961Y-91572728D01*
X126717723Y-91667966D01*
X126622485Y-91715585D01*
X126432009Y-91763204D01*
X126289152Y-91763204D01*
X126098676Y-91715585D01*
X126003438Y-91667966D01*
X125908200Y-91572728D01*
X125860580Y-91429871D01*
X125860580Y-91334633D01*
X125908200Y-91191776D01*
X125955819Y-91144157D01*
X126860580Y-90191776D02*
X126860580Y-90763204D01*
X126860580Y-90477490D02*
X125860580Y-90477490D01*
X126003438Y-90572728D01*
X126098676Y-90667966D01*
X126146295Y-90763204D01*
X125860580Y-89858442D02*
X125860580Y-89239395D01*
X126241533Y-89572728D01*
X126241533Y-89429871D01*
X126289152Y-89334633D01*
X126336771Y-89287014D01*
X126432009Y-89239395D01*
X126670104Y-89239395D01*
X126765342Y-89287014D01*
X126812961Y-89334633D01*
X126860580Y-89429871D01*
X126860580Y-89715585D01*
X126812961Y-89810823D01*
X126765342Y-89858442D01*
%TO.C,C12*%
X144697742Y-108923057D02*
X144745361Y-108970676D01*
X144792980Y-109113533D01*
X144792980Y-109208771D01*
X144745361Y-109351628D01*
X144650123Y-109446866D01*
X144554885Y-109494485D01*
X144364409Y-109542104D01*
X144221552Y-109542104D01*
X144031076Y-109494485D01*
X143935838Y-109446866D01*
X143840600Y-109351628D01*
X143792980Y-109208771D01*
X143792980Y-109113533D01*
X143840600Y-108970676D01*
X143888219Y-108923057D01*
X144792980Y-107970676D02*
X144792980Y-108542104D01*
X144792980Y-108256390D02*
X143792980Y-108256390D01*
X143935838Y-108351628D01*
X144031076Y-108446866D01*
X144078695Y-108542104D01*
X143888219Y-107589723D02*
X143840600Y-107542104D01*
X143792980Y-107446866D01*
X143792980Y-107208771D01*
X143840600Y-107113533D01*
X143888219Y-107065914D01*
X143983457Y-107018295D01*
X144078695Y-107018295D01*
X144221552Y-107065914D01*
X144792980Y-107637342D01*
X144792980Y-107018295D01*
%TO.C,C11*%
X150072342Y-87664357D02*
X150119961Y-87711976D01*
X150167580Y-87854833D01*
X150167580Y-87950071D01*
X150119961Y-88092928D01*
X150024723Y-88188166D01*
X149929485Y-88235785D01*
X149739009Y-88283404D01*
X149596152Y-88283404D01*
X149405676Y-88235785D01*
X149310438Y-88188166D01*
X149215200Y-88092928D01*
X149167580Y-87950071D01*
X149167580Y-87854833D01*
X149215200Y-87711976D01*
X149262819Y-87664357D01*
X150167580Y-86711976D02*
X150167580Y-87283404D01*
X150167580Y-86997690D02*
X149167580Y-86997690D01*
X149310438Y-87092928D01*
X149405676Y-87188166D01*
X149453295Y-87283404D01*
X150167580Y-85759595D02*
X150167580Y-86331023D01*
X150167580Y-86045309D02*
X149167580Y-86045309D01*
X149310438Y-86140547D01*
X149405676Y-86235785D01*
X149453295Y-86331023D01*
%TO.C,C10*%
X91052942Y-70009157D02*
X91100561Y-70056776D01*
X91148180Y-70199633D01*
X91148180Y-70294871D01*
X91100561Y-70437728D01*
X91005323Y-70532966D01*
X90910085Y-70580585D01*
X90719609Y-70628204D01*
X90576752Y-70628204D01*
X90386276Y-70580585D01*
X90291038Y-70532966D01*
X90195800Y-70437728D01*
X90148180Y-70294871D01*
X90148180Y-70199633D01*
X90195800Y-70056776D01*
X90243419Y-70009157D01*
X91148180Y-69056776D02*
X91148180Y-69628204D01*
X91148180Y-69342490D02*
X90148180Y-69342490D01*
X90291038Y-69437728D01*
X90386276Y-69532966D01*
X90433895Y-69628204D01*
X90148180Y-68437728D02*
X90148180Y-68342490D01*
X90195800Y-68247252D01*
X90243419Y-68199633D01*
X90338657Y-68152014D01*
X90529133Y-68104395D01*
X90767228Y-68104395D01*
X90957704Y-68152014D01*
X91052942Y-68199633D01*
X91100561Y-68247252D01*
X91148180Y-68342490D01*
X91148180Y-68437728D01*
X91100561Y-68532966D01*
X91052942Y-68580585D01*
X90957704Y-68628204D01*
X90767228Y-68675823D01*
X90529133Y-68675823D01*
X90338657Y-68628204D01*
X90243419Y-68580585D01*
X90195800Y-68532966D01*
X90148180Y-68437728D01*
%TO.C,C8*%
X151927142Y-75704166D02*
X151974761Y-75751785D01*
X152022380Y-75894642D01*
X152022380Y-75989880D01*
X151974761Y-76132738D01*
X151879523Y-76227976D01*
X151784285Y-76275595D01*
X151593809Y-76323214D01*
X151450952Y-76323214D01*
X151260476Y-76275595D01*
X151165238Y-76227976D01*
X151070000Y-76132738D01*
X151022380Y-75989880D01*
X151022380Y-75894642D01*
X151070000Y-75751785D01*
X151117619Y-75704166D01*
X151450952Y-75132738D02*
X151403333Y-75227976D01*
X151355714Y-75275595D01*
X151260476Y-75323214D01*
X151212857Y-75323214D01*
X151117619Y-75275595D01*
X151070000Y-75227976D01*
X151022380Y-75132738D01*
X151022380Y-74942261D01*
X151070000Y-74847023D01*
X151117619Y-74799404D01*
X151212857Y-74751785D01*
X151260476Y-74751785D01*
X151355714Y-74799404D01*
X151403333Y-74847023D01*
X151450952Y-74942261D01*
X151450952Y-75132738D01*
X151498571Y-75227976D01*
X151546190Y-75275595D01*
X151641428Y-75323214D01*
X151831904Y-75323214D01*
X151927142Y-75275595D01*
X151974761Y-75227976D01*
X152022380Y-75132738D01*
X152022380Y-74942261D01*
X151974761Y-74847023D01*
X151927142Y-74799404D01*
X151831904Y-74751785D01*
X151641428Y-74751785D01*
X151546190Y-74799404D01*
X151498571Y-74847023D01*
X151450952Y-74942261D01*
%TO.C,C7*%
X97062542Y-102324366D02*
X97110161Y-102371985D01*
X97157780Y-102514842D01*
X97157780Y-102610080D01*
X97110161Y-102752938D01*
X97014923Y-102848176D01*
X96919685Y-102895795D01*
X96729209Y-102943414D01*
X96586352Y-102943414D01*
X96395876Y-102895795D01*
X96300638Y-102848176D01*
X96205400Y-102752938D01*
X96157780Y-102610080D01*
X96157780Y-102514842D01*
X96205400Y-102371985D01*
X96253019Y-102324366D01*
X96157780Y-101991033D02*
X96157780Y-101324366D01*
X97157780Y-101752938D01*
%TO.C,C6*%
X178357142Y-62566666D02*
X178404761Y-62614285D01*
X178452380Y-62757142D01*
X178452380Y-62852380D01*
X178404761Y-62995238D01*
X178309523Y-63090476D01*
X178214285Y-63138095D01*
X178023809Y-63185714D01*
X177880952Y-63185714D01*
X177690476Y-63138095D01*
X177595238Y-63090476D01*
X177500000Y-62995238D01*
X177452380Y-62852380D01*
X177452380Y-62757142D01*
X177500000Y-62614285D01*
X177547619Y-62566666D01*
X177452380Y-61709523D02*
X177452380Y-61900000D01*
X177500000Y-61995238D01*
X177547619Y-62042857D01*
X177690476Y-62138095D01*
X177880952Y-62185714D01*
X178261904Y-62185714D01*
X178357142Y-62138095D01*
X178404761Y-62090476D01*
X178452380Y-61995238D01*
X178452380Y-61804761D01*
X178404761Y-61709523D01*
X178357142Y-61661904D01*
X178261904Y-61614285D01*
X178023809Y-61614285D01*
X177928571Y-61661904D01*
X177880952Y-61709523D01*
X177833333Y-61804761D01*
X177833333Y-61995238D01*
X177880952Y-62090476D01*
X177928571Y-62138095D01*
X178023809Y-62185714D01*
%TO.C,C5*%
X177370833Y-116327142D02*
X177323214Y-116374761D01*
X177180357Y-116422380D01*
X177085119Y-116422380D01*
X176942261Y-116374761D01*
X176847023Y-116279523D01*
X176799404Y-116184285D01*
X176751785Y-115993809D01*
X176751785Y-115850952D01*
X176799404Y-115660476D01*
X176847023Y-115565238D01*
X176942261Y-115470000D01*
X177085119Y-115422380D01*
X177180357Y-115422380D01*
X177323214Y-115470000D01*
X177370833Y-115517619D01*
X178275595Y-115422380D02*
X177799404Y-115422380D01*
X177751785Y-115898571D01*
X177799404Y-115850952D01*
X177894642Y-115803333D01*
X178132738Y-115803333D01*
X178227976Y-115850952D01*
X178275595Y-115898571D01*
X178323214Y-115993809D01*
X178323214Y-116231904D01*
X178275595Y-116327142D01*
X178227976Y-116374761D01*
X178132738Y-116422380D01*
X177894642Y-116422380D01*
X177799404Y-116374761D01*
X177751785Y-116327142D01*
%TO.C,C4*%
X92551542Y-75782466D02*
X92599161Y-75830085D01*
X92646780Y-75972942D01*
X92646780Y-76068180D01*
X92599161Y-76211038D01*
X92503923Y-76306276D01*
X92408685Y-76353895D01*
X92218209Y-76401514D01*
X92075352Y-76401514D01*
X91884876Y-76353895D01*
X91789638Y-76306276D01*
X91694400Y-76211038D01*
X91646780Y-76068180D01*
X91646780Y-75972942D01*
X91694400Y-75830085D01*
X91742019Y-75782466D01*
X91980114Y-74925323D02*
X92646780Y-74925323D01*
X91599161Y-75163419D02*
X92313447Y-75401514D01*
X92313447Y-74782466D01*
%TO.C,C3*%
X96234542Y-75755966D02*
X96282161Y-75803585D01*
X96329780Y-75946442D01*
X96329780Y-76041680D01*
X96282161Y-76184538D01*
X96186923Y-76279776D01*
X96091685Y-76327395D01*
X95901209Y-76375014D01*
X95758352Y-76375014D01*
X95567876Y-76327395D01*
X95472638Y-76279776D01*
X95377400Y-76184538D01*
X95329780Y-76041680D01*
X95329780Y-75946442D01*
X95377400Y-75803585D01*
X95425019Y-75755966D01*
X95329780Y-75422633D02*
X95329780Y-74803585D01*
X95710733Y-75136919D01*
X95710733Y-74994061D01*
X95758352Y-74898823D01*
X95805971Y-74851204D01*
X95901209Y-74803585D01*
X96139304Y-74803585D01*
X96234542Y-74851204D01*
X96282161Y-74898823D01*
X96329780Y-74994061D01*
X96329780Y-75279776D01*
X96282161Y-75375014D01*
X96234542Y-75422633D01*
%TO.C,C2*%
X159387142Y-103504166D02*
X159434761Y-103551785D01*
X159482380Y-103694642D01*
X159482380Y-103789880D01*
X159434761Y-103932738D01*
X159339523Y-104027976D01*
X159244285Y-104075595D01*
X159053809Y-104123214D01*
X158910952Y-104123214D01*
X158720476Y-104075595D01*
X158625238Y-104027976D01*
X158530000Y-103932738D01*
X158482380Y-103789880D01*
X158482380Y-103694642D01*
X158530000Y-103551785D01*
X158577619Y-103504166D01*
X158577619Y-103123214D02*
X158530000Y-103075595D01*
X158482380Y-102980357D01*
X158482380Y-102742261D01*
X158530000Y-102647023D01*
X158577619Y-102599404D01*
X158672857Y-102551785D01*
X158768095Y-102551785D01*
X158910952Y-102599404D01*
X159482380Y-103170833D01*
X159482380Y-102551785D01*
%TO.C,BT1*%
X141733685Y-118317971D02*
X141876542Y-118365590D01*
X141924161Y-118413209D01*
X141971780Y-118508447D01*
X141971780Y-118651304D01*
X141924161Y-118746542D01*
X141876542Y-118794161D01*
X141781304Y-118841780D01*
X141400352Y-118841780D01*
X141400352Y-117841780D01*
X141733685Y-117841780D01*
X141828923Y-117889400D01*
X141876542Y-117937019D01*
X141924161Y-118032257D01*
X141924161Y-118127495D01*
X141876542Y-118222733D01*
X141828923Y-118270352D01*
X141733685Y-118317971D01*
X141400352Y-118317971D01*
X142257495Y-117841780D02*
X142828923Y-117841780D01*
X142543209Y-118841780D02*
X142543209Y-117841780D01*
X143686066Y-118841780D02*
X143114638Y-118841780D01*
X143400352Y-118841780D02*
X143400352Y-117841780D01*
X143305114Y-117984638D01*
X143209876Y-118079876D01*
X143114638Y-118127495D01*
%TO.C,D1*%
X122061904Y-113852380D02*
X122061904Y-112852380D01*
X122300000Y-112852380D01*
X122442857Y-112900000D01*
X122538095Y-112995238D01*
X122585714Y-113090476D01*
X122633333Y-113280952D01*
X122633333Y-113423809D01*
X122585714Y-113614285D01*
X122538095Y-113709523D01*
X122442857Y-113804761D01*
X122300000Y-113852380D01*
X122061904Y-113852380D01*
X123585714Y-113852380D02*
X123014285Y-113852380D01*
X123300000Y-113852380D02*
X123300000Y-112852380D01*
X123204761Y-112995238D01*
X123109523Y-113090476D01*
X123014285Y-113138095D01*
X120234561Y-122136714D02*
X120282180Y-121993857D01*
X120282180Y-121755761D01*
X120234561Y-121660523D01*
X120186942Y-121612904D01*
X120091704Y-121565285D01*
X119996466Y-121565285D01*
X119901228Y-121612904D01*
X119853609Y-121660523D01*
X119805990Y-121755761D01*
X119758371Y-121946238D01*
X119710752Y-122041476D01*
X119663133Y-122089095D01*
X119567895Y-122136714D01*
X119472657Y-122136714D01*
X119377419Y-122089095D01*
X119329800Y-122041476D01*
X119282180Y-121946238D01*
X119282180Y-121708142D01*
X119329800Y-121565285D01*
X120282180Y-121136714D02*
X119282180Y-121136714D01*
X119996466Y-120803380D01*
X119282180Y-120470047D01*
X120282180Y-120470047D01*
X119996466Y-120041476D02*
X119996466Y-119565285D01*
X120282180Y-120136714D02*
X119282180Y-119803380D01*
X120282180Y-119470047D01*
X119282180Y-118851000D02*
X119996466Y-118851000D01*
X120139323Y-118898619D01*
X120234561Y-118993857D01*
X120282180Y-119136714D01*
X120282180Y-119231952D01*
X119282180Y-117898619D02*
X119282180Y-118374809D01*
X119758371Y-118422428D01*
X119710752Y-118374809D01*
X119663133Y-118279571D01*
X119663133Y-118041476D01*
X119710752Y-117946238D01*
X119758371Y-117898619D01*
X119853609Y-117851000D01*
X120091704Y-117851000D01*
X120186942Y-117898619D01*
X120234561Y-117946238D01*
X120282180Y-118041476D01*
X120282180Y-118279571D01*
X120234561Y-118374809D01*
X120186942Y-118422428D01*
X120186942Y-117422428D02*
X120234561Y-117374809D01*
X120282180Y-117422428D01*
X120234561Y-117470047D01*
X120186942Y-117422428D01*
X120282180Y-117422428D01*
X119282180Y-116755761D02*
X119282180Y-116660523D01*
X119329800Y-116565285D01*
X119377419Y-116517666D01*
X119472657Y-116470047D01*
X119663133Y-116422428D01*
X119901228Y-116422428D01*
X120091704Y-116470047D01*
X120186942Y-116517666D01*
X120234561Y-116565285D01*
X120282180Y-116660523D01*
X120282180Y-116755761D01*
X120234561Y-116851000D01*
X120186942Y-116898619D01*
X120091704Y-116946238D01*
X119901228Y-116993857D01*
X119663133Y-116993857D01*
X119472657Y-116946238D01*
X119377419Y-116898619D01*
X119329800Y-116851000D01*
X119282180Y-116755761D01*
X119996466Y-116041476D02*
X119996466Y-115565285D01*
X120282180Y-116136714D02*
X119282180Y-115803380D01*
X120282180Y-115470047D01*
X122152380Y-118901800D02*
X122390476Y-118901800D01*
X122295238Y-119139895D02*
X122390476Y-118901800D01*
X122295238Y-118663704D01*
X122580952Y-119044657D02*
X122390476Y-118901800D01*
X122580952Y-118758942D01*
%TO.C,D2*%
X130859304Y-106282380D02*
X130859304Y-105282380D01*
X131097400Y-105282380D01*
X131240257Y-105330000D01*
X131335495Y-105425238D01*
X131383114Y-105520476D01*
X131430733Y-105710952D01*
X131430733Y-105853809D01*
X131383114Y-106044285D01*
X131335495Y-106139523D01*
X131240257Y-106234761D01*
X131097400Y-106282380D01*
X130859304Y-106282380D01*
X131811685Y-105377619D02*
X131859304Y-105330000D01*
X131954542Y-105282380D01*
X132192638Y-105282380D01*
X132287876Y-105330000D01*
X132335495Y-105377619D01*
X132383114Y-105472857D01*
X132383114Y-105568095D01*
X132335495Y-105710952D01*
X131764066Y-106282380D01*
X132383114Y-106282380D01*
X127525495Y-106602380D02*
X127525495Y-105602380D01*
X128096923Y-106602380D02*
X127668352Y-106030952D01*
X128096923Y-105602380D02*
X127525495Y-106173809D01*
%TO.C,J1*%
X91139580Y-82984933D02*
X91853866Y-82984933D01*
X91996723Y-83032552D01*
X92091961Y-83127790D01*
X92139580Y-83270647D01*
X92139580Y-83365885D01*
X92139580Y-81984933D02*
X92139580Y-82556361D01*
X92139580Y-82270647D02*
X91139580Y-82270647D01*
X91282438Y-82365885D01*
X91377676Y-82461123D01*
X91425295Y-82556361D01*
%TO.C,J7*%
X93799066Y-101357180D02*
X93799066Y-102071466D01*
X93751447Y-102214323D01*
X93656209Y-102309561D01*
X93513352Y-102357180D01*
X93418114Y-102357180D01*
X94180019Y-101357180D02*
X94846685Y-101357180D01*
X94418114Y-102357180D01*
X84695447Y-105865561D02*
X84838304Y-105913180D01*
X85076400Y-105913180D01*
X85171638Y-105865561D01*
X85219257Y-105817942D01*
X85266876Y-105722704D01*
X85266876Y-105627466D01*
X85219257Y-105532228D01*
X85171638Y-105484609D01*
X85076400Y-105436990D01*
X84885923Y-105389371D01*
X84790685Y-105341752D01*
X84743066Y-105294133D01*
X84695447Y-105198895D01*
X84695447Y-105103657D01*
X84743066Y-105008419D01*
X84790685Y-104960800D01*
X84885923Y-104913180D01*
X85124019Y-104913180D01*
X85266876Y-104960800D01*
X85552590Y-104913180D02*
X86124019Y-104913180D01*
X85838304Y-105913180D02*
X85838304Y-104913180D01*
X86457352Y-105389371D02*
X86790685Y-105389371D01*
X86933542Y-105913180D02*
X86457352Y-105913180D01*
X86457352Y-104913180D01*
X86933542Y-104913180D01*
X87362114Y-105913180D02*
X87362114Y-104913180D01*
X87743066Y-104913180D01*
X87838304Y-104960800D01*
X87885923Y-105008419D01*
X87933542Y-105103657D01*
X87933542Y-105246514D01*
X87885923Y-105341752D01*
X87838304Y-105389371D01*
X87743066Y-105436990D01*
X87362114Y-105436990D01*
X88362114Y-105913180D02*
X88362114Y-104913180D01*
X88743066Y-104913180D01*
X88838304Y-104960800D01*
X88885923Y-105008419D01*
X88933542Y-105103657D01*
X88933542Y-105246514D01*
X88885923Y-105341752D01*
X88838304Y-105389371D01*
X88743066Y-105436990D01*
X88362114Y-105436990D01*
X89362114Y-105389371D02*
X89695447Y-105389371D01*
X89838304Y-105913180D02*
X89362114Y-105913180D01*
X89362114Y-104913180D01*
X89838304Y-104913180D01*
X90838304Y-105913180D02*
X90504971Y-105436990D01*
X90266876Y-105913180D02*
X90266876Y-104913180D01*
X90647828Y-104913180D01*
X90743066Y-104960800D01*
X90790685Y-105008419D01*
X90838304Y-105103657D01*
X90838304Y-105246514D01*
X90790685Y-105341752D01*
X90743066Y-105389371D01*
X90647828Y-105436990D01*
X90266876Y-105436990D01*
X91028780Y-106008419D02*
X91790685Y-106008419D01*
X91933542Y-104913180D02*
X92552590Y-104913180D01*
X92219257Y-105294133D01*
X92362114Y-105294133D01*
X92457352Y-105341752D01*
X92504971Y-105389371D01*
X92552590Y-105484609D01*
X92552590Y-105722704D01*
X92504971Y-105817942D01*
X92457352Y-105865561D01*
X92362114Y-105913180D01*
X92076400Y-105913180D01*
X91981161Y-105865561D01*
X91933542Y-105817942D01*
X92743066Y-106008419D02*
X93504971Y-106008419D01*
X93743066Y-105913180D02*
X93743066Y-104913180D01*
X94124019Y-104913180D01*
X94219257Y-104960800D01*
X94266876Y-105008419D01*
X94314495Y-105103657D01*
X94314495Y-105246514D01*
X94266876Y-105341752D01*
X94219257Y-105389371D01*
X94124019Y-105436990D01*
X93743066Y-105436990D01*
X94647828Y-104913180D02*
X94885923Y-105913180D01*
X95076400Y-105198895D01*
X95266876Y-105913180D01*
X95504971Y-104913180D01*
X96457352Y-105913180D02*
X96124019Y-105436990D01*
X95885923Y-105913180D02*
X95885923Y-104913180D01*
X96266876Y-104913180D01*
X96362114Y-104960800D01*
X96409733Y-105008419D01*
X96457352Y-105103657D01*
X96457352Y-105246514D01*
X96409733Y-105341752D01*
X96362114Y-105389371D01*
X96266876Y-105436990D01*
X95885923Y-105436990D01*
X89560400Y-101865180D02*
X89560400Y-102103276D01*
X89322304Y-102008038D02*
X89560400Y-102103276D01*
X89798495Y-102008038D01*
X89417542Y-102293752D02*
X89560400Y-102103276D01*
X89703257Y-102293752D01*
%TO.C,J8*%
X180100380Y-110479333D02*
X180814666Y-110479333D01*
X180957523Y-110526952D01*
X181052761Y-110622190D01*
X181100380Y-110765047D01*
X181100380Y-110860285D01*
X180528952Y-109860285D02*
X180481333Y-109955523D01*
X180433714Y-110003142D01*
X180338476Y-110050761D01*
X180290857Y-110050761D01*
X180195619Y-110003142D01*
X180148000Y-109955523D01*
X180100380Y-109860285D01*
X180100380Y-109669809D01*
X180148000Y-109574571D01*
X180195619Y-109526952D01*
X180290857Y-109479333D01*
X180338476Y-109479333D01*
X180433714Y-109526952D01*
X180481333Y-109574571D01*
X180528952Y-109669809D01*
X180528952Y-109860285D01*
X180576571Y-109955523D01*
X180624190Y-110003142D01*
X180719428Y-110050761D01*
X180909904Y-110050761D01*
X181005142Y-110003142D01*
X181052761Y-109955523D01*
X181100380Y-109860285D01*
X181100380Y-109669809D01*
X181052761Y-109574571D01*
X181005142Y-109526952D01*
X180909904Y-109479333D01*
X180719428Y-109479333D01*
X180624190Y-109526952D01*
X180576571Y-109574571D01*
X180528952Y-109669809D01*
X173940761Y-115772952D02*
X173988380Y-115630095D01*
X173988380Y-115392000D01*
X173940761Y-115296761D01*
X173893142Y-115249142D01*
X173797904Y-115201523D01*
X173702666Y-115201523D01*
X173607428Y-115249142D01*
X173559809Y-115296761D01*
X173512190Y-115392000D01*
X173464571Y-115582476D01*
X173416952Y-115677714D01*
X173369333Y-115725333D01*
X173274095Y-115772952D01*
X173178857Y-115772952D01*
X173083619Y-115725333D01*
X173036000Y-115677714D01*
X172988380Y-115582476D01*
X172988380Y-115344380D01*
X173036000Y-115201523D01*
X172988380Y-114915809D02*
X172988380Y-114344380D01*
X173988380Y-114630095D02*
X172988380Y-114630095D01*
X173464571Y-114011047D02*
X173464571Y-113677714D01*
X173988380Y-113534857D02*
X173988380Y-114011047D01*
X172988380Y-114011047D01*
X172988380Y-113534857D01*
X173988380Y-113106285D02*
X172988380Y-113106285D01*
X172988380Y-112725333D01*
X173036000Y-112630095D01*
X173083619Y-112582476D01*
X173178857Y-112534857D01*
X173321714Y-112534857D01*
X173416952Y-112582476D01*
X173464571Y-112630095D01*
X173512190Y-112725333D01*
X173512190Y-113106285D01*
X173988380Y-112106285D02*
X172988380Y-112106285D01*
X172988380Y-111725333D01*
X173036000Y-111630095D01*
X173083619Y-111582476D01*
X173178857Y-111534857D01*
X173321714Y-111534857D01*
X173416952Y-111582476D01*
X173464571Y-111630095D01*
X173512190Y-111725333D01*
X173512190Y-112106285D01*
X173464571Y-111106285D02*
X173464571Y-110772952D01*
X173988380Y-110630095D02*
X173988380Y-111106285D01*
X172988380Y-111106285D01*
X172988380Y-110630095D01*
X173988380Y-109630095D02*
X173512190Y-109963428D01*
X173988380Y-110201523D02*
X172988380Y-110201523D01*
X172988380Y-109820571D01*
X173036000Y-109725333D01*
X173083619Y-109677714D01*
X173178857Y-109630095D01*
X173321714Y-109630095D01*
X173416952Y-109677714D01*
X173464571Y-109725333D01*
X173512190Y-109820571D01*
X173512190Y-110201523D01*
X174083619Y-109439619D02*
X174083619Y-108677714D01*
X173321714Y-108011047D02*
X173988380Y-108011047D01*
X172940761Y-108249142D02*
X173655047Y-108487238D01*
X173655047Y-107868190D01*
X174083619Y-107725333D02*
X174083619Y-106963428D01*
X173988380Y-106725333D02*
X172988380Y-106725333D01*
X172988380Y-106344380D01*
X173036000Y-106249142D01*
X173083619Y-106201523D01*
X173178857Y-106153904D01*
X173321714Y-106153904D01*
X173416952Y-106201523D01*
X173464571Y-106249142D01*
X173512190Y-106344380D01*
X173512190Y-106725333D01*
X172988380Y-105820571D02*
X173988380Y-105582476D01*
X173274095Y-105392000D01*
X173988380Y-105201523D01*
X172988380Y-104963428D01*
X173988380Y-104011047D02*
X173512190Y-104344380D01*
X173988380Y-104582476D02*
X172988380Y-104582476D01*
X172988380Y-104201523D01*
X173036000Y-104106285D01*
X173083619Y-104058666D01*
X173178857Y-104011047D01*
X173321714Y-104011047D01*
X173416952Y-104058666D01*
X173464571Y-104106285D01*
X173512190Y-104201523D01*
X173512190Y-104582476D01*
X177052380Y-110400000D02*
X177290476Y-110400000D01*
X177195238Y-110638095D02*
X177290476Y-110400000D01*
X177195238Y-110161904D01*
X177480952Y-110542857D02*
X177290476Y-110400000D01*
X177480952Y-110257142D01*
%TO.C,J10*%
X168774476Y-59058380D02*
X168774476Y-59772666D01*
X168726857Y-59915523D01*
X168631619Y-60010761D01*
X168488761Y-60058380D01*
X168393523Y-60058380D01*
X169774476Y-60058380D02*
X169203047Y-60058380D01*
X169488761Y-60058380D02*
X169488761Y-59058380D01*
X169393523Y-59201238D01*
X169298285Y-59296476D01*
X169203047Y-59344095D01*
X170393523Y-59058380D02*
X170488761Y-59058380D01*
X170584000Y-59106000D01*
X170631619Y-59153619D01*
X170679238Y-59248857D01*
X170726857Y-59439333D01*
X170726857Y-59677428D01*
X170679238Y-59867904D01*
X170631619Y-59963142D01*
X170584000Y-60010761D01*
X170488761Y-60058380D01*
X170393523Y-60058380D01*
X170298285Y-60010761D01*
X170250666Y-59963142D01*
X170203047Y-59867904D01*
X170155428Y-59677428D01*
X170155428Y-59439333D01*
X170203047Y-59248857D01*
X170250666Y-59153619D01*
X170298285Y-59106000D01*
X170393523Y-59058380D01*
X163703047Y-66614761D02*
X163845904Y-66662380D01*
X164084000Y-66662380D01*
X164179238Y-66614761D01*
X164226857Y-66567142D01*
X164274476Y-66471904D01*
X164274476Y-66376666D01*
X164226857Y-66281428D01*
X164179238Y-66233809D01*
X164084000Y-66186190D01*
X163893523Y-66138571D01*
X163798285Y-66090952D01*
X163750666Y-66043333D01*
X163703047Y-65948095D01*
X163703047Y-65852857D01*
X163750666Y-65757619D01*
X163798285Y-65710000D01*
X163893523Y-65662380D01*
X164131619Y-65662380D01*
X164274476Y-65710000D01*
X164560190Y-65662380D02*
X165131619Y-65662380D01*
X164845904Y-66662380D02*
X164845904Y-65662380D01*
X165464952Y-66138571D02*
X165798285Y-66138571D01*
X165941142Y-66662380D02*
X165464952Y-66662380D01*
X165464952Y-65662380D01*
X165941142Y-65662380D01*
X166369714Y-66662380D02*
X166369714Y-65662380D01*
X166750666Y-65662380D01*
X166845904Y-65710000D01*
X166893523Y-65757619D01*
X166941142Y-65852857D01*
X166941142Y-65995714D01*
X166893523Y-66090952D01*
X166845904Y-66138571D01*
X166750666Y-66186190D01*
X166369714Y-66186190D01*
X167369714Y-66662380D02*
X167369714Y-65662380D01*
X167750666Y-65662380D01*
X167845904Y-65710000D01*
X167893523Y-65757619D01*
X167941142Y-65852857D01*
X167941142Y-65995714D01*
X167893523Y-66090952D01*
X167845904Y-66138571D01*
X167750666Y-66186190D01*
X167369714Y-66186190D01*
X168369714Y-66138571D02*
X168703047Y-66138571D01*
X168845904Y-66662380D02*
X168369714Y-66662380D01*
X168369714Y-65662380D01*
X168845904Y-65662380D01*
X169845904Y-66662380D02*
X169512571Y-66186190D01*
X169274476Y-66662380D02*
X169274476Y-65662380D01*
X169655428Y-65662380D01*
X169750666Y-65710000D01*
X169798285Y-65757619D01*
X169845904Y-65852857D01*
X169845904Y-65995714D01*
X169798285Y-66090952D01*
X169750666Y-66138571D01*
X169655428Y-66186190D01*
X169274476Y-66186190D01*
X170036380Y-66757619D02*
X170798285Y-66757619D01*
X171512571Y-65662380D02*
X171036380Y-65662380D01*
X170988761Y-66138571D01*
X171036380Y-66090952D01*
X171131619Y-66043333D01*
X171369714Y-66043333D01*
X171464952Y-66090952D01*
X171512571Y-66138571D01*
X171560190Y-66233809D01*
X171560190Y-66471904D01*
X171512571Y-66567142D01*
X171464952Y-66614761D01*
X171369714Y-66662380D01*
X171131619Y-66662380D01*
X171036380Y-66614761D01*
X170988761Y-66567142D01*
X171750666Y-66757619D02*
X172512571Y-66757619D01*
X172750666Y-66662380D02*
X172750666Y-65662380D01*
X173131619Y-65662380D01*
X173226857Y-65710000D01*
X173274476Y-65757619D01*
X173322095Y-65852857D01*
X173322095Y-65995714D01*
X173274476Y-66090952D01*
X173226857Y-66138571D01*
X173131619Y-66186190D01*
X172750666Y-66186190D01*
X173655428Y-65662380D02*
X173893523Y-66662380D01*
X174084000Y-65948095D01*
X174274476Y-66662380D01*
X174512571Y-65662380D01*
X175464952Y-66662380D02*
X175131619Y-66186190D01*
X174893523Y-66662380D02*
X174893523Y-65662380D01*
X175274476Y-65662380D01*
X175369714Y-65710000D01*
X175417333Y-65757619D01*
X175464952Y-65852857D01*
X175464952Y-65995714D01*
X175417333Y-66090952D01*
X175369714Y-66138571D01*
X175274476Y-66186190D01*
X174893523Y-66186190D01*
X170600000Y-61852380D02*
X170600000Y-62090476D01*
X170361904Y-61995238D02*
X170600000Y-62090476D01*
X170838095Y-61995238D01*
X170457142Y-62280952D02*
X170600000Y-62090476D01*
X170742857Y-62280952D01*
%TO.C,J11*%
X154896380Y-75659523D02*
X155610666Y-75659523D01*
X155753523Y-75707142D01*
X155848761Y-75802380D01*
X155896380Y-75945238D01*
X155896380Y-76040476D01*
X155896380Y-74659523D02*
X155896380Y-75230952D01*
X155896380Y-74945238D02*
X154896380Y-74945238D01*
X155039238Y-75040476D01*
X155134476Y-75135714D01*
X155182095Y-75230952D01*
X155896380Y-73707142D02*
X155896380Y-74278571D01*
X155896380Y-73992857D02*
X154896380Y-73992857D01*
X155039238Y-74088095D01*
X155134476Y-74183333D01*
X155182095Y-74278571D01*
X162204761Y-80280952D02*
X162252380Y-80138095D01*
X162252380Y-79900000D01*
X162204761Y-79804761D01*
X162157142Y-79757142D01*
X162061904Y-79709523D01*
X161966666Y-79709523D01*
X161871428Y-79757142D01*
X161823809Y-79804761D01*
X161776190Y-79900000D01*
X161728571Y-80090476D01*
X161680952Y-80185714D01*
X161633333Y-80233333D01*
X161538095Y-80280952D01*
X161442857Y-80280952D01*
X161347619Y-80233333D01*
X161300000Y-80185714D01*
X161252380Y-80090476D01*
X161252380Y-79852380D01*
X161300000Y-79709523D01*
X161252380Y-79423809D02*
X161252380Y-78852380D01*
X162252380Y-79138095D02*
X161252380Y-79138095D01*
X161728571Y-78519047D02*
X161728571Y-78185714D01*
X162252380Y-78042857D02*
X162252380Y-78519047D01*
X161252380Y-78519047D01*
X161252380Y-78042857D01*
X162252380Y-77614285D02*
X161252380Y-77614285D01*
X161252380Y-77233333D01*
X161300000Y-77138095D01*
X161347619Y-77090476D01*
X161442857Y-77042857D01*
X161585714Y-77042857D01*
X161680952Y-77090476D01*
X161728571Y-77138095D01*
X161776190Y-77233333D01*
X161776190Y-77614285D01*
X162252380Y-76614285D02*
X161252380Y-76614285D01*
X161252380Y-76233333D01*
X161300000Y-76138095D01*
X161347619Y-76090476D01*
X161442857Y-76042857D01*
X161585714Y-76042857D01*
X161680952Y-76090476D01*
X161728571Y-76138095D01*
X161776190Y-76233333D01*
X161776190Y-76614285D01*
X161728571Y-75614285D02*
X161728571Y-75280952D01*
X162252380Y-75138095D02*
X162252380Y-75614285D01*
X161252380Y-75614285D01*
X161252380Y-75138095D01*
X162252380Y-74138095D02*
X161776190Y-74471428D01*
X162252380Y-74709523D02*
X161252380Y-74709523D01*
X161252380Y-74328571D01*
X161300000Y-74233333D01*
X161347619Y-74185714D01*
X161442857Y-74138095D01*
X161585714Y-74138095D01*
X161680952Y-74185714D01*
X161728571Y-74233333D01*
X161776190Y-74328571D01*
X161776190Y-74709523D01*
X162347619Y-73947619D02*
X162347619Y-73185714D01*
X162252380Y-72423809D02*
X162252380Y-72995238D01*
X162252380Y-72709523D02*
X161252380Y-72709523D01*
X161395238Y-72804761D01*
X161490476Y-72900000D01*
X161538095Y-72995238D01*
X162347619Y-72233333D02*
X162347619Y-71471428D01*
X162252380Y-71233333D02*
X161252380Y-71233333D01*
X161252380Y-70852380D01*
X161300000Y-70757142D01*
X161347619Y-70709523D01*
X161442857Y-70661904D01*
X161585714Y-70661904D01*
X161680952Y-70709523D01*
X161728571Y-70757142D01*
X161776190Y-70852380D01*
X161776190Y-71233333D01*
X161252380Y-70328571D02*
X162252380Y-70090476D01*
X161538095Y-69900000D01*
X162252380Y-69709523D01*
X161252380Y-69471428D01*
X162252380Y-68519047D02*
X161776190Y-68852380D01*
X162252380Y-69090476D02*
X161252380Y-69090476D01*
X161252380Y-68709523D01*
X161300000Y-68614285D01*
X161347619Y-68566666D01*
X161442857Y-68519047D01*
X161585714Y-68519047D01*
X161680952Y-68566666D01*
X161728571Y-68614285D01*
X161776190Y-68709523D01*
X161776190Y-69090476D01*
X158452380Y-75600000D02*
X158690476Y-75600000D01*
X158595238Y-75838095D02*
X158690476Y-75600000D01*
X158595238Y-75361904D01*
X158880952Y-75742857D02*
X158690476Y-75600000D01*
X158880952Y-75457142D01*
%TO.C,J12*%
X153690476Y-107452380D02*
X153690476Y-108166666D01*
X153642857Y-108309523D01*
X153547619Y-108404761D01*
X153404761Y-108452380D01*
X153309523Y-108452380D01*
X154690476Y-108452380D02*
X154119047Y-108452380D01*
X154404761Y-108452380D02*
X154404761Y-107452380D01*
X154309523Y-107595238D01*
X154214285Y-107690476D01*
X154119047Y-107738095D01*
X155071428Y-107547619D02*
X155119047Y-107500000D01*
X155214285Y-107452380D01*
X155452380Y-107452380D01*
X155547619Y-107500000D01*
X155595238Y-107547619D01*
X155642857Y-107642857D01*
X155642857Y-107738095D01*
X155595238Y-107880952D01*
X155023809Y-108452380D01*
X155642857Y-108452380D01*
X158452761Y-117872952D02*
X158500380Y-117730095D01*
X158500380Y-117492000D01*
X158452761Y-117396761D01*
X158405142Y-117349142D01*
X158309904Y-117301523D01*
X158214666Y-117301523D01*
X158119428Y-117349142D01*
X158071809Y-117396761D01*
X158024190Y-117492000D01*
X157976571Y-117682476D01*
X157928952Y-117777714D01*
X157881333Y-117825333D01*
X157786095Y-117872952D01*
X157690857Y-117872952D01*
X157595619Y-117825333D01*
X157548000Y-117777714D01*
X157500380Y-117682476D01*
X157500380Y-117444380D01*
X157548000Y-117301523D01*
X157500380Y-117015809D02*
X157500380Y-116444380D01*
X158500380Y-116730095D02*
X157500380Y-116730095D01*
X157976571Y-116111047D02*
X157976571Y-115777714D01*
X158500380Y-115634857D02*
X158500380Y-116111047D01*
X157500380Y-116111047D01*
X157500380Y-115634857D01*
X158500380Y-115206285D02*
X157500380Y-115206285D01*
X157500380Y-114825333D01*
X157548000Y-114730095D01*
X157595619Y-114682476D01*
X157690857Y-114634857D01*
X157833714Y-114634857D01*
X157928952Y-114682476D01*
X157976571Y-114730095D01*
X158024190Y-114825333D01*
X158024190Y-115206285D01*
X158500380Y-114206285D02*
X157500380Y-114206285D01*
X157500380Y-113825333D01*
X157548000Y-113730095D01*
X157595619Y-113682476D01*
X157690857Y-113634857D01*
X157833714Y-113634857D01*
X157928952Y-113682476D01*
X157976571Y-113730095D01*
X158024190Y-113825333D01*
X158024190Y-114206285D01*
X157976571Y-113206285D02*
X157976571Y-112872952D01*
X158500380Y-112730095D02*
X158500380Y-113206285D01*
X157500380Y-113206285D01*
X157500380Y-112730095D01*
X158500380Y-111730095D02*
X158024190Y-112063428D01*
X158500380Y-112301523D02*
X157500380Y-112301523D01*
X157500380Y-111920571D01*
X157548000Y-111825333D01*
X157595619Y-111777714D01*
X157690857Y-111730095D01*
X157833714Y-111730095D01*
X157928952Y-111777714D01*
X157976571Y-111825333D01*
X158024190Y-111920571D01*
X158024190Y-112301523D01*
X158595619Y-111539619D02*
X158595619Y-110777714D01*
X157595619Y-110587238D02*
X157548000Y-110539619D01*
X157500380Y-110444380D01*
X157500380Y-110206285D01*
X157548000Y-110111047D01*
X157595619Y-110063428D01*
X157690857Y-110015809D01*
X157786095Y-110015809D01*
X157928952Y-110063428D01*
X158500380Y-110634857D01*
X158500380Y-110015809D01*
X158595619Y-109825333D02*
X158595619Y-109063428D01*
X158500380Y-108825333D02*
X157500380Y-108825333D01*
X157500380Y-108444380D01*
X157548000Y-108349142D01*
X157595619Y-108301523D01*
X157690857Y-108253904D01*
X157833714Y-108253904D01*
X157928952Y-108301523D01*
X157976571Y-108349142D01*
X158024190Y-108444380D01*
X158024190Y-108825333D01*
X157500380Y-107920571D02*
X158500380Y-107682476D01*
X157786095Y-107492000D01*
X158500380Y-107301523D01*
X157500380Y-107063428D01*
X158500380Y-106111047D02*
X158024190Y-106444380D01*
X158500380Y-106682476D02*
X157500380Y-106682476D01*
X157500380Y-106301523D01*
X157548000Y-106206285D01*
X157595619Y-106158666D01*
X157690857Y-106111047D01*
X157833714Y-106111047D01*
X157928952Y-106158666D01*
X157976571Y-106206285D01*
X158024190Y-106301523D01*
X158024190Y-106682476D01*
X154452380Y-112500000D02*
X154690476Y-112500000D01*
X154595238Y-112738095D02*
X154690476Y-112500000D01*
X154595238Y-112261904D01*
X154880952Y-112642857D02*
X154690476Y-112500000D01*
X154880952Y-112357142D01*
%TO.C,J13*%
X130686276Y-71225980D02*
X130686276Y-71940266D01*
X130638657Y-72083123D01*
X130543419Y-72178361D01*
X130400561Y-72225980D01*
X130305323Y-72225980D01*
X131686276Y-72225980D02*
X131114847Y-72225980D01*
X131400561Y-72225980D02*
X131400561Y-71225980D01*
X131305323Y-71368838D01*
X131210085Y-71464076D01*
X131114847Y-71511695D01*
X132019609Y-71225980D02*
X132638657Y-71225980D01*
X132305323Y-71606933D01*
X132448180Y-71606933D01*
X132543419Y-71654552D01*
X132591038Y-71702171D01*
X132638657Y-71797409D01*
X132638657Y-72035504D01*
X132591038Y-72130742D01*
X132543419Y-72178361D01*
X132448180Y-72225980D01*
X132162466Y-72225980D01*
X132067228Y-72178361D01*
X132019609Y-72130742D01*
%TO.C,J14*%
X138814276Y-72394380D02*
X138814276Y-73108666D01*
X138766657Y-73251523D01*
X138671419Y-73346761D01*
X138528561Y-73394380D01*
X138433323Y-73394380D01*
X139814276Y-73394380D02*
X139242847Y-73394380D01*
X139528561Y-73394380D02*
X139528561Y-72394380D01*
X139433323Y-72537238D01*
X139338085Y-72632476D01*
X139242847Y-72680095D01*
X140671419Y-72727714D02*
X140671419Y-73394380D01*
X140433323Y-72346761D02*
X140195228Y-73061047D01*
X140814276Y-73061047D01*
%TO.C,J15*%
X147450276Y-81690780D02*
X147450276Y-82405066D01*
X147402657Y-82547923D01*
X147307419Y-82643161D01*
X147164561Y-82690780D01*
X147069323Y-82690780D01*
X148450276Y-82690780D02*
X147878847Y-82690780D01*
X148164561Y-82690780D02*
X148164561Y-81690780D01*
X148069323Y-81833638D01*
X147974085Y-81928876D01*
X147878847Y-81976495D01*
X149355038Y-81690780D02*
X148878847Y-81690780D01*
X148831228Y-82166971D01*
X148878847Y-82119352D01*
X148974085Y-82071733D01*
X149212180Y-82071733D01*
X149307419Y-82119352D01*
X149355038Y-82166971D01*
X149402657Y-82262209D01*
X149402657Y-82500304D01*
X149355038Y-82595542D01*
X149307419Y-82643161D01*
X149212180Y-82690780D01*
X148974085Y-82690780D01*
X148878847Y-82643161D01*
X148831228Y-82595542D01*
%TO.C,J16*%
X147577276Y-61079580D02*
X147577276Y-61793866D01*
X147529657Y-61936723D01*
X147434419Y-62031961D01*
X147291561Y-62079580D01*
X147196323Y-62079580D01*
X148577276Y-62079580D02*
X148005847Y-62079580D01*
X148291561Y-62079580D02*
X148291561Y-61079580D01*
X148196323Y-61222438D01*
X148101085Y-61317676D01*
X148005847Y-61365295D01*
X149434419Y-61079580D02*
X149243942Y-61079580D01*
X149148704Y-61127200D01*
X149101085Y-61174819D01*
X149005847Y-61317676D01*
X148958228Y-61508152D01*
X148958228Y-61889104D01*
X149005847Y-61984342D01*
X149053466Y-62031961D01*
X149148704Y-62079580D01*
X149339180Y-62079580D01*
X149434419Y-62031961D01*
X149482038Y-61984342D01*
X149529657Y-61889104D01*
X149529657Y-61651009D01*
X149482038Y-61555771D01*
X149434419Y-61508152D01*
X149339180Y-61460533D01*
X149148704Y-61460533D01*
X149053466Y-61508152D01*
X149005847Y-61555771D01*
X148958228Y-61651009D01*
%TO.C,J17*%
X108711849Y-115381914D02*
X108711849Y-116096880D01*
X108664185Y-116239873D01*
X108568856Y-116335202D01*
X108425863Y-116382867D01*
X108330534Y-116382867D01*
X109712802Y-116382867D02*
X109140829Y-116382867D01*
X109426816Y-116382867D02*
X109426816Y-115381914D01*
X109331487Y-115524907D01*
X109236158Y-115620236D01*
X109140829Y-115667900D01*
X110046453Y-115381914D02*
X110713755Y-115381914D01*
X110284775Y-116382867D01*
%TO.C,Q1*%
X140315961Y-111277019D02*
X140220723Y-111229400D01*
X140125485Y-111134161D01*
X139982628Y-110991304D01*
X139887390Y-110943685D01*
X139792152Y-110943685D01*
X139839771Y-111181780D02*
X139744533Y-111134161D01*
X139649295Y-111038923D01*
X139601676Y-110848447D01*
X139601676Y-110515114D01*
X139649295Y-110324638D01*
X139744533Y-110229400D01*
X139839771Y-110181780D01*
X140030247Y-110181780D01*
X140125485Y-110229400D01*
X140220723Y-110324638D01*
X140268342Y-110515114D01*
X140268342Y-110848447D01*
X140220723Y-111038923D01*
X140125485Y-111134161D01*
X140030247Y-111181780D01*
X139839771Y-111181780D01*
X141220723Y-111181780D02*
X140649295Y-111181780D01*
X140935009Y-111181780D02*
X140935009Y-110181780D01*
X140839771Y-110324638D01*
X140744533Y-110419876D01*
X140649295Y-110467495D01*
%TO.C,Q2*%
X138535019Y-99663238D02*
X138487400Y-99758476D01*
X138392161Y-99853714D01*
X138249304Y-99996571D01*
X138201685Y-100091809D01*
X138201685Y-100187047D01*
X138439780Y-100139428D02*
X138392161Y-100234666D01*
X138296923Y-100329904D01*
X138106447Y-100377523D01*
X137773114Y-100377523D01*
X137582638Y-100329904D01*
X137487400Y-100234666D01*
X137439780Y-100139428D01*
X137439780Y-99948952D01*
X137487400Y-99853714D01*
X137582638Y-99758476D01*
X137773114Y-99710857D01*
X138106447Y-99710857D01*
X138296923Y-99758476D01*
X138392161Y-99853714D01*
X138439780Y-99948952D01*
X138439780Y-100139428D01*
X137535019Y-99329904D02*
X137487400Y-99282285D01*
X137439780Y-99187047D01*
X137439780Y-98948952D01*
X137487400Y-98853714D01*
X137535019Y-98806095D01*
X137630257Y-98758476D01*
X137725495Y-98758476D01*
X137868352Y-98806095D01*
X138439780Y-99377523D01*
X138439780Y-98758476D01*
%TO.C,Q3*%
X134499361Y-102615619D02*
X134404123Y-102568000D01*
X134308885Y-102472761D01*
X134166028Y-102329904D01*
X134070790Y-102282285D01*
X133975552Y-102282285D01*
X134023171Y-102520380D02*
X133927933Y-102472761D01*
X133832695Y-102377523D01*
X133785076Y-102187047D01*
X133785076Y-101853714D01*
X133832695Y-101663238D01*
X133927933Y-101568000D01*
X134023171Y-101520380D01*
X134213647Y-101520380D01*
X134308885Y-101568000D01*
X134404123Y-101663238D01*
X134451742Y-101853714D01*
X134451742Y-102187047D01*
X134404123Y-102377523D01*
X134308885Y-102472761D01*
X134213647Y-102520380D01*
X134023171Y-102520380D01*
X134785076Y-101520380D02*
X135404123Y-101520380D01*
X135070790Y-101901333D01*
X135213647Y-101901333D01*
X135308885Y-101948952D01*
X135356504Y-101996571D01*
X135404123Y-102091809D01*
X135404123Y-102329904D01*
X135356504Y-102425142D01*
X135308885Y-102472761D01*
X135213647Y-102520380D01*
X134927933Y-102520380D01*
X134832695Y-102472761D01*
X134785076Y-102425142D01*
%TO.C,Q4*%
X106737161Y-98174419D02*
X106641923Y-98126800D01*
X106546685Y-98031561D01*
X106403828Y-97888704D01*
X106308590Y-97841085D01*
X106213352Y-97841085D01*
X106260971Y-98079180D02*
X106165733Y-98031561D01*
X106070495Y-97936323D01*
X106022876Y-97745847D01*
X106022876Y-97412514D01*
X106070495Y-97222038D01*
X106165733Y-97126800D01*
X106260971Y-97079180D01*
X106451447Y-97079180D01*
X106546685Y-97126800D01*
X106641923Y-97222038D01*
X106689542Y-97412514D01*
X106689542Y-97745847D01*
X106641923Y-97936323D01*
X106546685Y-98031561D01*
X106451447Y-98079180D01*
X106260971Y-98079180D01*
X107546685Y-97412514D02*
X107546685Y-98079180D01*
X107308590Y-97031561D02*
X107070495Y-97745847D01*
X107689542Y-97745847D01*
%TO.C,Q5*%
X101104761Y-110547619D02*
X101009523Y-110500000D01*
X100914285Y-110404761D01*
X100771428Y-110261904D01*
X100676190Y-110214285D01*
X100580952Y-110214285D01*
X100628571Y-110452380D02*
X100533333Y-110404761D01*
X100438095Y-110309523D01*
X100390476Y-110119047D01*
X100390476Y-109785714D01*
X100438095Y-109595238D01*
X100533333Y-109500000D01*
X100628571Y-109452380D01*
X100819047Y-109452380D01*
X100914285Y-109500000D01*
X101009523Y-109595238D01*
X101057142Y-109785714D01*
X101057142Y-110119047D01*
X101009523Y-110309523D01*
X100914285Y-110404761D01*
X100819047Y-110452380D01*
X100628571Y-110452380D01*
X101961904Y-109452380D02*
X101485714Y-109452380D01*
X101438095Y-109928571D01*
X101485714Y-109880952D01*
X101580952Y-109833333D01*
X101819047Y-109833333D01*
X101914285Y-109880952D01*
X101961904Y-109928571D01*
X102009523Y-110023809D01*
X102009523Y-110261904D01*
X101961904Y-110357142D01*
X101914285Y-110404761D01*
X101819047Y-110452380D01*
X101580952Y-110452380D01*
X101485714Y-110404761D01*
X101438095Y-110357142D01*
%TO.C,RV1*%
X158459561Y-59583580D02*
X158126228Y-59107390D01*
X157888133Y-59583580D02*
X157888133Y-58583580D01*
X158269085Y-58583580D01*
X158364323Y-58631200D01*
X158411942Y-58678819D01*
X158459561Y-58774057D01*
X158459561Y-58916914D01*
X158411942Y-59012152D01*
X158364323Y-59059771D01*
X158269085Y-59107390D01*
X157888133Y-59107390D01*
X158745276Y-58583580D02*
X159078609Y-59583580D01*
X159411942Y-58583580D01*
X160269085Y-59583580D02*
X159697657Y-59583580D01*
X159983371Y-59583580D02*
X159983371Y-58583580D01*
X159888133Y-58726438D01*
X159792895Y-58821676D01*
X159697657Y-58869295D01*
X158710333Y-68819780D02*
X158234142Y-68819780D01*
X158186523Y-69295971D01*
X158234142Y-69248352D01*
X158329380Y-69200733D01*
X158567476Y-69200733D01*
X158662714Y-69248352D01*
X158710333Y-69295971D01*
X158757952Y-69391209D01*
X158757952Y-69629304D01*
X158710333Y-69724542D01*
X158662714Y-69772161D01*
X158567476Y-69819780D01*
X158329380Y-69819780D01*
X158234142Y-69772161D01*
X158186523Y-69724542D01*
X159186523Y-69819780D02*
X159186523Y-68819780D01*
X159281761Y-69438828D02*
X159567476Y-69819780D01*
X159567476Y-69153114D02*
X159186523Y-69534066D01*
X156362400Y-63790580D02*
X156362400Y-64028676D01*
X156124304Y-63933438D02*
X156362400Y-64028676D01*
X156600495Y-63933438D01*
X156219542Y-64219152D02*
X156362400Y-64028676D01*
X156505257Y-64219152D01*
%TO.C,SW1*%
X125928571Y-119957142D02*
X125976190Y-119814285D01*
X126023809Y-119766666D01*
X126119047Y-119719047D01*
X126261904Y-119719047D01*
X126357142Y-119766666D01*
X126404761Y-119814285D01*
X126452380Y-119909523D01*
X126452380Y-120290476D01*
X125452380Y-120290476D01*
X125452380Y-119957142D01*
X125500000Y-119861904D01*
X125547619Y-119814285D01*
X125642857Y-119766666D01*
X125738095Y-119766666D01*
X125833333Y-119814285D01*
X125880952Y-119861904D01*
X125928571Y-119957142D01*
X125928571Y-120290476D01*
X125452380Y-119100000D02*
X125452380Y-118909523D01*
X125500000Y-118814285D01*
X125595238Y-118719047D01*
X125785714Y-118671428D01*
X126119047Y-118671428D01*
X126309523Y-118719047D01*
X126404761Y-118814285D01*
X126452380Y-118909523D01*
X126452380Y-119100000D01*
X126404761Y-119195238D01*
X126309523Y-119290476D01*
X126119047Y-119338095D01*
X125785714Y-119338095D01*
X125595238Y-119290476D01*
X125500000Y-119195238D01*
X125452380Y-119100000D01*
X125452380Y-118052380D02*
X125452380Y-117861904D01*
X125500000Y-117766666D01*
X125595238Y-117671428D01*
X125785714Y-117623809D01*
X126119047Y-117623809D01*
X126309523Y-117671428D01*
X126404761Y-117766666D01*
X126452380Y-117861904D01*
X126452380Y-118052380D01*
X126404761Y-118147619D01*
X126309523Y-118242857D01*
X126119047Y-118290476D01*
X125785714Y-118290476D01*
X125595238Y-118242857D01*
X125500000Y-118147619D01*
X125452380Y-118052380D01*
X125452380Y-117338095D02*
X125452380Y-116766666D01*
X126452380Y-117052380D02*
X125452380Y-117052380D01*
%TO.C,SW2*%
X96128571Y-119338095D02*
X96128571Y-119004761D01*
X96652380Y-118861904D02*
X96652380Y-119338095D01*
X95652380Y-119338095D01*
X95652380Y-118861904D01*
X96652380Y-118433333D02*
X95652380Y-118433333D01*
X96652380Y-117861904D01*
X95652380Y-117861904D01*
%TO.C,U1*%
X164732895Y-79491380D02*
X164732895Y-80300904D01*
X164780514Y-80396142D01*
X164828133Y-80443761D01*
X164923371Y-80491380D01*
X165113847Y-80491380D01*
X165209085Y-80443761D01*
X165256704Y-80396142D01*
X165304323Y-80300904D01*
X165304323Y-79491380D01*
X166304323Y-80491380D02*
X165732895Y-80491380D01*
X166018609Y-80491380D02*
X166018609Y-79491380D01*
X165923371Y-79634238D01*
X165828133Y-79729476D01*
X165732895Y-79777095D01*
%TO.C,U2*%
X99230780Y-90776704D02*
X100040304Y-90776704D01*
X100135542Y-90729085D01*
X100183161Y-90681466D01*
X100230780Y-90586228D01*
X100230780Y-90395752D01*
X100183161Y-90300514D01*
X100135542Y-90252895D01*
X100040304Y-90205276D01*
X99230780Y-90205276D01*
X99326019Y-89776704D02*
X99278400Y-89729085D01*
X99230780Y-89633847D01*
X99230780Y-89395752D01*
X99278400Y-89300514D01*
X99326019Y-89252895D01*
X99421257Y-89205276D01*
X99516495Y-89205276D01*
X99659352Y-89252895D01*
X100230780Y-89824323D01*
X100230780Y-89205276D01*
%TO.C,U4*%
X143560895Y-110522180D02*
X143560895Y-111331704D01*
X143608514Y-111426942D01*
X143656133Y-111474561D01*
X143751371Y-111522180D01*
X143941847Y-111522180D01*
X144037085Y-111474561D01*
X144084704Y-111426942D01*
X144132323Y-111331704D01*
X144132323Y-110522180D01*
X145037085Y-110855514D02*
X145037085Y-111522180D01*
X144798990Y-110474561D02*
X144560895Y-111188847D01*
X145179942Y-111188847D01*
%TO.C,U5*%
X131206980Y-87925504D02*
X132016504Y-87925504D01*
X132111742Y-87877885D01*
X132159361Y-87830266D01*
X132206980Y-87735028D01*
X132206980Y-87544552D01*
X132159361Y-87449314D01*
X132111742Y-87401695D01*
X132016504Y-87354076D01*
X131206980Y-87354076D01*
X131206980Y-86401695D02*
X131206980Y-86877885D01*
X131683171Y-86925504D01*
X131635552Y-86877885D01*
X131587933Y-86782647D01*
X131587933Y-86544552D01*
X131635552Y-86449314D01*
X131683171Y-86401695D01*
X131778409Y-86354076D01*
X132016504Y-86354076D01*
X132111742Y-86401695D01*
X132159361Y-86449314D01*
X132206980Y-86544552D01*
X132206980Y-86782647D01*
X132159361Y-86877885D01*
X132111742Y-86925504D01*
%TO.C,U6*%
X120421495Y-101077780D02*
X120421495Y-101887304D01*
X120469114Y-101982542D01*
X120516733Y-102030161D01*
X120611971Y-102077780D01*
X120802447Y-102077780D01*
X120897685Y-102030161D01*
X120945304Y-101982542D01*
X120992923Y-101887304D01*
X120992923Y-101077780D01*
X121897685Y-101077780D02*
X121707209Y-101077780D01*
X121611971Y-101125400D01*
X121564352Y-101173019D01*
X121469114Y-101315876D01*
X121421495Y-101506352D01*
X121421495Y-101887304D01*
X121469114Y-101982542D01*
X121516733Y-102030161D01*
X121611971Y-102077780D01*
X121802447Y-102077780D01*
X121897685Y-102030161D01*
X121945304Y-101982542D01*
X121992923Y-101887304D01*
X121992923Y-101649209D01*
X121945304Y-101553971D01*
X121897685Y-101506352D01*
X121802447Y-101458733D01*
X121611971Y-101458733D01*
X121516733Y-101506352D01*
X121469114Y-101553971D01*
X121421495Y-101649209D01*
X116924628Y-95000771D02*
X117067485Y-95048390D01*
X117115104Y-95096009D01*
X117162723Y-95191247D01*
X117162723Y-95334104D01*
X117115104Y-95429342D01*
X117067485Y-95476961D01*
X116972247Y-95524580D01*
X116591295Y-95524580D01*
X116591295Y-94524580D01*
X116924628Y-94524580D01*
X117019866Y-94572200D01*
X117067485Y-94619819D01*
X117115104Y-94715057D01*
X117115104Y-94810295D01*
X117067485Y-94905533D01*
X117019866Y-94953152D01*
X116924628Y-95000771D01*
X116591295Y-95000771D01*
X117591295Y-94524580D02*
X117591295Y-95334104D01*
X117638914Y-95429342D01*
X117686533Y-95476961D01*
X117781771Y-95524580D01*
X117972247Y-95524580D01*
X118067485Y-95476961D01*
X118115104Y-95429342D01*
X118162723Y-95334104D01*
X118162723Y-94524580D01*
X118543676Y-94524580D02*
X119162723Y-94524580D01*
X118829390Y-94905533D01*
X118972247Y-94905533D01*
X119067485Y-94953152D01*
X119115104Y-95000771D01*
X119162723Y-95096009D01*
X119162723Y-95334104D01*
X119115104Y-95429342D01*
X119067485Y-95476961D01*
X118972247Y-95524580D01*
X118686533Y-95524580D01*
X118591295Y-95476961D01*
X118543676Y-95429342D01*
X119496057Y-94524580D02*
X120115104Y-94524580D01*
X119781771Y-94905533D01*
X119924628Y-94905533D01*
X120019866Y-94953152D01*
X120067485Y-95000771D01*
X120115104Y-95096009D01*
X120115104Y-95334104D01*
X120067485Y-95429342D01*
X120019866Y-95476961D01*
X119924628Y-95524580D01*
X119638914Y-95524580D01*
X119543676Y-95476961D01*
X119496057Y-95429342D01*
X120496057Y-95476961D02*
X120638914Y-95524580D01*
X120877009Y-95524580D01*
X120972247Y-95476961D01*
X121019866Y-95429342D01*
X121067485Y-95334104D01*
X121067485Y-95238866D01*
X121019866Y-95143628D01*
X120972247Y-95096009D01*
X120877009Y-95048390D01*
X120686533Y-95000771D01*
X120591295Y-94953152D01*
X120543676Y-94905533D01*
X120496057Y-94810295D01*
X120496057Y-94715057D01*
X120543676Y-94619819D01*
X120591295Y-94572200D01*
X120686533Y-94524580D01*
X120924628Y-94524580D01*
X121067485Y-94572200D01*
X121496057Y-95524580D02*
X121496057Y-94524580D01*
X121734152Y-94524580D01*
X121877009Y-94572200D01*
X121972247Y-94667438D01*
X122019866Y-94762676D01*
X122067485Y-94953152D01*
X122067485Y-95096009D01*
X122019866Y-95286485D01*
X121972247Y-95381723D01*
X121877009Y-95476961D01*
X121734152Y-95524580D01*
X121496057Y-95524580D01*
X122972247Y-94524580D02*
X122496057Y-94524580D01*
X122448438Y-95000771D01*
X122496057Y-94953152D01*
X122591295Y-94905533D01*
X122829390Y-94905533D01*
X122924628Y-94953152D01*
X122972247Y-95000771D01*
X123019866Y-95096009D01*
X123019866Y-95334104D01*
X122972247Y-95429342D01*
X122924628Y-95476961D01*
X122829390Y-95524580D01*
X122591295Y-95524580D01*
X122496057Y-95476961D01*
X122448438Y-95429342D01*
X123353200Y-94524580D02*
X123591295Y-95524580D01*
X123781771Y-94810295D01*
X123972247Y-95524580D01*
X124210342Y-94524580D01*
X125115104Y-94572200D02*
X125019866Y-94524580D01*
X124877009Y-94524580D01*
X124734152Y-94572200D01*
X124638914Y-94667438D01*
X124591295Y-94762676D01*
X124543676Y-94953152D01*
X124543676Y-95096009D01*
X124591295Y-95286485D01*
X124638914Y-95381723D01*
X124734152Y-95476961D01*
X124877009Y-95524580D01*
X124972247Y-95524580D01*
X125115104Y-95476961D01*
X125162723Y-95429342D01*
X125162723Y-95096009D01*
X124972247Y-95096009D01*
X122707400Y-100722180D02*
X122707400Y-100960276D01*
X122469304Y-100865038D02*
X122707400Y-100960276D01*
X122945495Y-100865038D01*
X122564542Y-101150752D02*
X122707400Y-100960276D01*
X122850257Y-101150752D01*
X122707400Y-100722180D02*
X122707400Y-100960276D01*
X122469304Y-100865038D02*
X122707400Y-100960276D01*
X122945495Y-100865038D01*
X122564542Y-101150752D02*
X122707400Y-100960276D01*
X122850257Y-101150752D01*
%TO.C,U7*%
X106548780Y-107746704D02*
X107358304Y-107746704D01*
X107453542Y-107699085D01*
X107501161Y-107651466D01*
X107548780Y-107556228D01*
X107548780Y-107365752D01*
X107501161Y-107270514D01*
X107453542Y-107222895D01*
X107358304Y-107175276D01*
X106548780Y-107175276D01*
X106548780Y-106794323D02*
X106548780Y-106127657D01*
X107548780Y-106556228D01*
%TO.C,J18*%
X86414076Y-64889580D02*
X86414076Y-65603866D01*
X86366457Y-65746723D01*
X86271219Y-65841961D01*
X86128361Y-65889580D01*
X86033123Y-65889580D01*
X87414076Y-65889580D02*
X86842647Y-65889580D01*
X87128361Y-65889580D02*
X87128361Y-64889580D01*
X87033123Y-65032438D01*
X86937885Y-65127676D01*
X86842647Y-65175295D01*
X87985504Y-65318152D02*
X87890266Y-65270533D01*
X87842647Y-65222914D01*
X87795028Y-65127676D01*
X87795028Y-65080057D01*
X87842647Y-64984819D01*
X87890266Y-64937200D01*
X87985504Y-64889580D01*
X88175980Y-64889580D01*
X88271219Y-64937200D01*
X88318838Y-64984819D01*
X88366457Y-65080057D01*
X88366457Y-65127676D01*
X88318838Y-65222914D01*
X88271219Y-65270533D01*
X88175980Y-65318152D01*
X87985504Y-65318152D01*
X87890266Y-65365771D01*
X87842647Y-65413390D01*
X87795028Y-65508628D01*
X87795028Y-65699104D01*
X87842647Y-65794342D01*
X87890266Y-65841961D01*
X87985504Y-65889580D01*
X88175980Y-65889580D01*
X88271219Y-65841961D01*
X88318838Y-65794342D01*
X88366457Y-65699104D01*
X88366457Y-65508628D01*
X88318838Y-65413390D01*
X88271219Y-65365771D01*
X88175980Y-65318152D01*
%TD*%
M02*
