%TF.GenerationSoftware,KiCad,Pcbnew,(5.1.10)-1*%
%TF.CreationDate,2022-02-13T15:12:39-05:00*%
%TF.ProjectId,dispenser,64697370-656e-4736-9572-2e6b69636164,rev?*%
%TF.SameCoordinates,Original*%
%TF.FileFunction,Soldermask,Top*%
%TF.FilePolarity,Negative*%
%FSLAX46Y46*%
G04 Gerber Fmt 4.6, Leading zero omitted, Abs format (unit mm)*
G04 Created by KiCad (PCBNEW (5.1.10)-1) date 2022-02-13 15:12:39*
%MOMM*%
%LPD*%
G01*
G04 APERTURE LIST*
%ADD10C,0.000100*%
%ADD11O,1.700000X1.700000*%
%ADD12R,1.700000X1.700000*%
%ADD13C,3.000000*%
%ADD14C,2.400000*%
%ADD15R,1.800000X1.800000*%
%ADD16C,2.000000*%
%ADD17R,1.651000X2.184400*%
%ADD18O,1.600000X1.600000*%
%ADD19R,1.600000X1.600000*%
%ADD20C,1.244600*%
%ADD21O,0.775000X1.550000*%
%ADD22R,1.500000X1.550000*%
%ADD23O,1.300000X0.650000*%
%ADD24R,0.400000X1.350000*%
%ADD25R,0.900000X0.800000*%
%ADD26R,0.800000X0.900000*%
%ADD27C,0.965200*%
%ADD28C,1.600000*%
%ADD29R,2.000000X0.900000*%
%ADD30R,0.900000X2.000000*%
%ADD31R,5.000000X5.000000*%
%ADD32R,1.560000X0.650000*%
%ADD33R,10.800000X9.400000*%
%ADD34R,1.100000X4.600000*%
%ADD35R,0.914400X0.431800*%
%ADD36R,3.350000X3.350000*%
G04 APERTURE END LIST*
D10*
%TO.C,J17*%
G36*
X113988400Y-121829800D02*
G01*
X112588400Y-121829800D01*
X112588400Y-120079800D01*
X113988400Y-120079800D01*
X114014400Y-120080800D01*
X114040400Y-120082800D01*
X114066400Y-120085800D01*
X114092400Y-120090800D01*
X114117400Y-120096800D01*
X114143400Y-120103800D01*
X114167400Y-120112800D01*
X114191400Y-120122800D01*
X114215400Y-120133800D01*
X114238400Y-120146800D01*
X114260400Y-120160800D01*
X114282400Y-120174800D01*
X114303400Y-120190800D01*
X114323400Y-120207800D01*
X114342400Y-120225800D01*
X114360400Y-120244800D01*
X114377400Y-120264800D01*
X114393400Y-120285800D01*
X114407400Y-120307800D01*
X114421400Y-120329800D01*
X114434400Y-120352800D01*
X114445400Y-120376800D01*
X114455400Y-120400800D01*
X114464400Y-120424800D01*
X114471400Y-120450800D01*
X114477400Y-120475800D01*
X114482400Y-120501800D01*
X114485400Y-120527800D01*
X114487400Y-120553800D01*
X114488400Y-120579800D01*
X114488400Y-121329800D01*
X114487400Y-121355800D01*
X114485400Y-121381800D01*
X114482400Y-121407800D01*
X114477400Y-121433800D01*
X114471400Y-121458800D01*
X114464400Y-121484800D01*
X114455400Y-121508800D01*
X114445400Y-121532800D01*
X114434400Y-121556800D01*
X114421400Y-121579800D01*
X114407400Y-121601800D01*
X114393400Y-121623800D01*
X114377400Y-121644800D01*
X114360400Y-121664800D01*
X114342400Y-121683800D01*
X114323400Y-121701800D01*
X114303400Y-121718800D01*
X114282400Y-121734800D01*
X114260400Y-121748800D01*
X114238400Y-121762800D01*
X114215400Y-121775800D01*
X114191400Y-121786800D01*
X114167400Y-121796800D01*
X114143400Y-121805800D01*
X114117400Y-121812800D01*
X114092400Y-121818800D01*
X114066400Y-121823800D01*
X114040400Y-121826800D01*
X114014400Y-121828800D01*
X113988400Y-121829800D01*
G37*
X113988400Y-121829800D02*
X112588400Y-121829800D01*
X112588400Y-120079800D01*
X113988400Y-120079800D01*
X114014400Y-120080800D01*
X114040400Y-120082800D01*
X114066400Y-120085800D01*
X114092400Y-120090800D01*
X114117400Y-120096800D01*
X114143400Y-120103800D01*
X114167400Y-120112800D01*
X114191400Y-120122800D01*
X114215400Y-120133800D01*
X114238400Y-120146800D01*
X114260400Y-120160800D01*
X114282400Y-120174800D01*
X114303400Y-120190800D01*
X114323400Y-120207800D01*
X114342400Y-120225800D01*
X114360400Y-120244800D01*
X114377400Y-120264800D01*
X114393400Y-120285800D01*
X114407400Y-120307800D01*
X114421400Y-120329800D01*
X114434400Y-120352800D01*
X114445400Y-120376800D01*
X114455400Y-120400800D01*
X114464400Y-120424800D01*
X114471400Y-120450800D01*
X114477400Y-120475800D01*
X114482400Y-120501800D01*
X114485400Y-120527800D01*
X114487400Y-120553800D01*
X114488400Y-120579800D01*
X114488400Y-121329800D01*
X114487400Y-121355800D01*
X114485400Y-121381800D01*
X114482400Y-121407800D01*
X114477400Y-121433800D01*
X114471400Y-121458800D01*
X114464400Y-121484800D01*
X114455400Y-121508800D01*
X114445400Y-121532800D01*
X114434400Y-121556800D01*
X114421400Y-121579800D01*
X114407400Y-121601800D01*
X114393400Y-121623800D01*
X114377400Y-121644800D01*
X114360400Y-121664800D01*
X114342400Y-121683800D01*
X114323400Y-121701800D01*
X114303400Y-121718800D01*
X114282400Y-121734800D01*
X114260400Y-121748800D01*
X114238400Y-121762800D01*
X114215400Y-121775800D01*
X114191400Y-121786800D01*
X114167400Y-121796800D01*
X114143400Y-121805800D01*
X114117400Y-121812800D01*
X114092400Y-121818800D01*
X114066400Y-121823800D01*
X114040400Y-121826800D01*
X114014400Y-121828800D01*
X113988400Y-121829800D01*
G36*
X106788400Y-120079800D02*
G01*
X108188400Y-120079800D01*
X108188400Y-121829800D01*
X106788400Y-121829800D01*
X106762400Y-121828800D01*
X106736400Y-121826800D01*
X106710400Y-121823800D01*
X106684400Y-121818800D01*
X106659400Y-121812800D01*
X106633400Y-121805800D01*
X106609400Y-121796800D01*
X106585400Y-121786800D01*
X106561400Y-121775800D01*
X106538400Y-121762800D01*
X106516400Y-121748800D01*
X106494400Y-121734800D01*
X106473400Y-121718800D01*
X106453400Y-121701800D01*
X106434400Y-121683800D01*
X106416400Y-121664800D01*
X106399400Y-121644800D01*
X106383400Y-121623800D01*
X106369400Y-121601800D01*
X106355400Y-121579800D01*
X106342400Y-121556800D01*
X106331400Y-121532800D01*
X106321400Y-121508800D01*
X106312400Y-121484800D01*
X106305400Y-121458800D01*
X106299400Y-121433800D01*
X106294400Y-121407800D01*
X106291400Y-121381800D01*
X106289400Y-121355800D01*
X106288400Y-121329800D01*
X106288400Y-120579800D01*
X106289400Y-120553800D01*
X106291400Y-120527800D01*
X106294400Y-120501800D01*
X106299400Y-120475800D01*
X106305400Y-120450800D01*
X106312400Y-120424800D01*
X106321400Y-120400800D01*
X106331400Y-120376800D01*
X106342400Y-120352800D01*
X106355400Y-120329800D01*
X106369400Y-120307800D01*
X106383400Y-120285800D01*
X106399400Y-120264800D01*
X106416400Y-120244800D01*
X106434400Y-120225800D01*
X106453400Y-120207800D01*
X106473400Y-120190800D01*
X106494400Y-120174800D01*
X106516400Y-120160800D01*
X106538400Y-120146800D01*
X106561400Y-120133800D01*
X106585400Y-120122800D01*
X106609400Y-120112800D01*
X106633400Y-120103800D01*
X106659400Y-120096800D01*
X106684400Y-120090800D01*
X106710400Y-120085800D01*
X106736400Y-120082800D01*
X106762400Y-120080800D01*
X106788400Y-120079800D01*
G37*
X106788400Y-120079800D02*
X108188400Y-120079800D01*
X108188400Y-121829800D01*
X106788400Y-121829800D01*
X106762400Y-121828800D01*
X106736400Y-121826800D01*
X106710400Y-121823800D01*
X106684400Y-121818800D01*
X106659400Y-121812800D01*
X106633400Y-121805800D01*
X106609400Y-121796800D01*
X106585400Y-121786800D01*
X106561400Y-121775800D01*
X106538400Y-121762800D01*
X106516400Y-121748800D01*
X106494400Y-121734800D01*
X106473400Y-121718800D01*
X106453400Y-121701800D01*
X106434400Y-121683800D01*
X106416400Y-121664800D01*
X106399400Y-121644800D01*
X106383400Y-121623800D01*
X106369400Y-121601800D01*
X106355400Y-121579800D01*
X106342400Y-121556800D01*
X106331400Y-121532800D01*
X106321400Y-121508800D01*
X106312400Y-121484800D01*
X106305400Y-121458800D01*
X106299400Y-121433800D01*
X106294400Y-121407800D01*
X106291400Y-121381800D01*
X106289400Y-121355800D01*
X106288400Y-121329800D01*
X106288400Y-120579800D01*
X106289400Y-120553800D01*
X106291400Y-120527800D01*
X106294400Y-120501800D01*
X106299400Y-120475800D01*
X106305400Y-120450800D01*
X106312400Y-120424800D01*
X106321400Y-120400800D01*
X106331400Y-120376800D01*
X106342400Y-120352800D01*
X106355400Y-120329800D01*
X106369400Y-120307800D01*
X106383400Y-120285800D01*
X106399400Y-120264800D01*
X106416400Y-120244800D01*
X106434400Y-120225800D01*
X106453400Y-120207800D01*
X106473400Y-120190800D01*
X106494400Y-120174800D01*
X106516400Y-120160800D01*
X106538400Y-120146800D01*
X106561400Y-120133800D01*
X106585400Y-120122800D01*
X106609400Y-120112800D01*
X106633400Y-120103800D01*
X106659400Y-120096800D01*
X106684400Y-120090800D01*
X106710400Y-120085800D01*
X106736400Y-120082800D01*
X106762400Y-120080800D01*
X106788400Y-120079800D01*
%TD*%
D11*
%TO.C,J3*%
X154600000Y-89420000D03*
X154600000Y-86880000D03*
X154600000Y-84340000D03*
D12*
X154600000Y-81800000D03*
%TD*%
D11*
%TO.C,J6*%
X177400000Y-81720000D03*
X177400000Y-84260000D03*
X177400000Y-86800000D03*
D12*
X177400000Y-89340000D03*
%TD*%
D11*
%TO.C,J5*%
X177400000Y-94580000D03*
X177400000Y-97120000D03*
X177400000Y-99660000D03*
D12*
X177400000Y-102200000D03*
%TD*%
D11*
%TO.C,J4*%
X153400000Y-102420000D03*
X153400000Y-99880000D03*
X153400000Y-97340000D03*
D12*
X153400000Y-94800000D03*
%TD*%
D11*
%TO.C,J2*%
X95800000Y-91020000D03*
X95800000Y-88480000D03*
X95800000Y-85940000D03*
D12*
X95800000Y-83400000D03*
%TD*%
D13*
%TO.C,TP5*%
X154100000Y-119100000D03*
%TD*%
%TO.C,TP4*%
X92500000Y-107600000D03*
%TD*%
%TO.C,TP3*%
X92300000Y-116000000D03*
%TD*%
%TO.C,TP2*%
X115000000Y-100900000D03*
%TD*%
%TO.C,TP1*%
X87200000Y-107800000D03*
%TD*%
%TO.C,C9*%
G36*
G01*
X149262500Y-113687500D02*
X149737500Y-113687500D01*
G75*
G02*
X149975000Y-113925000I0J-237500D01*
G01*
X149975000Y-114525000D01*
G75*
G02*
X149737500Y-114762500I-237500J0D01*
G01*
X149262500Y-114762500D01*
G75*
G02*
X149025000Y-114525000I0J237500D01*
G01*
X149025000Y-113925000D01*
G75*
G02*
X149262500Y-113687500I237500J0D01*
G01*
G37*
G36*
G01*
X149262500Y-111962500D02*
X149737500Y-111962500D01*
G75*
G02*
X149975000Y-112200000I0J-237500D01*
G01*
X149975000Y-112800000D01*
G75*
G02*
X149737500Y-113037500I-237500J0D01*
G01*
X149262500Y-113037500D01*
G75*
G02*
X149025000Y-112800000I0J237500D01*
G01*
X149025000Y-112200000D01*
G75*
G02*
X149262500Y-111962500I237500J0D01*
G01*
G37*
%TD*%
D14*
%TO.C,SW3*%
X129819400Y-101396800D03*
X129819400Y-97332800D03*
%TD*%
%TO.C,F2*%
G36*
G01*
X137546800Y-118703100D02*
X137546800Y-118228100D01*
G75*
G02*
X137784300Y-117990600I237500J0D01*
G01*
X138359300Y-117990600D01*
G75*
G02*
X138596800Y-118228100I0J-237500D01*
G01*
X138596800Y-118703100D01*
G75*
G02*
X138359300Y-118940600I-237500J0D01*
G01*
X137784300Y-118940600D01*
G75*
G02*
X137546800Y-118703100I0J237500D01*
G01*
G37*
G36*
G01*
X135796800Y-118703100D02*
X135796800Y-118228100D01*
G75*
G02*
X136034300Y-117990600I237500J0D01*
G01*
X136609300Y-117990600D01*
G75*
G02*
X136846800Y-118228100I0J-237500D01*
G01*
X136846800Y-118703100D01*
G75*
G02*
X136609300Y-118940600I-237500J0D01*
G01*
X136034300Y-118940600D01*
G75*
G02*
X135796800Y-118703100I0J237500D01*
G01*
G37*
%TD*%
%TO.C,F1*%
G36*
G01*
X117712500Y-118180400D02*
X117237500Y-118180400D01*
G75*
G02*
X117000000Y-117942900I0J237500D01*
G01*
X117000000Y-117367900D01*
G75*
G02*
X117237500Y-117130400I237500J0D01*
G01*
X117712500Y-117130400D01*
G75*
G02*
X117950000Y-117367900I0J-237500D01*
G01*
X117950000Y-117942900D01*
G75*
G02*
X117712500Y-118180400I-237500J0D01*
G01*
G37*
G36*
G01*
X117712500Y-119930400D02*
X117237500Y-119930400D01*
G75*
G02*
X117000000Y-119692900I0J237500D01*
G01*
X117000000Y-119117900D01*
G75*
G02*
X117237500Y-118880400I237500J0D01*
G01*
X117712500Y-118880400D01*
G75*
G02*
X117950000Y-119117900I0J-237500D01*
G01*
X117950000Y-119692900D01*
G75*
G02*
X117712500Y-119930400I-237500J0D01*
G01*
G37*
%TD*%
%TO.C,R3*%
G36*
G01*
X175421300Y-71507800D02*
X174946300Y-71507800D01*
G75*
G02*
X174708800Y-71270300I0J237500D01*
G01*
X174708800Y-70770300D01*
G75*
G02*
X174946300Y-70532800I237500J0D01*
G01*
X175421300Y-70532800D01*
G75*
G02*
X175658800Y-70770300I0J-237500D01*
G01*
X175658800Y-71270300D01*
G75*
G02*
X175421300Y-71507800I-237500J0D01*
G01*
G37*
G36*
G01*
X175421300Y-73332800D02*
X174946300Y-73332800D01*
G75*
G02*
X174708800Y-73095300I0J237500D01*
G01*
X174708800Y-72595300D01*
G75*
G02*
X174946300Y-72357800I237500J0D01*
G01*
X175421300Y-72357800D01*
G75*
G02*
X175658800Y-72595300I0J-237500D01*
G01*
X175658800Y-73095300D01*
G75*
G02*
X175421300Y-73332800I-237500J0D01*
G01*
G37*
%TD*%
D11*
%TO.C,J9*%
X169926000Y-73456800D03*
D12*
X169926000Y-70916800D03*
%TD*%
%TO.C,R14*%
G36*
G01*
X96712500Y-110937500D02*
X96712500Y-110462500D01*
G75*
G02*
X96950000Y-110225000I237500J0D01*
G01*
X97450000Y-110225000D01*
G75*
G02*
X97687500Y-110462500I0J-237500D01*
G01*
X97687500Y-110937500D01*
G75*
G02*
X97450000Y-111175000I-237500J0D01*
G01*
X96950000Y-111175000D01*
G75*
G02*
X96712500Y-110937500I0J237500D01*
G01*
G37*
G36*
G01*
X94887500Y-110937500D02*
X94887500Y-110462500D01*
G75*
G02*
X95125000Y-110225000I237500J0D01*
G01*
X95625000Y-110225000D01*
G75*
G02*
X95862500Y-110462500I0J-237500D01*
G01*
X95862500Y-110937500D01*
G75*
G02*
X95625000Y-111175000I-237500J0D01*
G01*
X95125000Y-111175000D01*
G75*
G02*
X94887500Y-110937500I0J237500D01*
G01*
G37*
%TD*%
%TO.C,R13*%
G36*
G01*
X102026900Y-101380300D02*
X102026900Y-100905300D01*
G75*
G02*
X102264400Y-100667800I237500J0D01*
G01*
X102764400Y-100667800D01*
G75*
G02*
X103001900Y-100905300I0J-237500D01*
G01*
X103001900Y-101380300D01*
G75*
G02*
X102764400Y-101617800I-237500J0D01*
G01*
X102264400Y-101617800D01*
G75*
G02*
X102026900Y-101380300I0J237500D01*
G01*
G37*
G36*
G01*
X100201900Y-101380300D02*
X100201900Y-100905300D01*
G75*
G02*
X100439400Y-100667800I237500J0D01*
G01*
X100939400Y-100667800D01*
G75*
G02*
X101176900Y-100905300I0J-237500D01*
G01*
X101176900Y-101380300D01*
G75*
G02*
X100939400Y-101617800I-237500J0D01*
G01*
X100439400Y-101617800D01*
G75*
G02*
X100201900Y-101380300I0J237500D01*
G01*
G37*
%TD*%
%TO.C,R12*%
G36*
G01*
X104816900Y-113101300D02*
X105291900Y-113101300D01*
G75*
G02*
X105529400Y-113338800I0J-237500D01*
G01*
X105529400Y-113838800D01*
G75*
G02*
X105291900Y-114076300I-237500J0D01*
G01*
X104816900Y-114076300D01*
G75*
G02*
X104579400Y-113838800I0J237500D01*
G01*
X104579400Y-113338800D01*
G75*
G02*
X104816900Y-113101300I237500J0D01*
G01*
G37*
G36*
G01*
X104816900Y-111276300D02*
X105291900Y-111276300D01*
G75*
G02*
X105529400Y-111513800I0J-237500D01*
G01*
X105529400Y-112013800D01*
G75*
G02*
X105291900Y-112251300I-237500J0D01*
G01*
X104816900Y-112251300D01*
G75*
G02*
X104579400Y-112013800I0J237500D01*
G01*
X104579400Y-111513800D01*
G75*
G02*
X104816900Y-111276300I237500J0D01*
G01*
G37*
%TD*%
%TO.C,R11*%
G36*
G01*
X104479400Y-109254300D02*
X104479400Y-108779300D01*
G75*
G02*
X104716900Y-108541800I237500J0D01*
G01*
X105216900Y-108541800D01*
G75*
G02*
X105454400Y-108779300I0J-237500D01*
G01*
X105454400Y-109254300D01*
G75*
G02*
X105216900Y-109491800I-237500J0D01*
G01*
X104716900Y-109491800D01*
G75*
G02*
X104479400Y-109254300I0J237500D01*
G01*
G37*
G36*
G01*
X102654400Y-109254300D02*
X102654400Y-108779300D01*
G75*
G02*
X102891900Y-108541800I237500J0D01*
G01*
X103391900Y-108541800D01*
G75*
G02*
X103629400Y-108779300I0J-237500D01*
G01*
X103629400Y-109254300D01*
G75*
G02*
X103391900Y-109491800I-237500J0D01*
G01*
X102891900Y-109491800D01*
G75*
G02*
X102654400Y-109254300I0J237500D01*
G01*
G37*
%TD*%
%TO.C,R10*%
G36*
G01*
X104463400Y-105698300D02*
X104463400Y-105223300D01*
G75*
G02*
X104700900Y-104985800I237500J0D01*
G01*
X105200900Y-104985800D01*
G75*
G02*
X105438400Y-105223300I0J-237500D01*
G01*
X105438400Y-105698300D01*
G75*
G02*
X105200900Y-105935800I-237500J0D01*
G01*
X104700900Y-105935800D01*
G75*
G02*
X104463400Y-105698300I0J237500D01*
G01*
G37*
G36*
G01*
X102638400Y-105698300D02*
X102638400Y-105223300D01*
G75*
G02*
X102875900Y-104985800I237500J0D01*
G01*
X103375900Y-104985800D01*
G75*
G02*
X103613400Y-105223300I0J-237500D01*
G01*
X103613400Y-105698300D01*
G75*
G02*
X103375900Y-105935800I-237500J0D01*
G01*
X102875900Y-105935800D01*
G75*
G02*
X102638400Y-105698300I0J237500D01*
G01*
G37*
%TD*%
%TO.C,R9*%
G36*
G01*
X118179400Y-110270300D02*
X118179400Y-109795300D01*
G75*
G02*
X118416900Y-109557800I237500J0D01*
G01*
X118916900Y-109557800D01*
G75*
G02*
X119154400Y-109795300I0J-237500D01*
G01*
X119154400Y-110270300D01*
G75*
G02*
X118916900Y-110507800I-237500J0D01*
G01*
X118416900Y-110507800D01*
G75*
G02*
X118179400Y-110270300I0J237500D01*
G01*
G37*
G36*
G01*
X116354400Y-110270300D02*
X116354400Y-109795300D01*
G75*
G02*
X116591900Y-109557800I237500J0D01*
G01*
X117091900Y-109557800D01*
G75*
G02*
X117329400Y-109795300I0J-237500D01*
G01*
X117329400Y-110270300D01*
G75*
G02*
X117091900Y-110507800I-237500J0D01*
G01*
X116591900Y-110507800D01*
G75*
G02*
X116354400Y-110270300I0J237500D01*
G01*
G37*
%TD*%
%TO.C,R8*%
G36*
G01*
X119040900Y-113759800D02*
X119515900Y-113759800D01*
G75*
G02*
X119753400Y-113997300I0J-237500D01*
G01*
X119753400Y-114497300D01*
G75*
G02*
X119515900Y-114734800I-237500J0D01*
G01*
X119040900Y-114734800D01*
G75*
G02*
X118803400Y-114497300I0J237500D01*
G01*
X118803400Y-113997300D01*
G75*
G02*
X119040900Y-113759800I237500J0D01*
G01*
G37*
G36*
G01*
X119040900Y-111934800D02*
X119515900Y-111934800D01*
G75*
G02*
X119753400Y-112172300I0J-237500D01*
G01*
X119753400Y-112672300D01*
G75*
G02*
X119515900Y-112909800I-237500J0D01*
G01*
X119040900Y-112909800D01*
G75*
G02*
X118803400Y-112672300I0J237500D01*
G01*
X118803400Y-112172300D01*
G75*
G02*
X119040900Y-111934800I237500J0D01*
G01*
G37*
%TD*%
%TO.C,R7*%
G36*
G01*
X117229900Y-112909800D02*
X116754900Y-112909800D01*
G75*
G02*
X116517400Y-112672300I0J237500D01*
G01*
X116517400Y-112172300D01*
G75*
G02*
X116754900Y-111934800I237500J0D01*
G01*
X117229900Y-111934800D01*
G75*
G02*
X117467400Y-112172300I0J-237500D01*
G01*
X117467400Y-112672300D01*
G75*
G02*
X117229900Y-112909800I-237500J0D01*
G01*
G37*
G36*
G01*
X117229900Y-114734800D02*
X116754900Y-114734800D01*
G75*
G02*
X116517400Y-114497300I0J237500D01*
G01*
X116517400Y-113997300D01*
G75*
G02*
X116754900Y-113759800I237500J0D01*
G01*
X117229900Y-113759800D01*
G75*
G02*
X117467400Y-113997300I0J-237500D01*
G01*
X117467400Y-114497300D01*
G75*
G02*
X117229900Y-114734800I-237500J0D01*
G01*
G37*
%TD*%
%TO.C,R6*%
G36*
G01*
X140165900Y-103496100D02*
X140165900Y-103971100D01*
G75*
G02*
X139928400Y-104208600I-237500J0D01*
G01*
X139428400Y-104208600D01*
G75*
G02*
X139190900Y-103971100I0J237500D01*
G01*
X139190900Y-103496100D01*
G75*
G02*
X139428400Y-103258600I237500J0D01*
G01*
X139928400Y-103258600D01*
G75*
G02*
X140165900Y-103496100I0J-237500D01*
G01*
G37*
G36*
G01*
X141990900Y-103496100D02*
X141990900Y-103971100D01*
G75*
G02*
X141753400Y-104208600I-237500J0D01*
G01*
X141253400Y-104208600D01*
G75*
G02*
X141015900Y-103971100I0J237500D01*
G01*
X141015900Y-103496100D01*
G75*
G02*
X141253400Y-103258600I237500J0D01*
G01*
X141753400Y-103258600D01*
G75*
G02*
X141990900Y-103496100I0J-237500D01*
G01*
G37*
%TD*%
%TO.C,R5*%
G36*
G01*
X138979900Y-114676100D02*
X139454900Y-114676100D01*
G75*
G02*
X139692400Y-114913600I0J-237500D01*
G01*
X139692400Y-115413600D01*
G75*
G02*
X139454900Y-115651100I-237500J0D01*
G01*
X138979900Y-115651100D01*
G75*
G02*
X138742400Y-115413600I0J237500D01*
G01*
X138742400Y-114913600D01*
G75*
G02*
X138979900Y-114676100I237500J0D01*
G01*
G37*
G36*
G01*
X138979900Y-112851100D02*
X139454900Y-112851100D01*
G75*
G02*
X139692400Y-113088600I0J-237500D01*
G01*
X139692400Y-113588600D01*
G75*
G02*
X139454900Y-113826100I-237500J0D01*
G01*
X138979900Y-113826100D01*
G75*
G02*
X138742400Y-113588600I0J237500D01*
G01*
X138742400Y-113088600D01*
G75*
G02*
X138979900Y-112851100I237500J0D01*
G01*
G37*
%TD*%
%TO.C,R4*%
G36*
G01*
X144484100Y-66959300D02*
X144009100Y-66959300D01*
G75*
G02*
X143771600Y-66721800I0J237500D01*
G01*
X143771600Y-66221800D01*
G75*
G02*
X144009100Y-65984300I237500J0D01*
G01*
X144484100Y-65984300D01*
G75*
G02*
X144721600Y-66221800I0J-237500D01*
G01*
X144721600Y-66721800D01*
G75*
G02*
X144484100Y-66959300I-237500J0D01*
G01*
G37*
G36*
G01*
X144484100Y-68784300D02*
X144009100Y-68784300D01*
G75*
G02*
X143771600Y-68546800I0J237500D01*
G01*
X143771600Y-68046800D01*
G75*
G02*
X144009100Y-67809300I237500J0D01*
G01*
X144484100Y-67809300D01*
G75*
G02*
X144721600Y-68046800I0J-237500D01*
G01*
X144721600Y-68546800D01*
G75*
G02*
X144484100Y-68784300I-237500J0D01*
G01*
G37*
%TD*%
%TO.C,R2*%
G36*
G01*
X89793900Y-86960700D02*
X89793900Y-87435700D01*
G75*
G02*
X89556400Y-87673200I-237500J0D01*
G01*
X89056400Y-87673200D01*
G75*
G02*
X88818900Y-87435700I0J237500D01*
G01*
X88818900Y-86960700D01*
G75*
G02*
X89056400Y-86723200I237500J0D01*
G01*
X89556400Y-86723200D01*
G75*
G02*
X89793900Y-86960700I0J-237500D01*
G01*
G37*
G36*
G01*
X91618900Y-86960700D02*
X91618900Y-87435700D01*
G75*
G02*
X91381400Y-87673200I-237500J0D01*
G01*
X90881400Y-87673200D01*
G75*
G02*
X90643900Y-87435700I0J237500D01*
G01*
X90643900Y-86960700D01*
G75*
G02*
X90881400Y-86723200I237500J0D01*
G01*
X91381400Y-86723200D01*
G75*
G02*
X91618900Y-86960700I0J-237500D01*
G01*
G37*
%TD*%
%TO.C,C20*%
G36*
G01*
X96587500Y-113937500D02*
X96587500Y-113462500D01*
G75*
G02*
X96825000Y-113225000I237500J0D01*
G01*
X97425000Y-113225000D01*
G75*
G02*
X97662500Y-113462500I0J-237500D01*
G01*
X97662500Y-113937500D01*
G75*
G02*
X97425000Y-114175000I-237500J0D01*
G01*
X96825000Y-114175000D01*
G75*
G02*
X96587500Y-113937500I0J237500D01*
G01*
G37*
G36*
G01*
X94862500Y-113937500D02*
X94862500Y-113462500D01*
G75*
G02*
X95100000Y-113225000I237500J0D01*
G01*
X95700000Y-113225000D01*
G75*
G02*
X95937500Y-113462500I0J-237500D01*
G01*
X95937500Y-113937500D01*
G75*
G02*
X95700000Y-114175000I-237500J0D01*
G01*
X95100000Y-114175000D01*
G75*
G02*
X94862500Y-113937500I0J237500D01*
G01*
G37*
%TD*%
%TO.C,C19*%
G36*
G01*
X123231900Y-90851700D02*
X123706900Y-90851700D01*
G75*
G02*
X123944400Y-91089200I0J-237500D01*
G01*
X123944400Y-91689200D01*
G75*
G02*
X123706900Y-91926700I-237500J0D01*
G01*
X123231900Y-91926700D01*
G75*
G02*
X122994400Y-91689200I0J237500D01*
G01*
X122994400Y-91089200D01*
G75*
G02*
X123231900Y-90851700I237500J0D01*
G01*
G37*
G36*
G01*
X123231900Y-89126700D02*
X123706900Y-89126700D01*
G75*
G02*
X123944400Y-89364200I0J-237500D01*
G01*
X123944400Y-89964200D01*
G75*
G02*
X123706900Y-90201700I-237500J0D01*
G01*
X123231900Y-90201700D01*
G75*
G02*
X122994400Y-89964200I0J237500D01*
G01*
X122994400Y-89364200D01*
G75*
G02*
X123231900Y-89126700I237500J0D01*
G01*
G37*
%TD*%
%TO.C,C18*%
G36*
G01*
X109668300Y-113790700D02*
X110143300Y-113790700D01*
G75*
G02*
X110380800Y-114028200I0J-237500D01*
G01*
X110380800Y-114628200D01*
G75*
G02*
X110143300Y-114865700I-237500J0D01*
G01*
X109668300Y-114865700D01*
G75*
G02*
X109430800Y-114628200I0J237500D01*
G01*
X109430800Y-114028200D01*
G75*
G02*
X109668300Y-113790700I237500J0D01*
G01*
G37*
G36*
G01*
X109668300Y-112065700D02*
X110143300Y-112065700D01*
G75*
G02*
X110380800Y-112303200I0J-237500D01*
G01*
X110380800Y-112903200D01*
G75*
G02*
X110143300Y-113140700I-237500J0D01*
G01*
X109668300Y-113140700D01*
G75*
G02*
X109430800Y-112903200I0J237500D01*
G01*
X109430800Y-112303200D01*
G75*
G02*
X109668300Y-112065700I237500J0D01*
G01*
G37*
%TD*%
%TO.C,C17*%
G36*
G01*
X111700300Y-113833700D02*
X112175300Y-113833700D01*
G75*
G02*
X112412800Y-114071200I0J-237500D01*
G01*
X112412800Y-114671200D01*
G75*
G02*
X112175300Y-114908700I-237500J0D01*
G01*
X111700300Y-114908700D01*
G75*
G02*
X111462800Y-114671200I0J237500D01*
G01*
X111462800Y-114071200D01*
G75*
G02*
X111700300Y-113833700I237500J0D01*
G01*
G37*
G36*
G01*
X111700300Y-112108700D02*
X112175300Y-112108700D01*
G75*
G02*
X112412800Y-112346200I0J-237500D01*
G01*
X112412800Y-112946200D01*
G75*
G02*
X112175300Y-113183700I-237500J0D01*
G01*
X111700300Y-113183700D01*
G75*
G02*
X111462800Y-112946200I0J237500D01*
G01*
X111462800Y-112346200D01*
G75*
G02*
X111700300Y-112108700I237500J0D01*
G01*
G37*
%TD*%
%TO.C,C16*%
G36*
G01*
X136737100Y-114153900D02*
X136262100Y-114153900D01*
G75*
G02*
X136024600Y-113916400I0J237500D01*
G01*
X136024600Y-113316400D01*
G75*
G02*
X136262100Y-113078900I237500J0D01*
G01*
X136737100Y-113078900D01*
G75*
G02*
X136974600Y-113316400I0J-237500D01*
G01*
X136974600Y-113916400D01*
G75*
G02*
X136737100Y-114153900I-237500J0D01*
G01*
G37*
G36*
G01*
X136737100Y-115878900D02*
X136262100Y-115878900D01*
G75*
G02*
X136024600Y-115641400I0J237500D01*
G01*
X136024600Y-115041400D01*
G75*
G02*
X136262100Y-114803900I237500J0D01*
G01*
X136737100Y-114803900D01*
G75*
G02*
X136974600Y-115041400I0J-237500D01*
G01*
X136974600Y-115641400D01*
G75*
G02*
X136737100Y-115878900I-237500J0D01*
G01*
G37*
%TD*%
%TO.C,C15*%
G36*
G01*
X121382500Y-104072700D02*
X121382500Y-103597700D01*
G75*
G02*
X121620000Y-103360200I237500J0D01*
G01*
X122220000Y-103360200D01*
G75*
G02*
X122457500Y-103597700I0J-237500D01*
G01*
X122457500Y-104072700D01*
G75*
G02*
X122220000Y-104310200I-237500J0D01*
G01*
X121620000Y-104310200D01*
G75*
G02*
X121382500Y-104072700I0J237500D01*
G01*
G37*
G36*
G01*
X119657500Y-104072700D02*
X119657500Y-103597700D01*
G75*
G02*
X119895000Y-103360200I237500J0D01*
G01*
X120495000Y-103360200D01*
G75*
G02*
X120732500Y-103597700I0J-237500D01*
G01*
X120732500Y-104072700D01*
G75*
G02*
X120495000Y-104310200I-237500J0D01*
G01*
X119895000Y-104310200D01*
G75*
G02*
X119657500Y-104072700I0J237500D01*
G01*
G37*
%TD*%
%TO.C,C14*%
G36*
G01*
X146422100Y-93925100D02*
X146897100Y-93925100D01*
G75*
G02*
X147134600Y-94162600I0J-237500D01*
G01*
X147134600Y-94762600D01*
G75*
G02*
X146897100Y-95000100I-237500J0D01*
G01*
X146422100Y-95000100D01*
G75*
G02*
X146184600Y-94762600I0J237500D01*
G01*
X146184600Y-94162600D01*
G75*
G02*
X146422100Y-93925100I237500J0D01*
G01*
G37*
G36*
G01*
X146422100Y-92200100D02*
X146897100Y-92200100D01*
G75*
G02*
X147134600Y-92437600I0J-237500D01*
G01*
X147134600Y-93037600D01*
G75*
G02*
X146897100Y-93275100I-237500J0D01*
G01*
X146422100Y-93275100D01*
G75*
G02*
X146184600Y-93037600I0J237500D01*
G01*
X146184600Y-92437600D01*
G75*
G02*
X146422100Y-92200100I237500J0D01*
G01*
G37*
%TD*%
%TO.C,C13*%
G36*
G01*
X128075700Y-90176300D02*
X127600700Y-90176300D01*
G75*
G02*
X127363200Y-89938800I0J237500D01*
G01*
X127363200Y-89338800D01*
G75*
G02*
X127600700Y-89101300I237500J0D01*
G01*
X128075700Y-89101300D01*
G75*
G02*
X128313200Y-89338800I0J-237500D01*
G01*
X128313200Y-89938800D01*
G75*
G02*
X128075700Y-90176300I-237500J0D01*
G01*
G37*
G36*
G01*
X128075700Y-91901300D02*
X127600700Y-91901300D01*
G75*
G02*
X127363200Y-91663800I0J237500D01*
G01*
X127363200Y-91063800D01*
G75*
G02*
X127600700Y-90826300I237500J0D01*
G01*
X128075700Y-90826300D01*
G75*
G02*
X128313200Y-91063800I0J-237500D01*
G01*
X128313200Y-91663800D01*
G75*
G02*
X128075700Y-91901300I-237500J0D01*
G01*
G37*
%TD*%
%TO.C,C12*%
G36*
G01*
X146008100Y-107955200D02*
X145533100Y-107955200D01*
G75*
G02*
X145295600Y-107717700I0J237500D01*
G01*
X145295600Y-107117700D01*
G75*
G02*
X145533100Y-106880200I237500J0D01*
G01*
X146008100Y-106880200D01*
G75*
G02*
X146245600Y-107117700I0J-237500D01*
G01*
X146245600Y-107717700D01*
G75*
G02*
X146008100Y-107955200I-237500J0D01*
G01*
G37*
G36*
G01*
X146008100Y-109680200D02*
X145533100Y-109680200D01*
G75*
G02*
X145295600Y-109442700I0J237500D01*
G01*
X145295600Y-108842700D01*
G75*
G02*
X145533100Y-108605200I237500J0D01*
G01*
X146008100Y-108605200D01*
G75*
G02*
X146245600Y-108842700I0J-237500D01*
G01*
X146245600Y-109442700D01*
G75*
G02*
X146008100Y-109680200I-237500J0D01*
G01*
G37*
%TD*%
%TO.C,C11*%
G36*
G01*
X148047700Y-87346500D02*
X148522700Y-87346500D01*
G75*
G02*
X148760200Y-87584000I0J-237500D01*
G01*
X148760200Y-88184000D01*
G75*
G02*
X148522700Y-88421500I-237500J0D01*
G01*
X148047700Y-88421500D01*
G75*
G02*
X147810200Y-88184000I0J237500D01*
G01*
X147810200Y-87584000D01*
G75*
G02*
X148047700Y-87346500I237500J0D01*
G01*
G37*
G36*
G01*
X148047700Y-85621500D02*
X148522700Y-85621500D01*
G75*
G02*
X148760200Y-85859000I0J-237500D01*
G01*
X148760200Y-86459000D01*
G75*
G02*
X148522700Y-86696500I-237500J0D01*
G01*
X148047700Y-86696500D01*
G75*
G02*
X147810200Y-86459000I0J237500D01*
G01*
X147810200Y-85859000D01*
G75*
G02*
X148047700Y-85621500I237500J0D01*
G01*
G37*
%TD*%
%TO.C,C10*%
G36*
G01*
X92363300Y-69041300D02*
X91888300Y-69041300D01*
G75*
G02*
X91650800Y-68803800I0J237500D01*
G01*
X91650800Y-68203800D01*
G75*
G02*
X91888300Y-67966300I237500J0D01*
G01*
X92363300Y-67966300D01*
G75*
G02*
X92600800Y-68203800I0J-237500D01*
G01*
X92600800Y-68803800D01*
G75*
G02*
X92363300Y-69041300I-237500J0D01*
G01*
G37*
G36*
G01*
X92363300Y-70766300D02*
X91888300Y-70766300D01*
G75*
G02*
X91650800Y-70528800I0J237500D01*
G01*
X91650800Y-69928800D01*
G75*
G02*
X91888300Y-69691300I237500J0D01*
G01*
X92363300Y-69691300D01*
G75*
G02*
X92600800Y-69928800I0J-237500D01*
G01*
X92600800Y-70528800D01*
G75*
G02*
X92363300Y-70766300I-237500J0D01*
G01*
G37*
%TD*%
%TO.C,C8*%
G36*
G01*
X153237500Y-75212500D02*
X152762500Y-75212500D01*
G75*
G02*
X152525000Y-74975000I0J237500D01*
G01*
X152525000Y-74375000D01*
G75*
G02*
X152762500Y-74137500I237500J0D01*
G01*
X153237500Y-74137500D01*
G75*
G02*
X153475000Y-74375000I0J-237500D01*
G01*
X153475000Y-74975000D01*
G75*
G02*
X153237500Y-75212500I-237500J0D01*
G01*
G37*
G36*
G01*
X153237500Y-76937500D02*
X152762500Y-76937500D01*
G75*
G02*
X152525000Y-76700000I0J237500D01*
G01*
X152525000Y-76100000D01*
G75*
G02*
X152762500Y-75862500I237500J0D01*
G01*
X153237500Y-75862500D01*
G75*
G02*
X153475000Y-76100000I0J-237500D01*
G01*
X153475000Y-76700000D01*
G75*
G02*
X153237500Y-76937500I-237500J0D01*
G01*
G37*
%TD*%
%TO.C,C7*%
G36*
G01*
X95037900Y-102482700D02*
X95512900Y-102482700D01*
G75*
G02*
X95750400Y-102720200I0J-237500D01*
G01*
X95750400Y-103320200D01*
G75*
G02*
X95512900Y-103557700I-237500J0D01*
G01*
X95037900Y-103557700D01*
G75*
G02*
X94800400Y-103320200I0J237500D01*
G01*
X94800400Y-102720200D01*
G75*
G02*
X95037900Y-102482700I237500J0D01*
G01*
G37*
G36*
G01*
X95037900Y-100757700D02*
X95512900Y-100757700D01*
G75*
G02*
X95750400Y-100995200I0J-237500D01*
G01*
X95750400Y-101595200D01*
G75*
G02*
X95512900Y-101832700I-237500J0D01*
G01*
X95037900Y-101832700D01*
G75*
G02*
X94800400Y-101595200I0J237500D01*
G01*
X94800400Y-100995200D01*
G75*
G02*
X95037900Y-100757700I237500J0D01*
G01*
G37*
%TD*%
%TO.C,C6*%
G36*
G01*
X176637500Y-62212500D02*
X176162500Y-62212500D01*
G75*
G02*
X175925000Y-61975000I0J237500D01*
G01*
X175925000Y-61375000D01*
G75*
G02*
X176162500Y-61137500I237500J0D01*
G01*
X176637500Y-61137500D01*
G75*
G02*
X176875000Y-61375000I0J-237500D01*
G01*
X176875000Y-61975000D01*
G75*
G02*
X176637500Y-62212500I-237500J0D01*
G01*
G37*
G36*
G01*
X176637500Y-63937500D02*
X176162500Y-63937500D01*
G75*
G02*
X175925000Y-63700000I0J237500D01*
G01*
X175925000Y-63100000D01*
G75*
G02*
X176162500Y-62862500I237500J0D01*
G01*
X176637500Y-62862500D01*
G75*
G02*
X176875000Y-63100000I0J-237500D01*
G01*
X176875000Y-63700000D01*
G75*
G02*
X176637500Y-63937500I-237500J0D01*
G01*
G37*
%TD*%
%TO.C,C5*%
G36*
G01*
X177862500Y-117637500D02*
X177862500Y-117162500D01*
G75*
G02*
X178100000Y-116925000I237500J0D01*
G01*
X178700000Y-116925000D01*
G75*
G02*
X178937500Y-117162500I0J-237500D01*
G01*
X178937500Y-117637500D01*
G75*
G02*
X178700000Y-117875000I-237500J0D01*
G01*
X178100000Y-117875000D01*
G75*
G02*
X177862500Y-117637500I0J237500D01*
G01*
G37*
G36*
G01*
X176137500Y-117637500D02*
X176137500Y-117162500D01*
G75*
G02*
X176375000Y-116925000I237500J0D01*
G01*
X176975000Y-116925000D01*
G75*
G02*
X177212500Y-117162500I0J-237500D01*
G01*
X177212500Y-117637500D01*
G75*
G02*
X176975000Y-117875000I-237500J0D01*
G01*
X176375000Y-117875000D01*
G75*
G02*
X176137500Y-117637500I0J237500D01*
G01*
G37*
%TD*%
%TO.C,C4*%
G36*
G01*
X93861900Y-75290800D02*
X93386900Y-75290800D01*
G75*
G02*
X93149400Y-75053300I0J237500D01*
G01*
X93149400Y-74453300D01*
G75*
G02*
X93386900Y-74215800I237500J0D01*
G01*
X93861900Y-74215800D01*
G75*
G02*
X94099400Y-74453300I0J-237500D01*
G01*
X94099400Y-75053300D01*
G75*
G02*
X93861900Y-75290800I-237500J0D01*
G01*
G37*
G36*
G01*
X93861900Y-77015800D02*
X93386900Y-77015800D01*
G75*
G02*
X93149400Y-76778300I0J237500D01*
G01*
X93149400Y-76178300D01*
G75*
G02*
X93386900Y-75940800I237500J0D01*
G01*
X93861900Y-75940800D01*
G75*
G02*
X94099400Y-76178300I0J-237500D01*
G01*
X94099400Y-76778300D01*
G75*
G02*
X93861900Y-77015800I-237500J0D01*
G01*
G37*
%TD*%
%TO.C,C3*%
G36*
G01*
X97544900Y-75264300D02*
X97069900Y-75264300D01*
G75*
G02*
X96832400Y-75026800I0J237500D01*
G01*
X96832400Y-74426800D01*
G75*
G02*
X97069900Y-74189300I237500J0D01*
G01*
X97544900Y-74189300D01*
G75*
G02*
X97782400Y-74426800I0J-237500D01*
G01*
X97782400Y-75026800D01*
G75*
G02*
X97544900Y-75264300I-237500J0D01*
G01*
G37*
G36*
G01*
X97544900Y-76989300D02*
X97069900Y-76989300D01*
G75*
G02*
X96832400Y-76751800I0J237500D01*
G01*
X96832400Y-76151800D01*
G75*
G02*
X97069900Y-75914300I237500J0D01*
G01*
X97544900Y-75914300D01*
G75*
G02*
X97782400Y-76151800I0J-237500D01*
G01*
X97782400Y-76751800D01*
G75*
G02*
X97544900Y-76989300I-237500J0D01*
G01*
G37*
%TD*%
%TO.C,C2*%
G36*
G01*
X157362500Y-103662500D02*
X157837500Y-103662500D01*
G75*
G02*
X158075000Y-103900000I0J-237500D01*
G01*
X158075000Y-104500000D01*
G75*
G02*
X157837500Y-104737500I-237500J0D01*
G01*
X157362500Y-104737500D01*
G75*
G02*
X157125000Y-104500000I0J237500D01*
G01*
X157125000Y-103900000D01*
G75*
G02*
X157362500Y-103662500I237500J0D01*
G01*
G37*
G36*
G01*
X157362500Y-101937500D02*
X157837500Y-101937500D01*
G75*
G02*
X158075000Y-102175000I0J-237500D01*
G01*
X158075000Y-102775000D01*
G75*
G02*
X157837500Y-103012500I-237500J0D01*
G01*
X157362500Y-103012500D01*
G75*
G02*
X157125000Y-102775000I0J237500D01*
G01*
X157125000Y-102175000D01*
G75*
G02*
X157362500Y-101937500I237500J0D01*
G01*
G37*
%TD*%
D15*
%TO.C,BT1*%
X138023600Y-120878600D03*
D16*
X146913600Y-120878600D03*
%TD*%
D17*
%TO.C,D1*%
X122700000Y-120603600D03*
X122700000Y-117200000D03*
%TD*%
D18*
%TO.C,D2*%
X135407400Y-107950000D03*
D19*
X127787400Y-107950000D03*
%TD*%
D11*
%TO.C,J1*%
X86817200Y-82651600D03*
D12*
X89357200Y-82651600D03*
%TD*%
D20*
%TO.C,J7*%
X91060401Y-102412800D03*
X89560399Y-102412800D03*
%TD*%
%TO.C,J8*%
X177600000Y-108899999D03*
X177600000Y-110400001D03*
%TD*%
%TO.C,J10*%
X169099999Y-62400000D03*
X170600001Y-62400000D03*
%TD*%
%TO.C,J11*%
X159000000Y-74099999D03*
X159000000Y-75600001D03*
%TD*%
%TO.C,J12*%
X155000000Y-110999999D03*
X155000000Y-112500001D03*
%TD*%
D11*
%TO.C,J13*%
X131495800Y-64363600D03*
X131495800Y-66903600D03*
D12*
X131495800Y-69443600D03*
%TD*%
D11*
%TO.C,J14*%
X139623800Y-62992000D03*
X139623800Y-65532000D03*
X139623800Y-68072000D03*
D12*
X139623800Y-70612000D03*
%TD*%
D11*
%TO.C,J15*%
X148259800Y-77368400D03*
D12*
X148259800Y-79908400D03*
%TD*%
D11*
%TO.C,J16*%
X148386800Y-69037200D03*
X148386800Y-66497200D03*
D12*
X148386800Y-63957200D03*
%TD*%
D21*
%TO.C,J17*%
X113888400Y-120954800D03*
D22*
X111388400Y-120954800D03*
X109388400Y-120954800D03*
D21*
X106888400Y-120954800D03*
D23*
X112888400Y-118254800D03*
X107888400Y-118254800D03*
D24*
X111688400Y-118254800D03*
X111038400Y-118254800D03*
X110388400Y-118254800D03*
X109738400Y-118254800D03*
X109088400Y-118254800D03*
%TD*%
D25*
%TO.C,Q1*%
X139411200Y-108229400D03*
X141411200Y-107279400D03*
X141411200Y-109179400D03*
%TD*%
D26*
%TO.C,Q2*%
X140487400Y-98568000D03*
X141437400Y-100568000D03*
X139537400Y-100568000D03*
%TD*%
D25*
%TO.C,Q3*%
X133594600Y-99568000D03*
X135594600Y-98618000D03*
X135594600Y-100518000D03*
%TD*%
%TO.C,Q4*%
X107832400Y-100126800D03*
X105832400Y-101076800D03*
X105832400Y-99176800D03*
%TD*%
%TO.C,Q5*%
X101006400Y-112572800D03*
X103006400Y-111622800D03*
X103006400Y-113522800D03*
%TD*%
D27*
%TO.C,RV1*%
X161362400Y-64338200D03*
X158862400Y-61838200D03*
X156362400Y-64338200D03*
%TD*%
D28*
%TO.C,SW1*%
X130900000Y-116060000D03*
X130900000Y-121140000D03*
%TD*%
%TO.C,SW2*%
X100700000Y-116060000D03*
X100700000Y-121140000D03*
%TD*%
D18*
%TO.C,U1*%
X169304800Y-82369000D03*
X161684800Y-115389000D03*
X169304800Y-84909000D03*
X161684800Y-112849000D03*
X169304800Y-87449000D03*
X161684800Y-110309000D03*
X169304800Y-89989000D03*
X161684800Y-107769000D03*
X169304800Y-92529000D03*
X161684800Y-105229000D03*
X169304800Y-95069000D03*
X161684800Y-102689000D03*
X169304800Y-97609000D03*
X161684800Y-100149000D03*
X169304800Y-100149000D03*
X161684800Y-97609000D03*
X169304800Y-102689000D03*
X161684800Y-95069000D03*
X169304800Y-105229000D03*
X161684800Y-92529000D03*
X169304800Y-107769000D03*
X161684800Y-89989000D03*
X169304800Y-110309000D03*
X161684800Y-87449000D03*
X169304800Y-112849000D03*
X161684800Y-84909000D03*
X169304800Y-115389000D03*
D19*
X161684800Y-82369000D03*
%TD*%
D29*
%TO.C,U2*%
X118888400Y-73329800D03*
X118888400Y-74599800D03*
X118888400Y-75869800D03*
X118888400Y-77139800D03*
X118888400Y-78409800D03*
X118888400Y-79679800D03*
X118888400Y-80949800D03*
X118888400Y-82219800D03*
X118888400Y-83489800D03*
X118888400Y-84759800D03*
X118888400Y-86029800D03*
X118888400Y-87299800D03*
X118888400Y-88569800D03*
X118888400Y-89839800D03*
D30*
X116103400Y-90839800D03*
X114833400Y-90839800D03*
X113563400Y-90839800D03*
X112293400Y-90839800D03*
X111023400Y-90839800D03*
X109753400Y-90839800D03*
X108483400Y-90839800D03*
X107213400Y-90839800D03*
X105943400Y-90839800D03*
X104673400Y-90839800D03*
D29*
X101888400Y-89839800D03*
X101888400Y-88569800D03*
X101888400Y-87299800D03*
X101888400Y-86029800D03*
X101888400Y-84759800D03*
X101888400Y-83489800D03*
X101888400Y-82219800D03*
X101888400Y-80949800D03*
X101888400Y-79679800D03*
X101888400Y-78409800D03*
X101888400Y-77139800D03*
X101888400Y-75869800D03*
X101888400Y-74599800D03*
X101888400Y-73329800D03*
D31*
X109388400Y-80829800D03*
%TD*%
D32*
%TO.C,U4*%
X145672800Y-113019800D03*
X145672800Y-114919800D03*
X142972800Y-114919800D03*
X142972800Y-113969800D03*
X142972800Y-113019800D03*
%TD*%
D33*
%TO.C,U5*%
X138404600Y-83788600D03*
D34*
X140944600Y-92938600D03*
X138404600Y-92938600D03*
X135864600Y-92938600D03*
%TD*%
D35*
%TO.C,U6*%
X119862600Y-99707700D03*
X119862600Y-97802700D03*
X122453400Y-97815400D03*
X122453400Y-98755200D03*
X122453400Y-99695000D03*
%TD*%
D36*
%TO.C,U7*%
X110896400Y-106984800D03*
G36*
G01*
X108783900Y-108609800D02*
X108108900Y-108609800D01*
G75*
G02*
X108046400Y-108547300I0J62500D01*
G01*
X108046400Y-108422300D01*
G75*
G02*
X108108900Y-108359800I62500J0D01*
G01*
X108783900Y-108359800D01*
G75*
G02*
X108846400Y-108422300I0J-62500D01*
G01*
X108846400Y-108547300D01*
G75*
G02*
X108783900Y-108609800I-62500J0D01*
G01*
G37*
G36*
G01*
X108783900Y-108109800D02*
X108108900Y-108109800D01*
G75*
G02*
X108046400Y-108047300I0J62500D01*
G01*
X108046400Y-107922300D01*
G75*
G02*
X108108900Y-107859800I62500J0D01*
G01*
X108783900Y-107859800D01*
G75*
G02*
X108846400Y-107922300I0J-62500D01*
G01*
X108846400Y-108047300D01*
G75*
G02*
X108783900Y-108109800I-62500J0D01*
G01*
G37*
G36*
G01*
X108783900Y-107609800D02*
X108108900Y-107609800D01*
G75*
G02*
X108046400Y-107547300I0J62500D01*
G01*
X108046400Y-107422300D01*
G75*
G02*
X108108900Y-107359800I62500J0D01*
G01*
X108783900Y-107359800D01*
G75*
G02*
X108846400Y-107422300I0J-62500D01*
G01*
X108846400Y-107547300D01*
G75*
G02*
X108783900Y-107609800I-62500J0D01*
G01*
G37*
G36*
G01*
X108783900Y-107109800D02*
X108108900Y-107109800D01*
G75*
G02*
X108046400Y-107047300I0J62500D01*
G01*
X108046400Y-106922300D01*
G75*
G02*
X108108900Y-106859800I62500J0D01*
G01*
X108783900Y-106859800D01*
G75*
G02*
X108846400Y-106922300I0J-62500D01*
G01*
X108846400Y-107047300D01*
G75*
G02*
X108783900Y-107109800I-62500J0D01*
G01*
G37*
G36*
G01*
X108783900Y-106609800D02*
X108108900Y-106609800D01*
G75*
G02*
X108046400Y-106547300I0J62500D01*
G01*
X108046400Y-106422300D01*
G75*
G02*
X108108900Y-106359800I62500J0D01*
G01*
X108783900Y-106359800D01*
G75*
G02*
X108846400Y-106422300I0J-62500D01*
G01*
X108846400Y-106547300D01*
G75*
G02*
X108783900Y-106609800I-62500J0D01*
G01*
G37*
G36*
G01*
X108783900Y-106109800D02*
X108108900Y-106109800D01*
G75*
G02*
X108046400Y-106047300I0J62500D01*
G01*
X108046400Y-105922300D01*
G75*
G02*
X108108900Y-105859800I62500J0D01*
G01*
X108783900Y-105859800D01*
G75*
G02*
X108846400Y-105922300I0J-62500D01*
G01*
X108846400Y-106047300D01*
G75*
G02*
X108783900Y-106109800I-62500J0D01*
G01*
G37*
G36*
G01*
X108783900Y-105609800D02*
X108108900Y-105609800D01*
G75*
G02*
X108046400Y-105547300I0J62500D01*
G01*
X108046400Y-105422300D01*
G75*
G02*
X108108900Y-105359800I62500J0D01*
G01*
X108783900Y-105359800D01*
G75*
G02*
X108846400Y-105422300I0J-62500D01*
G01*
X108846400Y-105547300D01*
G75*
G02*
X108783900Y-105609800I-62500J0D01*
G01*
G37*
G36*
G01*
X109458900Y-104934800D02*
X109333900Y-104934800D01*
G75*
G02*
X109271400Y-104872300I0J62500D01*
G01*
X109271400Y-104197300D01*
G75*
G02*
X109333900Y-104134800I62500J0D01*
G01*
X109458900Y-104134800D01*
G75*
G02*
X109521400Y-104197300I0J-62500D01*
G01*
X109521400Y-104872300D01*
G75*
G02*
X109458900Y-104934800I-62500J0D01*
G01*
G37*
G36*
G01*
X109958900Y-104934800D02*
X109833900Y-104934800D01*
G75*
G02*
X109771400Y-104872300I0J62500D01*
G01*
X109771400Y-104197300D01*
G75*
G02*
X109833900Y-104134800I62500J0D01*
G01*
X109958900Y-104134800D01*
G75*
G02*
X110021400Y-104197300I0J-62500D01*
G01*
X110021400Y-104872300D01*
G75*
G02*
X109958900Y-104934800I-62500J0D01*
G01*
G37*
G36*
G01*
X110458900Y-104934800D02*
X110333900Y-104934800D01*
G75*
G02*
X110271400Y-104872300I0J62500D01*
G01*
X110271400Y-104197300D01*
G75*
G02*
X110333900Y-104134800I62500J0D01*
G01*
X110458900Y-104134800D01*
G75*
G02*
X110521400Y-104197300I0J-62500D01*
G01*
X110521400Y-104872300D01*
G75*
G02*
X110458900Y-104934800I-62500J0D01*
G01*
G37*
G36*
G01*
X110958900Y-104934800D02*
X110833900Y-104934800D01*
G75*
G02*
X110771400Y-104872300I0J62500D01*
G01*
X110771400Y-104197300D01*
G75*
G02*
X110833900Y-104134800I62500J0D01*
G01*
X110958900Y-104134800D01*
G75*
G02*
X111021400Y-104197300I0J-62500D01*
G01*
X111021400Y-104872300D01*
G75*
G02*
X110958900Y-104934800I-62500J0D01*
G01*
G37*
G36*
G01*
X111458900Y-104934800D02*
X111333900Y-104934800D01*
G75*
G02*
X111271400Y-104872300I0J62500D01*
G01*
X111271400Y-104197300D01*
G75*
G02*
X111333900Y-104134800I62500J0D01*
G01*
X111458900Y-104134800D01*
G75*
G02*
X111521400Y-104197300I0J-62500D01*
G01*
X111521400Y-104872300D01*
G75*
G02*
X111458900Y-104934800I-62500J0D01*
G01*
G37*
G36*
G01*
X111958900Y-104934800D02*
X111833900Y-104934800D01*
G75*
G02*
X111771400Y-104872300I0J62500D01*
G01*
X111771400Y-104197300D01*
G75*
G02*
X111833900Y-104134800I62500J0D01*
G01*
X111958900Y-104134800D01*
G75*
G02*
X112021400Y-104197300I0J-62500D01*
G01*
X112021400Y-104872300D01*
G75*
G02*
X111958900Y-104934800I-62500J0D01*
G01*
G37*
G36*
G01*
X112458900Y-104934800D02*
X112333900Y-104934800D01*
G75*
G02*
X112271400Y-104872300I0J62500D01*
G01*
X112271400Y-104197300D01*
G75*
G02*
X112333900Y-104134800I62500J0D01*
G01*
X112458900Y-104134800D01*
G75*
G02*
X112521400Y-104197300I0J-62500D01*
G01*
X112521400Y-104872300D01*
G75*
G02*
X112458900Y-104934800I-62500J0D01*
G01*
G37*
G36*
G01*
X113683900Y-105609800D02*
X113008900Y-105609800D01*
G75*
G02*
X112946400Y-105547300I0J62500D01*
G01*
X112946400Y-105422300D01*
G75*
G02*
X113008900Y-105359800I62500J0D01*
G01*
X113683900Y-105359800D01*
G75*
G02*
X113746400Y-105422300I0J-62500D01*
G01*
X113746400Y-105547300D01*
G75*
G02*
X113683900Y-105609800I-62500J0D01*
G01*
G37*
G36*
G01*
X113683900Y-106109800D02*
X113008900Y-106109800D01*
G75*
G02*
X112946400Y-106047300I0J62500D01*
G01*
X112946400Y-105922300D01*
G75*
G02*
X113008900Y-105859800I62500J0D01*
G01*
X113683900Y-105859800D01*
G75*
G02*
X113746400Y-105922300I0J-62500D01*
G01*
X113746400Y-106047300D01*
G75*
G02*
X113683900Y-106109800I-62500J0D01*
G01*
G37*
G36*
G01*
X113683900Y-106609800D02*
X113008900Y-106609800D01*
G75*
G02*
X112946400Y-106547300I0J62500D01*
G01*
X112946400Y-106422300D01*
G75*
G02*
X113008900Y-106359800I62500J0D01*
G01*
X113683900Y-106359800D01*
G75*
G02*
X113746400Y-106422300I0J-62500D01*
G01*
X113746400Y-106547300D01*
G75*
G02*
X113683900Y-106609800I-62500J0D01*
G01*
G37*
G36*
G01*
X113683900Y-107109800D02*
X113008900Y-107109800D01*
G75*
G02*
X112946400Y-107047300I0J62500D01*
G01*
X112946400Y-106922300D01*
G75*
G02*
X113008900Y-106859800I62500J0D01*
G01*
X113683900Y-106859800D01*
G75*
G02*
X113746400Y-106922300I0J-62500D01*
G01*
X113746400Y-107047300D01*
G75*
G02*
X113683900Y-107109800I-62500J0D01*
G01*
G37*
G36*
G01*
X113683900Y-107609800D02*
X113008900Y-107609800D01*
G75*
G02*
X112946400Y-107547300I0J62500D01*
G01*
X112946400Y-107422300D01*
G75*
G02*
X113008900Y-107359800I62500J0D01*
G01*
X113683900Y-107359800D01*
G75*
G02*
X113746400Y-107422300I0J-62500D01*
G01*
X113746400Y-107547300D01*
G75*
G02*
X113683900Y-107609800I-62500J0D01*
G01*
G37*
G36*
G01*
X113683900Y-108109800D02*
X113008900Y-108109800D01*
G75*
G02*
X112946400Y-108047300I0J62500D01*
G01*
X112946400Y-107922300D01*
G75*
G02*
X113008900Y-107859800I62500J0D01*
G01*
X113683900Y-107859800D01*
G75*
G02*
X113746400Y-107922300I0J-62500D01*
G01*
X113746400Y-108047300D01*
G75*
G02*
X113683900Y-108109800I-62500J0D01*
G01*
G37*
G36*
G01*
X113683900Y-108609800D02*
X113008900Y-108609800D01*
G75*
G02*
X112946400Y-108547300I0J62500D01*
G01*
X112946400Y-108422300D01*
G75*
G02*
X113008900Y-108359800I62500J0D01*
G01*
X113683900Y-108359800D01*
G75*
G02*
X113746400Y-108422300I0J-62500D01*
G01*
X113746400Y-108547300D01*
G75*
G02*
X113683900Y-108609800I-62500J0D01*
G01*
G37*
G36*
G01*
X112458900Y-109834800D02*
X112333900Y-109834800D01*
G75*
G02*
X112271400Y-109772300I0J62500D01*
G01*
X112271400Y-109097300D01*
G75*
G02*
X112333900Y-109034800I62500J0D01*
G01*
X112458900Y-109034800D01*
G75*
G02*
X112521400Y-109097300I0J-62500D01*
G01*
X112521400Y-109772300D01*
G75*
G02*
X112458900Y-109834800I-62500J0D01*
G01*
G37*
G36*
G01*
X111958900Y-109834800D02*
X111833900Y-109834800D01*
G75*
G02*
X111771400Y-109772300I0J62500D01*
G01*
X111771400Y-109097300D01*
G75*
G02*
X111833900Y-109034800I62500J0D01*
G01*
X111958900Y-109034800D01*
G75*
G02*
X112021400Y-109097300I0J-62500D01*
G01*
X112021400Y-109772300D01*
G75*
G02*
X111958900Y-109834800I-62500J0D01*
G01*
G37*
G36*
G01*
X111458900Y-109834800D02*
X111333900Y-109834800D01*
G75*
G02*
X111271400Y-109772300I0J62500D01*
G01*
X111271400Y-109097300D01*
G75*
G02*
X111333900Y-109034800I62500J0D01*
G01*
X111458900Y-109034800D01*
G75*
G02*
X111521400Y-109097300I0J-62500D01*
G01*
X111521400Y-109772300D01*
G75*
G02*
X111458900Y-109834800I-62500J0D01*
G01*
G37*
G36*
G01*
X110958900Y-109834800D02*
X110833900Y-109834800D01*
G75*
G02*
X110771400Y-109772300I0J62500D01*
G01*
X110771400Y-109097300D01*
G75*
G02*
X110833900Y-109034800I62500J0D01*
G01*
X110958900Y-109034800D01*
G75*
G02*
X111021400Y-109097300I0J-62500D01*
G01*
X111021400Y-109772300D01*
G75*
G02*
X110958900Y-109834800I-62500J0D01*
G01*
G37*
G36*
G01*
X110458900Y-109834800D02*
X110333900Y-109834800D01*
G75*
G02*
X110271400Y-109772300I0J62500D01*
G01*
X110271400Y-109097300D01*
G75*
G02*
X110333900Y-109034800I62500J0D01*
G01*
X110458900Y-109034800D01*
G75*
G02*
X110521400Y-109097300I0J-62500D01*
G01*
X110521400Y-109772300D01*
G75*
G02*
X110458900Y-109834800I-62500J0D01*
G01*
G37*
G36*
G01*
X109958900Y-109834800D02*
X109833900Y-109834800D01*
G75*
G02*
X109771400Y-109772300I0J62500D01*
G01*
X109771400Y-109097300D01*
G75*
G02*
X109833900Y-109034800I62500J0D01*
G01*
X109958900Y-109034800D01*
G75*
G02*
X110021400Y-109097300I0J-62500D01*
G01*
X110021400Y-109772300D01*
G75*
G02*
X109958900Y-109834800I-62500J0D01*
G01*
G37*
G36*
G01*
X109458900Y-109834800D02*
X109333900Y-109834800D01*
G75*
G02*
X109271400Y-109772300I0J62500D01*
G01*
X109271400Y-109097300D01*
G75*
G02*
X109333900Y-109034800I62500J0D01*
G01*
X109458900Y-109034800D01*
G75*
G02*
X109521400Y-109097300I0J-62500D01*
G01*
X109521400Y-109772300D01*
G75*
G02*
X109458900Y-109834800I-62500J0D01*
G01*
G37*
%TD*%
D11*
%TO.C,J18*%
X87223600Y-75387200D03*
X87223600Y-72847200D03*
X87223600Y-70307200D03*
D12*
X87223600Y-67767200D03*
%TD*%
M02*
